%TF.GenerationSoftware,KiCad,Pcbnew,9.0.3+dfsg-1*%
%TF.CreationDate,2026-06-30T18:09:50-07:00*%
%TF.ProjectId,index.circuit,696e6465-782e-4636-9972-637569742e6b,rev?*%
%TF.SameCoordinates,Original*%
%TF.FileFunction,Other,User*%
%FSLAX46Y46*%
G04 Gerber Fmt 4.6, Leading zero omitted, Abs format (unit mm)*
G04 Created by KiCad (PCBNEW 9.0.3+dfsg-1) date 2026-06-30 18:09:50*
%MOMM*%
%LPD*%
G01*
G04 APERTURE LIST*
%ADD10C,0.050000*%
G04 APERTURE END LIST*
%TO.C,C13*%
D10*
X63070000Y-124530000D02*
X64930000Y-124530000D01*
X64930000Y-125470000D01*
X63070000Y-125470000D01*
X63070000Y-124530000D01*
%TO.C,C12*%
X63070000Y-118530000D02*
X64930000Y-118530000D01*
X64930000Y-119470000D01*
X63070000Y-119470000D01*
X63070000Y-118530000D01*
%TO.C,C15*%
X87070000Y-125530000D02*
X88930000Y-125530000D01*
X88930000Y-126470000D01*
X87070000Y-126470000D01*
X87070000Y-125530000D01*
%TO.C,R_CC1*%
X97820000Y-128530000D02*
X99680000Y-128530000D01*
X99680000Y-129470000D01*
X97820000Y-129470000D01*
X97820000Y-128530000D01*
%TO.C,C1*%
X69070000Y-114530000D02*
X70930000Y-114530000D01*
X70930000Y-115470000D01*
X69070000Y-115470000D01*
X69070000Y-114530000D01*
%TO.C,C11*%
X80820000Y-128050000D02*
X84180000Y-128050000D01*
X84180000Y-129950000D01*
X80820000Y-129950000D01*
X80820000Y-128050000D01*
%TO.C,R_CC2*%
X100820000Y-128530000D02*
X102680000Y-128530000D01*
X102680000Y-129470000D01*
X100820000Y-129470000D01*
X100820000Y-128530000D01*
%TO.C,R_RUN*%
X66070000Y-117530000D02*
X67930000Y-117530000D01*
X67930000Y-118470000D01*
X66070000Y-118470000D01*
X66070000Y-117530000D01*
%TO.C,C14*%
X66070000Y-125530000D02*
X67930000Y-125530000D01*
X67930000Y-126470000D01*
X66070000Y-126470000D01*
X66070000Y-125530000D01*
%TO.C,C2*%
X72070000Y-114530000D02*
X73930000Y-114530000D01*
X73930000Y-115470000D01*
X72070000Y-115470000D01*
X72070000Y-114530000D01*
%TO.C,C6*%
X69070000Y-128530000D02*
X70930000Y-128530000D01*
X70930000Y-129470000D01*
X69070000Y-129470000D01*
X69070000Y-128530000D01*
%TO.C,C10*%
X78070000Y-128530000D02*
X79930000Y-128530000D01*
X79930000Y-129470000D01*
X78070000Y-129470000D01*
X78070000Y-128530000D01*
%TO.C,C5*%
X81070000Y-114530000D02*
X82930000Y-114530000D01*
X82930000Y-115470000D01*
X81070000Y-115470000D01*
X81070000Y-114530000D01*
%TO.C,C3*%
X75070000Y-114530000D02*
X76930000Y-114530000D01*
X76930000Y-115470000D01*
X75070000Y-115470000D01*
X75070000Y-114530000D01*
%TO.C,R_BOOT*%
X84070000Y-125530000D02*
X85930000Y-125530000D01*
X85930000Y-126470000D01*
X84070000Y-126470000D01*
X84070000Y-125530000D01*
%TO.C,C7*%
X72070000Y-128530000D02*
X73930000Y-128530000D01*
X73930000Y-129470000D01*
X72070000Y-129470000D01*
X72070000Y-128530000D01*
%TO.C,C9*%
X75070000Y-128530000D02*
X76930000Y-128530000D01*
X76930000Y-129470000D01*
X75070000Y-129470000D01*
X75070000Y-128530000D01*
%TO.C,C4*%
X78070000Y-114530000D02*
X79930000Y-114530000D01*
X79930000Y-115470000D01*
X78070000Y-115470000D01*
X78070000Y-114530000D01*
%TD*%
M02*
