%TF.GenerationSoftware,KiCad,Pcbnew,9.0.3+dfsg-1*%
%TF.CreationDate,2026-06-30T18:44:11-07:00*%
%TF.ProjectId,index.circuit,696e6465-782e-4636-9972-637569742e6b,rev?*%
%TF.SameCoordinates,Original*%
%TF.FileFunction,Paste,Top*%
%TF.FilePolarity,Positive*%
%FSLAX46Y46*%
G04 Gerber Fmt 4.6, Leading zero omitted, Abs format (unit mm)*
G04 Created by KiCad (PCBNEW 9.0.3+dfsg-1) date 2026-06-30 18:44:11*
%MOMM*%
%LPD*%
G01*
G04 APERTURE LIST*
G04 Aperture macros list*
%AMRoundRect*
0 Rectangle with rounded corners*
0 $1 Rounding radius*
0 $2 $3 $4 $5 $6 $7 $8 $9 X,Y pos of 4 corners*
0 Add a 4 corners polygon primitive as box body*
4,1,4,$2,$3,$4,$5,$6,$7,$8,$9,$2,$3,0*
0 Add four circle primitives for the rounded corners*
1,1,$1+$1,$2,$3*
1,1,$1+$1,$4,$5*
1,1,$1+$1,$6,$7*
1,1,$1+$1,$8,$9*
0 Add four rect primitives between the rounded corners*
20,1,$1+$1,$2,$3,$4,$5,0*
20,1,$1+$1,$4,$5,$6,$7,0*
20,1,$1+$1,$6,$7,$8,$9,0*
20,1,$1+$1,$8,$9,$2,$3,0*%
%AMFreePoly0*
4,1,9,0.299987,-0.649935,0.000013,-0.649935,0.000013,-0.650088,-0.299987,-0.650088,-0.299987,0.649935,-0.000013,0.649935,-0.000013,0.650088,0.299987,0.650088,0.299987,-0.649935,0.299987,-0.649935,$1*%
%AMFreePoly1*
4,1,5,0.300012,-0.649986,-0.300012,-0.649986,-0.300012,0.649986,0.300012,0.649986,0.300012,-0.649986,0.300012,-0.649986,$1*%
%AMFreePoly2*
4,1,9,0.299987,-0.649973,0.000038,-0.649973,0.000038,-0.649999,-0.299987,-0.649999,-0.299987,0.649973,-0.000038,0.649973,-0.000038,0.649999,0.299987,0.649999,0.299987,-0.649973,0.299987,-0.649973,$1*%
G04 Aperture macros list end*
%ADD10R,1.025000X1.400000*%
%ADD11R,0.622300X1.104900*%
%ADD12R,1.499997X0.999998*%
%ADD13R,0.299999X1.299997*%
%ADD14FreePoly0,0.000000*%
%ADD15FreePoly1,0.000000*%
%ADD16FreePoly2,0.000000*%
%ADD17R,1.399997X1.199998*%
%ADD18R,0.200000X0.850011*%
%ADD19R,0.850011X0.200000*%
%ADD20R,3.099994X3.099994*%
%ADD21RoundRect,0.314998X-0.000010X-0.810006X0.000010X-0.810006X0.000010X0.810006X-0.000010X0.810006X0*%
G04 APERTURE END LIST*
D10*
%TO.C,C_LED*%
X58087500Y-111000000D03*
X59912500Y-111000000D03*
%TD*%
D11*
%TO.C,U3*%
X127050294Y-130299972D03*
X127999492Y-130299972D03*
X128949706Y-130299972D03*
X128949706Y-127700028D03*
X127050294Y-127700028D03*
%TD*%
D12*
%TO.C,D1*%
X56550043Y-104350016D03*
X56550043Y-107649984D03*
X61449957Y-107649984D03*
X61449957Y-104350016D03*
%TD*%
D13*
%TO.C,J1*%
X98249940Y-126825957D03*
X98750066Y-126825957D03*
X99249938Y-126825957D03*
X99750064Y-126825957D03*
X100249936Y-126825957D03*
X100750062Y-126825957D03*
X101249680Y-126825957D03*
X101750060Y-126825957D03*
D14*
X96800044Y-126825957D03*
D15*
X103200006Y-126825856D03*
X102400160Y-126825856D03*
D16*
X97600043Y-126826021D03*
%TD*%
D10*
%TO.C,C_IN*%
X123087500Y-128000000D03*
X124912500Y-128000000D03*
%TD*%
%TO.C,C_OUT*%
X132087500Y-129000000D03*
X133912500Y-129000000D03*
%TD*%
D17*
%TO.C,Y1*%
X62899926Y-122850011D03*
X65100074Y-122850011D03*
X65100074Y-121149989D03*
X62899926Y-121149989D03*
%TD*%
D18*
%TO.C,U1*%
X78600071Y-118575064D03*
X78200021Y-118575064D03*
X77799971Y-118575064D03*
X77399921Y-118575064D03*
X77000125Y-118575064D03*
X76600075Y-118575064D03*
X76200025Y-118575064D03*
X75799975Y-118575064D03*
X75399925Y-118575064D03*
X75000129Y-118575064D03*
X74600079Y-118575064D03*
X74200029Y-118575064D03*
X73799979Y-118575064D03*
X73399929Y-118575064D03*
D19*
X72574937Y-119400056D03*
X72574937Y-119799852D03*
X72574937Y-120199902D03*
X72574937Y-120599952D03*
X72574937Y-121000002D03*
X72574937Y-121400052D03*
X72574937Y-121799848D03*
X72574937Y-122199898D03*
X72574937Y-122599948D03*
X72574937Y-122999998D03*
X72574937Y-123400048D03*
X72574937Y-123799844D03*
X72574937Y-124199894D03*
X72574937Y-124599944D03*
D18*
X73399929Y-125424936D03*
X73799979Y-125424936D03*
X74200029Y-125424936D03*
X74600079Y-125424936D03*
X75000129Y-125424936D03*
X75399925Y-125424936D03*
X75799975Y-125424936D03*
X76200025Y-125424936D03*
X76600075Y-125424936D03*
X77000125Y-125424936D03*
X77399921Y-125424936D03*
X77799971Y-125424936D03*
X78200021Y-125424936D03*
X78600071Y-125424936D03*
D19*
X79425063Y-124599944D03*
X79425063Y-124199894D03*
X79425063Y-123799844D03*
X79425063Y-123400048D03*
X79425063Y-122999998D03*
X79425063Y-122599948D03*
X79425063Y-122199898D03*
X79425063Y-121799848D03*
X79425063Y-121400052D03*
X79425063Y-121000002D03*
X79425063Y-120599952D03*
X79425063Y-120199902D03*
X79425063Y-119799852D03*
X79425063Y-119400056D03*
D20*
X76000127Y-122000000D03*
%TD*%
D21*
%TO.C,U2*%
X86095000Y-125530092D03*
X87365000Y-125530092D03*
X88635000Y-125530092D03*
X89905000Y-125530092D03*
X89905000Y-118469908D03*
X88635000Y-118469908D03*
X87365000Y-118469908D03*
X86095000Y-118469908D03*
%TD*%
M02*
