%TF.GenerationSoftware,KiCad,Pcbnew,9.0.3+dfsg-1*%
%TF.CreationDate,2026-07-01T08:19:48-07:00*%
%TF.ProjectId,index.circuit,696e6465-782e-4636-9972-637569742e6b,rev?*%
%TF.SameCoordinates,Original*%
%TF.FileFunction,Copper,L2,Inr*%
%TF.FilePolarity,Positive*%
%FSLAX46Y46*%
G04 Gerber Fmt 4.6, Leading zero omitted, Abs format (unit mm)*
G04 Created by KiCad (PCBNEW 9.0.3+dfsg-1) date 2026-07-01 08:19:48*
%MOMM*%
%LPD*%
G01*
G04 APERTURE LIST*
%TA.AperFunction,ComponentPad*%
%ADD10C,1.500000*%
%TD*%
%TA.AperFunction,ComponentPad*%
%ADD11C,2.500000*%
%TD*%
%TA.AperFunction,ComponentPad*%
%ADD12O,1.199998X1.999996*%
%TD*%
%TA.AperFunction,ComponentPad*%
%ADD13O,1.199998X1.799996*%
%TD*%
%TA.AperFunction,ComponentPad*%
%ADD14R,1.500000X1.500000*%
%TD*%
%TA.AperFunction,ViaPad*%
%ADD15C,0.600000*%
%TD*%
G04 APERTURE END LIST*
D10*
%TO.N,BOOT_BTN*%
%TO.C,SW_BOOT*%
X133750000Y-113750000D03*
%TO.N,GND*%
X133750000Y-120250000D03*
%TO.N,N/C*%
X138250000Y-120250000D03*
X138250000Y-113750000D03*
%TD*%
D11*
%TO.N,KEY1*%
%TO.C,SW2*%
X90165000Y-99485000D03*
%TO.N,GND*%
X96515000Y-96945000D03*
%TD*%
D10*
%TO.N,RUN*%
%TO.C,SW_RST*%
X133750000Y-123750000D03*
%TO.N,GND*%
X133750000Y-130250000D03*
%TO.N,N/C*%
X138250000Y-130250000D03*
X138250000Y-123750000D03*
%TD*%
D11*
%TO.N,KEY6*%
%TO.C,SW7*%
X109215000Y-80435000D03*
%TO.N,GND*%
X115565000Y-77895000D03*
%TD*%
D12*
%TO.N,GND*%
%TO.C,J1*%
X104325112Y-127594307D03*
D13*
X104325112Y-131774131D03*
X95674888Y-131774131D03*
D12*
X95674888Y-127594307D03*
%TD*%
D11*
%TO.N,KEY7*%
%TO.C,SW8*%
X128265000Y-80435000D03*
%TO.N,GND*%
X134615000Y-77895000D03*
%TD*%
%TO.N,KEY0*%
%TO.C,SW1*%
X71115000Y-99485000D03*
%TO.N,GND*%
X77465000Y-96945000D03*
%TD*%
D14*
%TO.N,ENC_A*%
%TO.C,J_THUMB*%
X60000000Y-99080000D03*
D10*
%TO.N,ENC_B*%
X60000000Y-96540000D03*
%TO.N,ENC_SW*%
X60000000Y-94000000D03*
%TO.N,SHIFT*%
X60000000Y-91460000D03*
%TO.N,GND*%
X60000000Y-88920000D03*
%TD*%
D11*
%TO.N,KEY2*%
%TO.C,SW3*%
X109215000Y-99485000D03*
%TO.N,GND*%
X115565000Y-96945000D03*
%TD*%
%TO.N,KEY5*%
%TO.C,SW6*%
X90165000Y-80435000D03*
%TO.N,GND*%
X96515000Y-77895000D03*
%TD*%
%TO.N,KEY4*%
%TO.C,SW5*%
X71115000Y-80435000D03*
%TO.N,GND*%
X77465000Y-77895000D03*
%TD*%
%TO.N,KEY3*%
%TO.C,SW4*%
X128265000Y-99485000D03*
%TO.N,GND*%
X134615000Y-96945000D03*
%TD*%
D15*
%TO.N,V3V3*%
X59912500Y-104350000D03*
X125877800Y-128479100D03*
X115050294Y-127700028D03*
X87988000Y-127021200D03*
X76518100Y-124524000D03*
X57287500Y-111000000D03*
X123087500Y-129000000D03*
X80610900Y-118575100D03*
%TO.N,DVDD*%
X79315200Y-125606600D03*
X76510000Y-127164200D03*
%TO.N,XOUT*%
X65006700Y-120097100D03*
%TO.N,USB_DM*%
X81738200Y-127840300D03*
X81738200Y-123400000D03*
%TO.N,USB_DP*%
X81097900Y-122861500D03*
X80843000Y-127851500D03*
%TO.N,KEY0*%
X79017400Y-117408900D03*
%TO.N,KEY1*%
X90342000Y-114827100D03*
%TO.N,KEY2*%
X109382600Y-114370300D03*
%TO.N,KEY4*%
X77451700Y-114256300D03*
%TO.N,KEY5*%
X84180200Y-110737700D03*
%TO.N,KEY6*%
X105885000Y-108894900D03*
%TO.N,GND*%
X62879900Y-119634500D03*
X115999492Y-130299972D03*
X108912500Y-129000000D03*
X103405218Y-126262040D03*
X58087500Y-108633600D03*
X124912500Y-129000000D03*
X120595000Y-129844400D03*
X60712500Y-111000000D03*
%TO.N,KEY7*%
X123537000Y-105929600D03*
%TO.N,ENC_A*%
X62278500Y-114046700D03*
%TO.N,ENC_B*%
X64772700Y-115139300D03*
%TO.N,ENC_SW*%
X67077000Y-116918200D03*
%TO.N,SHIFT*%
X63222000Y-117923400D03*
%TO.N,LED_DIN*%
X74313000Y-114842500D03*
X73460300Y-124199900D03*
%TO.N,RUN*%
X67645200Y-123799800D03*
%TO.N,BOOT_BTN*%
X84490000Y-122981800D03*
%TO.N,VBUS*%
X108912500Y-131079100D03*
%TO.N,J1.A5 to R_CC1.pin1*%
X99321300Y-129796900D03*
%TO.N,QSPI_SS*%
X85013300Y-126880200D03*
X84634300Y-119273300D03*
%TO.N,J1.B5 to R_CC2.pin1*%
X102353900Y-129788000D03*
%TO.N,QSPI_SD1*%
X80479100Y-126873600D03*
X80479100Y-119800000D03*
%TO.N,QSPI_SD2*%
X89006700Y-127113600D03*
X89019500Y-120185500D03*
%TO.N,XIN*%
X66607300Y-120599600D03*
X64345900Y-123919400D03*
%TD*%
%TA.AperFunction,Conductor*%
%TO.N,GND*%
G36*
X145242539Y-66220185D02*
G01*
X145288294Y-66272989D01*
X145299500Y-66324500D01*
X145299500Y-133675500D01*
X145279815Y-133742539D01*
X145227011Y-133788294D01*
X145175500Y-133799500D01*
X54824500Y-133799500D01*
X54757461Y-133779815D01*
X54711706Y-133727011D01*
X54700500Y-133675500D01*
X54700500Y-130885837D01*
X56049500Y-130885837D01*
X56049500Y-131114162D01*
X56085215Y-131339660D01*
X56155770Y-131556803D01*
X56259421Y-131760228D01*
X56393621Y-131944937D01*
X56555063Y-132106379D01*
X56739772Y-132240579D01*
X56835884Y-132289550D01*
X56943196Y-132344229D01*
X56943198Y-132344229D01*
X56943201Y-132344231D01*
X57059592Y-132382049D01*
X57160339Y-132414784D01*
X57385838Y-132450500D01*
X57385843Y-132450500D01*
X57614162Y-132450500D01*
X57839660Y-132414784D01*
X58056799Y-132344231D01*
X58260228Y-132240579D01*
X58444937Y-132106379D01*
X58606379Y-131944937D01*
X58740579Y-131760228D01*
X58844231Y-131556799D01*
X58888296Y-131421182D01*
X58896757Y-131395141D01*
X95074889Y-131395141D01*
X95074889Y-132153120D01*
X95115778Y-132305721D01*
X95194770Y-132442537D01*
X95194772Y-132442540D01*
X95306477Y-132554245D01*
X95306480Y-132554247D01*
X95443296Y-132633239D01*
X95595897Y-132674128D01*
X95595899Y-132674129D01*
X95753877Y-132674129D01*
X95753878Y-132674128D01*
X95906479Y-132633239D01*
X96043295Y-132554247D01*
X96043298Y-132554245D01*
X96155003Y-132442540D01*
X96155005Y-132442537D01*
X96233997Y-132305721D01*
X96274886Y-132153120D01*
X96274887Y-132153119D01*
X96274887Y-131395143D01*
X96274886Y-131395141D01*
X103725113Y-131395141D01*
X103725113Y-132153120D01*
X103766002Y-132305721D01*
X103844994Y-132442537D01*
X103844996Y-132442540D01*
X103956701Y-132554245D01*
X103956704Y-132554247D01*
X104093520Y-132633239D01*
X104246121Y-132674128D01*
X104246123Y-132674129D01*
X104404101Y-132674129D01*
X104404102Y-132674128D01*
X104556703Y-132633239D01*
X104693519Y-132554247D01*
X104693522Y-132554245D01*
X104805227Y-132442540D01*
X104805229Y-132442537D01*
X104884221Y-132305721D01*
X104925110Y-132153120D01*
X104925111Y-132153119D01*
X104925111Y-131395143D01*
X104925110Y-131395141D01*
X104884221Y-131242540D01*
X104805229Y-131105724D01*
X104805227Y-131105721D01*
X104722325Y-131022819D01*
X108485000Y-131022819D01*
X108485000Y-131135380D01*
X108514133Y-131244110D01*
X108542274Y-131292850D01*
X108570415Y-131341591D01*
X108650009Y-131421185D01*
X108747491Y-131477467D01*
X108856219Y-131506600D01*
X108856221Y-131506600D01*
X108968779Y-131506600D01*
X108968781Y-131506600D01*
X109077509Y-131477467D01*
X109174991Y-131421185D01*
X109254585Y-131341591D01*
X109310867Y-131244109D01*
X109340000Y-131135381D01*
X109340000Y-131022819D01*
X109310867Y-130914091D01*
X109254585Y-130816609D01*
X109174991Y-130737015D01*
X109126250Y-130708874D01*
X109077510Y-130680733D01*
X109021225Y-130665652D01*
X108968781Y-130651600D01*
X108856219Y-130651600D01*
X108747489Y-130680733D01*
X108650009Y-130737015D01*
X108650006Y-130737017D01*
X108570417Y-130816606D01*
X108570415Y-130816609D01*
X108514133Y-130914089D01*
X108485000Y-131022819D01*
X104722325Y-131022819D01*
X104693522Y-130994016D01*
X104693519Y-130994014D01*
X104556703Y-130915022D01*
X104404102Y-130874133D01*
X104246121Y-130874133D01*
X104093520Y-130915022D01*
X103956704Y-130994014D01*
X103956701Y-130994016D01*
X103844996Y-131105721D01*
X103844994Y-131105724D01*
X103766002Y-131242540D01*
X103725113Y-131395141D01*
X96274886Y-131395141D01*
X96233997Y-131242540D01*
X96155005Y-131105724D01*
X96155003Y-131105721D01*
X96043298Y-130994016D01*
X96043295Y-130994014D01*
X95906479Y-130915022D01*
X95753878Y-130874133D01*
X95595897Y-130874133D01*
X95443296Y-130915022D01*
X95306480Y-130994014D01*
X95306477Y-130994016D01*
X95194772Y-131105721D01*
X95194770Y-131105724D01*
X95115778Y-131242540D01*
X95074889Y-131395141D01*
X58896757Y-131395141D01*
X58911849Y-131348695D01*
X58914156Y-131341593D01*
X58914784Y-131339660D01*
X58933184Y-131223481D01*
X58950500Y-131114162D01*
X58950500Y-130885837D01*
X58914784Y-130660339D01*
X58844229Y-130443196D01*
X58740578Y-130239771D01*
X58606379Y-130055063D01*
X58444937Y-129893621D01*
X58260228Y-129759421D01*
X58223327Y-129740619D01*
X98893800Y-129740619D01*
X98893800Y-129853180D01*
X98922933Y-129961910D01*
X98941486Y-129994043D01*
X98979215Y-130059391D01*
X99058809Y-130138985D01*
X99156291Y-130195267D01*
X99265019Y-130224400D01*
X99265021Y-130224400D01*
X99377579Y-130224400D01*
X99377581Y-130224400D01*
X99486309Y-130195267D01*
X99583791Y-130138985D01*
X99663385Y-130059391D01*
X99719667Y-129961909D01*
X99748800Y-129853181D01*
X99748800Y-129740619D01*
X99746415Y-129731719D01*
X101926400Y-129731719D01*
X101926400Y-129844281D01*
X101928785Y-129853181D01*
X101955533Y-129953010D01*
X101960671Y-129961909D01*
X102011815Y-130050491D01*
X102091409Y-130130085D01*
X102149408Y-130163571D01*
X102185092Y-130184174D01*
X102188891Y-130186367D01*
X102297619Y-130215500D01*
X102297621Y-130215500D01*
X102410179Y-130215500D01*
X102410181Y-130215500D01*
X102518909Y-130186367D01*
X102536647Y-130176126D01*
X133000000Y-130176126D01*
X133000000Y-130323873D01*
X133028820Y-130468759D01*
X133028822Y-130468767D01*
X133085357Y-130605254D01*
X133085362Y-130605264D01*
X133167436Y-130728096D01*
X133167439Y-130728100D01*
X133271899Y-130832560D01*
X133271903Y-130832563D01*
X133394735Y-130914637D01*
X133394745Y-130914642D01*
X133531232Y-130971177D01*
X133531240Y-130971179D01*
X133676126Y-130999999D01*
X133676129Y-131000000D01*
X133823871Y-131000000D01*
X133823873Y-130999999D01*
X133968759Y-130971179D01*
X133968767Y-130971177D01*
X134105254Y-130914642D01*
X134105264Y-130914637D01*
X134228096Y-130832563D01*
X134228100Y-130832560D01*
X134332560Y-130728100D01*
X134332563Y-130728096D01*
X134414637Y-130605264D01*
X134414642Y-130605254D01*
X134471177Y-130468767D01*
X134471179Y-130468759D01*
X134499999Y-130323873D01*
X134500000Y-130323871D01*
X134500000Y-130176128D01*
X134499999Y-130176127D01*
X134497501Y-130163569D01*
X137372500Y-130163569D01*
X137372500Y-130336430D01*
X137406219Y-130505949D01*
X137406222Y-130505958D01*
X137472369Y-130665652D01*
X137472370Y-130665655D01*
X137568400Y-130809373D01*
X137568403Y-130809377D01*
X137690622Y-130931596D01*
X137690626Y-130931599D01*
X137834344Y-131027629D01*
X137834346Y-131027629D01*
X137834348Y-131027631D01*
X137994043Y-131093778D01*
X137994045Y-131093778D01*
X137994050Y-131093780D01*
X138163569Y-131127499D01*
X138163572Y-131127500D01*
X138163574Y-131127500D01*
X138336428Y-131127500D01*
X138336429Y-131127499D01*
X138403480Y-131114162D01*
X138505949Y-131093780D01*
X138505952Y-131093778D01*
X138505957Y-131093778D01*
X138665652Y-131027631D01*
X138809374Y-130931599D01*
X138855136Y-130885837D01*
X141049500Y-130885837D01*
X141049500Y-131114162D01*
X141085215Y-131339660D01*
X141155770Y-131556803D01*
X141259421Y-131760228D01*
X141393621Y-131944937D01*
X141555063Y-132106379D01*
X141739772Y-132240579D01*
X141835884Y-132289550D01*
X141943196Y-132344229D01*
X141943198Y-132344229D01*
X141943201Y-132344231D01*
X142059592Y-132382049D01*
X142160339Y-132414784D01*
X142385838Y-132450500D01*
X142385843Y-132450500D01*
X142614162Y-132450500D01*
X142839660Y-132414784D01*
X143056799Y-132344231D01*
X143260228Y-132240579D01*
X143444937Y-132106379D01*
X143606379Y-131944937D01*
X143740579Y-131760228D01*
X143844231Y-131556799D01*
X143914784Y-131339660D01*
X143950500Y-131114162D01*
X143950500Y-130885837D01*
X143914784Y-130660339D01*
X143844229Y-130443196D01*
X143740578Y-130239771D01*
X143606379Y-130055063D01*
X143444937Y-129893621D01*
X143260228Y-129759421D01*
X143205860Y-129731719D01*
X143056803Y-129655770D01*
X142839660Y-129585215D01*
X142614162Y-129549500D01*
X142614157Y-129549500D01*
X142385843Y-129549500D01*
X142385838Y-129549500D01*
X142160339Y-129585215D01*
X141943196Y-129655770D01*
X141739771Y-129759421D01*
X141555061Y-129893622D01*
X141393622Y-130055061D01*
X141259421Y-130239771D01*
X141155770Y-130443196D01*
X141085215Y-130660339D01*
X141049500Y-130885837D01*
X138855136Y-130885837D01*
X138931599Y-130809374D01*
X139027631Y-130665652D01*
X139093778Y-130505957D01*
X139106303Y-130442993D01*
X139127499Y-130336430D01*
X139127500Y-130336428D01*
X139127500Y-130163571D01*
X139127499Y-130163569D01*
X139093780Y-129994050D01*
X139093777Y-129994041D01*
X139076781Y-129953009D01*
X139027631Y-129834348D01*
X139027629Y-129834346D01*
X139027629Y-129834344D01*
X138931599Y-129690626D01*
X138931596Y-129690622D01*
X138809377Y-129568403D01*
X138809373Y-129568400D01*
X138665655Y-129472370D01*
X138665652Y-129472369D01*
X138505958Y-129406222D01*
X138505949Y-129406219D01*
X138336429Y-129372500D01*
X138336426Y-129372500D01*
X138163574Y-129372500D01*
X138163571Y-129372500D01*
X137994050Y-129406219D01*
X137994041Y-129406222D01*
X137834347Y-129472369D01*
X137834344Y-129472370D01*
X137690626Y-129568400D01*
X137690622Y-129568403D01*
X137568403Y-129690622D01*
X137568400Y-129690626D01*
X137472370Y-129834344D01*
X137472369Y-129834347D01*
X137406222Y-129994041D01*
X137406219Y-129994050D01*
X137372500Y-130163569D01*
X134497501Y-130163569D01*
X134471179Y-130031240D01*
X134471177Y-130031232D01*
X134414642Y-129894745D01*
X134414637Y-129894735D01*
X134332563Y-129771903D01*
X134332560Y-129771899D01*
X134228100Y-129667439D01*
X134228096Y-129667436D01*
X134105264Y-129585362D01*
X134105254Y-129585357D01*
X133968767Y-129528822D01*
X133968759Y-129528820D01*
X133823872Y-129500000D01*
X133676128Y-129500000D01*
X133531240Y-129528820D01*
X133531232Y-129528822D01*
X133394745Y-129585357D01*
X133394735Y-129585362D01*
X133271903Y-129667436D01*
X133271899Y-129667439D01*
X133167439Y-129771899D01*
X133167436Y-129771903D01*
X133085362Y-129894735D01*
X133085357Y-129894745D01*
X133028822Y-130031232D01*
X133028820Y-130031240D01*
X133000000Y-130176126D01*
X102536647Y-130176126D01*
X102616391Y-130130085D01*
X102695985Y-130050491D01*
X102752267Y-129953009D01*
X102781400Y-129844281D01*
X102781400Y-129731719D01*
X102752267Y-129622991D01*
X102695985Y-129525509D01*
X102616391Y-129445915D01*
X102547642Y-129406222D01*
X102518910Y-129389633D01*
X102464545Y-129375066D01*
X102410181Y-129360500D01*
X102297619Y-129360500D01*
X102188889Y-129389633D01*
X102091409Y-129445915D01*
X102091406Y-129445917D01*
X102011817Y-129525506D01*
X102011815Y-129525509D01*
X101955533Y-129622989D01*
X101926400Y-129731719D01*
X99746415Y-129731719D01*
X99719667Y-129631891D01*
X99663385Y-129534409D01*
X99583791Y-129454815D01*
X99499627Y-129406222D01*
X99486310Y-129398533D01*
X99431945Y-129383966D01*
X99377581Y-129369400D01*
X99265019Y-129369400D01*
X99156289Y-129398533D01*
X99058809Y-129454815D01*
X99058806Y-129454817D01*
X98979217Y-129534406D01*
X98979215Y-129534409D01*
X98922933Y-129631889D01*
X98893800Y-129740619D01*
X58223327Y-129740619D01*
X58205860Y-129731719D01*
X58056803Y-129655770D01*
X57839660Y-129585215D01*
X57614162Y-129549500D01*
X57614157Y-129549500D01*
X57385843Y-129549500D01*
X57385838Y-129549500D01*
X57160339Y-129585215D01*
X56943196Y-129655770D01*
X56739771Y-129759421D01*
X56555061Y-129893622D01*
X56393622Y-130055061D01*
X56259421Y-130239771D01*
X56155770Y-130443196D01*
X56085215Y-130660339D01*
X56049500Y-130885837D01*
X54700500Y-130885837D01*
X54700500Y-128943719D01*
X122660000Y-128943719D01*
X122660000Y-129056280D01*
X122689133Y-129165010D01*
X122717274Y-129213750D01*
X122745415Y-129262491D01*
X122825009Y-129342085D01*
X122922491Y-129398367D01*
X123031219Y-129427500D01*
X123031221Y-129427500D01*
X123143779Y-129427500D01*
X123143781Y-129427500D01*
X123252509Y-129398367D01*
X123349991Y-129342085D01*
X123429585Y-129262491D01*
X123485867Y-129165009D01*
X123515000Y-129056281D01*
X123515000Y-128943719D01*
X123485867Y-128834991D01*
X123429585Y-128737509D01*
X123349991Y-128657915D01*
X123301250Y-128629774D01*
X123252510Y-128601633D01*
X123198145Y-128587066D01*
X123143781Y-128572500D01*
X123031219Y-128572500D01*
X122922489Y-128601633D01*
X122825009Y-128657915D01*
X122825006Y-128657917D01*
X122745417Y-128737506D01*
X122745415Y-128737509D01*
X122689133Y-128834989D01*
X122660000Y-128943719D01*
X54700500Y-128943719D01*
X54700500Y-127107919D01*
X76082500Y-127107919D01*
X76082500Y-127220481D01*
X76086017Y-127233607D01*
X76111633Y-127329210D01*
X76124509Y-127351511D01*
X76167915Y-127426691D01*
X76247509Y-127506285D01*
X76344991Y-127562567D01*
X76453719Y-127591700D01*
X76453721Y-127591700D01*
X76566279Y-127591700D01*
X76566281Y-127591700D01*
X76675009Y-127562567D01*
X76772491Y-127506285D01*
X76852085Y-127426691D01*
X76908367Y-127329209D01*
X76937500Y-127220481D01*
X76937500Y-127107919D01*
X76908367Y-126999191D01*
X76852085Y-126901709D01*
X76772491Y-126822115D01*
X76764184Y-126817319D01*
X80051600Y-126817319D01*
X80051600Y-126929881D01*
X80060398Y-126962716D01*
X80080733Y-127038610D01*
X80103175Y-127077480D01*
X80137015Y-127136091D01*
X80216609Y-127215685D01*
X80314091Y-127271967D01*
X80422819Y-127301100D01*
X80422821Y-127301100D01*
X80489462Y-127301100D01*
X80556501Y-127320785D01*
X80602256Y-127373589D01*
X80612200Y-127442747D01*
X80583175Y-127506303D01*
X80577143Y-127512781D01*
X80500917Y-127589006D01*
X80500915Y-127589009D01*
X80444633Y-127686489D01*
X80425926Y-127756307D01*
X80415500Y-127795219D01*
X80415500Y-127907781D01*
X80427201Y-127951450D01*
X80444633Y-128016510D01*
X80462219Y-128046968D01*
X80500915Y-128113991D01*
X80580509Y-128193585D01*
X80677991Y-128249867D01*
X80786719Y-128279000D01*
X80786721Y-128279000D01*
X80899279Y-128279000D01*
X80899281Y-128279000D01*
X81008009Y-128249867D01*
X81105491Y-128193585D01*
X81185085Y-128113991D01*
X81186591Y-128111381D01*
X81188437Y-128109621D01*
X81190033Y-128107542D01*
X81190357Y-128107790D01*
X81237155Y-128063165D01*
X81305761Y-128049939D01*
X81370627Y-128075904D01*
X81392355Y-128097891D01*
X81396114Y-128102790D01*
X81396115Y-128102791D01*
X81475709Y-128182385D01*
X81573191Y-128238667D01*
X81681919Y-128267800D01*
X81681921Y-128267800D01*
X81794479Y-128267800D01*
X81794481Y-128267800D01*
X81903209Y-128238667D01*
X82000691Y-128182385D01*
X82080285Y-128102791D01*
X82136567Y-128005309D01*
X82165700Y-127896581D01*
X82165700Y-127784019D01*
X82136567Y-127675291D01*
X82080285Y-127577809D01*
X82000691Y-127498215D01*
X81927028Y-127455685D01*
X81903210Y-127441933D01*
X81819736Y-127419567D01*
X81794481Y-127412800D01*
X81681919Y-127412800D01*
X81573189Y-127441933D01*
X81475709Y-127498215D01*
X81475706Y-127498217D01*
X81396117Y-127577806D01*
X81396108Y-127577818D01*
X81394601Y-127580429D01*
X81392753Y-127582189D01*
X81391167Y-127584258D01*
X81390844Y-127584010D01*
X81344031Y-127628641D01*
X81275423Y-127641859D01*
X81210560Y-127615886D01*
X81188843Y-127593907D01*
X81185083Y-127589007D01*
X81105493Y-127509417D01*
X81105491Y-127509415D01*
X81035365Y-127468927D01*
X81008010Y-127453133D01*
X80949792Y-127437534D01*
X80899281Y-127424000D01*
X80832638Y-127424000D01*
X80765599Y-127404315D01*
X80719844Y-127351511D01*
X80709900Y-127282353D01*
X80738925Y-127218797D01*
X80744957Y-127212319D01*
X80780583Y-127176693D01*
X80821185Y-127136091D01*
X80877467Y-127038609D01*
X80906600Y-126929881D01*
X80906600Y-126823919D01*
X84585800Y-126823919D01*
X84585800Y-126936480D01*
X84614933Y-127045210D01*
X84621926Y-127057321D01*
X84671215Y-127142691D01*
X84750809Y-127222285D01*
X84848291Y-127278567D01*
X84957019Y-127307700D01*
X84957021Y-127307700D01*
X85069579Y-127307700D01*
X85069581Y-127307700D01*
X85178309Y-127278567D01*
X85275791Y-127222285D01*
X85355385Y-127142691D01*
X85411667Y-127045209D01*
X85433180Y-126964919D01*
X87560500Y-126964919D01*
X87560500Y-127077481D01*
X87575066Y-127131845D01*
X87589633Y-127186210D01*
X87609420Y-127220481D01*
X87645915Y-127283691D01*
X87725509Y-127363285D01*
X87822991Y-127419567D01*
X87931719Y-127448700D01*
X87931721Y-127448700D01*
X88044279Y-127448700D01*
X88044281Y-127448700D01*
X88153009Y-127419567D01*
X88250491Y-127363285D01*
X88330085Y-127283691D01*
X88371382Y-127212162D01*
X88421948Y-127163948D01*
X88490555Y-127150725D01*
X88555420Y-127176693D01*
X88595948Y-127233607D01*
X88598539Y-127242059D01*
X88608333Y-127278609D01*
X88664615Y-127376091D01*
X88744209Y-127455685D01*
X88841691Y-127511967D01*
X88950419Y-127541100D01*
X88950421Y-127541100D01*
X89062979Y-127541100D01*
X89062981Y-127541100D01*
X89171709Y-127511967D01*
X89269191Y-127455685D01*
X89348785Y-127376091D01*
X89405067Y-127278609D01*
X89434200Y-127169881D01*
X89434200Y-127115317D01*
X95074889Y-127115317D01*
X95074889Y-128073296D01*
X95115778Y-128225897D01*
X95194770Y-128362713D01*
X95194772Y-128362716D01*
X95306477Y-128474421D01*
X95306480Y-128474423D01*
X95443296Y-128553415D01*
X95595897Y-128594304D01*
X95595899Y-128594305D01*
X95753877Y-128594305D01*
X95753878Y-128594304D01*
X95906479Y-128553415D01*
X96043295Y-128474423D01*
X96043298Y-128474421D01*
X96155003Y-128362716D01*
X96155005Y-128362713D01*
X96233997Y-128225897D01*
X96242407Y-128194512D01*
X96278771Y-128134851D01*
X96341618Y-128104321D01*
X96410993Y-128112615D01*
X96464872Y-128157100D01*
X96483799Y-128202413D01*
X96498611Y-128276878D01*
X96498615Y-128276892D01*
X96545763Y-128390719D01*
X96545765Y-128390723D01*
X96614215Y-128493165D01*
X96614221Y-128493173D01*
X96701341Y-128580293D01*
X96701349Y-128580299D01*
X96803791Y-128648749D01*
X96803795Y-128648751D01*
X96900952Y-128688994D01*
X96917629Y-128695902D01*
X97038470Y-128719938D01*
X97038474Y-128719939D01*
X97038475Y-128719939D01*
X97161690Y-128719939D01*
X97161691Y-128719938D01*
X97282535Y-128695902D01*
X97396370Y-128648750D01*
X97396372Y-128648749D01*
X97477854Y-128594304D01*
X97498819Y-128580296D01*
X97585945Y-128493170D01*
X97654399Y-128390721D01*
X97701551Y-128276886D01*
X97725588Y-128156040D01*
X97725588Y-128032826D01*
X97725587Y-128032821D01*
X102274412Y-128032821D01*
X102274412Y-128156044D01*
X102298447Y-128276878D01*
X102298451Y-128276892D01*
X102345599Y-128390719D01*
X102345601Y-128390723D01*
X102414051Y-128493165D01*
X102414057Y-128493173D01*
X102501177Y-128580293D01*
X102501185Y-128580299D01*
X102603627Y-128648749D01*
X102603631Y-128648751D01*
X102700788Y-128688994D01*
X102717465Y-128695902D01*
X102838306Y-128719938D01*
X102838310Y-128719939D01*
X102838311Y-128719939D01*
X102961526Y-128719939D01*
X102961527Y-128719938D01*
X103082371Y-128695902D01*
X103196206Y-128648750D01*
X103196208Y-128648749D01*
X103277690Y-128594304D01*
X103298655Y-128580296D01*
X103385781Y-128493170D01*
X103454235Y-128390721D01*
X103501387Y-128276886D01*
X103516200Y-128202411D01*
X103548584Y-128140503D01*
X103609299Y-128105928D01*
X103679069Y-128109667D01*
X103735741Y-128150533D01*
X103757591Y-128194509D01*
X103766001Y-128225895D01*
X103766001Y-128225896D01*
X103844994Y-128362713D01*
X103844996Y-128362716D01*
X103956701Y-128474421D01*
X103956704Y-128474423D01*
X104093520Y-128553415D01*
X104246121Y-128594304D01*
X104246123Y-128594305D01*
X104404101Y-128594305D01*
X104404102Y-128594304D01*
X104556703Y-128553415D01*
X104693519Y-128474423D01*
X104693522Y-128474421D01*
X104745124Y-128422819D01*
X125450300Y-128422819D01*
X125450300Y-128535380D01*
X125479433Y-128644110D01*
X125482113Y-128648751D01*
X125535715Y-128741591D01*
X125615309Y-128821185D01*
X125712791Y-128877467D01*
X125821519Y-128906600D01*
X125821521Y-128906600D01*
X125934079Y-128906600D01*
X125934081Y-128906600D01*
X126042809Y-128877467D01*
X126140291Y-128821185D01*
X126219885Y-128741591D01*
X126276167Y-128644109D01*
X126305300Y-128535381D01*
X126305300Y-128422819D01*
X126276167Y-128314091D01*
X126219885Y-128216609D01*
X126140291Y-128137015D01*
X126091550Y-128108874D01*
X126042810Y-128080733D01*
X125977243Y-128063165D01*
X125934081Y-128051600D01*
X125821519Y-128051600D01*
X125712789Y-128080733D01*
X125615309Y-128137015D01*
X125615306Y-128137017D01*
X125535717Y-128216606D01*
X125535715Y-128216609D01*
X125479433Y-128314089D01*
X125450300Y-128422819D01*
X104745124Y-128422819D01*
X104805227Y-128362716D01*
X104805229Y-128362713D01*
X104811015Y-128352693D01*
X104811015Y-128352692D01*
X104811016Y-128352691D01*
X104884221Y-128225897D01*
X104925110Y-128073296D01*
X104925111Y-128073295D01*
X104925111Y-127643747D01*
X114622794Y-127643747D01*
X114622794Y-127756308D01*
X114651927Y-127865038D01*
X114670139Y-127896581D01*
X114708209Y-127962519D01*
X114787803Y-128042113D01*
X114885285Y-128098395D01*
X114994013Y-128127528D01*
X114994015Y-128127528D01*
X115106573Y-128127528D01*
X115106575Y-128127528D01*
X115215303Y-128098395D01*
X115312785Y-128042113D01*
X115392379Y-127962519D01*
X115448661Y-127865037D01*
X115477794Y-127756309D01*
X115477794Y-127643747D01*
X115448661Y-127535019D01*
X115392379Y-127437537D01*
X115312785Y-127357943D01*
X115263017Y-127329209D01*
X115215304Y-127301661D01*
X115148244Y-127283693D01*
X115106575Y-127272528D01*
X114994013Y-127272528D01*
X114885283Y-127301661D01*
X114787803Y-127357943D01*
X114787800Y-127357945D01*
X114708211Y-127437534D01*
X114708209Y-127437537D01*
X114651927Y-127535017D01*
X114622794Y-127643747D01*
X104925111Y-127643747D01*
X104925111Y-127115319D01*
X104925110Y-127115317D01*
X104884221Y-126962716D01*
X104805229Y-126825900D01*
X104805227Y-126825897D01*
X104693522Y-126714192D01*
X104693519Y-126714190D01*
X104556703Y-126635198D01*
X104404102Y-126594309D01*
X104246121Y-126594309D01*
X104093520Y-126635198D01*
X103956704Y-126714190D01*
X103956701Y-126714192D01*
X103844996Y-126825897D01*
X103844994Y-126825900D01*
X103766002Y-126962716D01*
X103725113Y-127115317D01*
X103725113Y-127828712D01*
X103705428Y-127895751D01*
X103652624Y-127941506D01*
X103583466Y-127951450D01*
X103519910Y-127922425D01*
X103486552Y-127876165D01*
X103454234Y-127798142D01*
X103385784Y-127695700D01*
X103385778Y-127695692D01*
X103298658Y-127608572D01*
X103298650Y-127608566D01*
X103196208Y-127540116D01*
X103196204Y-127540114D01*
X103082377Y-127492966D01*
X103082373Y-127492964D01*
X103082371Y-127492964D01*
X103082367Y-127492963D01*
X103082363Y-127492962D01*
X102961529Y-127468927D01*
X102961525Y-127468927D01*
X102838311Y-127468927D01*
X102838306Y-127468927D01*
X102717472Y-127492962D01*
X102717458Y-127492966D01*
X102603631Y-127540114D01*
X102603627Y-127540116D01*
X102501185Y-127608566D01*
X102501177Y-127608572D01*
X102414057Y-127695692D01*
X102414051Y-127695700D01*
X102345601Y-127798142D01*
X102345599Y-127798146D01*
X102298451Y-127911973D01*
X102298447Y-127911987D01*
X102274412Y-128032821D01*
X97725587Y-128032821D01*
X97701551Y-127911980D01*
X97682107Y-127865037D01*
X97654400Y-127798146D01*
X97654398Y-127798142D01*
X97585948Y-127695700D01*
X97585942Y-127695692D01*
X97498822Y-127608572D01*
X97498814Y-127608566D01*
X97396372Y-127540116D01*
X97396368Y-127540114D01*
X97282541Y-127492966D01*
X97282537Y-127492964D01*
X97282535Y-127492964D01*
X97282531Y-127492963D01*
X97282527Y-127492962D01*
X97161693Y-127468927D01*
X97161689Y-127468927D01*
X97038475Y-127468927D01*
X97038470Y-127468927D01*
X96917636Y-127492962D01*
X96917622Y-127492966D01*
X96803795Y-127540114D01*
X96803791Y-127540116D01*
X96701349Y-127608566D01*
X96701341Y-127608572D01*
X96614221Y-127695692D01*
X96614215Y-127695700D01*
X96545765Y-127798142D01*
X96513448Y-127876165D01*
X96469607Y-127930568D01*
X96403313Y-127952633D01*
X96335614Y-127935354D01*
X96288003Y-127884217D01*
X96274887Y-127828712D01*
X96274887Y-127115319D01*
X96274886Y-127115317D01*
X96233997Y-126962716D01*
X96155005Y-126825900D01*
X96155003Y-126825897D01*
X96043298Y-126714192D01*
X96043295Y-126714190D01*
X95906479Y-126635198D01*
X95753878Y-126594309D01*
X95595897Y-126594309D01*
X95443296Y-126635198D01*
X95306480Y-126714190D01*
X95306477Y-126714192D01*
X95194772Y-126825897D01*
X95194770Y-126825900D01*
X95115778Y-126962716D01*
X95074889Y-127115317D01*
X89434200Y-127115317D01*
X89434200Y-127057319D01*
X89405067Y-126948591D01*
X89348785Y-126851109D01*
X89269191Y-126771515D01*
X89220450Y-126743374D01*
X89171710Y-126715233D01*
X89117345Y-126700666D01*
X89062981Y-126686100D01*
X88950419Y-126686100D01*
X88841689Y-126715233D01*
X88744209Y-126771515D01*
X88744206Y-126771517D01*
X88664617Y-126851106D01*
X88664613Y-126851112D01*
X88623317Y-126922637D01*
X88572750Y-126970851D01*
X88504142Y-126984073D01*
X88439278Y-126958105D01*
X88398750Y-126901190D01*
X88396160Y-126892742D01*
X88386367Y-126856191D01*
X88330085Y-126758709D01*
X88250491Y-126679115D01*
X88174426Y-126635198D01*
X88153010Y-126622833D01*
X88098645Y-126608266D01*
X88044281Y-126593700D01*
X87931719Y-126593700D01*
X87822989Y-126622833D01*
X87725509Y-126679115D01*
X87725506Y-126679117D01*
X87645917Y-126758706D01*
X87645915Y-126758709D01*
X87589633Y-126856189D01*
X87564875Y-126948591D01*
X87560500Y-126964919D01*
X85433180Y-126964919D01*
X85440800Y-126936481D01*
X85440800Y-126823919D01*
X85411667Y-126715191D01*
X85407856Y-126708591D01*
X85365482Y-126635198D01*
X85355385Y-126617709D01*
X85275791Y-126538115D01*
X85227050Y-126509974D01*
X85178310Y-126481833D01*
X85123945Y-126467266D01*
X85069581Y-126452700D01*
X84957019Y-126452700D01*
X84848289Y-126481833D01*
X84750809Y-126538115D01*
X84750806Y-126538117D01*
X84671217Y-126617706D01*
X84671215Y-126617709D01*
X84614933Y-126715189D01*
X84585800Y-126823919D01*
X80906600Y-126823919D01*
X80906600Y-126817319D01*
X80877467Y-126708591D01*
X80821185Y-126611109D01*
X80741591Y-126531515D01*
X80692850Y-126503374D01*
X80644110Y-126475233D01*
X80589745Y-126460666D01*
X80535381Y-126446100D01*
X80422819Y-126446100D01*
X80314089Y-126475233D01*
X80216609Y-126531515D01*
X80216606Y-126531517D01*
X80137017Y-126611106D01*
X80137015Y-126611109D01*
X80080733Y-126708589D01*
X80078953Y-126715233D01*
X80051600Y-126817319D01*
X76764184Y-126817319D01*
X76723750Y-126793974D01*
X76675010Y-126765833D01*
X76620645Y-126751266D01*
X76566281Y-126736700D01*
X76453719Y-126736700D01*
X76344989Y-126765833D01*
X76247509Y-126822115D01*
X76247506Y-126822117D01*
X76167917Y-126901706D01*
X76167915Y-126901709D01*
X76111633Y-126999189D01*
X76099302Y-127045210D01*
X76082500Y-127107919D01*
X54700500Y-127107919D01*
X54700500Y-125550319D01*
X78887700Y-125550319D01*
X78887700Y-125662880D01*
X78916833Y-125771610D01*
X78944974Y-125820350D01*
X78973115Y-125869091D01*
X79052709Y-125948685D01*
X79150191Y-126004967D01*
X79258919Y-126034100D01*
X79258921Y-126034100D01*
X79371479Y-126034100D01*
X79371481Y-126034100D01*
X79480209Y-126004967D01*
X79577691Y-125948685D01*
X79657285Y-125869091D01*
X79713567Y-125771609D01*
X79742700Y-125662881D01*
X79742700Y-125550319D01*
X79713567Y-125441591D01*
X79657285Y-125344109D01*
X79577691Y-125264515D01*
X79528950Y-125236374D01*
X79480210Y-125208233D01*
X79425845Y-125193666D01*
X79371481Y-125179100D01*
X79258919Y-125179100D01*
X79150189Y-125208233D01*
X79052709Y-125264515D01*
X79052706Y-125264517D01*
X78973117Y-125344106D01*
X78973115Y-125344109D01*
X78916833Y-125441589D01*
X78887700Y-125550319D01*
X54700500Y-125550319D01*
X54700500Y-123863119D01*
X63918400Y-123863119D01*
X63918400Y-123975680D01*
X63947533Y-124084410D01*
X63971334Y-124125633D01*
X64003815Y-124181891D01*
X64083409Y-124261485D01*
X64180891Y-124317767D01*
X64289619Y-124346900D01*
X64289621Y-124346900D01*
X64402179Y-124346900D01*
X64402181Y-124346900D01*
X64510909Y-124317767D01*
X64608391Y-124261485D01*
X64687985Y-124181891D01*
X64744267Y-124084409D01*
X64773400Y-123975681D01*
X64773400Y-123863119D01*
X64744267Y-123754391D01*
X64737990Y-123743519D01*
X67217700Y-123743519D01*
X67217700Y-123856081D01*
X67232266Y-123910445D01*
X67246833Y-123964810D01*
X67270590Y-124005957D01*
X67303115Y-124062291D01*
X67382709Y-124141885D01*
X67480191Y-124198167D01*
X67588919Y-124227300D01*
X67588921Y-124227300D01*
X67701479Y-124227300D01*
X67701481Y-124227300D01*
X67810209Y-124198167D01*
X67904688Y-124143619D01*
X73032800Y-124143619D01*
X73032800Y-124256181D01*
X73034221Y-124261484D01*
X73061933Y-124364910D01*
X73080802Y-124397591D01*
X73118215Y-124462391D01*
X73197809Y-124541985D01*
X73295291Y-124598267D01*
X73404019Y-124627400D01*
X73404021Y-124627400D01*
X73516579Y-124627400D01*
X73516581Y-124627400D01*
X73625309Y-124598267D01*
X73722791Y-124541985D01*
X73797057Y-124467719D01*
X76090600Y-124467719D01*
X76090600Y-124580281D01*
X76094217Y-124593780D01*
X76119733Y-124689010D01*
X76147874Y-124737750D01*
X76176015Y-124786491D01*
X76255609Y-124866085D01*
X76353091Y-124922367D01*
X76461819Y-124951500D01*
X76461821Y-124951500D01*
X76574379Y-124951500D01*
X76574381Y-124951500D01*
X76683109Y-124922367D01*
X76780591Y-124866085D01*
X76860185Y-124786491D01*
X76916467Y-124689009D01*
X76945600Y-124580281D01*
X76945600Y-124467719D01*
X76916467Y-124358991D01*
X76860185Y-124261509D01*
X76780591Y-124181915D01*
X76714265Y-124143621D01*
X76683110Y-124125633D01*
X76628745Y-124111066D01*
X76574381Y-124096500D01*
X76461819Y-124096500D01*
X76353089Y-124125633D01*
X76255609Y-124181915D01*
X76255606Y-124181917D01*
X76176017Y-124261506D01*
X76176015Y-124261509D01*
X76119733Y-124358989D01*
X76109390Y-124397591D01*
X76090600Y-124467719D01*
X73797057Y-124467719D01*
X73802385Y-124462391D01*
X73803629Y-124460235D01*
X73839799Y-124397591D01*
X73858665Y-124364912D01*
X73858666Y-124364910D01*
X73858667Y-124364909D01*
X73887800Y-124256181D01*
X73887800Y-124143619D01*
X73858667Y-124034891D01*
X73802385Y-123937409D01*
X73722791Y-123857815D01*
X73670283Y-123827499D01*
X73625310Y-123801533D01*
X73570945Y-123786966D01*
X73516581Y-123772400D01*
X73404019Y-123772400D01*
X73295289Y-123801533D01*
X73197809Y-123857815D01*
X73197806Y-123857817D01*
X73118217Y-123937406D01*
X73118215Y-123937409D01*
X73061933Y-124034889D01*
X73045425Y-124096500D01*
X73032800Y-124143619D01*
X67904688Y-124143619D01*
X67907691Y-124141885D01*
X67987285Y-124062291D01*
X68043567Y-123964809D01*
X68072700Y-123856081D01*
X68072700Y-123743519D01*
X68043567Y-123634791D01*
X67987285Y-123537309D01*
X67907691Y-123457715D01*
X67858950Y-123429574D01*
X67810210Y-123401433D01*
X67755845Y-123386866D01*
X67701481Y-123372300D01*
X67588919Y-123372300D01*
X67480189Y-123401433D01*
X67382709Y-123457715D01*
X67382706Y-123457717D01*
X67303117Y-123537306D01*
X67303115Y-123537309D01*
X67246833Y-123634789D01*
X67218085Y-123742082D01*
X67217700Y-123743519D01*
X64737990Y-123743519D01*
X64687985Y-123656909D01*
X64608391Y-123577315D01*
X64559650Y-123549174D01*
X64510910Y-123521033D01*
X64456545Y-123506466D01*
X64402181Y-123491900D01*
X64289619Y-123491900D01*
X64180889Y-123521033D01*
X64083409Y-123577315D01*
X64083406Y-123577317D01*
X64003817Y-123656906D01*
X64003815Y-123656909D01*
X63947533Y-123754389D01*
X63918400Y-123863119D01*
X54700500Y-123863119D01*
X54700500Y-122805219D01*
X80670400Y-122805219D01*
X80670400Y-122917781D01*
X80672474Y-122925521D01*
X80699533Y-123026510D01*
X80723719Y-123068400D01*
X80755815Y-123123991D01*
X80835409Y-123203585D01*
X80932891Y-123259867D01*
X81041619Y-123289000D01*
X81041621Y-123289000D01*
X81154178Y-123289000D01*
X81154181Y-123289000D01*
X81154602Y-123288887D01*
X81154970Y-123288895D01*
X81162237Y-123287939D01*
X81162386Y-123289071D01*
X81224450Y-123290546D01*
X81282315Y-123329706D01*
X81309822Y-123393933D01*
X81310700Y-123408660D01*
X81310700Y-123456280D01*
X81339833Y-123565010D01*
X81346938Y-123577315D01*
X81396115Y-123662491D01*
X81475709Y-123742085D01*
X81573191Y-123798367D01*
X81681919Y-123827500D01*
X81681921Y-123827500D01*
X81794479Y-123827500D01*
X81794481Y-123827500D01*
X81903209Y-123798367D01*
X82000691Y-123742085D01*
X82079207Y-123663569D01*
X132872500Y-123663569D01*
X132872500Y-123836430D01*
X132906219Y-124005949D01*
X132906222Y-124005958D01*
X132972369Y-124165652D01*
X132972370Y-124165655D01*
X133068400Y-124309373D01*
X133068403Y-124309377D01*
X133190622Y-124431596D01*
X133190626Y-124431599D01*
X133334344Y-124527629D01*
X133334346Y-124527629D01*
X133334348Y-124527631D01*
X133494043Y-124593778D01*
X133494045Y-124593778D01*
X133494050Y-124593780D01*
X133663569Y-124627499D01*
X133663572Y-124627500D01*
X133663574Y-124627500D01*
X133836428Y-124627500D01*
X133836429Y-124627499D01*
X133892936Y-124616259D01*
X134005949Y-124593780D01*
X134005952Y-124593778D01*
X134005957Y-124593778D01*
X134165652Y-124527631D01*
X134309374Y-124431599D01*
X134431599Y-124309374D01*
X134527631Y-124165652D01*
X134593778Y-124005957D01*
X134599801Y-123975681D01*
X134623590Y-123856081D01*
X134627500Y-123836426D01*
X134627500Y-123663574D01*
X134627500Y-123663571D01*
X134627499Y-123663569D01*
X137372500Y-123663569D01*
X137372500Y-123836430D01*
X137406219Y-124005949D01*
X137406222Y-124005958D01*
X137472369Y-124165652D01*
X137472370Y-124165655D01*
X137568400Y-124309373D01*
X137568403Y-124309377D01*
X137690622Y-124431596D01*
X137690626Y-124431599D01*
X137834344Y-124527629D01*
X137834346Y-124527629D01*
X137834348Y-124527631D01*
X137994043Y-124593778D01*
X137994045Y-124593778D01*
X137994050Y-124593780D01*
X138163569Y-124627499D01*
X138163572Y-124627500D01*
X138163574Y-124627500D01*
X138336428Y-124627500D01*
X138336429Y-124627499D01*
X138392936Y-124616259D01*
X138505949Y-124593780D01*
X138505952Y-124593778D01*
X138505957Y-124593778D01*
X138665652Y-124527631D01*
X138809374Y-124431599D01*
X138931599Y-124309374D01*
X139027631Y-124165652D01*
X139093778Y-124005957D01*
X139099801Y-123975681D01*
X139123590Y-123856081D01*
X139127500Y-123836426D01*
X139127500Y-123663574D01*
X139127500Y-123663571D01*
X139127499Y-123663569D01*
X139093780Y-123494050D01*
X139093777Y-123494041D01*
X139078731Y-123457717D01*
X139027631Y-123334348D01*
X139027629Y-123334346D01*
X139027629Y-123334344D01*
X138931599Y-123190626D01*
X138931596Y-123190622D01*
X138809377Y-123068403D01*
X138809373Y-123068400D01*
X138665655Y-122972370D01*
X138665652Y-122972369D01*
X138505958Y-122906222D01*
X138505949Y-122906219D01*
X138336429Y-122872500D01*
X138336426Y-122872500D01*
X138163574Y-122872500D01*
X138163571Y-122872500D01*
X137994050Y-122906219D01*
X137994041Y-122906222D01*
X137834347Y-122972369D01*
X137834344Y-122972370D01*
X137690626Y-123068400D01*
X137690622Y-123068403D01*
X137568403Y-123190622D01*
X137568400Y-123190626D01*
X137472370Y-123334344D01*
X137472369Y-123334347D01*
X137406222Y-123494041D01*
X137406219Y-123494050D01*
X137372500Y-123663569D01*
X134627499Y-123663569D01*
X134593780Y-123494050D01*
X134593777Y-123494041D01*
X134578731Y-123457717D01*
X134527631Y-123334348D01*
X134527629Y-123334346D01*
X134527629Y-123334344D01*
X134431599Y-123190626D01*
X134431596Y-123190622D01*
X134309377Y-123068403D01*
X134309373Y-123068400D01*
X134165655Y-122972370D01*
X134165652Y-122972369D01*
X134005958Y-122906222D01*
X134005949Y-122906219D01*
X133836429Y-122872500D01*
X133836426Y-122872500D01*
X133663574Y-122872500D01*
X133663571Y-122872500D01*
X133494050Y-122906219D01*
X133494041Y-122906222D01*
X133334347Y-122972369D01*
X133334344Y-122972370D01*
X133190626Y-123068400D01*
X133190622Y-123068403D01*
X133068403Y-123190622D01*
X133068400Y-123190626D01*
X132972370Y-123334344D01*
X132972369Y-123334347D01*
X132906222Y-123494041D01*
X132906219Y-123494050D01*
X132872500Y-123663569D01*
X82079207Y-123663569D01*
X82080285Y-123662491D01*
X82096279Y-123634789D01*
X82118975Y-123595481D01*
X82136565Y-123565012D01*
X82136566Y-123565010D01*
X82136567Y-123565009D01*
X82165700Y-123456281D01*
X82165700Y-123343719D01*
X82136567Y-123234991D01*
X82080285Y-123137509D01*
X82000691Y-123057915D01*
X81903209Y-123001633D01*
X81794481Y-122972500D01*
X81681919Y-122972500D01*
X81681917Y-122972500D01*
X81681486Y-122972616D01*
X81681108Y-122972606D01*
X81673863Y-122973561D01*
X81673714Y-122972430D01*
X81611636Y-122970949D01*
X81553776Y-122931783D01*
X81551094Y-122925519D01*
X84062500Y-122925519D01*
X84062500Y-123038081D01*
X84067815Y-123057917D01*
X84091633Y-123146810D01*
X84116929Y-123190622D01*
X84147915Y-123244291D01*
X84227509Y-123323885D01*
X84324991Y-123380167D01*
X84433719Y-123409300D01*
X84433721Y-123409300D01*
X84546279Y-123409300D01*
X84546281Y-123409300D01*
X84655009Y-123380167D01*
X84752491Y-123323885D01*
X84832085Y-123244291D01*
X84888367Y-123146809D01*
X84917500Y-123038081D01*
X84917500Y-122925519D01*
X84888367Y-122816791D01*
X84832085Y-122719309D01*
X84752491Y-122639715D01*
X84703750Y-122611574D01*
X84655010Y-122583433D01*
X84600645Y-122568866D01*
X84546281Y-122554300D01*
X84433719Y-122554300D01*
X84324989Y-122583433D01*
X84227509Y-122639715D01*
X84227506Y-122639717D01*
X84147917Y-122719306D01*
X84147915Y-122719309D01*
X84091633Y-122816789D01*
X84064574Y-122917780D01*
X84062500Y-122925519D01*
X81551094Y-122925519D01*
X81526276Y-122867553D01*
X81525400Y-122852839D01*
X81525400Y-122805221D01*
X81525400Y-122805219D01*
X81496267Y-122696491D01*
X81439985Y-122599009D01*
X81360391Y-122519415D01*
X81311650Y-122491274D01*
X81262910Y-122463133D01*
X81208545Y-122448566D01*
X81154181Y-122434000D01*
X81041619Y-122434000D01*
X80932889Y-122463133D01*
X80835409Y-122519415D01*
X80835406Y-122519417D01*
X80755817Y-122599006D01*
X80755815Y-122599009D01*
X80699533Y-122696489D01*
X80693419Y-122719309D01*
X80670400Y-122805219D01*
X54700500Y-122805219D01*
X54700500Y-120543319D01*
X66179800Y-120543319D01*
X66179800Y-120655880D01*
X66208933Y-120764610D01*
X66234778Y-120809373D01*
X66265215Y-120862091D01*
X66344809Y-120941685D01*
X66442291Y-120997967D01*
X66551019Y-121027100D01*
X66551021Y-121027100D01*
X66663579Y-121027100D01*
X66663581Y-121027100D01*
X66772309Y-120997967D01*
X66869791Y-120941685D01*
X66949385Y-120862091D01*
X67005667Y-120764609D01*
X67034800Y-120655881D01*
X67034800Y-120543319D01*
X67005667Y-120434591D01*
X66949385Y-120337109D01*
X66869791Y-120257515D01*
X66817804Y-120227500D01*
X66772310Y-120201233D01*
X66708643Y-120184174D01*
X66663581Y-120172100D01*
X66551019Y-120172100D01*
X66442289Y-120201233D01*
X66344809Y-120257515D01*
X66344806Y-120257517D01*
X66265217Y-120337106D01*
X66265215Y-120337109D01*
X66208933Y-120434589D01*
X66179800Y-120543319D01*
X54700500Y-120543319D01*
X54700500Y-120040819D01*
X64579200Y-120040819D01*
X64579200Y-120153381D01*
X64591254Y-120198367D01*
X64608333Y-120262110D01*
X64636474Y-120310850D01*
X64664615Y-120359591D01*
X64744209Y-120439185D01*
X64841691Y-120495467D01*
X64950419Y-120524600D01*
X64950421Y-120524600D01*
X65062979Y-120524600D01*
X65062981Y-120524600D01*
X65171709Y-120495467D01*
X65269191Y-120439185D01*
X65348785Y-120359591D01*
X65405067Y-120262109D01*
X65434200Y-120153381D01*
X65434200Y-120040819D01*
X65405067Y-119932091D01*
X65348785Y-119834609D01*
X65269191Y-119755015D01*
X65249626Y-119743719D01*
X80051600Y-119743719D01*
X80051600Y-119856280D01*
X80080733Y-119965010D01*
X80097495Y-119994041D01*
X80137015Y-120062491D01*
X80216609Y-120142085D01*
X80314091Y-120198367D01*
X80422819Y-120227500D01*
X80422821Y-120227500D01*
X80535379Y-120227500D01*
X80535381Y-120227500D01*
X80644109Y-120198367D01*
X80741591Y-120142085D01*
X80754457Y-120129219D01*
X88592000Y-120129219D01*
X88592000Y-120241781D01*
X88597447Y-120262109D01*
X88621133Y-120350510D01*
X88649274Y-120399250D01*
X88677415Y-120447991D01*
X88757009Y-120527585D01*
X88854491Y-120583867D01*
X88963219Y-120613000D01*
X88963221Y-120613000D01*
X89075779Y-120613000D01*
X89075781Y-120613000D01*
X89184509Y-120583867D01*
X89281991Y-120527585D01*
X89361585Y-120447991D01*
X89417867Y-120350509D01*
X89447000Y-120241781D01*
X89447000Y-120176126D01*
X133000000Y-120176126D01*
X133000000Y-120323873D01*
X133028820Y-120468759D01*
X133028822Y-120468767D01*
X133085357Y-120605254D01*
X133085362Y-120605264D01*
X133167436Y-120728096D01*
X133167439Y-120728100D01*
X133271899Y-120832560D01*
X133271903Y-120832563D01*
X133394735Y-120914637D01*
X133394745Y-120914642D01*
X133531232Y-120971177D01*
X133531240Y-120971179D01*
X133676126Y-120999999D01*
X133676129Y-121000000D01*
X133823871Y-121000000D01*
X133823873Y-120999999D01*
X133968759Y-120971179D01*
X133968767Y-120971177D01*
X134105254Y-120914642D01*
X134105264Y-120914637D01*
X134228096Y-120832563D01*
X134228100Y-120832560D01*
X134332560Y-120728100D01*
X134332563Y-120728096D01*
X134414637Y-120605264D01*
X134414642Y-120605254D01*
X134471177Y-120468767D01*
X134471179Y-120468759D01*
X134499999Y-120323873D01*
X134500000Y-120323871D01*
X134500000Y-120176128D01*
X134499999Y-120176127D01*
X134497501Y-120163569D01*
X137372500Y-120163569D01*
X137372500Y-120336430D01*
X137406219Y-120505949D01*
X137406222Y-120505958D01*
X137472369Y-120665652D01*
X137472370Y-120665655D01*
X137568400Y-120809373D01*
X137568403Y-120809377D01*
X137690622Y-120931596D01*
X137690626Y-120931599D01*
X137834344Y-121027629D01*
X137834346Y-121027629D01*
X137834348Y-121027631D01*
X137994043Y-121093778D01*
X137994045Y-121093778D01*
X137994050Y-121093780D01*
X138163569Y-121127499D01*
X138163572Y-121127500D01*
X138163574Y-121127500D01*
X138336428Y-121127500D01*
X138336429Y-121127499D01*
X138392936Y-121116259D01*
X138505949Y-121093780D01*
X138505952Y-121093778D01*
X138505957Y-121093778D01*
X138665652Y-121027631D01*
X138809374Y-120931599D01*
X138931599Y-120809374D01*
X139027631Y-120665652D01*
X139093778Y-120505957D01*
X139105309Y-120447990D01*
X139122892Y-120359590D01*
X139127500Y-120336426D01*
X139127500Y-120163574D01*
X139127500Y-120163571D01*
X139127499Y-120163569D01*
X139093780Y-119994050D01*
X139093777Y-119994041D01*
X139081752Y-119965009D01*
X139027631Y-119834348D01*
X139027629Y-119834346D01*
X139027629Y-119834344D01*
X138931599Y-119690626D01*
X138931596Y-119690622D01*
X138809377Y-119568403D01*
X138809373Y-119568400D01*
X138665655Y-119472370D01*
X138665652Y-119472369D01*
X138505958Y-119406222D01*
X138505949Y-119406219D01*
X138336429Y-119372500D01*
X138336426Y-119372500D01*
X138163574Y-119372500D01*
X138163571Y-119372500D01*
X137994050Y-119406219D01*
X137994041Y-119406222D01*
X137834347Y-119472369D01*
X137834344Y-119472370D01*
X137690626Y-119568400D01*
X137690622Y-119568403D01*
X137568403Y-119690622D01*
X137568400Y-119690626D01*
X137472370Y-119834344D01*
X137472369Y-119834347D01*
X137406222Y-119994041D01*
X137406219Y-119994050D01*
X137372500Y-120163569D01*
X134497501Y-120163569D01*
X134471179Y-120031240D01*
X134471177Y-120031232D01*
X134414642Y-119894745D01*
X134414637Y-119894735D01*
X134332563Y-119771903D01*
X134332560Y-119771899D01*
X134228100Y-119667439D01*
X134228096Y-119667436D01*
X134105264Y-119585362D01*
X134105254Y-119585357D01*
X133968767Y-119528822D01*
X133968759Y-119528820D01*
X133823872Y-119500000D01*
X133676128Y-119500000D01*
X133531240Y-119528820D01*
X133531232Y-119528822D01*
X133394745Y-119585357D01*
X133394735Y-119585362D01*
X133271903Y-119667436D01*
X133271899Y-119667439D01*
X133167439Y-119771899D01*
X133167436Y-119771903D01*
X133085362Y-119894735D01*
X133085357Y-119894745D01*
X133028822Y-120031232D01*
X133028820Y-120031240D01*
X133000000Y-120176126D01*
X89447000Y-120176126D01*
X89447000Y-120129219D01*
X89417867Y-120020491D01*
X89361585Y-119923009D01*
X89281991Y-119843415D01*
X89233250Y-119815274D01*
X89184510Y-119787133D01*
X89127654Y-119771899D01*
X89075781Y-119758000D01*
X88963219Y-119758000D01*
X88854489Y-119787133D01*
X88757009Y-119843415D01*
X88757006Y-119843417D01*
X88677417Y-119923006D01*
X88677415Y-119923009D01*
X88621133Y-120020489D01*
X88592000Y-120129219D01*
X80754457Y-120129219D01*
X80821185Y-120062491D01*
X80877467Y-119965009D01*
X80906600Y-119856281D01*
X80906600Y-119743719D01*
X80877467Y-119634991D01*
X80821185Y-119537509D01*
X80741591Y-119457915D01*
X80692850Y-119429774D01*
X80644110Y-119401633D01*
X80589745Y-119387066D01*
X80535381Y-119372500D01*
X80422819Y-119372500D01*
X80314089Y-119401633D01*
X80216609Y-119457915D01*
X80216606Y-119457917D01*
X80137017Y-119537506D01*
X80137015Y-119537509D01*
X80080733Y-119634989D01*
X80051600Y-119743719D01*
X65249626Y-119743719D01*
X65220450Y-119726874D01*
X65171710Y-119698733D01*
X65117345Y-119684166D01*
X65062981Y-119669600D01*
X64950419Y-119669600D01*
X64841689Y-119698733D01*
X64744209Y-119755015D01*
X64744206Y-119755017D01*
X64664617Y-119834606D01*
X64664615Y-119834609D01*
X64608333Y-119932089D01*
X64591734Y-119994041D01*
X64579200Y-120040819D01*
X54700500Y-120040819D01*
X54700500Y-119217019D01*
X84206800Y-119217019D01*
X84206800Y-119329580D01*
X84235933Y-119438310D01*
X84255598Y-119472369D01*
X84292215Y-119535791D01*
X84371809Y-119615385D01*
X84469291Y-119671667D01*
X84578019Y-119700800D01*
X84578021Y-119700800D01*
X84690579Y-119700800D01*
X84690581Y-119700800D01*
X84799309Y-119671667D01*
X84896791Y-119615385D01*
X84976385Y-119535791D01*
X85032667Y-119438309D01*
X85061800Y-119329581D01*
X85061800Y-119217019D01*
X85032667Y-119108291D01*
X84976385Y-119010809D01*
X84896791Y-118931215D01*
X84848050Y-118903074D01*
X84799310Y-118874933D01*
X84744945Y-118860366D01*
X84690581Y-118845800D01*
X84578019Y-118845800D01*
X84469289Y-118874933D01*
X84371809Y-118931215D01*
X84371806Y-118931217D01*
X84292217Y-119010806D01*
X84292215Y-119010809D01*
X84235933Y-119108289D01*
X84206800Y-119217019D01*
X54700500Y-119217019D01*
X54700500Y-118518819D01*
X80183400Y-118518819D01*
X80183400Y-118631380D01*
X80212533Y-118740110D01*
X80240674Y-118788850D01*
X80268815Y-118837591D01*
X80348409Y-118917185D01*
X80445891Y-118973467D01*
X80554619Y-119002600D01*
X80554621Y-119002600D01*
X80667179Y-119002600D01*
X80667181Y-119002600D01*
X80775909Y-118973467D01*
X80873391Y-118917185D01*
X80952985Y-118837591D01*
X81009267Y-118740109D01*
X81038400Y-118631381D01*
X81038400Y-118518819D01*
X81009267Y-118410091D01*
X80952985Y-118312609D01*
X80873391Y-118233015D01*
X80824650Y-118204874D01*
X80775910Y-118176733D01*
X80721545Y-118162166D01*
X80667181Y-118147600D01*
X80554619Y-118147600D01*
X80445889Y-118176733D01*
X80348409Y-118233015D01*
X80348406Y-118233017D01*
X80268817Y-118312606D01*
X80268815Y-118312609D01*
X80212533Y-118410089D01*
X80183400Y-118518819D01*
X54700500Y-118518819D01*
X54700500Y-117867119D01*
X62794500Y-117867119D01*
X62794500Y-117979680D01*
X62823633Y-118088410D01*
X62851774Y-118137150D01*
X62879915Y-118185891D01*
X62959509Y-118265485D01*
X63056991Y-118321767D01*
X63165719Y-118350900D01*
X63165721Y-118350900D01*
X63278279Y-118350900D01*
X63278281Y-118350900D01*
X63387009Y-118321767D01*
X63484491Y-118265485D01*
X63564085Y-118185891D01*
X63620367Y-118088409D01*
X63649500Y-117979681D01*
X63649500Y-117867119D01*
X63620367Y-117758391D01*
X63564085Y-117660909D01*
X63484491Y-117581315D01*
X63435750Y-117553174D01*
X63387010Y-117525033D01*
X63332645Y-117510466D01*
X63278281Y-117495900D01*
X63165719Y-117495900D01*
X63056989Y-117525033D01*
X62959509Y-117581315D01*
X62959506Y-117581317D01*
X62879917Y-117660906D01*
X62879915Y-117660909D01*
X62823633Y-117758389D01*
X62794500Y-117867119D01*
X54700500Y-117867119D01*
X54700500Y-117352619D01*
X78589900Y-117352619D01*
X78589900Y-117465180D01*
X78619033Y-117573910D01*
X78623310Y-117581317D01*
X78675315Y-117671391D01*
X78754909Y-117750985D01*
X78852391Y-117807267D01*
X78961119Y-117836400D01*
X78961121Y-117836400D01*
X79073679Y-117836400D01*
X79073681Y-117836400D01*
X79182409Y-117807267D01*
X79279891Y-117750985D01*
X79359485Y-117671391D01*
X79415767Y-117573909D01*
X79444900Y-117465181D01*
X79444900Y-117352619D01*
X79415767Y-117243891D01*
X79359485Y-117146409D01*
X79279891Y-117066815D01*
X79231150Y-117038674D01*
X79182410Y-117010533D01*
X79128045Y-116995966D01*
X79073681Y-116981400D01*
X78961119Y-116981400D01*
X78852389Y-117010533D01*
X78754909Y-117066815D01*
X78754906Y-117066817D01*
X78675317Y-117146406D01*
X78675315Y-117146409D01*
X78619033Y-117243889D01*
X78589900Y-117352619D01*
X54700500Y-117352619D01*
X54700500Y-116861919D01*
X66649500Y-116861919D01*
X66649500Y-116974480D01*
X66678633Y-117083210D01*
X66706774Y-117131950D01*
X66734915Y-117180691D01*
X66814509Y-117260285D01*
X66911991Y-117316567D01*
X67020719Y-117345700D01*
X67020721Y-117345700D01*
X67133279Y-117345700D01*
X67133281Y-117345700D01*
X67242009Y-117316567D01*
X67339491Y-117260285D01*
X67419085Y-117180691D01*
X67475367Y-117083209D01*
X67504500Y-116974481D01*
X67504500Y-116861919D01*
X67475367Y-116753191D01*
X67419085Y-116655709D01*
X67339491Y-116576115D01*
X67290750Y-116547974D01*
X67242010Y-116519833D01*
X67187645Y-116505266D01*
X67133281Y-116490700D01*
X67020719Y-116490700D01*
X66911989Y-116519833D01*
X66814509Y-116576115D01*
X66814506Y-116576117D01*
X66734917Y-116655706D01*
X66734915Y-116655709D01*
X66678633Y-116753189D01*
X66649500Y-116861919D01*
X54700500Y-116861919D01*
X54700500Y-115083019D01*
X64345200Y-115083019D01*
X64345200Y-115195580D01*
X64374333Y-115304310D01*
X64402474Y-115353050D01*
X64430615Y-115401791D01*
X64510209Y-115481385D01*
X64607691Y-115537667D01*
X64716419Y-115566800D01*
X64716421Y-115566800D01*
X64828979Y-115566800D01*
X64828981Y-115566800D01*
X64937709Y-115537667D01*
X65035191Y-115481385D01*
X65114785Y-115401791D01*
X65171067Y-115304309D01*
X65200200Y-115195581D01*
X65200200Y-115083019D01*
X65171067Y-114974291D01*
X65114785Y-114876809D01*
X65035191Y-114797215D01*
X65016145Y-114786219D01*
X73885500Y-114786219D01*
X73885500Y-114898780D01*
X73914633Y-115007510D01*
X73942774Y-115056250D01*
X73970915Y-115104991D01*
X74050509Y-115184585D01*
X74147991Y-115240867D01*
X74256719Y-115270000D01*
X74256721Y-115270000D01*
X74369279Y-115270000D01*
X74369281Y-115270000D01*
X74478009Y-115240867D01*
X74575491Y-115184585D01*
X74655085Y-115104991D01*
X74711367Y-115007509D01*
X74740500Y-114898781D01*
X74740500Y-114786219D01*
X74736374Y-114770819D01*
X89914500Y-114770819D01*
X89914500Y-114883381D01*
X89929066Y-114937745D01*
X89943633Y-114992110D01*
X89971774Y-115040850D01*
X89999915Y-115089591D01*
X90079509Y-115169185D01*
X90176991Y-115225467D01*
X90285719Y-115254600D01*
X90285721Y-115254600D01*
X90398279Y-115254600D01*
X90398281Y-115254600D01*
X90507009Y-115225467D01*
X90604491Y-115169185D01*
X90684085Y-115089591D01*
X90740367Y-114992109D01*
X90769500Y-114883381D01*
X90769500Y-114770819D01*
X90740367Y-114662091D01*
X90684085Y-114564609D01*
X90604491Y-114485015D01*
X90507009Y-114428733D01*
X90398281Y-114399600D01*
X90285719Y-114399600D01*
X90176989Y-114428733D01*
X90079509Y-114485015D01*
X90079506Y-114485017D01*
X89999917Y-114564606D01*
X89999915Y-114564609D01*
X89943633Y-114662089D01*
X89930158Y-114712382D01*
X89914500Y-114770819D01*
X74736374Y-114770819D01*
X74711367Y-114677491D01*
X74655085Y-114580009D01*
X74575491Y-114500415D01*
X74526750Y-114472274D01*
X74478010Y-114444133D01*
X74412495Y-114426579D01*
X74369281Y-114415000D01*
X74256719Y-114415000D01*
X74147989Y-114444133D01*
X74050509Y-114500415D01*
X74050506Y-114500417D01*
X73970917Y-114580006D01*
X73970915Y-114580009D01*
X73914633Y-114677489D01*
X73885500Y-114786219D01*
X65016145Y-114786219D01*
X64985743Y-114768666D01*
X64937710Y-114740933D01*
X64883345Y-114726366D01*
X64828981Y-114711800D01*
X64716419Y-114711800D01*
X64607689Y-114740933D01*
X64510209Y-114797215D01*
X64510206Y-114797217D01*
X64430617Y-114876806D01*
X64430615Y-114876809D01*
X64374333Y-114974289D01*
X64345200Y-115083019D01*
X54700500Y-115083019D01*
X54700500Y-113990419D01*
X61851000Y-113990419D01*
X61851000Y-114102981D01*
X61852293Y-114107806D01*
X61880133Y-114211710D01*
X61908274Y-114260450D01*
X61936415Y-114309191D01*
X62016009Y-114388785D01*
X62113491Y-114445067D01*
X62222219Y-114474200D01*
X62222221Y-114474200D01*
X62334779Y-114474200D01*
X62334781Y-114474200D01*
X62443509Y-114445067D01*
X62540991Y-114388785D01*
X62620585Y-114309191D01*
X62676867Y-114211709D01*
X62679999Y-114200019D01*
X77024200Y-114200019D01*
X77024200Y-114312581D01*
X77024586Y-114314021D01*
X77053333Y-114421310D01*
X77067049Y-114445066D01*
X77109615Y-114518791D01*
X77189209Y-114598385D01*
X77286691Y-114654667D01*
X77395419Y-114683800D01*
X77395421Y-114683800D01*
X77507979Y-114683800D01*
X77507981Y-114683800D01*
X77616709Y-114654667D01*
X77714191Y-114598385D01*
X77793785Y-114518791D01*
X77850067Y-114421309D01*
X77878815Y-114314019D01*
X108955100Y-114314019D01*
X108955100Y-114426580D01*
X108984233Y-114535310D01*
X109010039Y-114580006D01*
X109040515Y-114632791D01*
X109120109Y-114712385D01*
X109217591Y-114768667D01*
X109326319Y-114797800D01*
X109326321Y-114797800D01*
X109438879Y-114797800D01*
X109438881Y-114797800D01*
X109547609Y-114768667D01*
X109645091Y-114712385D01*
X109724685Y-114632791D01*
X109780967Y-114535309D01*
X109810100Y-114426581D01*
X109810100Y-114314019D01*
X109780967Y-114205291D01*
X109724685Y-114107809D01*
X109645091Y-114028215D01*
X109579631Y-113990421D01*
X109547610Y-113971933D01*
X109493245Y-113957366D01*
X109438881Y-113942800D01*
X109326319Y-113942800D01*
X109217589Y-113971933D01*
X109120109Y-114028215D01*
X109120106Y-114028217D01*
X109040517Y-114107806D01*
X109040515Y-114107809D01*
X108984233Y-114205289D01*
X108955100Y-114314019D01*
X77878815Y-114314019D01*
X77879200Y-114312581D01*
X77879200Y-114200019D01*
X77850067Y-114091291D01*
X77793785Y-113993809D01*
X77714191Y-113914215D01*
X77657855Y-113881689D01*
X77616710Y-113857933D01*
X77536457Y-113836430D01*
X77507981Y-113828800D01*
X77395419Y-113828800D01*
X77286689Y-113857933D01*
X77189209Y-113914215D01*
X77189206Y-113914217D01*
X77109617Y-113993806D01*
X77109615Y-113993809D01*
X77053333Y-114091289D01*
X77024200Y-114200019D01*
X62679999Y-114200019D01*
X62706000Y-114102981D01*
X62706000Y-113990419D01*
X62676867Y-113881691D01*
X62620585Y-113784209D01*
X62540991Y-113704615D01*
X62469902Y-113663571D01*
X62469899Y-113663569D01*
X132872500Y-113663569D01*
X132872500Y-113836430D01*
X132906219Y-114005949D01*
X132906222Y-114005958D01*
X132972369Y-114165652D01*
X132972370Y-114165655D01*
X133068400Y-114309373D01*
X133068403Y-114309377D01*
X133190622Y-114431596D01*
X133190626Y-114431599D01*
X133334344Y-114527629D01*
X133334346Y-114527629D01*
X133334348Y-114527631D01*
X133494043Y-114593778D01*
X133494045Y-114593778D01*
X133494050Y-114593780D01*
X133663569Y-114627499D01*
X133663572Y-114627500D01*
X133663574Y-114627500D01*
X133836428Y-114627500D01*
X133836429Y-114627499D01*
X133892936Y-114616259D01*
X134005949Y-114593780D01*
X134005952Y-114593778D01*
X134005957Y-114593778D01*
X134165652Y-114527631D01*
X134309374Y-114431599D01*
X134431599Y-114309374D01*
X134527631Y-114165652D01*
X134593778Y-114005957D01*
X134596195Y-113993809D01*
X134627499Y-113836430D01*
X134627500Y-113836428D01*
X134627500Y-113663571D01*
X134627499Y-113663569D01*
X137372500Y-113663569D01*
X137372500Y-113836430D01*
X137406219Y-114005949D01*
X137406222Y-114005958D01*
X137472369Y-114165652D01*
X137472370Y-114165655D01*
X137568400Y-114309373D01*
X137568403Y-114309377D01*
X137690622Y-114431596D01*
X137690626Y-114431599D01*
X137834344Y-114527629D01*
X137834346Y-114527629D01*
X137834348Y-114527631D01*
X137994043Y-114593778D01*
X137994045Y-114593778D01*
X137994050Y-114593780D01*
X138163569Y-114627499D01*
X138163572Y-114627500D01*
X138163574Y-114627500D01*
X138336428Y-114627500D01*
X138336429Y-114627499D01*
X138392936Y-114616259D01*
X138505949Y-114593780D01*
X138505952Y-114593778D01*
X138505957Y-114593778D01*
X138665652Y-114527631D01*
X138809374Y-114431599D01*
X138931599Y-114309374D01*
X139027631Y-114165652D01*
X139093778Y-114005957D01*
X139096195Y-113993809D01*
X139127499Y-113836430D01*
X139127500Y-113836428D01*
X139127500Y-113663571D01*
X139127499Y-113663569D01*
X139093780Y-113494050D01*
X139093777Y-113494041D01*
X139027631Y-113334348D01*
X139027629Y-113334346D01*
X139027629Y-113334344D01*
X138931599Y-113190626D01*
X138931596Y-113190622D01*
X138809377Y-113068403D01*
X138809373Y-113068400D01*
X138665655Y-112972370D01*
X138665652Y-112972369D01*
X138505958Y-112906222D01*
X138505949Y-112906219D01*
X138336429Y-112872500D01*
X138336426Y-112872500D01*
X138163574Y-112872500D01*
X138163571Y-112872500D01*
X137994050Y-112906219D01*
X137994041Y-112906222D01*
X137834347Y-112972369D01*
X137834344Y-112972370D01*
X137690626Y-113068400D01*
X137690622Y-113068403D01*
X137568403Y-113190622D01*
X137568400Y-113190626D01*
X137472370Y-113334344D01*
X137472369Y-113334347D01*
X137406222Y-113494041D01*
X137406219Y-113494050D01*
X137372500Y-113663569D01*
X134627499Y-113663569D01*
X134593780Y-113494050D01*
X134593777Y-113494041D01*
X134527631Y-113334348D01*
X134527629Y-113334346D01*
X134527629Y-113334344D01*
X134431599Y-113190626D01*
X134431596Y-113190622D01*
X134309377Y-113068403D01*
X134309373Y-113068400D01*
X134165655Y-112972370D01*
X134165652Y-112972369D01*
X134005958Y-112906222D01*
X134005949Y-112906219D01*
X133836429Y-112872500D01*
X133836426Y-112872500D01*
X133663574Y-112872500D01*
X133663571Y-112872500D01*
X133494050Y-112906219D01*
X133494041Y-112906222D01*
X133334347Y-112972369D01*
X133334344Y-112972370D01*
X133190626Y-113068400D01*
X133190622Y-113068403D01*
X133068403Y-113190622D01*
X133068400Y-113190626D01*
X132972370Y-113334344D01*
X132972369Y-113334347D01*
X132906222Y-113494041D01*
X132906219Y-113494050D01*
X132872500Y-113663569D01*
X62469899Y-113663569D01*
X62443510Y-113648333D01*
X62389145Y-113633766D01*
X62334781Y-113619200D01*
X62222219Y-113619200D01*
X62113489Y-113648333D01*
X62016009Y-113704615D01*
X62016006Y-113704617D01*
X61936417Y-113784206D01*
X61936415Y-113784209D01*
X61880133Y-113881689D01*
X61863759Y-113942800D01*
X61851000Y-113990419D01*
X54700500Y-113990419D01*
X54700500Y-110943719D01*
X56860000Y-110943719D01*
X56860000Y-111056281D01*
X56866298Y-111079785D01*
X56889133Y-111165010D01*
X56889243Y-111165200D01*
X56945415Y-111262491D01*
X57025009Y-111342085D01*
X57122491Y-111398367D01*
X57231219Y-111427500D01*
X57231221Y-111427500D01*
X57343779Y-111427500D01*
X57343781Y-111427500D01*
X57452509Y-111398367D01*
X57549991Y-111342085D01*
X57629585Y-111262491D01*
X57685867Y-111165009D01*
X57715000Y-111056281D01*
X57715000Y-110943719D01*
X57685867Y-110834991D01*
X57629585Y-110737509D01*
X57573495Y-110681419D01*
X83752700Y-110681419D01*
X83752700Y-110793980D01*
X83781833Y-110902710D01*
X83805510Y-110943719D01*
X83838115Y-111000191D01*
X83917709Y-111079785D01*
X84015191Y-111136067D01*
X84123919Y-111165200D01*
X84123921Y-111165200D01*
X84236479Y-111165200D01*
X84236481Y-111165200D01*
X84345209Y-111136067D01*
X84442691Y-111079785D01*
X84522285Y-111000191D01*
X84578567Y-110902709D01*
X84607700Y-110793981D01*
X84607700Y-110681419D01*
X84578567Y-110572691D01*
X84522285Y-110475209D01*
X84442691Y-110395615D01*
X84393950Y-110367474D01*
X84345210Y-110339333D01*
X84290845Y-110324766D01*
X84236481Y-110310200D01*
X84123919Y-110310200D01*
X84015189Y-110339333D01*
X83917709Y-110395615D01*
X83917706Y-110395617D01*
X83838117Y-110475206D01*
X83838115Y-110475209D01*
X83781833Y-110572689D01*
X83752700Y-110681419D01*
X57573495Y-110681419D01*
X57549991Y-110657915D01*
X57501250Y-110629774D01*
X57452510Y-110601633D01*
X57398145Y-110587066D01*
X57343781Y-110572500D01*
X57231219Y-110572500D01*
X57122489Y-110601633D01*
X57025009Y-110657915D01*
X57025006Y-110657917D01*
X56945417Y-110737506D01*
X56945415Y-110737509D01*
X56889133Y-110834989D01*
X56870988Y-110902709D01*
X56860000Y-110943719D01*
X54700500Y-110943719D01*
X54700500Y-108838619D01*
X105457500Y-108838619D01*
X105457500Y-108951180D01*
X105486633Y-109059910D01*
X105514774Y-109108650D01*
X105542915Y-109157391D01*
X105622509Y-109236985D01*
X105719991Y-109293267D01*
X105828719Y-109322400D01*
X105828721Y-109322400D01*
X105941279Y-109322400D01*
X105941281Y-109322400D01*
X106050009Y-109293267D01*
X106147491Y-109236985D01*
X106227085Y-109157391D01*
X106283367Y-109059909D01*
X106312500Y-108951181D01*
X106312500Y-108838619D01*
X106283367Y-108729891D01*
X106227085Y-108632409D01*
X106147491Y-108552815D01*
X106098750Y-108524674D01*
X106050010Y-108496533D01*
X105995645Y-108481966D01*
X105941281Y-108467400D01*
X105828719Y-108467400D01*
X105719989Y-108496533D01*
X105622509Y-108552815D01*
X105622506Y-108552817D01*
X105542917Y-108632406D01*
X105542915Y-108632409D01*
X105486633Y-108729889D01*
X105457500Y-108838619D01*
X54700500Y-108838619D01*
X54700500Y-105873319D01*
X123109500Y-105873319D01*
X123109500Y-105985880D01*
X123138633Y-106094610D01*
X123166774Y-106143350D01*
X123194915Y-106192091D01*
X123274509Y-106271685D01*
X123371991Y-106327967D01*
X123480719Y-106357100D01*
X123480721Y-106357100D01*
X123593279Y-106357100D01*
X123593281Y-106357100D01*
X123702009Y-106327967D01*
X123799491Y-106271685D01*
X123879085Y-106192091D01*
X123935367Y-106094609D01*
X123964500Y-105985881D01*
X123964500Y-105873319D01*
X123935367Y-105764591D01*
X123879085Y-105667109D01*
X123799491Y-105587515D01*
X123750750Y-105559374D01*
X123702010Y-105531233D01*
X123647645Y-105516666D01*
X123593281Y-105502100D01*
X123480719Y-105502100D01*
X123371989Y-105531233D01*
X123274509Y-105587515D01*
X123274506Y-105587517D01*
X123194917Y-105667106D01*
X123194915Y-105667109D01*
X123138633Y-105764589D01*
X123109500Y-105873319D01*
X54700500Y-105873319D01*
X54700500Y-104293719D01*
X59485000Y-104293719D01*
X59485000Y-104406280D01*
X59514133Y-104515010D01*
X59542274Y-104563750D01*
X59570415Y-104612491D01*
X59650009Y-104692085D01*
X59747491Y-104748367D01*
X59856219Y-104777500D01*
X59856221Y-104777500D01*
X59968779Y-104777500D01*
X59968781Y-104777500D01*
X60077509Y-104748367D01*
X60174991Y-104692085D01*
X60254585Y-104612491D01*
X60310867Y-104515009D01*
X60340000Y-104406281D01*
X60340000Y-104293719D01*
X60310867Y-104184991D01*
X60254585Y-104087509D01*
X60174991Y-104007915D01*
X60126250Y-103979774D01*
X60077510Y-103951633D01*
X60023145Y-103937066D01*
X59968781Y-103922500D01*
X59856219Y-103922500D01*
X59747489Y-103951633D01*
X59650009Y-104007915D01*
X59650006Y-104007917D01*
X59570417Y-104087506D01*
X59570415Y-104087509D01*
X59514133Y-104184989D01*
X59485000Y-104293719D01*
X54700500Y-104293719D01*
X54700500Y-101938389D01*
X68744500Y-101938389D01*
X68744500Y-102111611D01*
X68771598Y-102282701D01*
X68825127Y-102447445D01*
X68903768Y-102601788D01*
X69005586Y-102741928D01*
X69128072Y-102864414D01*
X69268212Y-102966232D01*
X69422555Y-103044873D01*
X69587299Y-103098402D01*
X69758389Y-103125500D01*
X69758390Y-103125500D01*
X69931610Y-103125500D01*
X69931611Y-103125500D01*
X70102701Y-103098402D01*
X70267445Y-103044873D01*
X70421788Y-102966232D01*
X70561928Y-102864414D01*
X70684414Y-102741928D01*
X70786232Y-102601788D01*
X70864873Y-102447445D01*
X70918402Y-102282701D01*
X70945500Y-102111611D01*
X70945500Y-101938389D01*
X70935854Y-101877486D01*
X72674500Y-101877486D01*
X72674500Y-102172513D01*
X72706571Y-102416113D01*
X72713007Y-102464993D01*
X72787212Y-102741930D01*
X72789361Y-102749951D01*
X72789364Y-102749961D01*
X72902254Y-103022500D01*
X72902258Y-103022510D01*
X73049761Y-103277993D01*
X73229352Y-103512040D01*
X73229358Y-103512047D01*
X73437952Y-103720641D01*
X73437959Y-103720647D01*
X73672006Y-103900238D01*
X73927489Y-104047741D01*
X73927490Y-104047741D01*
X73927493Y-104047743D01*
X74200048Y-104160639D01*
X74485007Y-104236993D01*
X74777494Y-104275500D01*
X74777501Y-104275500D01*
X75072499Y-104275500D01*
X75072506Y-104275500D01*
X75364993Y-104236993D01*
X75649952Y-104160639D01*
X75922507Y-104047743D01*
X76177994Y-103900238D01*
X76412042Y-103720646D01*
X76620646Y-103512042D01*
X76800238Y-103277994D01*
X76947743Y-103022507D01*
X77060639Y-102749952D01*
X77136993Y-102464993D01*
X77175500Y-102172506D01*
X77175500Y-101938389D01*
X78904500Y-101938389D01*
X78904500Y-102111611D01*
X78931598Y-102282701D01*
X78985127Y-102447445D01*
X79063768Y-102601788D01*
X79165586Y-102741928D01*
X79288072Y-102864414D01*
X79428212Y-102966232D01*
X79582555Y-103044873D01*
X79747299Y-103098402D01*
X79918389Y-103125500D01*
X79918390Y-103125500D01*
X80091610Y-103125500D01*
X80091611Y-103125500D01*
X80262701Y-103098402D01*
X80427445Y-103044873D01*
X80581788Y-102966232D01*
X80721928Y-102864414D01*
X80844414Y-102741928D01*
X80946232Y-102601788D01*
X81024873Y-102447445D01*
X81078402Y-102282701D01*
X81105500Y-102111611D01*
X81105500Y-101938389D01*
X87794500Y-101938389D01*
X87794500Y-102111611D01*
X87821598Y-102282701D01*
X87875127Y-102447445D01*
X87953768Y-102601788D01*
X88055586Y-102741928D01*
X88178072Y-102864414D01*
X88318212Y-102966232D01*
X88472555Y-103044873D01*
X88637299Y-103098402D01*
X88808389Y-103125500D01*
X88808390Y-103125500D01*
X88981610Y-103125500D01*
X88981611Y-103125500D01*
X89152701Y-103098402D01*
X89317445Y-103044873D01*
X89471788Y-102966232D01*
X89611928Y-102864414D01*
X89734414Y-102741928D01*
X89836232Y-102601788D01*
X89914873Y-102447445D01*
X89968402Y-102282701D01*
X89995500Y-102111611D01*
X89995500Y-101938389D01*
X89985854Y-101877486D01*
X91724500Y-101877486D01*
X91724500Y-102172513D01*
X91756571Y-102416113D01*
X91763007Y-102464993D01*
X91837212Y-102741930D01*
X91839361Y-102749951D01*
X91839364Y-102749961D01*
X91952254Y-103022500D01*
X91952258Y-103022510D01*
X92099761Y-103277993D01*
X92279352Y-103512040D01*
X92279358Y-103512047D01*
X92487952Y-103720641D01*
X92487959Y-103720647D01*
X92722006Y-103900238D01*
X92977489Y-104047741D01*
X92977490Y-104047741D01*
X92977493Y-104047743D01*
X93250048Y-104160639D01*
X93535007Y-104236993D01*
X93827494Y-104275500D01*
X93827501Y-104275500D01*
X94122499Y-104275500D01*
X94122506Y-104275500D01*
X94414993Y-104236993D01*
X94699952Y-104160639D01*
X94972507Y-104047743D01*
X95227994Y-103900238D01*
X95462042Y-103720646D01*
X95670646Y-103512042D01*
X95850238Y-103277994D01*
X95997743Y-103022507D01*
X96110639Y-102749952D01*
X96186993Y-102464993D01*
X96225500Y-102172506D01*
X96225500Y-101938389D01*
X97954500Y-101938389D01*
X97954500Y-102111611D01*
X97981598Y-102282701D01*
X98035127Y-102447445D01*
X98113768Y-102601788D01*
X98215586Y-102741928D01*
X98338072Y-102864414D01*
X98478212Y-102966232D01*
X98632555Y-103044873D01*
X98797299Y-103098402D01*
X98968389Y-103125500D01*
X98968390Y-103125500D01*
X99141610Y-103125500D01*
X99141611Y-103125500D01*
X99312701Y-103098402D01*
X99477445Y-103044873D01*
X99631788Y-102966232D01*
X99771928Y-102864414D01*
X99894414Y-102741928D01*
X99996232Y-102601788D01*
X100074873Y-102447445D01*
X100128402Y-102282701D01*
X100155500Y-102111611D01*
X100155500Y-101938389D01*
X106844500Y-101938389D01*
X106844500Y-102111611D01*
X106871598Y-102282701D01*
X106925127Y-102447445D01*
X107003768Y-102601788D01*
X107105586Y-102741928D01*
X107228072Y-102864414D01*
X107368212Y-102966232D01*
X107522555Y-103044873D01*
X107687299Y-103098402D01*
X107858389Y-103125500D01*
X107858390Y-103125500D01*
X108031610Y-103125500D01*
X108031611Y-103125500D01*
X108202701Y-103098402D01*
X108367445Y-103044873D01*
X108521788Y-102966232D01*
X108661928Y-102864414D01*
X108784414Y-102741928D01*
X108886232Y-102601788D01*
X108964873Y-102447445D01*
X109018402Y-102282701D01*
X109045500Y-102111611D01*
X109045500Y-101938389D01*
X109035854Y-101877486D01*
X110774500Y-101877486D01*
X110774500Y-102172513D01*
X110806571Y-102416113D01*
X110813007Y-102464993D01*
X110887212Y-102741930D01*
X110889361Y-102749951D01*
X110889364Y-102749961D01*
X111002254Y-103022500D01*
X111002258Y-103022510D01*
X111149761Y-103277993D01*
X111329352Y-103512040D01*
X111329358Y-103512047D01*
X111537952Y-103720641D01*
X111537959Y-103720647D01*
X111772006Y-103900238D01*
X112027489Y-104047741D01*
X112027490Y-104047741D01*
X112027493Y-104047743D01*
X112300048Y-104160639D01*
X112585007Y-104236993D01*
X112877494Y-104275500D01*
X112877501Y-104275500D01*
X113172499Y-104275500D01*
X113172506Y-104275500D01*
X113464993Y-104236993D01*
X113749952Y-104160639D01*
X114022507Y-104047743D01*
X114277994Y-103900238D01*
X114512042Y-103720646D01*
X114720646Y-103512042D01*
X114900238Y-103277994D01*
X115047743Y-103022507D01*
X115160639Y-102749952D01*
X115236993Y-102464993D01*
X115275500Y-102172506D01*
X115275500Y-101938389D01*
X117004500Y-101938389D01*
X117004500Y-102111611D01*
X117031598Y-102282701D01*
X117085127Y-102447445D01*
X117163768Y-102601788D01*
X117265586Y-102741928D01*
X117388072Y-102864414D01*
X117528212Y-102966232D01*
X117682555Y-103044873D01*
X117847299Y-103098402D01*
X118018389Y-103125500D01*
X118018390Y-103125500D01*
X118191610Y-103125500D01*
X118191611Y-103125500D01*
X118362701Y-103098402D01*
X118527445Y-103044873D01*
X118681788Y-102966232D01*
X118821928Y-102864414D01*
X118944414Y-102741928D01*
X119046232Y-102601788D01*
X119124873Y-102447445D01*
X119178402Y-102282701D01*
X119205500Y-102111611D01*
X119205500Y-101938389D01*
X125894500Y-101938389D01*
X125894500Y-102111611D01*
X125921598Y-102282701D01*
X125975127Y-102447445D01*
X126053768Y-102601788D01*
X126155586Y-102741928D01*
X126278072Y-102864414D01*
X126418212Y-102966232D01*
X126572555Y-103044873D01*
X126737299Y-103098402D01*
X126908389Y-103125500D01*
X126908390Y-103125500D01*
X127081610Y-103125500D01*
X127081611Y-103125500D01*
X127252701Y-103098402D01*
X127417445Y-103044873D01*
X127571788Y-102966232D01*
X127711928Y-102864414D01*
X127834414Y-102741928D01*
X127936232Y-102601788D01*
X128014873Y-102447445D01*
X128068402Y-102282701D01*
X128095500Y-102111611D01*
X128095500Y-101938389D01*
X128085854Y-101877486D01*
X129824500Y-101877486D01*
X129824500Y-102172513D01*
X129856571Y-102416113D01*
X129863007Y-102464993D01*
X129937212Y-102741930D01*
X129939361Y-102749951D01*
X129939364Y-102749961D01*
X130052254Y-103022500D01*
X130052258Y-103022510D01*
X130199761Y-103277993D01*
X130379352Y-103512040D01*
X130379358Y-103512047D01*
X130587952Y-103720641D01*
X130587959Y-103720647D01*
X130822006Y-103900238D01*
X131077489Y-104047741D01*
X131077490Y-104047741D01*
X131077493Y-104047743D01*
X131350048Y-104160639D01*
X131635007Y-104236993D01*
X131927494Y-104275500D01*
X131927501Y-104275500D01*
X132222499Y-104275500D01*
X132222506Y-104275500D01*
X132514993Y-104236993D01*
X132799952Y-104160639D01*
X133072507Y-104047743D01*
X133327994Y-103900238D01*
X133562042Y-103720646D01*
X133770646Y-103512042D01*
X133950238Y-103277994D01*
X134097743Y-103022507D01*
X134210639Y-102749952D01*
X134286993Y-102464993D01*
X134325500Y-102172506D01*
X134325500Y-101938389D01*
X136054500Y-101938389D01*
X136054500Y-102111611D01*
X136081598Y-102282701D01*
X136135127Y-102447445D01*
X136213768Y-102601788D01*
X136315586Y-102741928D01*
X136438072Y-102864414D01*
X136578212Y-102966232D01*
X136732555Y-103044873D01*
X136897299Y-103098402D01*
X137068389Y-103125500D01*
X137068390Y-103125500D01*
X137241610Y-103125500D01*
X137241611Y-103125500D01*
X137412701Y-103098402D01*
X137577445Y-103044873D01*
X137731788Y-102966232D01*
X137871928Y-102864414D01*
X137994414Y-102741928D01*
X138096232Y-102601788D01*
X138174873Y-102447445D01*
X138228402Y-102282701D01*
X138255500Y-102111611D01*
X138255500Y-101938389D01*
X138228402Y-101767299D01*
X138174873Y-101602555D01*
X138096232Y-101448212D01*
X137994414Y-101308072D01*
X137871928Y-101185586D01*
X137731788Y-101083768D01*
X137577445Y-101005127D01*
X137412701Y-100951598D01*
X137412699Y-100951597D01*
X137412698Y-100951597D01*
X137281271Y-100930781D01*
X137241611Y-100924500D01*
X137068389Y-100924500D01*
X137028728Y-100930781D01*
X136897302Y-100951597D01*
X136732552Y-101005128D01*
X136578211Y-101083768D01*
X136498256Y-101141859D01*
X136438072Y-101185586D01*
X136438070Y-101185588D01*
X136438069Y-101185588D01*
X136315588Y-101308069D01*
X136315588Y-101308070D01*
X136315586Y-101308072D01*
X136271859Y-101368256D01*
X136213768Y-101448211D01*
X136135128Y-101602552D01*
X136081597Y-101767302D01*
X136054500Y-101938389D01*
X134325500Y-101938389D01*
X134325500Y-101877494D01*
X134286993Y-101585007D01*
X134210639Y-101300048D01*
X134097743Y-101027493D01*
X133982901Y-100828581D01*
X133950238Y-100772006D01*
X133770647Y-100537959D01*
X133770641Y-100537952D01*
X133562047Y-100329358D01*
X133562040Y-100329352D01*
X133327993Y-100149761D01*
X133072510Y-100002258D01*
X133072500Y-100002254D01*
X132799961Y-99889364D01*
X132799954Y-99889362D01*
X132799952Y-99889361D01*
X132514993Y-99813007D01*
X132466113Y-99806571D01*
X132222513Y-99774500D01*
X132222506Y-99774500D01*
X131927494Y-99774500D01*
X131927486Y-99774500D01*
X131649085Y-99811153D01*
X131635007Y-99813007D01*
X131385921Y-99879749D01*
X131350048Y-99889361D01*
X131350038Y-99889364D01*
X131077499Y-100002254D01*
X131077489Y-100002258D01*
X130822006Y-100149761D01*
X130587959Y-100329352D01*
X130587952Y-100329358D01*
X130379358Y-100537952D01*
X130379352Y-100537959D01*
X130199761Y-100772006D01*
X130052258Y-101027489D01*
X130052254Y-101027499D01*
X129939364Y-101300038D01*
X129939361Y-101300048D01*
X129863008Y-101585004D01*
X129863006Y-101585015D01*
X129824500Y-101877486D01*
X128085854Y-101877486D01*
X128068402Y-101767299D01*
X128014873Y-101602555D01*
X127936232Y-101448212D01*
X127834414Y-101308072D01*
X127711928Y-101185586D01*
X127571788Y-101083768D01*
X127417445Y-101005127D01*
X127252701Y-100951598D01*
X127252699Y-100951597D01*
X127252698Y-100951597D01*
X127121271Y-100930781D01*
X127081611Y-100924500D01*
X126908389Y-100924500D01*
X126868728Y-100930781D01*
X126737302Y-100951597D01*
X126572552Y-101005128D01*
X126418211Y-101083768D01*
X126338256Y-101141859D01*
X126278072Y-101185586D01*
X126278070Y-101185588D01*
X126278069Y-101185588D01*
X126155588Y-101308069D01*
X126155588Y-101308070D01*
X126155586Y-101308072D01*
X126111859Y-101368256D01*
X126053768Y-101448211D01*
X125975128Y-101602552D01*
X125921597Y-101767302D01*
X125894500Y-101938389D01*
X119205500Y-101938389D01*
X119178402Y-101767299D01*
X119124873Y-101602555D01*
X119046232Y-101448212D01*
X118944414Y-101308072D01*
X118821928Y-101185586D01*
X118681788Y-101083768D01*
X118527445Y-101005127D01*
X118362701Y-100951598D01*
X118362699Y-100951597D01*
X118362698Y-100951597D01*
X118231271Y-100930781D01*
X118191611Y-100924500D01*
X118018389Y-100924500D01*
X117978728Y-100930781D01*
X117847302Y-100951597D01*
X117682552Y-101005128D01*
X117528211Y-101083768D01*
X117448256Y-101141859D01*
X117388072Y-101185586D01*
X117388070Y-101185588D01*
X117388069Y-101185588D01*
X117265588Y-101308069D01*
X117265588Y-101308070D01*
X117265586Y-101308072D01*
X117221859Y-101368256D01*
X117163768Y-101448211D01*
X117085128Y-101602552D01*
X117031597Y-101767302D01*
X117004500Y-101938389D01*
X115275500Y-101938389D01*
X115275500Y-101877494D01*
X115236993Y-101585007D01*
X115160639Y-101300048D01*
X115047743Y-101027493D01*
X114932901Y-100828581D01*
X114900238Y-100772006D01*
X114720647Y-100537959D01*
X114720641Y-100537952D01*
X114512047Y-100329358D01*
X114512040Y-100329352D01*
X114277993Y-100149761D01*
X114022510Y-100002258D01*
X114022500Y-100002254D01*
X113749961Y-99889364D01*
X113749954Y-99889362D01*
X113749952Y-99889361D01*
X113464993Y-99813007D01*
X113416113Y-99806571D01*
X113172513Y-99774500D01*
X113172506Y-99774500D01*
X112877494Y-99774500D01*
X112877486Y-99774500D01*
X112599085Y-99811153D01*
X112585007Y-99813007D01*
X112335921Y-99879749D01*
X112300048Y-99889361D01*
X112300038Y-99889364D01*
X112027499Y-100002254D01*
X112027489Y-100002258D01*
X111772006Y-100149761D01*
X111537959Y-100329352D01*
X111537952Y-100329358D01*
X111329358Y-100537952D01*
X111329352Y-100537959D01*
X111149761Y-100772006D01*
X111002258Y-101027489D01*
X111002254Y-101027499D01*
X110889364Y-101300038D01*
X110889361Y-101300048D01*
X110813008Y-101585004D01*
X110813006Y-101585015D01*
X110774500Y-101877486D01*
X109035854Y-101877486D01*
X109018402Y-101767299D01*
X108964873Y-101602555D01*
X108886232Y-101448212D01*
X108784414Y-101308072D01*
X108661928Y-101185586D01*
X108521788Y-101083768D01*
X108367445Y-101005127D01*
X108202701Y-100951598D01*
X108202699Y-100951597D01*
X108202698Y-100951597D01*
X108071271Y-100930781D01*
X108031611Y-100924500D01*
X107858389Y-100924500D01*
X107818728Y-100930781D01*
X107687302Y-100951597D01*
X107522552Y-101005128D01*
X107368211Y-101083768D01*
X107288256Y-101141859D01*
X107228072Y-101185586D01*
X107228070Y-101185588D01*
X107228069Y-101185588D01*
X107105588Y-101308069D01*
X107105588Y-101308070D01*
X107105586Y-101308072D01*
X107061859Y-101368256D01*
X107003768Y-101448211D01*
X106925128Y-101602552D01*
X106871597Y-101767302D01*
X106844500Y-101938389D01*
X100155500Y-101938389D01*
X100128402Y-101767299D01*
X100074873Y-101602555D01*
X99996232Y-101448212D01*
X99894414Y-101308072D01*
X99771928Y-101185586D01*
X99631788Y-101083768D01*
X99477445Y-101005127D01*
X99312701Y-100951598D01*
X99312699Y-100951597D01*
X99312698Y-100951597D01*
X99181271Y-100930781D01*
X99141611Y-100924500D01*
X98968389Y-100924500D01*
X98928728Y-100930781D01*
X98797302Y-100951597D01*
X98632552Y-101005128D01*
X98478211Y-101083768D01*
X98398256Y-101141859D01*
X98338072Y-101185586D01*
X98338070Y-101185588D01*
X98338069Y-101185588D01*
X98215588Y-101308069D01*
X98215588Y-101308070D01*
X98215586Y-101308072D01*
X98171859Y-101368256D01*
X98113768Y-101448211D01*
X98035128Y-101602552D01*
X97981597Y-101767302D01*
X97954500Y-101938389D01*
X96225500Y-101938389D01*
X96225500Y-101877494D01*
X96186993Y-101585007D01*
X96110639Y-101300048D01*
X95997743Y-101027493D01*
X95882901Y-100828581D01*
X95850238Y-100772006D01*
X95670647Y-100537959D01*
X95670641Y-100537952D01*
X95462047Y-100329358D01*
X95462040Y-100329352D01*
X95227993Y-100149761D01*
X94972510Y-100002258D01*
X94972500Y-100002254D01*
X94699961Y-99889364D01*
X94699954Y-99889362D01*
X94699952Y-99889361D01*
X94414993Y-99813007D01*
X94366113Y-99806571D01*
X94122513Y-99774500D01*
X94122506Y-99774500D01*
X93827494Y-99774500D01*
X93827486Y-99774500D01*
X93549085Y-99811153D01*
X93535007Y-99813007D01*
X93285921Y-99879749D01*
X93250048Y-99889361D01*
X93250038Y-99889364D01*
X92977499Y-100002254D01*
X92977489Y-100002258D01*
X92722006Y-100149761D01*
X92487959Y-100329352D01*
X92487952Y-100329358D01*
X92279358Y-100537952D01*
X92279352Y-100537959D01*
X92099761Y-100772006D01*
X91952258Y-101027489D01*
X91952254Y-101027499D01*
X91839364Y-101300038D01*
X91839361Y-101300048D01*
X91763008Y-101585004D01*
X91763006Y-101585015D01*
X91724500Y-101877486D01*
X89985854Y-101877486D01*
X89968402Y-101767299D01*
X89914873Y-101602555D01*
X89836232Y-101448212D01*
X89734414Y-101308072D01*
X89611928Y-101185586D01*
X89471788Y-101083768D01*
X89317445Y-101005127D01*
X89152701Y-100951598D01*
X89152699Y-100951597D01*
X89152698Y-100951597D01*
X89021271Y-100930781D01*
X88981611Y-100924500D01*
X88808389Y-100924500D01*
X88768728Y-100930781D01*
X88637302Y-100951597D01*
X88472552Y-101005128D01*
X88318211Y-101083768D01*
X88238256Y-101141859D01*
X88178072Y-101185586D01*
X88178070Y-101185588D01*
X88178069Y-101185588D01*
X88055588Y-101308069D01*
X88055588Y-101308070D01*
X88055586Y-101308072D01*
X88011859Y-101368256D01*
X87953768Y-101448211D01*
X87875128Y-101602552D01*
X87821597Y-101767302D01*
X87794500Y-101938389D01*
X81105500Y-101938389D01*
X81078402Y-101767299D01*
X81024873Y-101602555D01*
X80946232Y-101448212D01*
X80844414Y-101308072D01*
X80721928Y-101185586D01*
X80581788Y-101083768D01*
X80427445Y-101005127D01*
X80262701Y-100951598D01*
X80262699Y-100951597D01*
X80262698Y-100951597D01*
X80131271Y-100930781D01*
X80091611Y-100924500D01*
X79918389Y-100924500D01*
X79878728Y-100930781D01*
X79747302Y-100951597D01*
X79582552Y-101005128D01*
X79428211Y-101083768D01*
X79348256Y-101141859D01*
X79288072Y-101185586D01*
X79288070Y-101185588D01*
X79288069Y-101185588D01*
X79165588Y-101308069D01*
X79165588Y-101308070D01*
X79165586Y-101308072D01*
X79121859Y-101368256D01*
X79063768Y-101448211D01*
X78985128Y-101602552D01*
X78931597Y-101767302D01*
X78904500Y-101938389D01*
X77175500Y-101938389D01*
X77175500Y-101877494D01*
X77136993Y-101585007D01*
X77060639Y-101300048D01*
X76947743Y-101027493D01*
X76832901Y-100828581D01*
X76800238Y-100772006D01*
X76620647Y-100537959D01*
X76620641Y-100537952D01*
X76412047Y-100329358D01*
X76412040Y-100329352D01*
X76177993Y-100149761D01*
X75922510Y-100002258D01*
X75922500Y-100002254D01*
X75649961Y-99889364D01*
X75649954Y-99889362D01*
X75649952Y-99889361D01*
X75364993Y-99813007D01*
X75316113Y-99806571D01*
X75072513Y-99774500D01*
X75072506Y-99774500D01*
X74777494Y-99774500D01*
X74777486Y-99774500D01*
X74499085Y-99811153D01*
X74485007Y-99813007D01*
X74235921Y-99879749D01*
X74200048Y-99889361D01*
X74200038Y-99889364D01*
X73927499Y-100002254D01*
X73927489Y-100002258D01*
X73672006Y-100149761D01*
X73437959Y-100329352D01*
X73437952Y-100329358D01*
X73229358Y-100537952D01*
X73229352Y-100537959D01*
X73049761Y-100772006D01*
X72902258Y-101027489D01*
X72902254Y-101027499D01*
X72789364Y-101300038D01*
X72789361Y-101300048D01*
X72713008Y-101585004D01*
X72713006Y-101585015D01*
X72674500Y-101877486D01*
X70935854Y-101877486D01*
X70918402Y-101767299D01*
X70864873Y-101602555D01*
X70786232Y-101448212D01*
X70684414Y-101308072D01*
X70561928Y-101185586D01*
X70421788Y-101083768D01*
X70267445Y-101005127D01*
X70102701Y-100951598D01*
X70102699Y-100951597D01*
X70102698Y-100951597D01*
X69971271Y-100930781D01*
X69931611Y-100924500D01*
X69758389Y-100924500D01*
X69718728Y-100930781D01*
X69587302Y-100951597D01*
X69422552Y-101005128D01*
X69268211Y-101083768D01*
X69188256Y-101141859D01*
X69128072Y-101185586D01*
X69128070Y-101185588D01*
X69128069Y-101185588D01*
X69005588Y-101308069D01*
X69005588Y-101308070D01*
X69005586Y-101308072D01*
X68961859Y-101368256D01*
X68903768Y-101448211D01*
X68825128Y-101602552D01*
X68771597Y-101767302D01*
X68744500Y-101938389D01*
X54700500Y-101938389D01*
X54700500Y-98317441D01*
X59122500Y-98317441D01*
X59122500Y-99842558D01*
X59129898Y-99879749D01*
X59158077Y-99921922D01*
X59200250Y-99950101D01*
X59200252Y-99950102D01*
X59228205Y-99955662D01*
X59237441Y-99957500D01*
X59237442Y-99957500D01*
X60762559Y-99957500D01*
X60769957Y-99956028D01*
X60799748Y-99950102D01*
X60841922Y-99921922D01*
X60870102Y-99879748D01*
X60877500Y-99842558D01*
X60877500Y-99376582D01*
X69737500Y-99376582D01*
X69737500Y-99593417D01*
X69771418Y-99807566D01*
X69838418Y-100013774D01*
X69838420Y-100013777D01*
X69936856Y-100206968D01*
X70064301Y-100382381D01*
X70217619Y-100535699D01*
X70393032Y-100663144D01*
X70586223Y-100761580D01*
X70586225Y-100761581D01*
X70689329Y-100795081D01*
X70792435Y-100828582D01*
X70891619Y-100844291D01*
X71006583Y-100862500D01*
X71006588Y-100862500D01*
X71223417Y-100862500D01*
X71327233Y-100846056D01*
X71437565Y-100828582D01*
X71643777Y-100761580D01*
X71836968Y-100663144D01*
X72012381Y-100535699D01*
X72165699Y-100382381D01*
X72293144Y-100206968D01*
X72391580Y-100013777D01*
X72458582Y-99807565D01*
X72476056Y-99697233D01*
X72492500Y-99593417D01*
X72492500Y-99376582D01*
X88787500Y-99376582D01*
X88787500Y-99593417D01*
X88821418Y-99807566D01*
X88888418Y-100013774D01*
X88888420Y-100013777D01*
X88986856Y-100206968D01*
X89114301Y-100382381D01*
X89267619Y-100535699D01*
X89443032Y-100663144D01*
X89636223Y-100761580D01*
X89636225Y-100761581D01*
X89739329Y-100795081D01*
X89842435Y-100828582D01*
X89941619Y-100844291D01*
X90056583Y-100862500D01*
X90056588Y-100862500D01*
X90273417Y-100862500D01*
X90377233Y-100846056D01*
X90487565Y-100828582D01*
X90693777Y-100761580D01*
X90886968Y-100663144D01*
X91062381Y-100535699D01*
X91215699Y-100382381D01*
X91343144Y-100206968D01*
X91441580Y-100013777D01*
X91508582Y-99807565D01*
X91526056Y-99697233D01*
X91542500Y-99593417D01*
X91542500Y-99376582D01*
X107837500Y-99376582D01*
X107837500Y-99593417D01*
X107871418Y-99807566D01*
X107938418Y-100013774D01*
X107938420Y-100013777D01*
X108036856Y-100206968D01*
X108164301Y-100382381D01*
X108317619Y-100535699D01*
X108493032Y-100663144D01*
X108686223Y-100761580D01*
X108686225Y-100761581D01*
X108789329Y-100795081D01*
X108892435Y-100828582D01*
X108991619Y-100844291D01*
X109106583Y-100862500D01*
X109106588Y-100862500D01*
X109323417Y-100862500D01*
X109427233Y-100846056D01*
X109537565Y-100828582D01*
X109743777Y-100761580D01*
X109936968Y-100663144D01*
X110112381Y-100535699D01*
X110265699Y-100382381D01*
X110393144Y-100206968D01*
X110491580Y-100013777D01*
X110558582Y-99807565D01*
X110576056Y-99697233D01*
X110592500Y-99593417D01*
X110592500Y-99376582D01*
X126887500Y-99376582D01*
X126887500Y-99593417D01*
X126921418Y-99807566D01*
X126988418Y-100013774D01*
X126988420Y-100013777D01*
X127086856Y-100206968D01*
X127214301Y-100382381D01*
X127367619Y-100535699D01*
X127543032Y-100663144D01*
X127736223Y-100761580D01*
X127736225Y-100761581D01*
X127839329Y-100795081D01*
X127942435Y-100828582D01*
X128041619Y-100844291D01*
X128156583Y-100862500D01*
X128156588Y-100862500D01*
X128373417Y-100862500D01*
X128477233Y-100846056D01*
X128587565Y-100828582D01*
X128793777Y-100761580D01*
X128986968Y-100663144D01*
X129162381Y-100535699D01*
X129315699Y-100382381D01*
X129443144Y-100206968D01*
X129541580Y-100013777D01*
X129608582Y-99807565D01*
X129626056Y-99697233D01*
X129642500Y-99593417D01*
X129642500Y-99376582D01*
X129622767Y-99252002D01*
X129608582Y-99162435D01*
X129541580Y-98956223D01*
X129443144Y-98763032D01*
X129315699Y-98587619D01*
X129162381Y-98434301D01*
X128986968Y-98306856D01*
X128934751Y-98280250D01*
X128793774Y-98208418D01*
X128587566Y-98141418D01*
X128373417Y-98107500D01*
X128373412Y-98107500D01*
X128156588Y-98107500D01*
X128156583Y-98107500D01*
X127942433Y-98141418D01*
X127736225Y-98208418D01*
X127543031Y-98306856D01*
X127442952Y-98379568D01*
X127367619Y-98434301D01*
X127367617Y-98434303D01*
X127367616Y-98434303D01*
X127214303Y-98587616D01*
X127214303Y-98587617D01*
X127214301Y-98587619D01*
X127159568Y-98662952D01*
X127086856Y-98763031D01*
X126988418Y-98956225D01*
X126921418Y-99162433D01*
X126887500Y-99376582D01*
X110592500Y-99376582D01*
X110572767Y-99252002D01*
X110558582Y-99162435D01*
X110491580Y-98956223D01*
X110393144Y-98763032D01*
X110265699Y-98587619D01*
X110112381Y-98434301D01*
X109936968Y-98306856D01*
X109884751Y-98280250D01*
X109743774Y-98208418D01*
X109537566Y-98141418D01*
X109323417Y-98107500D01*
X109323412Y-98107500D01*
X109106588Y-98107500D01*
X109106583Y-98107500D01*
X108892433Y-98141418D01*
X108686225Y-98208418D01*
X108493031Y-98306856D01*
X108392952Y-98379568D01*
X108317619Y-98434301D01*
X108317617Y-98434303D01*
X108317616Y-98434303D01*
X108164303Y-98587616D01*
X108164303Y-98587617D01*
X108164301Y-98587619D01*
X108109568Y-98662952D01*
X108036856Y-98763031D01*
X107938418Y-98956225D01*
X107871418Y-99162433D01*
X107837500Y-99376582D01*
X91542500Y-99376582D01*
X91522767Y-99252002D01*
X91508582Y-99162435D01*
X91441580Y-98956223D01*
X91343144Y-98763032D01*
X91215699Y-98587619D01*
X91062381Y-98434301D01*
X90886968Y-98306856D01*
X90834751Y-98280250D01*
X90693774Y-98208418D01*
X90487566Y-98141418D01*
X90273417Y-98107500D01*
X90273412Y-98107500D01*
X90056588Y-98107500D01*
X90056583Y-98107500D01*
X89842433Y-98141418D01*
X89636225Y-98208418D01*
X89443031Y-98306856D01*
X89342952Y-98379568D01*
X89267619Y-98434301D01*
X89267617Y-98434303D01*
X89267616Y-98434303D01*
X89114303Y-98587616D01*
X89114303Y-98587617D01*
X89114301Y-98587619D01*
X89059568Y-98662952D01*
X88986856Y-98763031D01*
X88888418Y-98956225D01*
X88821418Y-99162433D01*
X88787500Y-99376582D01*
X72492500Y-99376582D01*
X72472767Y-99252002D01*
X72458582Y-99162435D01*
X72391580Y-98956223D01*
X72293144Y-98763032D01*
X72165699Y-98587619D01*
X72012381Y-98434301D01*
X71836968Y-98306856D01*
X71784751Y-98280250D01*
X71643774Y-98208418D01*
X71437566Y-98141418D01*
X71223417Y-98107500D01*
X71223412Y-98107500D01*
X71006588Y-98107500D01*
X71006583Y-98107500D01*
X70792433Y-98141418D01*
X70586225Y-98208418D01*
X70393031Y-98306856D01*
X70292952Y-98379568D01*
X70217619Y-98434301D01*
X70217617Y-98434303D01*
X70217616Y-98434303D01*
X70064303Y-98587616D01*
X70064303Y-98587617D01*
X70064301Y-98587619D01*
X70009568Y-98662952D01*
X69936856Y-98763031D01*
X69838418Y-98956225D01*
X69771418Y-99162433D01*
X69737500Y-99376582D01*
X60877500Y-99376582D01*
X60877500Y-98317442D01*
X60870102Y-98280252D01*
X60870101Y-98280250D01*
X60841922Y-98238077D01*
X60799749Y-98209898D01*
X60762559Y-98202500D01*
X60762558Y-98202500D01*
X59237442Y-98202500D01*
X59237441Y-98202500D01*
X59200250Y-98209898D01*
X59158077Y-98238077D01*
X59129898Y-98280250D01*
X59122500Y-98317441D01*
X54700500Y-98317441D01*
X54700500Y-96453569D01*
X59122500Y-96453569D01*
X59122500Y-96626430D01*
X59156219Y-96795949D01*
X59156222Y-96795958D01*
X59222369Y-96955652D01*
X59222370Y-96955655D01*
X59318400Y-97099373D01*
X59318403Y-97099377D01*
X59440622Y-97221596D01*
X59440626Y-97221599D01*
X59584344Y-97317629D01*
X59584346Y-97317629D01*
X59584348Y-97317631D01*
X59744043Y-97383778D01*
X59744045Y-97383778D01*
X59744050Y-97383780D01*
X59913569Y-97417499D01*
X59913572Y-97417500D01*
X59913574Y-97417500D01*
X60086428Y-97417500D01*
X60086429Y-97417499D01*
X60142936Y-97406259D01*
X60255949Y-97383780D01*
X60255952Y-97383778D01*
X60255957Y-97383778D01*
X60415652Y-97317631D01*
X60559374Y-97221599D01*
X60681599Y-97099374D01*
X60777631Y-96955652D01*
X60822794Y-96846617D01*
X76215000Y-96846617D01*
X76215000Y-97043382D01*
X76245778Y-97237705D01*
X76306581Y-97424835D01*
X76395904Y-97600143D01*
X76511555Y-97759321D01*
X76650678Y-97898444D01*
X76809856Y-98014095D01*
X76985164Y-98103418D01*
X77172294Y-98164221D01*
X77366618Y-98195000D01*
X77563382Y-98195000D01*
X77757705Y-98164221D01*
X77944835Y-98103418D01*
X78120143Y-98014095D01*
X78279321Y-97898444D01*
X78418444Y-97759321D01*
X78534095Y-97600143D01*
X78623418Y-97424835D01*
X78684221Y-97237705D01*
X78715000Y-97043382D01*
X78715000Y-96846617D01*
X95265000Y-96846617D01*
X95265000Y-97043382D01*
X95295778Y-97237705D01*
X95356581Y-97424835D01*
X95445904Y-97600143D01*
X95561555Y-97759321D01*
X95700678Y-97898444D01*
X95859856Y-98014095D01*
X96035164Y-98103418D01*
X96222294Y-98164221D01*
X96416618Y-98195000D01*
X96613382Y-98195000D01*
X96807705Y-98164221D01*
X96994835Y-98103418D01*
X97170143Y-98014095D01*
X97329321Y-97898444D01*
X97468444Y-97759321D01*
X97584095Y-97600143D01*
X97673418Y-97424835D01*
X97734221Y-97237705D01*
X97765000Y-97043382D01*
X97765000Y-96846617D01*
X114315000Y-96846617D01*
X114315000Y-97043382D01*
X114345778Y-97237705D01*
X114406581Y-97424835D01*
X114495904Y-97600143D01*
X114611555Y-97759321D01*
X114750678Y-97898444D01*
X114909856Y-98014095D01*
X115085164Y-98103418D01*
X115272294Y-98164221D01*
X115466618Y-98195000D01*
X115663382Y-98195000D01*
X115857705Y-98164221D01*
X116044835Y-98103418D01*
X116220143Y-98014095D01*
X116379321Y-97898444D01*
X116518444Y-97759321D01*
X116634095Y-97600143D01*
X116723418Y-97424835D01*
X116784221Y-97237705D01*
X116815000Y-97043382D01*
X116815000Y-96846617D01*
X133365000Y-96846617D01*
X133365000Y-97043382D01*
X133395778Y-97237705D01*
X133456581Y-97424835D01*
X133545904Y-97600143D01*
X133661555Y-97759321D01*
X133800678Y-97898444D01*
X133959856Y-98014095D01*
X134135164Y-98103418D01*
X134322294Y-98164221D01*
X134516618Y-98195000D01*
X134713382Y-98195000D01*
X134907705Y-98164221D01*
X135094835Y-98103418D01*
X135270143Y-98014095D01*
X135429321Y-97898444D01*
X135568444Y-97759321D01*
X135684095Y-97600143D01*
X135773418Y-97424835D01*
X135834221Y-97237705D01*
X135865000Y-97043382D01*
X135865000Y-96846617D01*
X135834221Y-96652294D01*
X135773418Y-96465164D01*
X135684095Y-96289856D01*
X135568444Y-96130678D01*
X135429321Y-95991555D01*
X135270143Y-95875904D01*
X135094835Y-95786581D01*
X134907705Y-95725778D01*
X134713382Y-95695000D01*
X134516618Y-95695000D01*
X134322294Y-95725778D01*
X134135164Y-95786581D01*
X133959856Y-95875904D01*
X133800678Y-95991555D01*
X133661555Y-96130678D01*
X133545904Y-96289856D01*
X133456581Y-96465164D01*
X133395778Y-96652294D01*
X133365000Y-96846617D01*
X116815000Y-96846617D01*
X116784221Y-96652294D01*
X116723418Y-96465164D01*
X116634095Y-96289856D01*
X116518444Y-96130678D01*
X116379321Y-95991555D01*
X116220143Y-95875904D01*
X116044835Y-95786581D01*
X115857705Y-95725778D01*
X115663382Y-95695000D01*
X115466618Y-95695000D01*
X115272294Y-95725778D01*
X115085164Y-95786581D01*
X114909856Y-95875904D01*
X114750678Y-95991555D01*
X114611555Y-96130678D01*
X114495904Y-96289856D01*
X114406581Y-96465164D01*
X114345778Y-96652294D01*
X114315000Y-96846617D01*
X97765000Y-96846617D01*
X97734221Y-96652294D01*
X97673418Y-96465164D01*
X97584095Y-96289856D01*
X97468444Y-96130678D01*
X97329321Y-95991555D01*
X97170143Y-95875904D01*
X96994835Y-95786581D01*
X96807705Y-95725778D01*
X96613382Y-95695000D01*
X96416618Y-95695000D01*
X96222294Y-95725778D01*
X96035164Y-95786581D01*
X95859856Y-95875904D01*
X95700678Y-95991555D01*
X95561555Y-96130678D01*
X95445904Y-96289856D01*
X95356581Y-96465164D01*
X95295778Y-96652294D01*
X95265000Y-96846617D01*
X78715000Y-96846617D01*
X78684221Y-96652294D01*
X78623418Y-96465164D01*
X78534095Y-96289856D01*
X78418444Y-96130678D01*
X78279321Y-95991555D01*
X78120143Y-95875904D01*
X77944835Y-95786581D01*
X77757705Y-95725778D01*
X77563382Y-95695000D01*
X77366618Y-95695000D01*
X77172294Y-95725778D01*
X76985164Y-95786581D01*
X76809856Y-95875904D01*
X76650678Y-95991555D01*
X76511555Y-96130678D01*
X76395904Y-96289856D01*
X76306581Y-96465164D01*
X76245778Y-96652294D01*
X76215000Y-96846617D01*
X60822794Y-96846617D01*
X60843778Y-96795957D01*
X60877500Y-96626426D01*
X60877500Y-96453574D01*
X60877500Y-96453571D01*
X60877499Y-96453569D01*
X60843780Y-96284050D01*
X60843777Y-96284041D01*
X60818834Y-96223822D01*
X60777631Y-96124348D01*
X60777629Y-96124346D01*
X60777629Y-96124344D01*
X60681599Y-95980626D01*
X60681596Y-95980622D01*
X60559377Y-95858403D01*
X60559373Y-95858400D01*
X60415655Y-95762370D01*
X60415652Y-95762369D01*
X60255958Y-95696222D01*
X60255949Y-95696219D01*
X60086429Y-95662500D01*
X60086426Y-95662500D01*
X59913574Y-95662500D01*
X59913571Y-95662500D01*
X59744050Y-95696219D01*
X59744041Y-95696222D01*
X59584347Y-95762369D01*
X59584344Y-95762370D01*
X59440626Y-95858400D01*
X59440622Y-95858403D01*
X59318403Y-95980622D01*
X59318400Y-95980626D01*
X59222370Y-96124344D01*
X59222369Y-96124347D01*
X59156222Y-96284041D01*
X59156219Y-96284050D01*
X59122500Y-96453569D01*
X54700500Y-96453569D01*
X54700500Y-93913569D01*
X59122500Y-93913569D01*
X59122500Y-94086430D01*
X59156219Y-94255949D01*
X59156222Y-94255958D01*
X59222369Y-94415652D01*
X59222370Y-94415655D01*
X59318400Y-94559373D01*
X59318403Y-94559377D01*
X59440622Y-94681596D01*
X59440626Y-94681599D01*
X59584344Y-94777629D01*
X59584346Y-94777629D01*
X59584348Y-94777631D01*
X59744043Y-94843778D01*
X59744045Y-94843778D01*
X59744050Y-94843780D01*
X59913569Y-94877499D01*
X59913572Y-94877500D01*
X59913574Y-94877500D01*
X60086428Y-94877500D01*
X60086429Y-94877499D01*
X60142936Y-94866259D01*
X60255949Y-94843780D01*
X60255952Y-94843778D01*
X60255957Y-94843778D01*
X60415652Y-94777631D01*
X60559374Y-94681599D01*
X60681599Y-94559374D01*
X60777631Y-94415652D01*
X60843778Y-94255957D01*
X60877500Y-94086426D01*
X60877500Y-93913574D01*
X60877500Y-93913571D01*
X60877499Y-93913569D01*
X60843780Y-93744050D01*
X60843777Y-93744041D01*
X60777631Y-93584348D01*
X60777629Y-93584346D01*
X60777629Y-93584344D01*
X60681599Y-93440626D01*
X60681596Y-93440622D01*
X60559377Y-93318403D01*
X60559373Y-93318400D01*
X60415655Y-93222370D01*
X60415652Y-93222369D01*
X60255958Y-93156222D01*
X60255949Y-93156219D01*
X60086429Y-93122500D01*
X60086426Y-93122500D01*
X59913574Y-93122500D01*
X59913571Y-93122500D01*
X59744050Y-93156219D01*
X59744041Y-93156222D01*
X59584347Y-93222369D01*
X59584344Y-93222370D01*
X59440626Y-93318400D01*
X59440622Y-93318403D01*
X59318403Y-93440622D01*
X59318400Y-93440626D01*
X59222370Y-93584344D01*
X59222369Y-93584347D01*
X59156222Y-93744041D01*
X59156219Y-93744050D01*
X59122500Y-93913569D01*
X54700500Y-93913569D01*
X54700500Y-91373569D01*
X59122500Y-91373569D01*
X59122500Y-91546430D01*
X59156219Y-91715949D01*
X59156222Y-91715958D01*
X59222369Y-91875652D01*
X59222370Y-91875655D01*
X59318400Y-92019373D01*
X59318403Y-92019377D01*
X59440622Y-92141596D01*
X59440626Y-92141599D01*
X59584344Y-92237629D01*
X59584346Y-92237629D01*
X59584348Y-92237631D01*
X59744043Y-92303778D01*
X59744045Y-92303778D01*
X59744050Y-92303780D01*
X59913569Y-92337499D01*
X59913572Y-92337500D01*
X59913574Y-92337500D01*
X60086428Y-92337500D01*
X60086429Y-92337499D01*
X60142936Y-92326259D01*
X60255949Y-92303780D01*
X60255952Y-92303778D01*
X60255957Y-92303778D01*
X60415652Y-92237631D01*
X60559374Y-92141599D01*
X60681599Y-92019374D01*
X60777631Y-91875652D01*
X60843778Y-91715957D01*
X60877500Y-91546426D01*
X60877500Y-91373574D01*
X60877500Y-91373571D01*
X60877499Y-91373569D01*
X60843780Y-91204050D01*
X60843777Y-91204041D01*
X60777631Y-91044348D01*
X60777629Y-91044346D01*
X60777629Y-91044344D01*
X60681599Y-90900626D01*
X60681596Y-90900622D01*
X60559377Y-90778403D01*
X60559373Y-90778400D01*
X60415655Y-90682370D01*
X60415652Y-90682369D01*
X60255958Y-90616222D01*
X60255949Y-90616219D01*
X60086429Y-90582500D01*
X60086426Y-90582500D01*
X59913574Y-90582500D01*
X59913571Y-90582500D01*
X59744050Y-90616219D01*
X59744041Y-90616222D01*
X59584347Y-90682369D01*
X59584344Y-90682370D01*
X59440626Y-90778400D01*
X59440622Y-90778403D01*
X59318403Y-90900622D01*
X59318400Y-90900626D01*
X59222370Y-91044344D01*
X59222369Y-91044347D01*
X59156222Y-91204041D01*
X59156219Y-91204050D01*
X59122500Y-91373569D01*
X54700500Y-91373569D01*
X54700500Y-88846126D01*
X59250000Y-88846126D01*
X59250000Y-88993873D01*
X59278820Y-89138759D01*
X59278822Y-89138767D01*
X59335357Y-89275254D01*
X59335362Y-89275264D01*
X59417436Y-89398096D01*
X59417439Y-89398100D01*
X59521899Y-89502560D01*
X59521903Y-89502563D01*
X59644735Y-89584637D01*
X59644745Y-89584642D01*
X59781232Y-89641177D01*
X59781240Y-89641179D01*
X59926126Y-89669999D01*
X59926129Y-89670000D01*
X60073871Y-89670000D01*
X60073873Y-89669999D01*
X60218759Y-89641179D01*
X60218767Y-89641177D01*
X60355254Y-89584642D01*
X60355264Y-89584637D01*
X60478096Y-89502563D01*
X60478100Y-89502560D01*
X60582560Y-89398100D01*
X60582563Y-89398096D01*
X60664637Y-89275264D01*
X60664642Y-89275254D01*
X60721177Y-89138767D01*
X60721179Y-89138759D01*
X60749999Y-88993873D01*
X60750000Y-88993871D01*
X60750000Y-88846128D01*
X60749999Y-88846126D01*
X60721179Y-88701240D01*
X60721177Y-88701232D01*
X60664642Y-88564745D01*
X60664637Y-88564735D01*
X60582563Y-88441903D01*
X60582560Y-88441899D01*
X60478100Y-88337439D01*
X60478096Y-88337436D01*
X60355264Y-88255362D01*
X60355254Y-88255357D01*
X60218767Y-88198822D01*
X60218759Y-88198820D01*
X60073872Y-88170000D01*
X59926128Y-88170000D01*
X59781240Y-88198820D01*
X59781232Y-88198822D01*
X59644745Y-88255357D01*
X59644735Y-88255362D01*
X59521903Y-88337436D01*
X59521899Y-88337439D01*
X59417439Y-88441899D01*
X59417436Y-88441903D01*
X59335362Y-88564735D01*
X59335357Y-88564745D01*
X59278822Y-88701232D01*
X59278820Y-88701240D01*
X59250000Y-88846126D01*
X54700500Y-88846126D01*
X54700500Y-82888389D01*
X68744500Y-82888389D01*
X68744500Y-83061611D01*
X68771598Y-83232701D01*
X68825127Y-83397445D01*
X68903768Y-83551788D01*
X69005586Y-83691928D01*
X69128072Y-83814414D01*
X69268212Y-83916232D01*
X69422555Y-83994873D01*
X69587299Y-84048402D01*
X69758389Y-84075500D01*
X69758390Y-84075500D01*
X69931610Y-84075500D01*
X69931611Y-84075500D01*
X70102701Y-84048402D01*
X70267445Y-83994873D01*
X70421788Y-83916232D01*
X70561928Y-83814414D01*
X70684414Y-83691928D01*
X70786232Y-83551788D01*
X70864873Y-83397445D01*
X70918402Y-83232701D01*
X70945500Y-83061611D01*
X70945500Y-82888389D01*
X70935854Y-82827486D01*
X72674500Y-82827486D01*
X72674500Y-83122513D01*
X72706571Y-83366113D01*
X72713007Y-83414993D01*
X72787212Y-83691930D01*
X72789361Y-83699951D01*
X72789364Y-83699961D01*
X72902254Y-83972500D01*
X72902258Y-83972510D01*
X73049761Y-84227993D01*
X73229352Y-84462040D01*
X73229358Y-84462047D01*
X73437952Y-84670641D01*
X73437959Y-84670647D01*
X73672006Y-84850238D01*
X73927489Y-84997741D01*
X73927490Y-84997741D01*
X73927493Y-84997743D01*
X74200048Y-85110639D01*
X74485007Y-85186993D01*
X74777494Y-85225500D01*
X74777501Y-85225500D01*
X75072499Y-85225500D01*
X75072506Y-85225500D01*
X75364993Y-85186993D01*
X75649952Y-85110639D01*
X75922507Y-84997743D01*
X76177994Y-84850238D01*
X76412042Y-84670646D01*
X76620646Y-84462042D01*
X76800238Y-84227994D01*
X76947743Y-83972507D01*
X77060639Y-83699952D01*
X77136993Y-83414993D01*
X77175500Y-83122506D01*
X77175500Y-82888389D01*
X78904500Y-82888389D01*
X78904500Y-83061611D01*
X78931598Y-83232701D01*
X78985127Y-83397445D01*
X79063768Y-83551788D01*
X79165586Y-83691928D01*
X79288072Y-83814414D01*
X79428212Y-83916232D01*
X79582555Y-83994873D01*
X79747299Y-84048402D01*
X79918389Y-84075500D01*
X79918390Y-84075500D01*
X80091610Y-84075500D01*
X80091611Y-84075500D01*
X80262701Y-84048402D01*
X80427445Y-83994873D01*
X80581788Y-83916232D01*
X80721928Y-83814414D01*
X80844414Y-83691928D01*
X80946232Y-83551788D01*
X81024873Y-83397445D01*
X81078402Y-83232701D01*
X81105500Y-83061611D01*
X81105500Y-82888389D01*
X87794500Y-82888389D01*
X87794500Y-83061611D01*
X87821598Y-83232701D01*
X87875127Y-83397445D01*
X87953768Y-83551788D01*
X88055586Y-83691928D01*
X88178072Y-83814414D01*
X88318212Y-83916232D01*
X88472555Y-83994873D01*
X88637299Y-84048402D01*
X88808389Y-84075500D01*
X88808390Y-84075500D01*
X88981610Y-84075500D01*
X88981611Y-84075500D01*
X89152701Y-84048402D01*
X89317445Y-83994873D01*
X89471788Y-83916232D01*
X89611928Y-83814414D01*
X89734414Y-83691928D01*
X89836232Y-83551788D01*
X89914873Y-83397445D01*
X89968402Y-83232701D01*
X89995500Y-83061611D01*
X89995500Y-82888389D01*
X89985854Y-82827486D01*
X91724500Y-82827486D01*
X91724500Y-83122513D01*
X91756571Y-83366113D01*
X91763007Y-83414993D01*
X91837212Y-83691930D01*
X91839361Y-83699951D01*
X91839364Y-83699961D01*
X91952254Y-83972500D01*
X91952258Y-83972510D01*
X92099761Y-84227993D01*
X92279352Y-84462040D01*
X92279358Y-84462047D01*
X92487952Y-84670641D01*
X92487959Y-84670647D01*
X92722006Y-84850238D01*
X92977489Y-84997741D01*
X92977490Y-84997741D01*
X92977493Y-84997743D01*
X93250048Y-85110639D01*
X93535007Y-85186993D01*
X93827494Y-85225500D01*
X93827501Y-85225500D01*
X94122499Y-85225500D01*
X94122506Y-85225500D01*
X94414993Y-85186993D01*
X94699952Y-85110639D01*
X94972507Y-84997743D01*
X95227994Y-84850238D01*
X95462042Y-84670646D01*
X95670646Y-84462042D01*
X95850238Y-84227994D01*
X95997743Y-83972507D01*
X96110639Y-83699952D01*
X96186993Y-83414993D01*
X96225500Y-83122506D01*
X96225500Y-82888389D01*
X97954500Y-82888389D01*
X97954500Y-83061611D01*
X97981598Y-83232701D01*
X98035127Y-83397445D01*
X98113768Y-83551788D01*
X98215586Y-83691928D01*
X98338072Y-83814414D01*
X98478212Y-83916232D01*
X98632555Y-83994873D01*
X98797299Y-84048402D01*
X98968389Y-84075500D01*
X98968390Y-84075500D01*
X99141610Y-84075500D01*
X99141611Y-84075500D01*
X99312701Y-84048402D01*
X99477445Y-83994873D01*
X99631788Y-83916232D01*
X99771928Y-83814414D01*
X99894414Y-83691928D01*
X99996232Y-83551788D01*
X100074873Y-83397445D01*
X100128402Y-83232701D01*
X100155500Y-83061611D01*
X100155500Y-82888389D01*
X106844500Y-82888389D01*
X106844500Y-83061611D01*
X106871598Y-83232701D01*
X106925127Y-83397445D01*
X107003768Y-83551788D01*
X107105586Y-83691928D01*
X107228072Y-83814414D01*
X107368212Y-83916232D01*
X107522555Y-83994873D01*
X107687299Y-84048402D01*
X107858389Y-84075500D01*
X107858390Y-84075500D01*
X108031610Y-84075500D01*
X108031611Y-84075500D01*
X108202701Y-84048402D01*
X108367445Y-83994873D01*
X108521788Y-83916232D01*
X108661928Y-83814414D01*
X108784414Y-83691928D01*
X108886232Y-83551788D01*
X108964873Y-83397445D01*
X109018402Y-83232701D01*
X109045500Y-83061611D01*
X109045500Y-82888389D01*
X109035854Y-82827486D01*
X110774500Y-82827486D01*
X110774500Y-83122513D01*
X110806571Y-83366113D01*
X110813007Y-83414993D01*
X110887212Y-83691930D01*
X110889361Y-83699951D01*
X110889364Y-83699961D01*
X111002254Y-83972500D01*
X111002258Y-83972510D01*
X111149761Y-84227993D01*
X111329352Y-84462040D01*
X111329358Y-84462047D01*
X111537952Y-84670641D01*
X111537959Y-84670647D01*
X111772006Y-84850238D01*
X112027489Y-84997741D01*
X112027490Y-84997741D01*
X112027493Y-84997743D01*
X112300048Y-85110639D01*
X112585007Y-85186993D01*
X112877494Y-85225500D01*
X112877501Y-85225500D01*
X113172499Y-85225500D01*
X113172506Y-85225500D01*
X113464993Y-85186993D01*
X113749952Y-85110639D01*
X114022507Y-84997743D01*
X114277994Y-84850238D01*
X114512042Y-84670646D01*
X114720646Y-84462042D01*
X114900238Y-84227994D01*
X115047743Y-83972507D01*
X115160639Y-83699952D01*
X115236993Y-83414993D01*
X115275500Y-83122506D01*
X115275500Y-82888389D01*
X117004500Y-82888389D01*
X117004500Y-83061611D01*
X117031598Y-83232701D01*
X117085127Y-83397445D01*
X117163768Y-83551788D01*
X117265586Y-83691928D01*
X117388072Y-83814414D01*
X117528212Y-83916232D01*
X117682555Y-83994873D01*
X117847299Y-84048402D01*
X118018389Y-84075500D01*
X118018390Y-84075500D01*
X118191610Y-84075500D01*
X118191611Y-84075500D01*
X118362701Y-84048402D01*
X118527445Y-83994873D01*
X118681788Y-83916232D01*
X118821928Y-83814414D01*
X118944414Y-83691928D01*
X119046232Y-83551788D01*
X119124873Y-83397445D01*
X119178402Y-83232701D01*
X119205500Y-83061611D01*
X119205500Y-82888389D01*
X125894500Y-82888389D01*
X125894500Y-83061611D01*
X125921598Y-83232701D01*
X125975127Y-83397445D01*
X126053768Y-83551788D01*
X126155586Y-83691928D01*
X126278072Y-83814414D01*
X126418212Y-83916232D01*
X126572555Y-83994873D01*
X126737299Y-84048402D01*
X126908389Y-84075500D01*
X126908390Y-84075500D01*
X127081610Y-84075500D01*
X127081611Y-84075500D01*
X127252701Y-84048402D01*
X127417445Y-83994873D01*
X127571788Y-83916232D01*
X127711928Y-83814414D01*
X127834414Y-83691928D01*
X127936232Y-83551788D01*
X128014873Y-83397445D01*
X128068402Y-83232701D01*
X128095500Y-83061611D01*
X128095500Y-82888389D01*
X128085854Y-82827486D01*
X129824500Y-82827486D01*
X129824500Y-83122513D01*
X129856571Y-83366113D01*
X129863007Y-83414993D01*
X129937212Y-83691930D01*
X129939361Y-83699951D01*
X129939364Y-83699961D01*
X130052254Y-83972500D01*
X130052258Y-83972510D01*
X130199761Y-84227993D01*
X130379352Y-84462040D01*
X130379358Y-84462047D01*
X130587952Y-84670641D01*
X130587959Y-84670647D01*
X130822006Y-84850238D01*
X131077489Y-84997741D01*
X131077490Y-84997741D01*
X131077493Y-84997743D01*
X131350048Y-85110639D01*
X131635007Y-85186993D01*
X131927494Y-85225500D01*
X131927501Y-85225500D01*
X132222499Y-85225500D01*
X132222506Y-85225500D01*
X132514993Y-85186993D01*
X132799952Y-85110639D01*
X133072507Y-84997743D01*
X133327994Y-84850238D01*
X133562042Y-84670646D01*
X133770646Y-84462042D01*
X133950238Y-84227994D01*
X134097743Y-83972507D01*
X134210639Y-83699952D01*
X134286993Y-83414993D01*
X134325500Y-83122506D01*
X134325500Y-82888389D01*
X136054500Y-82888389D01*
X136054500Y-83061611D01*
X136081598Y-83232701D01*
X136135127Y-83397445D01*
X136213768Y-83551788D01*
X136315586Y-83691928D01*
X136438072Y-83814414D01*
X136578212Y-83916232D01*
X136732555Y-83994873D01*
X136897299Y-84048402D01*
X137068389Y-84075500D01*
X137068390Y-84075500D01*
X137241610Y-84075500D01*
X137241611Y-84075500D01*
X137412701Y-84048402D01*
X137577445Y-83994873D01*
X137731788Y-83916232D01*
X137871928Y-83814414D01*
X137994414Y-83691928D01*
X138096232Y-83551788D01*
X138174873Y-83397445D01*
X138228402Y-83232701D01*
X138255500Y-83061611D01*
X138255500Y-82888389D01*
X138228402Y-82717299D01*
X138174873Y-82552555D01*
X138096232Y-82398212D01*
X137994414Y-82258072D01*
X137871928Y-82135586D01*
X137731788Y-82033768D01*
X137577445Y-81955127D01*
X137412701Y-81901598D01*
X137412699Y-81901597D01*
X137412698Y-81901597D01*
X137281271Y-81880781D01*
X137241611Y-81874500D01*
X137068389Y-81874500D01*
X137028728Y-81880781D01*
X136897302Y-81901597D01*
X136732552Y-81955128D01*
X136578211Y-82033768D01*
X136498256Y-82091859D01*
X136438072Y-82135586D01*
X136438070Y-82135588D01*
X136438069Y-82135588D01*
X136315588Y-82258069D01*
X136315588Y-82258070D01*
X136315586Y-82258072D01*
X136271859Y-82318256D01*
X136213768Y-82398211D01*
X136135128Y-82552552D01*
X136081597Y-82717302D01*
X136054500Y-82888389D01*
X134325500Y-82888389D01*
X134325500Y-82827494D01*
X134286993Y-82535007D01*
X134210639Y-82250048D01*
X134097743Y-81977493D01*
X133982901Y-81778581D01*
X133950238Y-81722006D01*
X133770647Y-81487959D01*
X133770641Y-81487952D01*
X133562047Y-81279358D01*
X133562040Y-81279352D01*
X133327993Y-81099761D01*
X133072510Y-80952258D01*
X133072500Y-80952254D01*
X132799961Y-80839364D01*
X132799954Y-80839362D01*
X132799952Y-80839361D01*
X132514993Y-80763007D01*
X132466113Y-80756571D01*
X132222513Y-80724500D01*
X132222506Y-80724500D01*
X131927494Y-80724500D01*
X131927486Y-80724500D01*
X131649085Y-80761153D01*
X131635007Y-80763007D01*
X131350048Y-80839361D01*
X131350038Y-80839364D01*
X131077499Y-80952254D01*
X131077489Y-80952258D01*
X130822006Y-81099761D01*
X130587959Y-81279352D01*
X130587952Y-81279358D01*
X130379358Y-81487952D01*
X130379352Y-81487959D01*
X130199761Y-81722006D01*
X130052258Y-81977489D01*
X130052254Y-81977499D01*
X129939364Y-82250038D01*
X129939361Y-82250048D01*
X129863008Y-82535004D01*
X129863006Y-82535015D01*
X129824500Y-82827486D01*
X128085854Y-82827486D01*
X128068402Y-82717299D01*
X128014873Y-82552555D01*
X127936232Y-82398212D01*
X127834414Y-82258072D01*
X127711928Y-82135586D01*
X127571788Y-82033768D01*
X127417445Y-81955127D01*
X127252701Y-81901598D01*
X127252699Y-81901597D01*
X127252698Y-81901597D01*
X127121271Y-81880781D01*
X127081611Y-81874500D01*
X126908389Y-81874500D01*
X126868728Y-81880781D01*
X126737302Y-81901597D01*
X126572552Y-81955128D01*
X126418211Y-82033768D01*
X126338256Y-82091859D01*
X126278072Y-82135586D01*
X126278070Y-82135588D01*
X126278069Y-82135588D01*
X126155588Y-82258069D01*
X126155588Y-82258070D01*
X126155586Y-82258072D01*
X126111859Y-82318256D01*
X126053768Y-82398211D01*
X125975128Y-82552552D01*
X125921597Y-82717302D01*
X125894500Y-82888389D01*
X119205500Y-82888389D01*
X119178402Y-82717299D01*
X119124873Y-82552555D01*
X119046232Y-82398212D01*
X118944414Y-82258072D01*
X118821928Y-82135586D01*
X118681788Y-82033768D01*
X118527445Y-81955127D01*
X118362701Y-81901598D01*
X118362699Y-81901597D01*
X118362698Y-81901597D01*
X118231271Y-81880781D01*
X118191611Y-81874500D01*
X118018389Y-81874500D01*
X117978728Y-81880781D01*
X117847302Y-81901597D01*
X117682552Y-81955128D01*
X117528211Y-82033768D01*
X117448256Y-82091859D01*
X117388072Y-82135586D01*
X117388070Y-82135588D01*
X117388069Y-82135588D01*
X117265588Y-82258069D01*
X117265588Y-82258070D01*
X117265586Y-82258072D01*
X117221859Y-82318256D01*
X117163768Y-82398211D01*
X117085128Y-82552552D01*
X117031597Y-82717302D01*
X117004500Y-82888389D01*
X115275500Y-82888389D01*
X115275500Y-82827494D01*
X115236993Y-82535007D01*
X115160639Y-82250048D01*
X115047743Y-81977493D01*
X114932901Y-81778581D01*
X114900238Y-81722006D01*
X114720647Y-81487959D01*
X114720641Y-81487952D01*
X114512047Y-81279358D01*
X114512040Y-81279352D01*
X114277993Y-81099761D01*
X114022510Y-80952258D01*
X114022500Y-80952254D01*
X113749961Y-80839364D01*
X113749954Y-80839362D01*
X113749952Y-80839361D01*
X113464993Y-80763007D01*
X113416113Y-80756571D01*
X113172513Y-80724500D01*
X113172506Y-80724500D01*
X112877494Y-80724500D01*
X112877486Y-80724500D01*
X112599085Y-80761153D01*
X112585007Y-80763007D01*
X112300048Y-80839361D01*
X112300038Y-80839364D01*
X112027499Y-80952254D01*
X112027489Y-80952258D01*
X111772006Y-81099761D01*
X111537959Y-81279352D01*
X111537952Y-81279358D01*
X111329358Y-81487952D01*
X111329352Y-81487959D01*
X111149761Y-81722006D01*
X111002258Y-81977489D01*
X111002254Y-81977499D01*
X110889364Y-82250038D01*
X110889361Y-82250048D01*
X110813008Y-82535004D01*
X110813006Y-82535015D01*
X110774500Y-82827486D01*
X109035854Y-82827486D01*
X109018402Y-82717299D01*
X108964873Y-82552555D01*
X108886232Y-82398212D01*
X108784414Y-82258072D01*
X108661928Y-82135586D01*
X108521788Y-82033768D01*
X108367445Y-81955127D01*
X108202701Y-81901598D01*
X108202699Y-81901597D01*
X108202698Y-81901597D01*
X108071271Y-81880781D01*
X108031611Y-81874500D01*
X107858389Y-81874500D01*
X107818728Y-81880781D01*
X107687302Y-81901597D01*
X107522552Y-81955128D01*
X107368211Y-82033768D01*
X107288256Y-82091859D01*
X107228072Y-82135586D01*
X107228070Y-82135588D01*
X107228069Y-82135588D01*
X107105588Y-82258069D01*
X107105588Y-82258070D01*
X107105586Y-82258072D01*
X107061859Y-82318256D01*
X107003768Y-82398211D01*
X106925128Y-82552552D01*
X106871597Y-82717302D01*
X106844500Y-82888389D01*
X100155500Y-82888389D01*
X100128402Y-82717299D01*
X100074873Y-82552555D01*
X99996232Y-82398212D01*
X99894414Y-82258072D01*
X99771928Y-82135586D01*
X99631788Y-82033768D01*
X99477445Y-81955127D01*
X99312701Y-81901598D01*
X99312699Y-81901597D01*
X99312698Y-81901597D01*
X99181271Y-81880781D01*
X99141611Y-81874500D01*
X98968389Y-81874500D01*
X98928728Y-81880781D01*
X98797302Y-81901597D01*
X98632552Y-81955128D01*
X98478211Y-82033768D01*
X98398256Y-82091859D01*
X98338072Y-82135586D01*
X98338070Y-82135588D01*
X98338069Y-82135588D01*
X98215588Y-82258069D01*
X98215588Y-82258070D01*
X98215586Y-82258072D01*
X98171859Y-82318256D01*
X98113768Y-82398211D01*
X98035128Y-82552552D01*
X97981597Y-82717302D01*
X97954500Y-82888389D01*
X96225500Y-82888389D01*
X96225500Y-82827494D01*
X96186993Y-82535007D01*
X96110639Y-82250048D01*
X95997743Y-81977493D01*
X95882901Y-81778581D01*
X95850238Y-81722006D01*
X95670647Y-81487959D01*
X95670641Y-81487952D01*
X95462047Y-81279358D01*
X95462040Y-81279352D01*
X95227993Y-81099761D01*
X94972510Y-80952258D01*
X94972500Y-80952254D01*
X94699961Y-80839364D01*
X94699954Y-80839362D01*
X94699952Y-80839361D01*
X94414993Y-80763007D01*
X94366113Y-80756571D01*
X94122513Y-80724500D01*
X94122506Y-80724500D01*
X93827494Y-80724500D01*
X93827486Y-80724500D01*
X93549085Y-80761153D01*
X93535007Y-80763007D01*
X93250048Y-80839361D01*
X93250038Y-80839364D01*
X92977499Y-80952254D01*
X92977489Y-80952258D01*
X92722006Y-81099761D01*
X92487959Y-81279352D01*
X92487952Y-81279358D01*
X92279358Y-81487952D01*
X92279352Y-81487959D01*
X92099761Y-81722006D01*
X91952258Y-81977489D01*
X91952254Y-81977499D01*
X91839364Y-82250038D01*
X91839361Y-82250048D01*
X91763008Y-82535004D01*
X91763006Y-82535015D01*
X91724500Y-82827486D01*
X89985854Y-82827486D01*
X89968402Y-82717299D01*
X89914873Y-82552555D01*
X89836232Y-82398212D01*
X89734414Y-82258072D01*
X89611928Y-82135586D01*
X89471788Y-82033768D01*
X89317445Y-81955127D01*
X89152701Y-81901598D01*
X89152699Y-81901597D01*
X89152698Y-81901597D01*
X89021271Y-81880781D01*
X88981611Y-81874500D01*
X88808389Y-81874500D01*
X88768728Y-81880781D01*
X88637302Y-81901597D01*
X88472552Y-81955128D01*
X88318211Y-82033768D01*
X88238256Y-82091859D01*
X88178072Y-82135586D01*
X88178070Y-82135588D01*
X88178069Y-82135588D01*
X88055588Y-82258069D01*
X88055588Y-82258070D01*
X88055586Y-82258072D01*
X88011859Y-82318256D01*
X87953768Y-82398211D01*
X87875128Y-82552552D01*
X87821597Y-82717302D01*
X87794500Y-82888389D01*
X81105500Y-82888389D01*
X81078402Y-82717299D01*
X81024873Y-82552555D01*
X80946232Y-82398212D01*
X80844414Y-82258072D01*
X80721928Y-82135586D01*
X80581788Y-82033768D01*
X80427445Y-81955127D01*
X80262701Y-81901598D01*
X80262699Y-81901597D01*
X80262698Y-81901597D01*
X80131271Y-81880781D01*
X80091611Y-81874500D01*
X79918389Y-81874500D01*
X79878728Y-81880781D01*
X79747302Y-81901597D01*
X79582552Y-81955128D01*
X79428211Y-82033768D01*
X79348256Y-82091859D01*
X79288072Y-82135586D01*
X79288070Y-82135588D01*
X79288069Y-82135588D01*
X79165588Y-82258069D01*
X79165588Y-82258070D01*
X79165586Y-82258072D01*
X79121859Y-82318256D01*
X79063768Y-82398211D01*
X78985128Y-82552552D01*
X78931597Y-82717302D01*
X78904500Y-82888389D01*
X77175500Y-82888389D01*
X77175500Y-82827494D01*
X77136993Y-82535007D01*
X77060639Y-82250048D01*
X76947743Y-81977493D01*
X76832901Y-81778581D01*
X76800238Y-81722006D01*
X76620647Y-81487959D01*
X76620641Y-81487952D01*
X76412047Y-81279358D01*
X76412040Y-81279352D01*
X76177993Y-81099761D01*
X75922510Y-80952258D01*
X75922500Y-80952254D01*
X75649961Y-80839364D01*
X75649954Y-80839362D01*
X75649952Y-80839361D01*
X75364993Y-80763007D01*
X75316113Y-80756571D01*
X75072513Y-80724500D01*
X75072506Y-80724500D01*
X74777494Y-80724500D01*
X74777486Y-80724500D01*
X74499085Y-80761153D01*
X74485007Y-80763007D01*
X74200048Y-80839361D01*
X74200038Y-80839364D01*
X73927499Y-80952254D01*
X73927489Y-80952258D01*
X73672006Y-81099761D01*
X73437959Y-81279352D01*
X73437952Y-81279358D01*
X73229358Y-81487952D01*
X73229352Y-81487959D01*
X73049761Y-81722006D01*
X72902258Y-81977489D01*
X72902254Y-81977499D01*
X72789364Y-82250038D01*
X72789361Y-82250048D01*
X72713008Y-82535004D01*
X72713006Y-82535015D01*
X72674500Y-82827486D01*
X70935854Y-82827486D01*
X70918402Y-82717299D01*
X70864873Y-82552555D01*
X70786232Y-82398212D01*
X70684414Y-82258072D01*
X70561928Y-82135586D01*
X70421788Y-82033768D01*
X70267445Y-81955127D01*
X70102701Y-81901598D01*
X70102699Y-81901597D01*
X70102698Y-81901597D01*
X69971271Y-81880781D01*
X69931611Y-81874500D01*
X69758389Y-81874500D01*
X69718728Y-81880781D01*
X69587302Y-81901597D01*
X69422552Y-81955128D01*
X69268211Y-82033768D01*
X69188256Y-82091859D01*
X69128072Y-82135586D01*
X69128070Y-82135588D01*
X69128069Y-82135588D01*
X69005588Y-82258069D01*
X69005588Y-82258070D01*
X69005586Y-82258072D01*
X68961859Y-82318256D01*
X68903768Y-82398211D01*
X68825128Y-82552552D01*
X68771597Y-82717302D01*
X68744500Y-82888389D01*
X54700500Y-82888389D01*
X54700500Y-80326582D01*
X69737500Y-80326582D01*
X69737500Y-80543417D01*
X69771418Y-80757566D01*
X69838418Y-80963774D01*
X69838420Y-80963777D01*
X69936856Y-81156968D01*
X70064301Y-81332381D01*
X70217619Y-81485699D01*
X70393032Y-81613144D01*
X70586223Y-81711580D01*
X70586225Y-81711581D01*
X70689329Y-81745081D01*
X70792435Y-81778582D01*
X70891619Y-81794291D01*
X71006583Y-81812500D01*
X71006588Y-81812500D01*
X71223417Y-81812500D01*
X71327233Y-81796056D01*
X71437565Y-81778582D01*
X71643777Y-81711580D01*
X71836968Y-81613144D01*
X72012381Y-81485699D01*
X72165699Y-81332381D01*
X72293144Y-81156968D01*
X72391580Y-80963777D01*
X72458582Y-80757565D01*
X72476056Y-80647233D01*
X72492500Y-80543417D01*
X72492500Y-80326582D01*
X88787500Y-80326582D01*
X88787500Y-80543417D01*
X88821418Y-80757566D01*
X88888418Y-80963774D01*
X88888420Y-80963777D01*
X88986856Y-81156968D01*
X89114301Y-81332381D01*
X89267619Y-81485699D01*
X89443032Y-81613144D01*
X89636223Y-81711580D01*
X89636225Y-81711581D01*
X89739329Y-81745081D01*
X89842435Y-81778582D01*
X89941619Y-81794291D01*
X90056583Y-81812500D01*
X90056588Y-81812500D01*
X90273417Y-81812500D01*
X90377233Y-81796056D01*
X90487565Y-81778582D01*
X90693777Y-81711580D01*
X90886968Y-81613144D01*
X91062381Y-81485699D01*
X91215699Y-81332381D01*
X91343144Y-81156968D01*
X91441580Y-80963777D01*
X91508582Y-80757565D01*
X91526056Y-80647233D01*
X91542500Y-80543417D01*
X91542500Y-80326582D01*
X107837500Y-80326582D01*
X107837500Y-80543417D01*
X107871418Y-80757566D01*
X107938418Y-80963774D01*
X107938420Y-80963777D01*
X108036856Y-81156968D01*
X108164301Y-81332381D01*
X108317619Y-81485699D01*
X108493032Y-81613144D01*
X108686223Y-81711580D01*
X108686225Y-81711581D01*
X108789329Y-81745081D01*
X108892435Y-81778582D01*
X108991619Y-81794291D01*
X109106583Y-81812500D01*
X109106588Y-81812500D01*
X109323417Y-81812500D01*
X109427233Y-81796056D01*
X109537565Y-81778582D01*
X109743777Y-81711580D01*
X109936968Y-81613144D01*
X110112381Y-81485699D01*
X110265699Y-81332381D01*
X110393144Y-81156968D01*
X110491580Y-80963777D01*
X110558582Y-80757565D01*
X110576056Y-80647233D01*
X110592500Y-80543417D01*
X110592500Y-80326582D01*
X126887500Y-80326582D01*
X126887500Y-80543417D01*
X126921418Y-80757566D01*
X126988418Y-80963774D01*
X126988420Y-80963777D01*
X127086856Y-81156968D01*
X127214301Y-81332381D01*
X127367619Y-81485699D01*
X127543032Y-81613144D01*
X127736223Y-81711580D01*
X127736225Y-81711581D01*
X127839329Y-81745081D01*
X127942435Y-81778582D01*
X128041619Y-81794291D01*
X128156583Y-81812500D01*
X128156588Y-81812500D01*
X128373417Y-81812500D01*
X128477233Y-81796056D01*
X128587565Y-81778582D01*
X128793777Y-81711580D01*
X128986968Y-81613144D01*
X129162381Y-81485699D01*
X129315699Y-81332381D01*
X129443144Y-81156968D01*
X129541580Y-80963777D01*
X129608582Y-80757565D01*
X129626056Y-80647233D01*
X129642500Y-80543417D01*
X129642500Y-80326582D01*
X129622767Y-80202002D01*
X129608582Y-80112435D01*
X129541580Y-79906223D01*
X129443144Y-79713032D01*
X129315699Y-79537619D01*
X129162381Y-79384301D01*
X128986968Y-79256856D01*
X128793774Y-79158418D01*
X128587566Y-79091418D01*
X128373417Y-79057500D01*
X128373412Y-79057500D01*
X128156588Y-79057500D01*
X128156583Y-79057500D01*
X127942433Y-79091418D01*
X127736225Y-79158418D01*
X127543031Y-79256856D01*
X127442952Y-79329568D01*
X127367619Y-79384301D01*
X127367617Y-79384303D01*
X127367616Y-79384303D01*
X127214303Y-79537616D01*
X127214303Y-79537617D01*
X127214301Y-79537619D01*
X127159568Y-79612952D01*
X127086856Y-79713031D01*
X126988418Y-79906225D01*
X126921418Y-80112433D01*
X126887500Y-80326582D01*
X110592500Y-80326582D01*
X110572767Y-80202002D01*
X110558582Y-80112435D01*
X110491580Y-79906223D01*
X110393144Y-79713032D01*
X110265699Y-79537619D01*
X110112381Y-79384301D01*
X109936968Y-79256856D01*
X109743774Y-79158418D01*
X109537566Y-79091418D01*
X109323417Y-79057500D01*
X109323412Y-79057500D01*
X109106588Y-79057500D01*
X109106583Y-79057500D01*
X108892433Y-79091418D01*
X108686225Y-79158418D01*
X108493031Y-79256856D01*
X108392952Y-79329568D01*
X108317619Y-79384301D01*
X108317617Y-79384303D01*
X108317616Y-79384303D01*
X108164303Y-79537616D01*
X108164303Y-79537617D01*
X108164301Y-79537619D01*
X108109568Y-79612952D01*
X108036856Y-79713031D01*
X107938418Y-79906225D01*
X107871418Y-80112433D01*
X107837500Y-80326582D01*
X91542500Y-80326582D01*
X91522767Y-80202002D01*
X91508582Y-80112435D01*
X91441580Y-79906223D01*
X91343144Y-79713032D01*
X91215699Y-79537619D01*
X91062381Y-79384301D01*
X90886968Y-79256856D01*
X90693774Y-79158418D01*
X90487566Y-79091418D01*
X90273417Y-79057500D01*
X90273412Y-79057500D01*
X90056588Y-79057500D01*
X90056583Y-79057500D01*
X89842433Y-79091418D01*
X89636225Y-79158418D01*
X89443031Y-79256856D01*
X89342952Y-79329568D01*
X89267619Y-79384301D01*
X89267617Y-79384303D01*
X89267616Y-79384303D01*
X89114303Y-79537616D01*
X89114303Y-79537617D01*
X89114301Y-79537619D01*
X89059568Y-79612952D01*
X88986856Y-79713031D01*
X88888418Y-79906225D01*
X88821418Y-80112433D01*
X88787500Y-80326582D01*
X72492500Y-80326582D01*
X72472767Y-80202002D01*
X72458582Y-80112435D01*
X72391580Y-79906223D01*
X72293144Y-79713032D01*
X72165699Y-79537619D01*
X72012381Y-79384301D01*
X71836968Y-79256856D01*
X71643774Y-79158418D01*
X71437566Y-79091418D01*
X71223417Y-79057500D01*
X71223412Y-79057500D01*
X71006588Y-79057500D01*
X71006583Y-79057500D01*
X70792433Y-79091418D01*
X70586225Y-79158418D01*
X70393031Y-79256856D01*
X70292952Y-79329568D01*
X70217619Y-79384301D01*
X70217617Y-79384303D01*
X70217616Y-79384303D01*
X70064303Y-79537616D01*
X70064303Y-79537617D01*
X70064301Y-79537619D01*
X70009568Y-79612952D01*
X69936856Y-79713031D01*
X69838418Y-79906225D01*
X69771418Y-80112433D01*
X69737500Y-80326582D01*
X54700500Y-80326582D01*
X54700500Y-77796617D01*
X76215000Y-77796617D01*
X76215000Y-77993382D01*
X76245778Y-78187705D01*
X76306581Y-78374835D01*
X76395904Y-78550143D01*
X76511555Y-78709321D01*
X76650678Y-78848444D01*
X76809856Y-78964095D01*
X76985164Y-79053418D01*
X77172294Y-79114221D01*
X77366618Y-79145000D01*
X77563382Y-79145000D01*
X77757705Y-79114221D01*
X77944835Y-79053418D01*
X78120143Y-78964095D01*
X78279321Y-78848444D01*
X78418444Y-78709321D01*
X78534095Y-78550143D01*
X78623418Y-78374835D01*
X78684221Y-78187705D01*
X78715000Y-77993382D01*
X78715000Y-77796617D01*
X95265000Y-77796617D01*
X95265000Y-77993382D01*
X95295778Y-78187705D01*
X95356581Y-78374835D01*
X95445904Y-78550143D01*
X95561555Y-78709321D01*
X95700678Y-78848444D01*
X95859856Y-78964095D01*
X96035164Y-79053418D01*
X96222294Y-79114221D01*
X96416618Y-79145000D01*
X96613382Y-79145000D01*
X96807705Y-79114221D01*
X96994835Y-79053418D01*
X97170143Y-78964095D01*
X97329321Y-78848444D01*
X97468444Y-78709321D01*
X97584095Y-78550143D01*
X97673418Y-78374835D01*
X97734221Y-78187705D01*
X97765000Y-77993382D01*
X97765000Y-77796617D01*
X114315000Y-77796617D01*
X114315000Y-77993382D01*
X114345778Y-78187705D01*
X114406581Y-78374835D01*
X114495904Y-78550143D01*
X114611555Y-78709321D01*
X114750678Y-78848444D01*
X114909856Y-78964095D01*
X115085164Y-79053418D01*
X115272294Y-79114221D01*
X115466618Y-79145000D01*
X115663382Y-79145000D01*
X115857705Y-79114221D01*
X116044835Y-79053418D01*
X116220143Y-78964095D01*
X116379321Y-78848444D01*
X116518444Y-78709321D01*
X116634095Y-78550143D01*
X116723418Y-78374835D01*
X116784221Y-78187705D01*
X116815000Y-77993382D01*
X116815000Y-77796617D01*
X133365000Y-77796617D01*
X133365000Y-77993382D01*
X133395778Y-78187705D01*
X133456581Y-78374835D01*
X133545904Y-78550143D01*
X133661555Y-78709321D01*
X133800678Y-78848444D01*
X133959856Y-78964095D01*
X134135164Y-79053418D01*
X134322294Y-79114221D01*
X134516618Y-79145000D01*
X134713382Y-79145000D01*
X134907705Y-79114221D01*
X135094835Y-79053418D01*
X135270143Y-78964095D01*
X135429321Y-78848444D01*
X135568444Y-78709321D01*
X135684095Y-78550143D01*
X135773418Y-78374835D01*
X135834221Y-78187705D01*
X135865000Y-77993382D01*
X135865000Y-77796617D01*
X135834221Y-77602294D01*
X135773418Y-77415164D01*
X135684095Y-77239856D01*
X135568444Y-77080678D01*
X135429321Y-76941555D01*
X135270143Y-76825904D01*
X135094835Y-76736581D01*
X134907705Y-76675778D01*
X134713382Y-76645000D01*
X134516618Y-76645000D01*
X134322294Y-76675778D01*
X134135164Y-76736581D01*
X133959856Y-76825904D01*
X133800678Y-76941555D01*
X133661555Y-77080678D01*
X133545904Y-77239856D01*
X133456581Y-77415164D01*
X133395778Y-77602294D01*
X133365000Y-77796617D01*
X116815000Y-77796617D01*
X116784221Y-77602294D01*
X116723418Y-77415164D01*
X116634095Y-77239856D01*
X116518444Y-77080678D01*
X116379321Y-76941555D01*
X116220143Y-76825904D01*
X116044835Y-76736581D01*
X115857705Y-76675778D01*
X115663382Y-76645000D01*
X115466618Y-76645000D01*
X115272294Y-76675778D01*
X115085164Y-76736581D01*
X114909856Y-76825904D01*
X114750678Y-76941555D01*
X114611555Y-77080678D01*
X114495904Y-77239856D01*
X114406581Y-77415164D01*
X114345778Y-77602294D01*
X114315000Y-77796617D01*
X97765000Y-77796617D01*
X97734221Y-77602294D01*
X97673418Y-77415164D01*
X97584095Y-77239856D01*
X97468444Y-77080678D01*
X97329321Y-76941555D01*
X97170143Y-76825904D01*
X96994835Y-76736581D01*
X96807705Y-76675778D01*
X96613382Y-76645000D01*
X96416618Y-76645000D01*
X96222294Y-76675778D01*
X96035164Y-76736581D01*
X95859856Y-76825904D01*
X95700678Y-76941555D01*
X95561555Y-77080678D01*
X95445904Y-77239856D01*
X95356581Y-77415164D01*
X95295778Y-77602294D01*
X95265000Y-77796617D01*
X78715000Y-77796617D01*
X78684221Y-77602294D01*
X78623418Y-77415164D01*
X78534095Y-77239856D01*
X78418444Y-77080678D01*
X78279321Y-76941555D01*
X78120143Y-76825904D01*
X77944835Y-76736581D01*
X77757705Y-76675778D01*
X77563382Y-76645000D01*
X77366618Y-76645000D01*
X77172294Y-76675778D01*
X76985164Y-76736581D01*
X76809856Y-76825904D01*
X76650678Y-76941555D01*
X76511555Y-77080678D01*
X76395904Y-77239856D01*
X76306581Y-77415164D01*
X76245778Y-77602294D01*
X76215000Y-77796617D01*
X54700500Y-77796617D01*
X54700500Y-68885837D01*
X56049500Y-68885837D01*
X56049500Y-69114162D01*
X56085215Y-69339660D01*
X56155770Y-69556803D01*
X56259421Y-69760228D01*
X56393621Y-69944937D01*
X56555063Y-70106379D01*
X56739772Y-70240579D01*
X56835884Y-70289550D01*
X56943196Y-70344229D01*
X56943198Y-70344229D01*
X56943201Y-70344231D01*
X57059592Y-70382049D01*
X57160339Y-70414784D01*
X57385838Y-70450500D01*
X57385843Y-70450500D01*
X57614162Y-70450500D01*
X57839660Y-70414784D01*
X58056799Y-70344231D01*
X58260228Y-70240579D01*
X58444937Y-70106379D01*
X58606379Y-69944937D01*
X58740579Y-69760228D01*
X58844231Y-69556799D01*
X58914784Y-69339660D01*
X58950500Y-69114162D01*
X58950500Y-68885837D01*
X141049500Y-68885837D01*
X141049500Y-69114162D01*
X141085215Y-69339660D01*
X141155770Y-69556803D01*
X141259421Y-69760228D01*
X141393621Y-69944937D01*
X141555063Y-70106379D01*
X141739772Y-70240579D01*
X141835884Y-70289550D01*
X141943196Y-70344229D01*
X141943198Y-70344229D01*
X141943201Y-70344231D01*
X142059592Y-70382049D01*
X142160339Y-70414784D01*
X142385838Y-70450500D01*
X142385843Y-70450500D01*
X142614162Y-70450500D01*
X142839660Y-70414784D01*
X143056799Y-70344231D01*
X143260228Y-70240579D01*
X143444937Y-70106379D01*
X143606379Y-69944937D01*
X143740579Y-69760228D01*
X143844231Y-69556799D01*
X143914784Y-69339660D01*
X143950500Y-69114162D01*
X143950500Y-68885837D01*
X143914784Y-68660339D01*
X143844229Y-68443196D01*
X143740578Y-68239771D01*
X143606379Y-68055063D01*
X143444937Y-67893621D01*
X143260228Y-67759421D01*
X143056803Y-67655770D01*
X142839660Y-67585215D01*
X142614162Y-67549500D01*
X142614157Y-67549500D01*
X142385843Y-67549500D01*
X142385838Y-67549500D01*
X142160339Y-67585215D01*
X141943196Y-67655770D01*
X141739771Y-67759421D01*
X141555061Y-67893622D01*
X141393622Y-68055061D01*
X141259421Y-68239771D01*
X141155770Y-68443196D01*
X141085215Y-68660339D01*
X141049500Y-68885837D01*
X58950500Y-68885837D01*
X58914784Y-68660339D01*
X58844229Y-68443196D01*
X58740578Y-68239771D01*
X58606379Y-68055063D01*
X58444937Y-67893621D01*
X58260228Y-67759421D01*
X58056803Y-67655770D01*
X57839660Y-67585215D01*
X57614162Y-67549500D01*
X57614157Y-67549500D01*
X57385843Y-67549500D01*
X57385838Y-67549500D01*
X57160339Y-67585215D01*
X56943196Y-67655770D01*
X56739771Y-67759421D01*
X56555061Y-67893622D01*
X56393622Y-68055061D01*
X56259421Y-68239771D01*
X56155770Y-68443196D01*
X56085215Y-68660339D01*
X56049500Y-68885837D01*
X54700500Y-68885837D01*
X54700500Y-66324500D01*
X54720185Y-66257461D01*
X54772989Y-66211706D01*
X54824500Y-66200500D01*
X145175500Y-66200500D01*
X145242539Y-66220185D01*
G37*
%TD.AperFunction*%
%TD*%
M02*
