%TF.GenerationSoftware,KiCad,Pcbnew,9.0.3+dfsg-1*%
%TF.CreationDate,2026-06-30T18:44:11-07:00*%
%TF.ProjectId,index.circuit,696e6465-782e-4636-9972-637569742e6b,rev?*%
%TF.SameCoordinates,Original*%
%TF.FileFunction,Copper,L4,Bot*%
%TF.FilePolarity,Positive*%
%FSLAX46Y46*%
G04 Gerber Fmt 4.6, Leading zero omitted, Abs format (unit mm)*
G04 Created by KiCad (PCBNEW 9.0.3+dfsg-1) date 2026-06-30 18:44:11*
%MOMM*%
%LPD*%
G01*
G04 APERTURE LIST*
%TA.AperFunction,SMDPad,CuDef*%
%ADD10R,0.540000X0.640000*%
%TD*%
%TA.AperFunction,ComponentPad*%
%ADD11C,2.500000*%
%TD*%
%TA.AperFunction,ComponentPad*%
%ADD12O,1.199998X1.999996*%
%TD*%
%TA.AperFunction,ComponentPad*%
%ADD13O,1.199998X1.799996*%
%TD*%
%TA.AperFunction,SMDPad,CuDef*%
%ADD14R,1.025000X1.400000*%
%TD*%
%TA.AperFunction,ComponentPad*%
%ADD15C,1.500000*%
%TD*%
%TA.AperFunction,ComponentPad*%
%ADD16R,1.500000X1.500000*%
%TD*%
%TA.AperFunction,ViaPad*%
%ADD17C,0.450000*%
%TD*%
%TA.AperFunction,ViaPad*%
%ADD18C,0.600000*%
%TD*%
%TA.AperFunction,Conductor*%
%ADD19C,0.150000*%
%TD*%
%TA.AperFunction,Conductor*%
%ADD20C,0.200000*%
%TD*%
G04 APERTURE END LIST*
D10*
%TO.P,C13,1*%
%TO.N,XOUT*%
X64510000Y-125000000D03*
%TO.P,C13,2*%
%TO.N,GND*%
X63490000Y-125000000D03*
%TD*%
%TO.P,C12,1*%
%TO.N,XIN*%
X64510000Y-119000000D03*
%TO.P,C12,2*%
%TO.N,GND*%
X63490000Y-119000000D03*
%TD*%
D11*
%TO.P,SW2,1*%
%TO.N,KEY1*%
X90165000Y-99485000D03*
%TO.P,SW2,2*%
%TO.N,GND*%
X96515000Y-96945000D03*
%TD*%
D10*
%TO.P,C15,1*%
%TO.N,V3V3*%
X88510000Y-126000000D03*
%TO.P,C15,2*%
%TO.N,GND*%
X87490000Y-126000000D03*
%TD*%
D11*
%TO.P,SW7,1*%
%TO.N,KEY6*%
X109215000Y-80435000D03*
%TO.P,SW7,2*%
%TO.N,GND*%
X115565000Y-77895000D03*
%TD*%
D12*
%TO.P,J1,1*%
%TO.N,GND*%
X104325112Y-127594307D03*
D13*
%TO.P,J1,2*%
X104325112Y-131774131D03*
%TO.P,J1,3*%
X95674888Y-131774131D03*
D12*
%TO.P,J1,4*%
X95674888Y-127594307D03*
%TD*%
D11*
%TO.P,SW8,1*%
%TO.N,KEY7*%
X128265000Y-80435000D03*
%TO.P,SW8,2*%
%TO.N,GND*%
X134615000Y-77895000D03*
%TD*%
D10*
%TO.P,R_CC1,1*%
%TO.N,J1.A5 to R_CC1.pin1*%
X99260000Y-129000000D03*
%TO.P,R_CC1,2*%
%TO.N,GND*%
X98240000Y-129000000D03*
%TD*%
%TO.P,C1,1*%
%TO.N,V3V3*%
X70510000Y-115000000D03*
%TO.P,C1,2*%
%TO.N,GND*%
X69490000Y-115000000D03*
%TD*%
D14*
%TO.P,C11,1*%
%TO.N,V3V3*%
X83412500Y-129000000D03*
%TO.P,C11,2*%
%TO.N,GND*%
X81587500Y-129000000D03*
%TD*%
D10*
%TO.P,R_CC2,1*%
%TO.N,J1.B5 to R_CC2.pin1*%
X102260000Y-129000000D03*
%TO.P,R_CC2,2*%
%TO.N,GND*%
X101240000Y-129000000D03*
%TD*%
%TO.P,R_RUN,1*%
%TO.N,V3V3*%
X67510000Y-118000000D03*
%TO.P,R_RUN,2*%
%TO.N,RUN*%
X66490000Y-118000000D03*
%TD*%
%TO.P,C14,1*%
%TO.N,RUN*%
X67510000Y-126000000D03*
%TO.P,C14,2*%
%TO.N,GND*%
X66490000Y-126000000D03*
%TD*%
D11*
%TO.P,SW1,1*%
%TO.N,KEY0*%
X71115000Y-99485000D03*
%TO.P,SW1,2*%
%TO.N,GND*%
X77465000Y-96945000D03*
%TD*%
D15*
%TO.P,SW_RST,1*%
%TO.N,RUN*%
X103750000Y-69750000D03*
%TO.P,SW_RST,2*%
%TO.N,GND*%
X103750000Y-76250000D03*
%TO.P,SW_RST,3*%
%TO.N,N/C*%
X108250000Y-76250000D03*
%TO.P,SW_RST,4*%
X108250000Y-69750000D03*
%TD*%
D16*
%TO.P,J_THUMB,1*%
%TO.N,ENC_A*%
X60000000Y-99080000D03*
D15*
%TO.P,J_THUMB,2*%
%TO.N,ENC_B*%
X60000000Y-96540000D03*
%TO.P,J_THUMB,3*%
%TO.N,ENC_SW*%
X60000000Y-94000000D03*
%TO.P,J_THUMB,4*%
%TO.N,SHIFT*%
X60000000Y-91460000D03*
%TO.P,J_THUMB,5*%
%TO.N,GND*%
X60000000Y-88920000D03*
%TD*%
%TO.P,SW_BOOT,1*%
%TO.N,BOOT_BTN*%
X91750000Y-69750000D03*
%TO.P,SW_BOOT,2*%
%TO.N,GND*%
X91750000Y-76250000D03*
%TO.P,SW_BOOT,3*%
%TO.N,N/C*%
X96250000Y-76250000D03*
%TO.P,SW_BOOT,4*%
X96250000Y-69750000D03*
%TD*%
D11*
%TO.P,SW3,1*%
%TO.N,KEY2*%
X109215000Y-99485000D03*
%TO.P,SW3,2*%
%TO.N,GND*%
X115565000Y-96945000D03*
%TD*%
D10*
%TO.P,C2,1*%
%TO.N,V3V3*%
X73510000Y-115000000D03*
%TO.P,C2,2*%
%TO.N,GND*%
X72490000Y-115000000D03*
%TD*%
%TO.P,C6,1*%
%TO.N,V3V3*%
X70510000Y-129000000D03*
%TO.P,C6,2*%
%TO.N,GND*%
X69490000Y-129000000D03*
%TD*%
%TO.P,C10,1*%
%TO.N,DVDD*%
X79510000Y-129000000D03*
%TO.P,C10,2*%
%TO.N,GND*%
X78490000Y-129000000D03*
%TD*%
D11*
%TO.P,SW6,1*%
%TO.N,KEY5*%
X90165000Y-80435000D03*
%TO.P,SW6,2*%
%TO.N,GND*%
X96515000Y-77895000D03*
%TD*%
D10*
%TO.P,C5,1*%
%TO.N,V3V3*%
X82510000Y-115000000D03*
%TO.P,C5,2*%
%TO.N,GND*%
X81490000Y-115000000D03*
%TD*%
%TO.P,C3,1*%
%TO.N,V3V3*%
X76510000Y-115000000D03*
%TO.P,C3,2*%
%TO.N,GND*%
X75490000Y-115000000D03*
%TD*%
%TO.P,R_BOOT,1*%
%TO.N,QSPI_SS*%
X85510000Y-126000000D03*
%TO.P,R_BOOT,2*%
%TO.N,BOOT_BTN*%
X84490000Y-126000000D03*
%TD*%
D11*
%TO.P,SW5,1*%
%TO.N,KEY4*%
X71115000Y-80435000D03*
%TO.P,SW5,2*%
%TO.N,GND*%
X77465000Y-77895000D03*
%TD*%
%TO.P,SW4,1*%
%TO.N,KEY3*%
X128265000Y-99485000D03*
%TO.P,SW4,2*%
%TO.N,GND*%
X134615000Y-96945000D03*
%TD*%
D10*
%TO.P,C7,1*%
%TO.N,V3V3*%
X73510000Y-129000000D03*
%TO.P,C7,2*%
%TO.N,GND*%
X72490000Y-129000000D03*
%TD*%
%TO.P,C9,1*%
%TO.N,DVDD*%
X76510000Y-129000000D03*
%TO.P,C9,2*%
%TO.N,GND*%
X75490000Y-129000000D03*
%TD*%
%TO.P,C4,1*%
%TO.N,V3V3*%
X79510000Y-115000000D03*
%TO.P,C4,2*%
%TO.N,GND*%
X78490000Y-115000000D03*
%TD*%
D17*
%TO.N,V3V3*%
X58787500Y-111000000D03*
D18*
X59912500Y-104350000D03*
X67578400Y-122199900D03*
X70569400Y-122208800D03*
X134151800Y-127839900D03*
X80553400Y-122581900D03*
X80364100Y-124344700D03*
%TO.N,DVDD*%
X77494700Y-124274900D03*
%TO.N,XOUT*%
X66257900Y-120918900D03*
%TO.N,KEY0*%
X78340700Y-117693300D03*
%TO.N,KEY1*%
X85324400Y-117155900D03*
%TO.N,KEY2*%
X107329700Y-116723100D03*
%TO.N,KEY3*%
X123306800Y-116187800D03*
%TO.N,KEY4*%
X76561900Y-117533700D03*
%TO.N,KEY5*%
X88233000Y-115661000D03*
%TO.N,KEY6*%
X104803100Y-115370100D03*
D17*
%TO.N,GND*%
X124212500Y-128000000D03*
X134612500Y-129000000D03*
D18*
X78246400Y-122000000D03*
X66405000Y-122850000D03*
D17*
X60612500Y-111000000D03*
D18*
X58087500Y-108856100D03*
X70024500Y-120723300D03*
%TO.N,KEY7*%
X120579500Y-114832600D03*
%TO.N,ENC_A*%
X60935400Y-114000100D03*
%TO.N,ENC_B*%
X61755000Y-114825500D03*
%TO.N,ENC_SW*%
X62910800Y-115720100D03*
%TO.N,SHIFT*%
X66046200Y-116264100D03*
%TO.N,LED_DIN*%
X68117500Y-124199900D03*
X68117500Y-104350000D03*
%TO.N,RUN*%
X69235300Y-123672600D03*
X68990600Y-73311300D03*
%TO.N,VBUS*%
X125898400Y-128434700D03*
%TO.N,J1.A5 to R_CC1.pin1*%
X98519000Y-125718100D03*
%TO.N,QSPI_SS*%
X83548800Y-119400100D03*
X85508400Y-127023200D03*
%TO.N,J1.B5 to R_CC2.pin1*%
X102260000Y-125715100D03*
%TO.N,QSPI_SD1*%
X81307400Y-119800000D03*
X81307400Y-124178400D03*
%TO.N,QSPI_SD2*%
X78440600Y-127556800D03*
X76488000Y-119997400D03*
%TO.N,XIN*%
X64248400Y-124065000D03*
%TD*%
D19*
%TO.N,V3V3*%
X70565600Y-128453300D02*
X70510000Y-128453300D01*
X67013300Y-117503300D02*
X67013300Y-118000000D01*
X59912500Y-111000000D02*
X59912500Y-113785800D01*
X73758400Y-115000000D02*
X74006700Y-115000000D01*
X87949200Y-125439200D02*
X88013300Y-125503300D01*
X80553400Y-115546700D02*
X80553400Y-122581900D01*
X73156100Y-115602300D02*
X70565600Y-115602300D01*
X86619000Y-125925400D02*
X87105200Y-125439200D01*
X83006700Y-127182000D02*
X83412500Y-127587800D01*
X88510000Y-126000000D02*
X88013300Y-126000000D01*
X76013300Y-115000000D02*
X76013300Y-115496700D01*
X70565600Y-122208800D02*
X70569400Y-122208800D01*
X82013300Y-115000000D02*
X82013300Y-115496700D01*
X80553400Y-115546700D02*
X80006700Y-115000000D01*
X134151800Y-127839900D02*
X133918400Y-128073300D01*
X67578400Y-118615100D02*
X67578400Y-122199900D01*
X70510000Y-129000000D02*
X70510000Y-128453300D01*
X70510000Y-115000000D02*
X70510000Y-115546700D01*
X133918400Y-128073300D02*
X133912500Y-128073300D01*
X67510000Y-118000000D02*
X67510000Y-118546700D01*
X85702300Y-127587800D02*
X86619000Y-126671100D01*
X59912500Y-113785800D02*
X62917500Y-116790800D01*
X83412500Y-129000000D02*
X83412500Y-127587800D01*
X87105200Y-125439200D02*
X87949200Y-125439200D01*
X66300800Y-116790800D02*
X67013300Y-117503300D01*
X79510000Y-115000000D02*
X80006700Y-115000000D01*
X83412500Y-127587800D02*
X85702300Y-127587800D01*
X81963300Y-115546700D02*
X80553400Y-115546700D01*
X73510000Y-129000000D02*
X72963300Y-128453300D01*
X70565600Y-115602300D02*
X70510000Y-115546700D01*
X82510000Y-115000000D02*
X82013300Y-115000000D01*
X73758400Y-115000000D02*
X73156100Y-115602300D01*
X67510000Y-118000000D02*
X67013300Y-118000000D01*
X88013300Y-125503300D02*
X88013300Y-126000000D01*
X59912500Y-111000000D02*
X59912500Y-104350000D01*
X74553400Y-115546700D02*
X74006700Y-115000000D01*
X82510000Y-115000000D02*
X83006700Y-115000000D01*
X75963300Y-115546700D02*
X74553400Y-115546700D01*
X62917500Y-116790800D02*
X66300800Y-116790800D01*
X70565600Y-122208800D02*
X70565600Y-115602300D01*
X73510000Y-115000000D02*
X73758400Y-115000000D01*
X76510000Y-115000000D02*
X76013300Y-115000000D01*
X82013300Y-115496700D02*
X81963300Y-115546700D01*
X72963300Y-128453300D02*
X70565600Y-128453300D01*
X86619000Y-126671100D02*
X86619000Y-125925400D01*
X83006700Y-115000000D02*
X83006700Y-127182000D01*
X67510000Y-118546700D02*
X67578400Y-118615100D01*
X80553400Y-122581900D02*
X80364100Y-122771200D01*
X80364100Y-122771200D02*
X80364100Y-124344700D01*
X76013300Y-115496700D02*
X75963300Y-115546700D01*
X70565600Y-128453300D02*
X70565600Y-122208800D01*
%TO.N,DVDD*%
X77494700Y-128419000D02*
X77494700Y-124274900D01*
X77494700Y-128512000D02*
X77494700Y-128419000D01*
X77006700Y-129000000D02*
X77494700Y-128512000D01*
X78929000Y-128419000D02*
X79510000Y-129000000D01*
X76510000Y-129000000D02*
X77006700Y-129000000D01*
X77494700Y-128419000D02*
X78929000Y-128419000D01*
%TO.N,XOUT*%
X64510000Y-125000000D02*
X65006700Y-125000000D01*
X65006700Y-125000000D02*
X65006700Y-122170100D01*
X65006700Y-122170100D02*
X66257900Y-120918900D01*
%TO.N,KEY0*%
X77854500Y-106224500D02*
X77854500Y-117207100D01*
X71115000Y-99485000D02*
X77854500Y-106224500D01*
X77854500Y-117207100D02*
X78340700Y-117693300D01*
%TO.N,KEY1*%
X90165000Y-99485000D02*
X90165000Y-114540800D01*
X90165000Y-114540800D02*
X87549900Y-117155900D01*
X87549900Y-117155900D02*
X85324400Y-117155900D01*
%TO.N,KEY2*%
X109215000Y-99485000D02*
X107329700Y-101370300D01*
X107329700Y-101370300D02*
X107329700Y-116723100D01*
%TO.N,KEY3*%
X123306800Y-104443200D02*
X123306800Y-116187800D01*
X128265000Y-99485000D02*
X123306800Y-104443200D01*
%TO.N,KEY4*%
X77058600Y-117037000D02*
X76561900Y-117533700D01*
X69569600Y-81980400D02*
X69569600Y-100589600D01*
X71115000Y-80435000D02*
X69569600Y-81980400D01*
X77058600Y-108078600D02*
X77058600Y-117037000D01*
X69569600Y-100589600D02*
X77058600Y-108078600D01*
%TO.N,KEY5*%
X90165000Y-80435000D02*
X88233000Y-82367000D01*
X88233000Y-82367000D02*
X88233000Y-115661000D01*
%TO.N,KEY6*%
X104803100Y-84846900D02*
X104803100Y-115370100D01*
X109215000Y-80435000D02*
X104803100Y-84846900D01*
%TO.N,GND*%
X63490000Y-119000000D02*
X62993300Y-119000000D01*
X132087500Y-129000000D02*
X124364700Y-129000000D01*
X78490000Y-114453300D02*
X78490000Y-97970000D01*
X78490000Y-129000000D02*
X77993300Y-129000000D01*
X80993300Y-115000000D02*
X80446600Y-114453300D01*
X80301600Y-129546700D02*
X79036700Y-129546700D01*
X100743300Y-129000000D02*
X100196600Y-129546700D01*
X78490000Y-114453300D02*
X78490000Y-115000000D01*
X65993300Y-126000000D02*
X65993300Y-125832700D01*
X73036700Y-114453300D02*
X74446600Y-114453300D01*
X72490000Y-115000000D02*
X71993300Y-115000000D01*
X84110000Y-129926700D02*
X87490000Y-126546700D01*
X87490000Y-126000000D02*
X87490000Y-126546700D01*
X104325000Y-131774000D02*
X104325000Y-127594000D01*
X78979300Y-122000000D02*
X78979300Y-127131000D01*
X72490000Y-115000000D02*
X72986700Y-115000000D01*
X63986700Y-125496700D02*
X64321400Y-125831400D01*
X81490000Y-115000000D02*
X80993300Y-115000000D01*
X95675000Y-131774000D02*
X95675000Y-129000000D01*
X77465000Y-77895000D02*
X77465000Y-96945000D01*
X63490000Y-124715700D02*
X63774300Y-125000000D01*
X69490000Y-115000000D02*
X69986700Y-115000000D01*
X81587500Y-129000000D02*
X80848300Y-129000000D01*
X95675000Y-127594000D02*
X95675000Y-126367300D01*
X78490000Y-97970000D02*
X77465000Y-96945000D01*
X123826700Y-128462000D02*
X123826700Y-128000000D01*
X58087500Y-114094200D02*
X62993300Y-119000000D01*
X72986700Y-129496700D02*
X72986700Y-129000000D01*
X89584600Y-126546700D02*
X87490000Y-126546700D01*
X98240000Y-129000000D02*
X98736700Y-129000000D01*
X72490000Y-129000000D02*
X72986700Y-129000000D01*
X73036700Y-129546700D02*
X72986700Y-129496700D01*
X74993300Y-129000000D02*
X74446600Y-129546700D01*
X72986700Y-114503300D02*
X73036700Y-114453300D01*
X132087500Y-99472500D02*
X134615000Y-96945000D01*
X63774300Y-125000000D02*
X63986700Y-125000000D01*
X69664600Y-129000000D02*
X69986700Y-129000000D01*
X82791400Y-129926700D02*
X84110000Y-129926700D01*
X71993300Y-129000000D02*
X71446600Y-129546700D01*
X70062000Y-114428000D02*
X71421300Y-114428000D01*
X63986700Y-125000000D02*
X63986700Y-125496700D01*
X78979300Y-127131000D02*
X80848300Y-129000000D01*
X100196600Y-129546700D02*
X98786700Y-129546700D01*
X96515000Y-96945000D02*
X96515000Y-77895000D01*
X66490000Y-126000000D02*
X65993300Y-126000000D01*
X78979300Y-114453300D02*
X78490000Y-114453300D01*
X71421300Y-114428000D02*
X71993300Y-115000000D01*
X77993300Y-129000000D02*
X77446600Y-129546700D01*
X69986700Y-120723300D02*
X69986700Y-115000000D01*
X69490000Y-129000000D02*
X68993300Y-129000000D01*
X69664600Y-129000000D02*
X69986700Y-128677900D01*
X81587500Y-129000000D02*
X82326700Y-129000000D01*
X68993300Y-129000000D02*
X68993300Y-128503300D01*
X69986700Y-115000000D02*
X69986700Y-114503300D01*
X60000000Y-88920000D02*
X58087500Y-90832500D01*
X75490000Y-129000000D02*
X75986700Y-129000000D01*
X68993300Y-128503300D02*
X66490000Y-126000000D01*
X69986700Y-114503300D02*
X70062000Y-114428000D01*
X74446600Y-114453300D02*
X74993300Y-115000000D01*
X80848300Y-129000000D02*
X80301600Y-129546700D01*
X58087500Y-90832500D02*
X58087500Y-108856100D01*
D20*
X123087500Y-128000000D02*
X127050294Y-130299972D01*
D19*
X115565000Y-96945000D02*
X115565000Y-77895000D01*
X77446600Y-129546700D02*
X76036700Y-129546700D01*
X101240000Y-129000000D02*
X100743300Y-129000000D01*
X72986700Y-115000000D02*
X72986700Y-114503300D01*
X78986700Y-129496700D02*
X78986700Y-129000000D01*
X132087500Y-129000000D02*
X132087500Y-99472500D01*
X95675000Y-126367300D02*
X89764000Y-126367300D01*
X91750000Y-76250000D02*
X93395000Y-77895000D01*
X98786700Y-129546700D02*
X98736700Y-129496700D01*
X124364700Y-129000000D02*
X123826700Y-128462000D01*
X79036700Y-129546700D02*
X78986700Y-129496700D01*
X69986700Y-129496700D02*
X69986700Y-129000000D01*
X69986700Y-120723300D02*
X70024500Y-120723300D01*
X58087500Y-111000000D02*
X58087500Y-108856100D01*
X65993300Y-125832700D02*
X65992000Y-125831400D01*
X58087500Y-111000000D02*
X58087500Y-114094200D01*
X98736700Y-129496700D02*
X98736700Y-129000000D01*
X69490000Y-129000000D02*
X69664600Y-129000000D01*
X78979300Y-114453300D02*
X78979300Y-122000000D01*
X95675000Y-129000000D02*
X95675000Y-127594000D01*
X78979300Y-122000000D02*
X78246400Y-122000000D01*
X82326700Y-129462000D02*
X82791400Y-129926700D01*
X69986700Y-128677900D02*
X69986700Y-120723300D01*
X123087500Y-128000000D02*
X123826700Y-128000000D01*
X75490000Y-129000000D02*
X74993300Y-129000000D01*
X80446600Y-114453300D02*
X78979300Y-114453300D01*
X66405000Y-125418400D02*
X66405000Y-122850000D01*
X64321400Y-125831400D02*
X65992000Y-125831400D01*
X76036700Y-129546700D02*
X75986700Y-129496700D01*
X63490000Y-119000000D02*
X63490000Y-124715700D01*
X82326700Y-129000000D02*
X82326700Y-129462000D01*
X89764000Y-126367300D02*
X89584600Y-126546700D01*
X63490000Y-125000000D02*
X63774300Y-125000000D01*
X72490000Y-129000000D02*
X71993300Y-129000000D01*
X71446600Y-129546700D02*
X70036700Y-129546700D01*
X78490000Y-129000000D02*
X78986700Y-129000000D01*
X65992000Y-125831400D02*
X66405000Y-125418400D01*
X98240000Y-129000000D02*
X95675000Y-129000000D01*
X75986700Y-129496700D02*
X75986700Y-129000000D01*
X74446600Y-129546700D02*
X73036700Y-129546700D01*
X75490000Y-115000000D02*
X74993300Y-115000000D01*
X93395000Y-77895000D02*
X96515000Y-77895000D01*
X134615000Y-77895000D02*
X134615000Y-96945000D01*
X70036700Y-129546700D02*
X69986700Y-129496700D01*
%TO.N,KEY7*%
X128265000Y-80435000D02*
X120579500Y-88120500D01*
X120579500Y-88120500D02*
X120579500Y-114832600D01*
%TO.N,ENC_A*%
X60935400Y-100992100D02*
X60935400Y-114000100D01*
X60000000Y-100056700D02*
X60935400Y-100992100D01*
X60000000Y-99080000D02*
X60000000Y-100056700D01*
%TO.N,ENC_B*%
X61755000Y-98295000D02*
X61755000Y-114825500D01*
X60000000Y-96540000D02*
X61755000Y-98295000D01*
%TO.N,ENC_SW*%
X60000000Y-94000000D02*
X62910800Y-96910800D01*
X62910800Y-96910800D02*
X62910800Y-115720100D01*
%TO.N,SHIFT*%
X66046200Y-97506200D02*
X60000000Y-91460000D01*
X66046200Y-116264100D02*
X66046200Y-97506200D01*
%TO.N,LED_DIN*%
X68117500Y-104350000D02*
X68117500Y-124199900D01*
%TO.N,RUN*%
X68990600Y-123427900D02*
X68990600Y-73311300D01*
X67013300Y-118523300D02*
X66490000Y-118000000D01*
X67079900Y-123521300D02*
X67013300Y-123454700D01*
X67013300Y-126000000D02*
X67013300Y-124024300D01*
X67510000Y-126000000D02*
X68006700Y-126000000D01*
X67013300Y-124024300D02*
X67079900Y-123957700D01*
X68006700Y-126000000D02*
X69235300Y-124771400D01*
X67013300Y-123454700D02*
X67013300Y-118523300D01*
X69235300Y-123672600D02*
X68990600Y-123427900D01*
X67079900Y-123957700D02*
X67079900Y-123521300D01*
X69235300Y-124771400D02*
X69235300Y-123672600D01*
X67510000Y-126000000D02*
X67013300Y-126000000D01*
%TO.N,BOOT_BTN*%
X84490000Y-77010000D02*
X84490000Y-126000000D01*
X91750000Y-69750000D02*
X84490000Y-77010000D01*
%TO.N,VBUS*%
X125898400Y-128434700D02*
X125651700Y-128188000D01*
X125651700Y-128188000D02*
X125651700Y-128000000D01*
%TO.N,J1.A5 to R_CC1.pin1*%
X99260000Y-126459100D02*
X98519000Y-125718100D01*
X99260000Y-129000000D02*
X99260000Y-126459100D01*
%TO.N,QSPI_SS*%
X85510000Y-127021600D02*
X85508400Y-127023200D01*
X83548800Y-126009600D02*
X83548800Y-119400100D01*
X85510000Y-126000000D02*
X85510000Y-127021600D01*
X84562400Y-127023200D02*
X83548800Y-126009600D01*
X85508400Y-127023200D02*
X84562400Y-127023200D01*
%TO.N,J1.B5 to R_CC2.pin1*%
X102260000Y-129000000D02*
X102260000Y-125715100D01*
%TO.N,QSPI_SD1*%
X81307400Y-119800000D02*
X81307400Y-124178400D01*
%TO.N,QSPI_SD2*%
X78440600Y-124470700D02*
X78440600Y-127556800D01*
X76488000Y-122518100D02*
X78440600Y-124470700D01*
X76488000Y-119997400D02*
X76488000Y-122518100D01*
%TO.N,XIN*%
X64248400Y-119808300D02*
X64248400Y-124065000D01*
X64510000Y-119000000D02*
X64510000Y-119546700D01*
X64510000Y-119546700D02*
X64248400Y-119808300D01*
%TD*%
M02*
