%TF.GenerationSoftware,KiCad,Pcbnew,9.0.3+dfsg-1*%
%TF.CreationDate,2026-06-30T18:49:31-07:00*%
%TF.ProjectId,index.circuit,696e6465-782e-4636-9972-637569742e6b,rev?*%
%TF.SameCoordinates,Original*%
%TF.FileFunction,Copper,L2,Inr*%
%TF.FilePolarity,Positive*%
%FSLAX46Y46*%
G04 Gerber Fmt 4.6, Leading zero omitted, Abs format (unit mm)*
G04 Created by KiCad (PCBNEW 9.0.3+dfsg-1) date 2026-06-30 18:49:31*
%MOMM*%
%LPD*%
G01*
G04 APERTURE LIST*
%TA.AperFunction,ComponentPad*%
%ADD10C,2.500000*%
%TD*%
%TA.AperFunction,ComponentPad*%
%ADD11O,1.199998X1.999996*%
%TD*%
%TA.AperFunction,ComponentPad*%
%ADD12O,1.199998X1.799996*%
%TD*%
%TA.AperFunction,ComponentPad*%
%ADD13C,1.500000*%
%TD*%
%TA.AperFunction,ComponentPad*%
%ADD14R,1.500000X1.500000*%
%TD*%
%TA.AperFunction,ViaPad*%
%ADD15C,0.450000*%
%TD*%
%TA.AperFunction,ViaPad*%
%ADD16C,0.600000*%
%TD*%
G04 APERTURE END LIST*
D10*
%TO.N,KEY1*%
%TO.C,SW2*%
X90165000Y-99485000D03*
%TO.N,GND*%
X96515000Y-96945000D03*
%TD*%
%TO.N,KEY6*%
%TO.C,SW7*%
X109215000Y-80435000D03*
%TO.N,GND*%
X115565000Y-77895000D03*
%TD*%
D11*
%TO.N,GND*%
%TO.C,J1*%
X104325112Y-127594307D03*
D12*
X104325112Y-131774131D03*
X95674888Y-131774131D03*
D11*
X95674888Y-127594307D03*
%TD*%
D10*
%TO.N,KEY7*%
%TO.C,SW8*%
X128265000Y-80435000D03*
%TO.N,GND*%
X134615000Y-77895000D03*
%TD*%
%TO.N,KEY0*%
%TO.C,SW1*%
X71115000Y-99485000D03*
%TO.N,GND*%
X77465000Y-96945000D03*
%TD*%
D13*
%TO.N,RUN*%
%TO.C,SW_RST*%
X103750000Y-69750000D03*
%TO.N,GND*%
X103750000Y-76250000D03*
%TO.N,N/C*%
X108250000Y-76250000D03*
X108250000Y-69750000D03*
%TD*%
D14*
%TO.N,ENC_A*%
%TO.C,J_THUMB*%
X60000000Y-99080000D03*
D13*
%TO.N,ENC_B*%
X60000000Y-96540000D03*
%TO.N,ENC_SW*%
X60000000Y-94000000D03*
%TO.N,SHIFT*%
X60000000Y-91460000D03*
%TO.N,GND*%
X60000000Y-88920000D03*
%TD*%
%TO.N,BOOT_BTN*%
%TO.C,SW_BOOT*%
X91750000Y-69750000D03*
%TO.N,GND*%
X91750000Y-76250000D03*
%TO.N,N/C*%
X96250000Y-76250000D03*
X96250000Y-69750000D03*
%TD*%
D10*
%TO.N,KEY2*%
%TO.C,SW3*%
X109215000Y-99485000D03*
%TO.N,GND*%
X115565000Y-96945000D03*
%TD*%
%TO.N,KEY5*%
%TO.C,SW6*%
X90165000Y-80435000D03*
%TO.N,GND*%
X96515000Y-77895000D03*
%TD*%
%TO.N,KEY4*%
%TO.C,SW5*%
X71115000Y-80435000D03*
%TO.N,GND*%
X77465000Y-77895000D03*
%TD*%
%TO.N,KEY3*%
%TO.C,SW4*%
X128265000Y-99485000D03*
%TO.N,GND*%
X134615000Y-96945000D03*
%TD*%
D15*
%TO.N,V3V3*%
X58787500Y-111000000D03*
D16*
X59912500Y-104350000D03*
X67578400Y-122199900D03*
X70569400Y-122208800D03*
X134151800Y-127839900D03*
X80553400Y-122581900D03*
X80364100Y-124344700D03*
%TO.N,DVDD*%
X77494700Y-124274900D03*
%TO.N,XOUT*%
X66257900Y-120918900D03*
%TO.N,KEY0*%
X78340700Y-117693300D03*
%TO.N,KEY1*%
X85324400Y-117155900D03*
%TO.N,KEY2*%
X107329700Y-116723100D03*
%TO.N,KEY3*%
X123306800Y-116187800D03*
%TO.N,KEY4*%
X76561900Y-117533700D03*
%TO.N,KEY5*%
X88233000Y-115661000D03*
%TO.N,KEY6*%
X104803100Y-115370100D03*
D15*
%TO.N,GND*%
X124212500Y-128000000D03*
X134612500Y-129000000D03*
D16*
X78246400Y-122000000D03*
X66405000Y-122850000D03*
D15*
X60612500Y-111000000D03*
D16*
X58087500Y-108856100D03*
X70024500Y-120723300D03*
%TO.N,KEY7*%
X120579500Y-114832600D03*
%TO.N,ENC_A*%
X60935400Y-114000100D03*
%TO.N,ENC_B*%
X61755000Y-114825500D03*
%TO.N,ENC_SW*%
X62910800Y-115720100D03*
%TO.N,SHIFT*%
X66046200Y-116264100D03*
%TO.N,LED_DIN*%
X68117500Y-124199900D03*
X68117500Y-104350000D03*
%TO.N,RUN*%
X69235300Y-123672600D03*
X68990600Y-73311300D03*
%TO.N,VBUS*%
X125898400Y-128434700D03*
%TO.N,J1.A5 to R_CC1.pin1*%
X98519000Y-125718100D03*
%TO.N,QSPI_SS*%
X83548800Y-119400100D03*
X85508400Y-127023200D03*
%TO.N,J1.B5 to R_CC2.pin1*%
X102260000Y-125715100D03*
%TO.N,QSPI_SD1*%
X81307400Y-119800000D03*
X81307400Y-124178400D03*
%TO.N,QSPI_SD2*%
X78440600Y-127556800D03*
X76488000Y-119997400D03*
%TO.N,XIN*%
X64248400Y-124065000D03*
%TD*%
%TA.AperFunction,Conductor*%
%TO.N,GND*%
G36*
X144942539Y-66520185D02*
G01*
X144988294Y-66572989D01*
X144999500Y-66624500D01*
X144999500Y-133375500D01*
X144979815Y-133442539D01*
X144927011Y-133488294D01*
X144875500Y-133499500D01*
X55124500Y-133499500D01*
X55057461Y-133479815D01*
X55011706Y-133427011D01*
X55000500Y-133375500D01*
X55000500Y-130885837D01*
X56049500Y-130885837D01*
X56049500Y-131114162D01*
X56085215Y-131339660D01*
X56155770Y-131556803D01*
X56259421Y-131760228D01*
X56393621Y-131944937D01*
X56555063Y-132106379D01*
X56739772Y-132240579D01*
X56835884Y-132289550D01*
X56943196Y-132344229D01*
X56943198Y-132344229D01*
X56943201Y-132344231D01*
X57059592Y-132382049D01*
X57160339Y-132414784D01*
X57385838Y-132450500D01*
X57385843Y-132450500D01*
X57614162Y-132450500D01*
X57839660Y-132414784D01*
X58056799Y-132344231D01*
X58260228Y-132240579D01*
X58444937Y-132106379D01*
X58606379Y-131944937D01*
X58740579Y-131760228D01*
X58844231Y-131556799D01*
X58888202Y-131421470D01*
X58896757Y-131395141D01*
X95074889Y-131395141D01*
X95074889Y-132153120D01*
X95115778Y-132305721D01*
X95194770Y-132442537D01*
X95194772Y-132442540D01*
X95306477Y-132554245D01*
X95306480Y-132554247D01*
X95443296Y-132633239D01*
X95595897Y-132674128D01*
X95595899Y-132674129D01*
X95753877Y-132674129D01*
X95753878Y-132674128D01*
X95906479Y-132633239D01*
X96043295Y-132554247D01*
X96043298Y-132554245D01*
X96155003Y-132442540D01*
X96155005Y-132442537D01*
X96233997Y-132305721D01*
X96274886Y-132153120D01*
X96274887Y-132153119D01*
X96274887Y-131395143D01*
X96274886Y-131395141D01*
X103725113Y-131395141D01*
X103725113Y-132153120D01*
X103766002Y-132305721D01*
X103844994Y-132442537D01*
X103844996Y-132442540D01*
X103956701Y-132554245D01*
X103956704Y-132554247D01*
X104093520Y-132633239D01*
X104246121Y-132674128D01*
X104246123Y-132674129D01*
X104404101Y-132674129D01*
X104404102Y-132674128D01*
X104556703Y-132633239D01*
X104693519Y-132554247D01*
X104693522Y-132554245D01*
X104805227Y-132442540D01*
X104805229Y-132442537D01*
X104884221Y-132305721D01*
X104925110Y-132153120D01*
X104925111Y-132153119D01*
X104925111Y-131395143D01*
X104925110Y-131395141D01*
X104884221Y-131242540D01*
X104805229Y-131105724D01*
X104805227Y-131105721D01*
X104693522Y-130994016D01*
X104693513Y-130994009D01*
X104683726Y-130988358D01*
X104683723Y-130988358D01*
X104556704Y-130915022D01*
X104447783Y-130885837D01*
X141049500Y-130885837D01*
X141049500Y-131114162D01*
X141085215Y-131339660D01*
X141155770Y-131556803D01*
X141259421Y-131760228D01*
X141393621Y-131944937D01*
X141555063Y-132106379D01*
X141739772Y-132240579D01*
X141835884Y-132289550D01*
X141943196Y-132344229D01*
X141943198Y-132344229D01*
X141943201Y-132344231D01*
X142059592Y-132382049D01*
X142160339Y-132414784D01*
X142385838Y-132450500D01*
X142385843Y-132450500D01*
X142614162Y-132450500D01*
X142839660Y-132414784D01*
X143056799Y-132344231D01*
X143260228Y-132240579D01*
X143444937Y-132106379D01*
X143606379Y-131944937D01*
X143740579Y-131760228D01*
X143844231Y-131556799D01*
X143914784Y-131339660D01*
X143950500Y-131114162D01*
X143950500Y-130885837D01*
X143914784Y-130660339D01*
X143844229Y-130443196D01*
X143740578Y-130239771D01*
X143606379Y-130055063D01*
X143444937Y-129893621D01*
X143260228Y-129759421D01*
X143056803Y-129655770D01*
X142839660Y-129585215D01*
X142614162Y-129549500D01*
X142614157Y-129549500D01*
X142385843Y-129549500D01*
X142385838Y-129549500D01*
X142160339Y-129585215D01*
X141943196Y-129655770D01*
X141739771Y-129759421D01*
X141555061Y-129893622D01*
X141393622Y-130055061D01*
X141259421Y-130239771D01*
X141155770Y-130443196D01*
X141085215Y-130660339D01*
X141049500Y-130885837D01*
X104447783Y-130885837D01*
X104404102Y-130874133D01*
X104246121Y-130874133D01*
X104093520Y-130915022D01*
X103956704Y-130994014D01*
X103956701Y-130994016D01*
X103844996Y-131105721D01*
X103844994Y-131105724D01*
X103766002Y-131242540D01*
X103725113Y-131395141D01*
X96274886Y-131395141D01*
X96233997Y-131242540D01*
X96155005Y-131105724D01*
X96155003Y-131105721D01*
X96043298Y-130994016D01*
X96043295Y-130994014D01*
X95906479Y-130915022D01*
X95753878Y-130874133D01*
X95595897Y-130874133D01*
X95443296Y-130915022D01*
X95306480Y-130994014D01*
X95306477Y-130994016D01*
X95194772Y-131105721D01*
X95194770Y-131105724D01*
X95115778Y-131242540D01*
X95074889Y-131395141D01*
X58896757Y-131395141D01*
X58911849Y-131348695D01*
X58913299Y-131344227D01*
X58914784Y-131339660D01*
X58933184Y-131223481D01*
X58950500Y-131114162D01*
X58950500Y-130885837D01*
X58914784Y-130660339D01*
X58844229Y-130443196D01*
X58740578Y-130239771D01*
X58606379Y-130055063D01*
X58444937Y-129893621D01*
X58260228Y-129759421D01*
X58056803Y-129655770D01*
X57839660Y-129585215D01*
X57614162Y-129549500D01*
X57614157Y-129549500D01*
X57385843Y-129549500D01*
X57385838Y-129549500D01*
X57160339Y-129585215D01*
X56943196Y-129655770D01*
X56739771Y-129759421D01*
X56555061Y-129893622D01*
X56393622Y-130055061D01*
X56259421Y-130239771D01*
X56155770Y-130443196D01*
X56085215Y-130660339D01*
X56049500Y-130885837D01*
X55000500Y-130885837D01*
X55000500Y-127490908D01*
X77940100Y-127490908D01*
X77940100Y-127622691D01*
X77974208Y-127749987D01*
X77988077Y-127774008D01*
X78040100Y-127864114D01*
X78133286Y-127957300D01*
X78247414Y-128023192D01*
X78374708Y-128057300D01*
X78374710Y-128057300D01*
X78506490Y-128057300D01*
X78506492Y-128057300D01*
X78633786Y-128023192D01*
X78747914Y-127957300D01*
X78841100Y-127864114D01*
X78906992Y-127749986D01*
X78941100Y-127622692D01*
X78941100Y-127490908D01*
X78906992Y-127363614D01*
X78841100Y-127249486D01*
X78747914Y-127156300D01*
X78676930Y-127115317D01*
X78633787Y-127090408D01*
X78598739Y-127081017D01*
X78506492Y-127056300D01*
X78374708Y-127056300D01*
X78247412Y-127090408D01*
X78133286Y-127156300D01*
X78133283Y-127156302D01*
X78040102Y-127249483D01*
X78040100Y-127249486D01*
X77974208Y-127363612D01*
X77940100Y-127490908D01*
X55000500Y-127490908D01*
X55000500Y-126957308D01*
X85007900Y-126957308D01*
X85007900Y-127089092D01*
X85021982Y-127141646D01*
X85042008Y-127216387D01*
X85061118Y-127249486D01*
X85107900Y-127330514D01*
X85201086Y-127423700D01*
X85315214Y-127489592D01*
X85442508Y-127523700D01*
X85442510Y-127523700D01*
X85574290Y-127523700D01*
X85574292Y-127523700D01*
X85701586Y-127489592D01*
X85815714Y-127423700D01*
X85908900Y-127330514D01*
X85974792Y-127216386D01*
X86001873Y-127115317D01*
X95074889Y-127115317D01*
X95074889Y-128073296D01*
X95115778Y-128225897D01*
X95194770Y-128362713D01*
X95194772Y-128362716D01*
X95306477Y-128474421D01*
X95306480Y-128474423D01*
X95443296Y-128553415D01*
X95595897Y-128594304D01*
X95595899Y-128594305D01*
X95753877Y-128594305D01*
X95753878Y-128594304D01*
X95906479Y-128553415D01*
X96043295Y-128474423D01*
X96043298Y-128474421D01*
X96155003Y-128362716D01*
X96155005Y-128362713D01*
X96233997Y-128225897D01*
X96242407Y-128194512D01*
X96278771Y-128134851D01*
X96341618Y-128104321D01*
X96410993Y-128112615D01*
X96464872Y-128157100D01*
X96483799Y-128202413D01*
X96498611Y-128276878D01*
X96498615Y-128276892D01*
X96545763Y-128390719D01*
X96545765Y-128390723D01*
X96614215Y-128493165D01*
X96614221Y-128493173D01*
X96701341Y-128580293D01*
X96701349Y-128580299D01*
X96803791Y-128648749D01*
X96803795Y-128648751D01*
X96900952Y-128688994D01*
X96917629Y-128695902D01*
X97038470Y-128719938D01*
X97038474Y-128719939D01*
X97038475Y-128719939D01*
X97161690Y-128719939D01*
X97161691Y-128719938D01*
X97282535Y-128695902D01*
X97396370Y-128648750D01*
X97396372Y-128648749D01*
X97477854Y-128594304D01*
X97498819Y-128580296D01*
X97585945Y-128493170D01*
X97654399Y-128390721D01*
X97701551Y-128276886D01*
X97725588Y-128156040D01*
X97725588Y-128032826D01*
X97725587Y-128032821D01*
X102274412Y-128032821D01*
X102274412Y-128156044D01*
X102298447Y-128276878D01*
X102298451Y-128276892D01*
X102345599Y-128390719D01*
X102345601Y-128390723D01*
X102414051Y-128493165D01*
X102414057Y-128493173D01*
X102501177Y-128580293D01*
X102501185Y-128580299D01*
X102603627Y-128648749D01*
X102603631Y-128648751D01*
X102700788Y-128688994D01*
X102717465Y-128695902D01*
X102838306Y-128719938D01*
X102838310Y-128719939D01*
X102838311Y-128719939D01*
X102961526Y-128719939D01*
X102961527Y-128719938D01*
X103082371Y-128695902D01*
X103196206Y-128648750D01*
X103196208Y-128648749D01*
X103277690Y-128594304D01*
X103298655Y-128580296D01*
X103385781Y-128493170D01*
X103454235Y-128390721D01*
X103501387Y-128276886D01*
X103516200Y-128202411D01*
X103548584Y-128140503D01*
X103609299Y-128105928D01*
X103679069Y-128109667D01*
X103735741Y-128150533D01*
X103757591Y-128194509D01*
X103766001Y-128225895D01*
X103766001Y-128225896D01*
X103844994Y-128362713D01*
X103844996Y-128362716D01*
X103956701Y-128474421D01*
X103956704Y-128474423D01*
X104093520Y-128553415D01*
X104246121Y-128594304D01*
X104246123Y-128594305D01*
X104404101Y-128594305D01*
X104404102Y-128594304D01*
X104556703Y-128553415D01*
X104693519Y-128474423D01*
X104693522Y-128474421D01*
X104799135Y-128368808D01*
X125397900Y-128368808D01*
X125397900Y-128500591D01*
X125432008Y-128627887D01*
X125444053Y-128648749D01*
X125497900Y-128742014D01*
X125591086Y-128835200D01*
X125705214Y-128901092D01*
X125832508Y-128935200D01*
X125832510Y-128935200D01*
X125964290Y-128935200D01*
X125964292Y-128935200D01*
X126091586Y-128901092D01*
X126205714Y-128835200D01*
X126298900Y-128742014D01*
X126364792Y-128627886D01*
X126398900Y-128500592D01*
X126398900Y-128368808D01*
X126364792Y-128241514D01*
X126298900Y-128127386D01*
X126205714Y-128034200D01*
X126148650Y-128001254D01*
X126091587Y-127968308D01*
X126027939Y-127951254D01*
X125964292Y-127934200D01*
X125832508Y-127934200D01*
X125705212Y-127968308D01*
X125591086Y-128034200D01*
X125591083Y-128034202D01*
X125497902Y-128127383D01*
X125497900Y-128127386D01*
X125432008Y-128241512D01*
X125397900Y-128368808D01*
X104799135Y-128368808D01*
X104805227Y-128362716D01*
X104805229Y-128362713D01*
X104842200Y-128298680D01*
X104884221Y-128225897D01*
X104925110Y-128073296D01*
X104925111Y-128073295D01*
X104925111Y-127774008D01*
X133651300Y-127774008D01*
X133651300Y-127905792D01*
X133663534Y-127951450D01*
X133685408Y-128033087D01*
X133699387Y-128057299D01*
X133751300Y-128147214D01*
X133844486Y-128240400D01*
X133958614Y-128306292D01*
X134085908Y-128340400D01*
X134085910Y-128340400D01*
X134217690Y-128340400D01*
X134217692Y-128340400D01*
X134344986Y-128306292D01*
X134459114Y-128240400D01*
X134552300Y-128147214D01*
X134618192Y-128033086D01*
X134652300Y-127905792D01*
X134652300Y-127774008D01*
X134618192Y-127646714D01*
X134552300Y-127532586D01*
X134459114Y-127439400D01*
X134402050Y-127406454D01*
X134344987Y-127373508D01*
X134281339Y-127356454D01*
X134217692Y-127339400D01*
X134085908Y-127339400D01*
X133958612Y-127373508D01*
X133844486Y-127439400D01*
X133844483Y-127439402D01*
X133751302Y-127532583D01*
X133751300Y-127532586D01*
X133685408Y-127646712D01*
X133672283Y-127695696D01*
X133651300Y-127774008D01*
X104925111Y-127774008D01*
X104925111Y-127115319D01*
X104925110Y-127115317D01*
X104884221Y-126962716D01*
X104805229Y-126825900D01*
X104805227Y-126825897D01*
X104693522Y-126714192D01*
X104693519Y-126714190D01*
X104556703Y-126635198D01*
X104404102Y-126594309D01*
X104246121Y-126594309D01*
X104093520Y-126635198D01*
X103956704Y-126714190D01*
X103956701Y-126714192D01*
X103844996Y-126825897D01*
X103844994Y-126825900D01*
X103766002Y-126962716D01*
X103725113Y-127115317D01*
X103725113Y-127828712D01*
X103705428Y-127895751D01*
X103652624Y-127941506D01*
X103583466Y-127951450D01*
X103519910Y-127922425D01*
X103486552Y-127876165D01*
X103454234Y-127798142D01*
X103385784Y-127695700D01*
X103385778Y-127695692D01*
X103298658Y-127608572D01*
X103298650Y-127608566D01*
X103196208Y-127540116D01*
X103196204Y-127540114D01*
X103082377Y-127492966D01*
X103082373Y-127492964D01*
X103082371Y-127492964D01*
X103082367Y-127492963D01*
X103082363Y-127492962D01*
X102961529Y-127468927D01*
X102961525Y-127468927D01*
X102838311Y-127468927D01*
X102838306Y-127468927D01*
X102717472Y-127492962D01*
X102717458Y-127492966D01*
X102603631Y-127540114D01*
X102603627Y-127540116D01*
X102501185Y-127608566D01*
X102501177Y-127608572D01*
X102414057Y-127695692D01*
X102414051Y-127695700D01*
X102345601Y-127798142D01*
X102345599Y-127798146D01*
X102298451Y-127911973D01*
X102298447Y-127911987D01*
X102274412Y-128032821D01*
X97725587Y-128032821D01*
X97701551Y-127911980D01*
X97681724Y-127864113D01*
X97654400Y-127798146D01*
X97654398Y-127798142D01*
X97585948Y-127695700D01*
X97585942Y-127695692D01*
X97498822Y-127608572D01*
X97498814Y-127608566D01*
X97396372Y-127540116D01*
X97396368Y-127540114D01*
X97282541Y-127492966D01*
X97282537Y-127492964D01*
X97282535Y-127492964D01*
X97282531Y-127492963D01*
X97282527Y-127492962D01*
X97161693Y-127468927D01*
X97161689Y-127468927D01*
X97038475Y-127468927D01*
X97038470Y-127468927D01*
X96917636Y-127492962D01*
X96917622Y-127492966D01*
X96803795Y-127540114D01*
X96803791Y-127540116D01*
X96701349Y-127608566D01*
X96701341Y-127608572D01*
X96614221Y-127695692D01*
X96614215Y-127695700D01*
X96545765Y-127798142D01*
X96513448Y-127876165D01*
X96469607Y-127930568D01*
X96403313Y-127952633D01*
X96335614Y-127935354D01*
X96288003Y-127884217D01*
X96274887Y-127828712D01*
X96274887Y-127115319D01*
X96274886Y-127115317D01*
X96233997Y-126962716D01*
X96155005Y-126825900D01*
X96155003Y-126825897D01*
X96043298Y-126714192D01*
X96043295Y-126714190D01*
X95906479Y-126635198D01*
X95753878Y-126594309D01*
X95595897Y-126594309D01*
X95443296Y-126635198D01*
X95306480Y-126714190D01*
X95306477Y-126714192D01*
X95194772Y-126825897D01*
X95194770Y-126825900D01*
X95115778Y-126962716D01*
X95074889Y-127115317D01*
X86001873Y-127115317D01*
X86008900Y-127089092D01*
X86008900Y-126957308D01*
X85974792Y-126830014D01*
X85908900Y-126715886D01*
X85815714Y-126622700D01*
X85758650Y-126589754D01*
X85701587Y-126556808D01*
X85637939Y-126539754D01*
X85574292Y-126522700D01*
X85442508Y-126522700D01*
X85315212Y-126556808D01*
X85201086Y-126622700D01*
X85201083Y-126622702D01*
X85107902Y-126715883D01*
X85107900Y-126715886D01*
X85042008Y-126830012D01*
X85030161Y-126874228D01*
X85007900Y-126957308D01*
X55000500Y-126957308D01*
X55000500Y-125652208D01*
X98018500Y-125652208D01*
X98018500Y-125783991D01*
X98052608Y-125911287D01*
X98085554Y-125968350D01*
X98118500Y-126025414D01*
X98211686Y-126118600D01*
X98325814Y-126184492D01*
X98453108Y-126218600D01*
X98453110Y-126218600D01*
X98584890Y-126218600D01*
X98584892Y-126218600D01*
X98712186Y-126184492D01*
X98826314Y-126118600D01*
X98919500Y-126025414D01*
X98985392Y-125911286D01*
X99019500Y-125783992D01*
X99019500Y-125652208D01*
X99018696Y-125649208D01*
X101759500Y-125649208D01*
X101759500Y-125780992D01*
X101760304Y-125783991D01*
X101793608Y-125908287D01*
X101826554Y-125965350D01*
X101859500Y-126022414D01*
X101952686Y-126115600D01*
X102066814Y-126181492D01*
X102194108Y-126215600D01*
X102194110Y-126215600D01*
X102325890Y-126215600D01*
X102325892Y-126215600D01*
X102453186Y-126181492D01*
X102567314Y-126115600D01*
X102660500Y-126022414D01*
X102726392Y-125908286D01*
X102760500Y-125780992D01*
X102760500Y-125649208D01*
X102726392Y-125521914D01*
X102660500Y-125407786D01*
X102567314Y-125314600D01*
X102510250Y-125281654D01*
X102453187Y-125248708D01*
X102389539Y-125231654D01*
X102325892Y-125214600D01*
X102194108Y-125214600D01*
X102066812Y-125248708D01*
X101952686Y-125314600D01*
X101952683Y-125314602D01*
X101859502Y-125407783D01*
X101859500Y-125407786D01*
X101793608Y-125521912D01*
X101792804Y-125524914D01*
X101759500Y-125649208D01*
X99018696Y-125649208D01*
X98985392Y-125524914D01*
X98919500Y-125410786D01*
X98826314Y-125317600D01*
X98769250Y-125284654D01*
X98712187Y-125251708D01*
X98648539Y-125234654D01*
X98584892Y-125217600D01*
X98453108Y-125217600D01*
X98325812Y-125251708D01*
X98211686Y-125317600D01*
X98211683Y-125317602D01*
X98118502Y-125410783D01*
X98118500Y-125410786D01*
X98052608Y-125524912D01*
X98018500Y-125652208D01*
X55000500Y-125652208D01*
X55000500Y-123999108D01*
X63747900Y-123999108D01*
X63747900Y-124130892D01*
X63764954Y-124194539D01*
X63782008Y-124258187D01*
X63786399Y-124265792D01*
X63847900Y-124372314D01*
X63941086Y-124465500D01*
X64055214Y-124531392D01*
X64182508Y-124565500D01*
X64182510Y-124565500D01*
X64314290Y-124565500D01*
X64314292Y-124565500D01*
X64441586Y-124531392D01*
X64555714Y-124465500D01*
X64648900Y-124372314D01*
X64714792Y-124258186D01*
X64748065Y-124134008D01*
X67617000Y-124134008D01*
X67617000Y-124265791D01*
X67651108Y-124393087D01*
X67684054Y-124450150D01*
X67717000Y-124507214D01*
X67810186Y-124600400D01*
X67924314Y-124666292D01*
X68051608Y-124700400D01*
X68051610Y-124700400D01*
X68183390Y-124700400D01*
X68183392Y-124700400D01*
X68310686Y-124666292D01*
X68424814Y-124600400D01*
X68518000Y-124507214D01*
X68583892Y-124393086D01*
X68618000Y-124265792D01*
X68618000Y-124209008D01*
X76994200Y-124209008D01*
X76994200Y-124340792D01*
X77002646Y-124372313D01*
X77028308Y-124468087D01*
X77050900Y-124507216D01*
X77094200Y-124582214D01*
X77187386Y-124675400D01*
X77301514Y-124741292D01*
X77428808Y-124775400D01*
X77428810Y-124775400D01*
X77560590Y-124775400D01*
X77560592Y-124775400D01*
X77687886Y-124741292D01*
X77802014Y-124675400D01*
X77895200Y-124582214D01*
X77961092Y-124468086D01*
X77995200Y-124340792D01*
X77995200Y-124278808D01*
X79863600Y-124278808D01*
X79863600Y-124410592D01*
X79878312Y-124465497D01*
X79897708Y-124537887D01*
X79923300Y-124582213D01*
X79963600Y-124652014D01*
X80056786Y-124745200D01*
X80170914Y-124811092D01*
X80298208Y-124845200D01*
X80298210Y-124845200D01*
X80429990Y-124845200D01*
X80429992Y-124845200D01*
X80557286Y-124811092D01*
X80671414Y-124745200D01*
X80764600Y-124652014D01*
X80796757Y-124596315D01*
X80847321Y-124548103D01*
X80915927Y-124534879D01*
X80980792Y-124560846D01*
X80991823Y-124570637D01*
X81000086Y-124578900D01*
X81114214Y-124644792D01*
X81241508Y-124678900D01*
X81241510Y-124678900D01*
X81373290Y-124678900D01*
X81373292Y-124678900D01*
X81500586Y-124644792D01*
X81614714Y-124578900D01*
X81707900Y-124485714D01*
X81773792Y-124371586D01*
X81807900Y-124244292D01*
X81807900Y-124112508D01*
X81773792Y-123985214D01*
X81770731Y-123979913D01*
X81760534Y-123962251D01*
X81707900Y-123871086D01*
X81614714Y-123777900D01*
X81537825Y-123733508D01*
X81500587Y-123712008D01*
X81436939Y-123694954D01*
X81373292Y-123677900D01*
X81241508Y-123677900D01*
X81114212Y-123712008D01*
X81000086Y-123777900D01*
X81000083Y-123777902D01*
X80906902Y-123871083D01*
X80906900Y-123871086D01*
X80874744Y-123926782D01*
X80824176Y-123974997D01*
X80755569Y-123988219D01*
X80690705Y-123962251D01*
X80679676Y-123952462D01*
X80671416Y-123944202D01*
X80671414Y-123944200D01*
X80605615Y-123906211D01*
X80557287Y-123878308D01*
X80493639Y-123861254D01*
X80429992Y-123844200D01*
X80298208Y-123844200D01*
X80170912Y-123878308D01*
X80056786Y-123944200D01*
X80056783Y-123944202D01*
X79963602Y-124037383D01*
X79963600Y-124037386D01*
X79897708Y-124151512D01*
X79882302Y-124209010D01*
X79863600Y-124278808D01*
X77995200Y-124278808D01*
X77995200Y-124209008D01*
X77961092Y-124081714D01*
X77895200Y-123967586D01*
X77802014Y-123874400D01*
X77744950Y-123841454D01*
X77687887Y-123808508D01*
X77624239Y-123791454D01*
X77560592Y-123774400D01*
X77428808Y-123774400D01*
X77301512Y-123808508D01*
X77187386Y-123874400D01*
X77187383Y-123874402D01*
X77094202Y-123967583D01*
X77094200Y-123967586D01*
X77028308Y-124081712D01*
X77009606Y-124151512D01*
X76994200Y-124209008D01*
X68618000Y-124209008D01*
X68618000Y-124134008D01*
X68583892Y-124006714D01*
X68518000Y-123892586D01*
X68424814Y-123799400D01*
X68367750Y-123766454D01*
X68310687Y-123733508D01*
X68230446Y-123712008D01*
X68183392Y-123699400D01*
X68051608Y-123699400D01*
X67924312Y-123733508D01*
X67810186Y-123799400D01*
X67810183Y-123799402D01*
X67717002Y-123892583D01*
X67717000Y-123892586D01*
X67651108Y-124006712D01*
X67617000Y-124134008D01*
X64748065Y-124134008D01*
X64748900Y-124130892D01*
X64748900Y-123999108D01*
X64714792Y-123871814D01*
X64648900Y-123757686D01*
X64555714Y-123664500D01*
X64498650Y-123631554D01*
X64455616Y-123606708D01*
X68734800Y-123606708D01*
X68734800Y-123738493D01*
X68753064Y-123806659D01*
X68753066Y-123806664D01*
X68768908Y-123865786D01*
X68826929Y-123966282D01*
X68826931Y-123966285D01*
X68827682Y-123967586D01*
X68834800Y-123979914D01*
X68927986Y-124073100D01*
X68996246Y-124112510D01*
X69042110Y-124138990D01*
X69042114Y-124138992D01*
X69169408Y-124173100D01*
X69169410Y-124173100D01*
X69301190Y-124173100D01*
X69301192Y-124173100D01*
X69428486Y-124138992D01*
X69542614Y-124073100D01*
X69635800Y-123979914D01*
X69701692Y-123865786D01*
X69735800Y-123738492D01*
X69735800Y-123606708D01*
X69701692Y-123479414D01*
X69635800Y-123365286D01*
X69542614Y-123272100D01*
X69485550Y-123239154D01*
X69428487Y-123206208D01*
X69364839Y-123189154D01*
X69301192Y-123172100D01*
X69169408Y-123172100D01*
X69042112Y-123206208D01*
X68927986Y-123272100D01*
X68927983Y-123272102D01*
X68834802Y-123365283D01*
X68834800Y-123365286D01*
X68768908Y-123479412D01*
X68734800Y-123606708D01*
X64455616Y-123606708D01*
X64441587Y-123598608D01*
X64377939Y-123581554D01*
X64314292Y-123564500D01*
X64182508Y-123564500D01*
X64055212Y-123598608D01*
X63941086Y-123664500D01*
X63941083Y-123664502D01*
X63847902Y-123757683D01*
X63847900Y-123757686D01*
X63782008Y-123871812D01*
X63757776Y-123962251D01*
X63747900Y-123999108D01*
X55000500Y-123999108D01*
X55000500Y-122134008D01*
X67077900Y-122134008D01*
X67077900Y-122265792D01*
X67080285Y-122274692D01*
X67112008Y-122393087D01*
X67117149Y-122401991D01*
X67177900Y-122507214D01*
X67271086Y-122600400D01*
X67385214Y-122666292D01*
X67512508Y-122700400D01*
X67512510Y-122700400D01*
X67644290Y-122700400D01*
X67644292Y-122700400D01*
X67771586Y-122666292D01*
X67885714Y-122600400D01*
X67978900Y-122507214D01*
X68044792Y-122393086D01*
X68078900Y-122265792D01*
X68078900Y-122142908D01*
X70068900Y-122142908D01*
X70068900Y-122274691D01*
X70103008Y-122401987D01*
X70128350Y-122445880D01*
X70168900Y-122516114D01*
X70262086Y-122609300D01*
X70376214Y-122675192D01*
X70503508Y-122709300D01*
X70503510Y-122709300D01*
X70635290Y-122709300D01*
X70635292Y-122709300D01*
X70762586Y-122675192D01*
X70876714Y-122609300D01*
X70969900Y-122516114D01*
X70969961Y-122516008D01*
X80052900Y-122516008D01*
X80052900Y-122647792D01*
X80060242Y-122675192D01*
X80087008Y-122775087D01*
X80119954Y-122832150D01*
X80152900Y-122889214D01*
X80246086Y-122982400D01*
X80360214Y-123048292D01*
X80487508Y-123082400D01*
X80487510Y-123082400D01*
X80619290Y-123082400D01*
X80619292Y-123082400D01*
X80746586Y-123048292D01*
X80860714Y-122982400D01*
X80953900Y-122889214D01*
X81019792Y-122775086D01*
X81053900Y-122647792D01*
X81053900Y-122516008D01*
X81019792Y-122388714D01*
X80953900Y-122274586D01*
X80860714Y-122181400D01*
X80794044Y-122142908D01*
X80746587Y-122115508D01*
X80682939Y-122098454D01*
X80619292Y-122081400D01*
X80487508Y-122081400D01*
X80360212Y-122115508D01*
X80246086Y-122181400D01*
X80246083Y-122181402D01*
X80152902Y-122274583D01*
X80152900Y-122274586D01*
X80087008Y-122388712D01*
X80071690Y-122445881D01*
X80052900Y-122516008D01*
X70969961Y-122516008D01*
X71035792Y-122401986D01*
X71069900Y-122274692D01*
X71069900Y-122142908D01*
X71035792Y-122015614D01*
X70969900Y-121901486D01*
X70876714Y-121808300D01*
X70819650Y-121775354D01*
X70762587Y-121742408D01*
X70698939Y-121725354D01*
X70635292Y-121708300D01*
X70503508Y-121708300D01*
X70376212Y-121742408D01*
X70262086Y-121808300D01*
X70262083Y-121808302D01*
X70168902Y-121901483D01*
X70168900Y-121901486D01*
X70103008Y-122015612D01*
X70068900Y-122142908D01*
X68078900Y-122142908D01*
X68078900Y-122134008D01*
X68044792Y-122006714D01*
X67978900Y-121892586D01*
X67885714Y-121799400D01*
X67828650Y-121766454D01*
X67771587Y-121733508D01*
X67707939Y-121716454D01*
X67644292Y-121699400D01*
X67512508Y-121699400D01*
X67385212Y-121733508D01*
X67271086Y-121799400D01*
X67271083Y-121799402D01*
X67177902Y-121892583D01*
X67177900Y-121892586D01*
X67112008Y-122006712D01*
X67109623Y-122015614D01*
X67077900Y-122134008D01*
X55000500Y-122134008D01*
X55000500Y-120853008D01*
X65757400Y-120853008D01*
X65757400Y-120984791D01*
X65791508Y-121112087D01*
X65824454Y-121169150D01*
X65857400Y-121226214D01*
X65950586Y-121319400D01*
X66064714Y-121385292D01*
X66192008Y-121419400D01*
X66192010Y-121419400D01*
X66323790Y-121419400D01*
X66323792Y-121419400D01*
X66451086Y-121385292D01*
X66565214Y-121319400D01*
X66658400Y-121226214D01*
X66724292Y-121112086D01*
X66758400Y-120984792D01*
X66758400Y-120853008D01*
X66724292Y-120725714D01*
X66658400Y-120611586D01*
X66565214Y-120518400D01*
X66508150Y-120485454D01*
X66451087Y-120452508D01*
X66387439Y-120435454D01*
X66323792Y-120418400D01*
X66192008Y-120418400D01*
X66064712Y-120452508D01*
X65950586Y-120518400D01*
X65950583Y-120518402D01*
X65857402Y-120611583D01*
X65857400Y-120611586D01*
X65791508Y-120725712D01*
X65757400Y-120853008D01*
X55000500Y-120853008D01*
X55000500Y-119931508D01*
X75987500Y-119931508D01*
X75987500Y-120063291D01*
X76021608Y-120190587D01*
X76054554Y-120247650D01*
X76087500Y-120304714D01*
X76180686Y-120397900D01*
X76294814Y-120463792D01*
X76422108Y-120497900D01*
X76422110Y-120497900D01*
X76553890Y-120497900D01*
X76553892Y-120497900D01*
X76681186Y-120463792D01*
X76795314Y-120397900D01*
X76888500Y-120304714D01*
X76954392Y-120190586D01*
X76988500Y-120063292D01*
X76988500Y-119931508D01*
X76954392Y-119804214D01*
X76954391Y-119804212D01*
X76954391Y-119804211D01*
X76945021Y-119787983D01*
X76945020Y-119787981D01*
X76913916Y-119734108D01*
X80806900Y-119734108D01*
X80806900Y-119865891D01*
X80841008Y-119993187D01*
X80873954Y-120050250D01*
X80906900Y-120107314D01*
X81000086Y-120200500D01*
X81114214Y-120266392D01*
X81241508Y-120300500D01*
X81241510Y-120300500D01*
X81373290Y-120300500D01*
X81373292Y-120300500D01*
X81500586Y-120266392D01*
X81614714Y-120200500D01*
X81707900Y-120107314D01*
X81773792Y-119993186D01*
X81807900Y-119865892D01*
X81807900Y-119734108D01*
X81773792Y-119606814D01*
X81707900Y-119492686D01*
X81614714Y-119399500D01*
X81557650Y-119366554D01*
X81501626Y-119334208D01*
X83048300Y-119334208D01*
X83048300Y-119465991D01*
X83082408Y-119593287D01*
X83090217Y-119606812D01*
X83148300Y-119707414D01*
X83241486Y-119800600D01*
X83355614Y-119866492D01*
X83482908Y-119900600D01*
X83482910Y-119900600D01*
X83614690Y-119900600D01*
X83614692Y-119900600D01*
X83741986Y-119866492D01*
X83856114Y-119800600D01*
X83949300Y-119707414D01*
X84015192Y-119593286D01*
X84049300Y-119465992D01*
X84049300Y-119334208D01*
X84015192Y-119206914D01*
X83949300Y-119092786D01*
X83856114Y-118999600D01*
X83799050Y-118966654D01*
X83741987Y-118933708D01*
X83678339Y-118916654D01*
X83614692Y-118899600D01*
X83482908Y-118899600D01*
X83355612Y-118933708D01*
X83241486Y-118999600D01*
X83241483Y-118999602D01*
X83148302Y-119092783D01*
X83148300Y-119092786D01*
X83082408Y-119206912D01*
X83048300Y-119334208D01*
X81501626Y-119334208D01*
X81500587Y-119333608D01*
X81436939Y-119316554D01*
X81373292Y-119299500D01*
X81241508Y-119299500D01*
X81114212Y-119333608D01*
X81000086Y-119399500D01*
X81000083Y-119399502D01*
X80906902Y-119492683D01*
X80906900Y-119492686D01*
X80841008Y-119606812D01*
X80806900Y-119734108D01*
X76913916Y-119734108D01*
X76888500Y-119690086D01*
X76795314Y-119596900D01*
X76738250Y-119563954D01*
X76681187Y-119531008D01*
X76617539Y-119513954D01*
X76553892Y-119496900D01*
X76422108Y-119496900D01*
X76294812Y-119531008D01*
X76180686Y-119596900D01*
X76180683Y-119596902D01*
X76087502Y-119690083D01*
X76087500Y-119690086D01*
X76021608Y-119804212D01*
X75987500Y-119931508D01*
X55000500Y-119931508D01*
X55000500Y-117467808D01*
X76061400Y-117467808D01*
X76061400Y-117599592D01*
X76068853Y-117627408D01*
X76095508Y-117726887D01*
X76114159Y-117759190D01*
X76161400Y-117841014D01*
X76254586Y-117934200D01*
X76368714Y-118000092D01*
X76496008Y-118034200D01*
X76496010Y-118034200D01*
X76627790Y-118034200D01*
X76627792Y-118034200D01*
X76755086Y-118000092D01*
X76869214Y-117934200D01*
X76962400Y-117841014D01*
X77028292Y-117726886D01*
X77054947Y-117627408D01*
X77840200Y-117627408D01*
X77840200Y-117759191D01*
X77874308Y-117886487D01*
X77901854Y-117934197D01*
X77940200Y-118000614D01*
X78033386Y-118093800D01*
X78147514Y-118159692D01*
X78274808Y-118193800D01*
X78274810Y-118193800D01*
X78406590Y-118193800D01*
X78406592Y-118193800D01*
X78533886Y-118159692D01*
X78648014Y-118093800D01*
X78741200Y-118000614D01*
X78807092Y-117886486D01*
X78841200Y-117759192D01*
X78841200Y-117627408D01*
X78807092Y-117500114D01*
X78741200Y-117385986D01*
X78648014Y-117292800D01*
X78590950Y-117259854D01*
X78533887Y-117226908D01*
X78493891Y-117216191D01*
X78406592Y-117192800D01*
X78274808Y-117192800D01*
X78147512Y-117226908D01*
X78033386Y-117292800D01*
X78033383Y-117292802D01*
X77940202Y-117385983D01*
X77940200Y-117385986D01*
X77874308Y-117500112D01*
X77840200Y-117627408D01*
X77054947Y-117627408D01*
X77062400Y-117599592D01*
X77062400Y-117467808D01*
X77028292Y-117340514D01*
X76962400Y-117226386D01*
X76869214Y-117133200D01*
X76794407Y-117090010D01*
X76794404Y-117090008D01*
X84823900Y-117090008D01*
X84823900Y-117221792D01*
X84825130Y-117226383D01*
X84858008Y-117349087D01*
X84879312Y-117385986D01*
X84923900Y-117463214D01*
X85017086Y-117556400D01*
X85131214Y-117622292D01*
X85258508Y-117656400D01*
X85258510Y-117656400D01*
X85390290Y-117656400D01*
X85390292Y-117656400D01*
X85517586Y-117622292D01*
X85631714Y-117556400D01*
X85724900Y-117463214D01*
X85790792Y-117349086D01*
X85824900Y-117221792D01*
X85824900Y-117090008D01*
X85790792Y-116962714D01*
X85724900Y-116848586D01*
X85631714Y-116755400D01*
X85631712Y-116755399D01*
X85631710Y-116755397D01*
X85517588Y-116689509D01*
X85517587Y-116689508D01*
X85517586Y-116689508D01*
X85397040Y-116657208D01*
X106829200Y-116657208D01*
X106829200Y-116788991D01*
X106863308Y-116916287D01*
X106890112Y-116962712D01*
X106929200Y-117030414D01*
X107022386Y-117123600D01*
X107136514Y-117189492D01*
X107263808Y-117223600D01*
X107263810Y-117223600D01*
X107395590Y-117223600D01*
X107395592Y-117223600D01*
X107522886Y-117189492D01*
X107637014Y-117123600D01*
X107730200Y-117030414D01*
X107796092Y-116916286D01*
X107830200Y-116788992D01*
X107830200Y-116657208D01*
X107796092Y-116529914D01*
X107730200Y-116415786D01*
X107637014Y-116322600D01*
X107579950Y-116289654D01*
X107522887Y-116256708D01*
X107491324Y-116248251D01*
X107395592Y-116222600D01*
X107263808Y-116222600D01*
X107136512Y-116256708D01*
X107022386Y-116322600D01*
X107022383Y-116322602D01*
X106929202Y-116415783D01*
X106929200Y-116415786D01*
X106863308Y-116529912D01*
X106829200Y-116657208D01*
X85397040Y-116657208D01*
X85390292Y-116655400D01*
X85258508Y-116655400D01*
X85131212Y-116689508D01*
X85017086Y-116755400D01*
X85017083Y-116755402D01*
X84923902Y-116848583D01*
X84923900Y-116848586D01*
X84858008Y-116962712D01*
X84829982Y-117067308D01*
X84823900Y-117090008D01*
X76794404Y-117090008D01*
X76755087Y-117067308D01*
X76691439Y-117050254D01*
X76627792Y-117033200D01*
X76496008Y-117033200D01*
X76368712Y-117067308D01*
X76254586Y-117133200D01*
X76254583Y-117133202D01*
X76161402Y-117226383D01*
X76161400Y-117226386D01*
X76095508Y-117340512D01*
X76083324Y-117385986D01*
X76061400Y-117467808D01*
X55000500Y-117467808D01*
X55000500Y-115654208D01*
X62410300Y-115654208D01*
X62410300Y-115785992D01*
X62410651Y-115787302D01*
X62444408Y-115913287D01*
X62476180Y-115968316D01*
X62510300Y-116027414D01*
X62603486Y-116120600D01*
X62717614Y-116186492D01*
X62844908Y-116220600D01*
X62844910Y-116220600D01*
X62976690Y-116220600D01*
X62976692Y-116220600D01*
X63060261Y-116198208D01*
X65545700Y-116198208D01*
X65545700Y-116329991D01*
X65579808Y-116457287D01*
X65601647Y-116495113D01*
X65645700Y-116571414D01*
X65738886Y-116664600D01*
X65853014Y-116730492D01*
X65980308Y-116764600D01*
X65980310Y-116764600D01*
X66112090Y-116764600D01*
X66112092Y-116764600D01*
X66239386Y-116730492D01*
X66353514Y-116664600D01*
X66446700Y-116571414D01*
X66512592Y-116457286D01*
X66546700Y-116329992D01*
X66546700Y-116198208D01*
X66512592Y-116070914D01*
X66446700Y-115956786D01*
X66353514Y-115863600D01*
X66296450Y-115830654D01*
X66239387Y-115797708D01*
X66175739Y-115780654D01*
X66112092Y-115763600D01*
X65980308Y-115763600D01*
X65853012Y-115797708D01*
X65738886Y-115863600D01*
X65738883Y-115863602D01*
X65645702Y-115956783D01*
X65645700Y-115956786D01*
X65579808Y-116070912D01*
X65545700Y-116198208D01*
X63060261Y-116198208D01*
X63103986Y-116186492D01*
X63218114Y-116120600D01*
X63311300Y-116027414D01*
X63377192Y-115913286D01*
X63411300Y-115785992D01*
X63411300Y-115654208D01*
X63395464Y-115595108D01*
X87732500Y-115595108D01*
X87732500Y-115726891D01*
X87766608Y-115854187D01*
X87781792Y-115880486D01*
X87832500Y-115968314D01*
X87925686Y-116061500D01*
X88039814Y-116127392D01*
X88167108Y-116161500D01*
X88167110Y-116161500D01*
X88298890Y-116161500D01*
X88298892Y-116161500D01*
X88426186Y-116127392D01*
X88435685Y-116121908D01*
X122806300Y-116121908D01*
X122806300Y-116253691D01*
X122840408Y-116380987D01*
X122860498Y-116415783D01*
X122906300Y-116495114D01*
X122999486Y-116588300D01*
X123113614Y-116654192D01*
X123240908Y-116688300D01*
X123240910Y-116688300D01*
X123372690Y-116688300D01*
X123372692Y-116688300D01*
X123499986Y-116654192D01*
X123614114Y-116588300D01*
X123707300Y-116495114D01*
X123773192Y-116380986D01*
X123807300Y-116253692D01*
X123807300Y-116121908D01*
X123773192Y-115994614D01*
X123707300Y-115880486D01*
X123614114Y-115787300D01*
X123509485Y-115726892D01*
X123499987Y-115721408D01*
X123436339Y-115704354D01*
X123372692Y-115687300D01*
X123240908Y-115687300D01*
X123113612Y-115721408D01*
X122999486Y-115787300D01*
X122999483Y-115787302D01*
X122906302Y-115880483D01*
X122906300Y-115880486D01*
X122840408Y-115994612D01*
X122806300Y-116121908D01*
X88435685Y-116121908D01*
X88540314Y-116061500D01*
X88633500Y-115968314D01*
X88699392Y-115854186D01*
X88733500Y-115726892D01*
X88733500Y-115595108D01*
X88699392Y-115467814D01*
X88633500Y-115353686D01*
X88584022Y-115304208D01*
X104302600Y-115304208D01*
X104302600Y-115435991D01*
X104336708Y-115563287D01*
X104368918Y-115619075D01*
X104402600Y-115677414D01*
X104495786Y-115770600D01*
X104609914Y-115836492D01*
X104737208Y-115870600D01*
X104737210Y-115870600D01*
X104868990Y-115870600D01*
X104868992Y-115870600D01*
X104996286Y-115836492D01*
X105110414Y-115770600D01*
X105203600Y-115677414D01*
X105269492Y-115563286D01*
X105303600Y-115435992D01*
X105303600Y-115304208D01*
X105269492Y-115176914D01*
X105203600Y-115062786D01*
X105110414Y-114969600D01*
X105053350Y-114936654D01*
X104996287Y-114903708D01*
X104950314Y-114891390D01*
X104868992Y-114869600D01*
X104737208Y-114869600D01*
X104609912Y-114903708D01*
X104495786Y-114969600D01*
X104495783Y-114969602D01*
X104402602Y-115062783D01*
X104402600Y-115062786D01*
X104336708Y-115176912D01*
X104302600Y-115304208D01*
X88584022Y-115304208D01*
X88540314Y-115260500D01*
X88480553Y-115225997D01*
X88426187Y-115194608D01*
X88360143Y-115176912D01*
X88298892Y-115160500D01*
X88167108Y-115160500D01*
X88039812Y-115194608D01*
X87925686Y-115260500D01*
X87925683Y-115260502D01*
X87832502Y-115353683D01*
X87832500Y-115353686D01*
X87766608Y-115467812D01*
X87732500Y-115595108D01*
X63395464Y-115595108D01*
X63377192Y-115526914D01*
X63311300Y-115412786D01*
X63218114Y-115319600D01*
X63115754Y-115260502D01*
X63103987Y-115253708D01*
X63000577Y-115226000D01*
X62976692Y-115219600D01*
X62844908Y-115219600D01*
X62717612Y-115253708D01*
X62603486Y-115319600D01*
X62603483Y-115319602D01*
X62510302Y-115412783D01*
X62510300Y-115412786D01*
X62444408Y-115526912D01*
X62426135Y-115595110D01*
X62410300Y-115654208D01*
X55000500Y-115654208D01*
X55000500Y-113934208D01*
X60434900Y-113934208D01*
X60434900Y-114065991D01*
X60469008Y-114193287D01*
X60501954Y-114250350D01*
X60534900Y-114307414D01*
X60628086Y-114400600D01*
X60726921Y-114457663D01*
X60740949Y-114465762D01*
X60742214Y-114466492D01*
X60869508Y-114500600D01*
X60869510Y-114500600D01*
X61001290Y-114500600D01*
X61001292Y-114500600D01*
X61128586Y-114466492D01*
X61128587Y-114466491D01*
X61136437Y-114464388D01*
X61136805Y-114465762D01*
X61197552Y-114459230D01*
X61260032Y-114490503D01*
X61295686Y-114550591D01*
X61293193Y-114620416D01*
X61290102Y-114628705D01*
X61288610Y-114632307D01*
X61288609Y-114632312D01*
X61288608Y-114632314D01*
X61254500Y-114759608D01*
X61254500Y-114891392D01*
X61257800Y-114903708D01*
X61288608Y-115018687D01*
X61314067Y-115062783D01*
X61354500Y-115132814D01*
X61447686Y-115226000D01*
X61561814Y-115291892D01*
X61689108Y-115326000D01*
X61689110Y-115326000D01*
X61820890Y-115326000D01*
X61820892Y-115326000D01*
X61948186Y-115291892D01*
X62062314Y-115226000D01*
X62155500Y-115132814D01*
X62221392Y-115018686D01*
X62255500Y-114891392D01*
X62255500Y-114766708D01*
X120079000Y-114766708D01*
X120079000Y-114898491D01*
X120113108Y-115025787D01*
X120134468Y-115062783D01*
X120179000Y-115139914D01*
X120272186Y-115233100D01*
X120386314Y-115298992D01*
X120513608Y-115333100D01*
X120513610Y-115333100D01*
X120645390Y-115333100D01*
X120645392Y-115333100D01*
X120772686Y-115298992D01*
X120886814Y-115233100D01*
X120980000Y-115139914D01*
X121045892Y-115025786D01*
X121080000Y-114898492D01*
X121080000Y-114766708D01*
X121045892Y-114639414D01*
X120980000Y-114525286D01*
X120886814Y-114432100D01*
X120829750Y-114399154D01*
X120772687Y-114366208D01*
X120656517Y-114335081D01*
X120645392Y-114332100D01*
X120513608Y-114332100D01*
X120386312Y-114366208D01*
X120272186Y-114432100D01*
X120272183Y-114432102D01*
X120179002Y-114525283D01*
X120179000Y-114525286D01*
X120113108Y-114639412D01*
X120079000Y-114766708D01*
X62255500Y-114766708D01*
X62255500Y-114759608D01*
X62221392Y-114632314D01*
X62155500Y-114518186D01*
X62062314Y-114425000D01*
X62005250Y-114392054D01*
X61948187Y-114359108D01*
X61858515Y-114335081D01*
X61820892Y-114325000D01*
X61689108Y-114325000D01*
X61561814Y-114359108D01*
X61561812Y-114359108D01*
X61553963Y-114361212D01*
X61553595Y-114359841D01*
X61492826Y-114366366D01*
X61430352Y-114335081D01*
X61394708Y-114274987D01*
X61397212Y-114205162D01*
X61400302Y-114196882D01*
X61401791Y-114193287D01*
X61401792Y-114193286D01*
X61435900Y-114065992D01*
X61435900Y-113934208D01*
X61401792Y-113806914D01*
X61335900Y-113692786D01*
X61242714Y-113599600D01*
X61185650Y-113566654D01*
X61128587Y-113533708D01*
X61064939Y-113516654D01*
X61001292Y-113499600D01*
X60869508Y-113499600D01*
X60742212Y-113533708D01*
X60628086Y-113599600D01*
X60628083Y-113599602D01*
X60534902Y-113692783D01*
X60534900Y-113692786D01*
X60469008Y-113806912D01*
X60434900Y-113934208D01*
X55000500Y-113934208D01*
X55000500Y-110943982D01*
X58362000Y-110943982D01*
X58362000Y-111056018D01*
X58390997Y-111164237D01*
X58447015Y-111261263D01*
X58526237Y-111340485D01*
X58623263Y-111396503D01*
X58731482Y-111425500D01*
X58731484Y-111425500D01*
X58843516Y-111425500D01*
X58843518Y-111425500D01*
X58951737Y-111396503D01*
X59048763Y-111340485D01*
X59127985Y-111261263D01*
X59184003Y-111164237D01*
X59213000Y-111056018D01*
X59213000Y-110943982D01*
X59184003Y-110835763D01*
X59127985Y-110738737D01*
X59048763Y-110659515D01*
X58951737Y-110603497D01*
X58843518Y-110574500D01*
X58731482Y-110574500D01*
X58623263Y-110603497D01*
X58623260Y-110603498D01*
X58526240Y-110659513D01*
X58526234Y-110659517D01*
X58447017Y-110738734D01*
X58447013Y-110738740D01*
X58390998Y-110835760D01*
X58390997Y-110835763D01*
X58362000Y-110943982D01*
X55000500Y-110943982D01*
X55000500Y-104284108D01*
X59412000Y-104284108D01*
X59412000Y-104415891D01*
X59446108Y-104543187D01*
X59479054Y-104600250D01*
X59512000Y-104657314D01*
X59605186Y-104750500D01*
X59719314Y-104816392D01*
X59846608Y-104850500D01*
X59846610Y-104850500D01*
X59978390Y-104850500D01*
X59978392Y-104850500D01*
X60105686Y-104816392D01*
X60219814Y-104750500D01*
X60313000Y-104657314D01*
X60378892Y-104543186D01*
X60413000Y-104415892D01*
X60413000Y-104284108D01*
X67617000Y-104284108D01*
X67617000Y-104415891D01*
X67651108Y-104543187D01*
X67684054Y-104600250D01*
X67717000Y-104657314D01*
X67810186Y-104750500D01*
X67924314Y-104816392D01*
X68051608Y-104850500D01*
X68051610Y-104850500D01*
X68183390Y-104850500D01*
X68183392Y-104850500D01*
X68310686Y-104816392D01*
X68424814Y-104750500D01*
X68518000Y-104657314D01*
X68583892Y-104543186D01*
X68618000Y-104415892D01*
X68618000Y-104284108D01*
X68583892Y-104156814D01*
X68518000Y-104042686D01*
X68424814Y-103949500D01*
X68339490Y-103900238D01*
X68310687Y-103883608D01*
X68247039Y-103866554D01*
X68183392Y-103849500D01*
X68051608Y-103849500D01*
X67924312Y-103883608D01*
X67810186Y-103949500D01*
X67810183Y-103949502D01*
X67717002Y-104042683D01*
X67717000Y-104042686D01*
X67651108Y-104156812D01*
X67617000Y-104284108D01*
X60413000Y-104284108D01*
X60378892Y-104156814D01*
X60313000Y-104042686D01*
X60219814Y-103949500D01*
X60134490Y-103900238D01*
X60105687Y-103883608D01*
X60042039Y-103866554D01*
X59978392Y-103849500D01*
X59846608Y-103849500D01*
X59719312Y-103883608D01*
X59605186Y-103949500D01*
X59605183Y-103949502D01*
X59512002Y-104042683D01*
X59512000Y-104042686D01*
X59446108Y-104156812D01*
X59412000Y-104284108D01*
X55000500Y-104284108D01*
X55000500Y-101938389D01*
X68744500Y-101938389D01*
X68744500Y-102111611D01*
X68771598Y-102282701D01*
X68825127Y-102447445D01*
X68903768Y-102601788D01*
X69005586Y-102741928D01*
X69128072Y-102864414D01*
X69268212Y-102966232D01*
X69422555Y-103044873D01*
X69587299Y-103098402D01*
X69758389Y-103125500D01*
X69758390Y-103125500D01*
X69931610Y-103125500D01*
X69931611Y-103125500D01*
X70102701Y-103098402D01*
X70267445Y-103044873D01*
X70421788Y-102966232D01*
X70561928Y-102864414D01*
X70684414Y-102741928D01*
X70786232Y-102601788D01*
X70864873Y-102447445D01*
X70918402Y-102282701D01*
X70945500Y-102111611D01*
X70945500Y-101938389D01*
X70935854Y-101877486D01*
X72674500Y-101877486D01*
X72674500Y-102172513D01*
X72706571Y-102416113D01*
X72713007Y-102464993D01*
X72787212Y-102741930D01*
X72789361Y-102749951D01*
X72789364Y-102749961D01*
X72902254Y-103022500D01*
X72902258Y-103022510D01*
X73049761Y-103277993D01*
X73229352Y-103512040D01*
X73229358Y-103512047D01*
X73437952Y-103720641D01*
X73437959Y-103720647D01*
X73672006Y-103900238D01*
X73927489Y-104047741D01*
X73927490Y-104047741D01*
X73927493Y-104047743D01*
X74138296Y-104135060D01*
X74190813Y-104156814D01*
X74200048Y-104160639D01*
X74485007Y-104236993D01*
X74777494Y-104275500D01*
X74777501Y-104275500D01*
X75072499Y-104275500D01*
X75072506Y-104275500D01*
X75364993Y-104236993D01*
X75649952Y-104160639D01*
X75922507Y-104047743D01*
X76177994Y-103900238D01*
X76412042Y-103720646D01*
X76620646Y-103512042D01*
X76800238Y-103277994D01*
X76947743Y-103022507D01*
X77060639Y-102749952D01*
X77136993Y-102464993D01*
X77175500Y-102172506D01*
X77175500Y-101938389D01*
X78904500Y-101938389D01*
X78904500Y-102111611D01*
X78931598Y-102282701D01*
X78985127Y-102447445D01*
X79063768Y-102601788D01*
X79165586Y-102741928D01*
X79288072Y-102864414D01*
X79428212Y-102966232D01*
X79582555Y-103044873D01*
X79747299Y-103098402D01*
X79918389Y-103125500D01*
X79918390Y-103125500D01*
X80091610Y-103125500D01*
X80091611Y-103125500D01*
X80262701Y-103098402D01*
X80427445Y-103044873D01*
X80581788Y-102966232D01*
X80721928Y-102864414D01*
X80844414Y-102741928D01*
X80946232Y-102601788D01*
X81024873Y-102447445D01*
X81078402Y-102282701D01*
X81105500Y-102111611D01*
X81105500Y-101938389D01*
X87794500Y-101938389D01*
X87794500Y-102111611D01*
X87821598Y-102282701D01*
X87875127Y-102447445D01*
X87953768Y-102601788D01*
X88055586Y-102741928D01*
X88178072Y-102864414D01*
X88318212Y-102966232D01*
X88472555Y-103044873D01*
X88637299Y-103098402D01*
X88808389Y-103125500D01*
X88808390Y-103125500D01*
X88981610Y-103125500D01*
X88981611Y-103125500D01*
X89152701Y-103098402D01*
X89317445Y-103044873D01*
X89471788Y-102966232D01*
X89611928Y-102864414D01*
X89734414Y-102741928D01*
X89836232Y-102601788D01*
X89914873Y-102447445D01*
X89968402Y-102282701D01*
X89995500Y-102111611D01*
X89995500Y-101938389D01*
X89985854Y-101877486D01*
X91724500Y-101877486D01*
X91724500Y-102172513D01*
X91756571Y-102416113D01*
X91763007Y-102464993D01*
X91837212Y-102741930D01*
X91839361Y-102749951D01*
X91839364Y-102749961D01*
X91952254Y-103022500D01*
X91952258Y-103022510D01*
X92099761Y-103277993D01*
X92279352Y-103512040D01*
X92279358Y-103512047D01*
X92487952Y-103720641D01*
X92487959Y-103720647D01*
X92722006Y-103900238D01*
X92977489Y-104047741D01*
X92977490Y-104047741D01*
X92977493Y-104047743D01*
X93188296Y-104135060D01*
X93240813Y-104156814D01*
X93250048Y-104160639D01*
X93535007Y-104236993D01*
X93827494Y-104275500D01*
X93827501Y-104275500D01*
X94122499Y-104275500D01*
X94122506Y-104275500D01*
X94414993Y-104236993D01*
X94699952Y-104160639D01*
X94972507Y-104047743D01*
X95227994Y-103900238D01*
X95462042Y-103720646D01*
X95670646Y-103512042D01*
X95850238Y-103277994D01*
X95997743Y-103022507D01*
X96110639Y-102749952D01*
X96186993Y-102464993D01*
X96225500Y-102172506D01*
X96225500Y-101938389D01*
X97954500Y-101938389D01*
X97954500Y-102111611D01*
X97981598Y-102282701D01*
X98035127Y-102447445D01*
X98113768Y-102601788D01*
X98215586Y-102741928D01*
X98338072Y-102864414D01*
X98478212Y-102966232D01*
X98632555Y-103044873D01*
X98797299Y-103098402D01*
X98968389Y-103125500D01*
X98968390Y-103125500D01*
X99141610Y-103125500D01*
X99141611Y-103125500D01*
X99312701Y-103098402D01*
X99477445Y-103044873D01*
X99631788Y-102966232D01*
X99771928Y-102864414D01*
X99894414Y-102741928D01*
X99996232Y-102601788D01*
X100074873Y-102447445D01*
X100128402Y-102282701D01*
X100155500Y-102111611D01*
X100155500Y-101938389D01*
X106844500Y-101938389D01*
X106844500Y-102111611D01*
X106871598Y-102282701D01*
X106925127Y-102447445D01*
X107003768Y-102601788D01*
X107105586Y-102741928D01*
X107228072Y-102864414D01*
X107368212Y-102966232D01*
X107522555Y-103044873D01*
X107687299Y-103098402D01*
X107858389Y-103125500D01*
X107858390Y-103125500D01*
X108031610Y-103125500D01*
X108031611Y-103125500D01*
X108202701Y-103098402D01*
X108367445Y-103044873D01*
X108521788Y-102966232D01*
X108661928Y-102864414D01*
X108784414Y-102741928D01*
X108886232Y-102601788D01*
X108964873Y-102447445D01*
X109018402Y-102282701D01*
X109045500Y-102111611D01*
X109045500Y-101938389D01*
X109035854Y-101877486D01*
X110774500Y-101877486D01*
X110774500Y-102172513D01*
X110806571Y-102416113D01*
X110813007Y-102464993D01*
X110887212Y-102741930D01*
X110889361Y-102749951D01*
X110889364Y-102749961D01*
X111002254Y-103022500D01*
X111002258Y-103022510D01*
X111149761Y-103277993D01*
X111329352Y-103512040D01*
X111329358Y-103512047D01*
X111537952Y-103720641D01*
X111537959Y-103720647D01*
X111772006Y-103900238D01*
X112027489Y-104047741D01*
X112027490Y-104047741D01*
X112027493Y-104047743D01*
X112238296Y-104135060D01*
X112290813Y-104156814D01*
X112300048Y-104160639D01*
X112585007Y-104236993D01*
X112877494Y-104275500D01*
X112877501Y-104275500D01*
X113172499Y-104275500D01*
X113172506Y-104275500D01*
X113464993Y-104236993D01*
X113749952Y-104160639D01*
X114022507Y-104047743D01*
X114277994Y-103900238D01*
X114512042Y-103720646D01*
X114720646Y-103512042D01*
X114900238Y-103277994D01*
X115047743Y-103022507D01*
X115160639Y-102749952D01*
X115236993Y-102464993D01*
X115275500Y-102172506D01*
X115275500Y-101938389D01*
X117004500Y-101938389D01*
X117004500Y-102111611D01*
X117031598Y-102282701D01*
X117085127Y-102447445D01*
X117163768Y-102601788D01*
X117265586Y-102741928D01*
X117388072Y-102864414D01*
X117528212Y-102966232D01*
X117682555Y-103044873D01*
X117847299Y-103098402D01*
X118018389Y-103125500D01*
X118018390Y-103125500D01*
X118191610Y-103125500D01*
X118191611Y-103125500D01*
X118362701Y-103098402D01*
X118527445Y-103044873D01*
X118681788Y-102966232D01*
X118821928Y-102864414D01*
X118944414Y-102741928D01*
X119046232Y-102601788D01*
X119124873Y-102447445D01*
X119178402Y-102282701D01*
X119205500Y-102111611D01*
X119205500Y-101938389D01*
X125894500Y-101938389D01*
X125894500Y-102111611D01*
X125921598Y-102282701D01*
X125975127Y-102447445D01*
X126053768Y-102601788D01*
X126155586Y-102741928D01*
X126278072Y-102864414D01*
X126418212Y-102966232D01*
X126572555Y-103044873D01*
X126737299Y-103098402D01*
X126908389Y-103125500D01*
X126908390Y-103125500D01*
X127081610Y-103125500D01*
X127081611Y-103125500D01*
X127252701Y-103098402D01*
X127417445Y-103044873D01*
X127571788Y-102966232D01*
X127711928Y-102864414D01*
X127834414Y-102741928D01*
X127936232Y-102601788D01*
X128014873Y-102447445D01*
X128068402Y-102282701D01*
X128095500Y-102111611D01*
X128095500Y-101938389D01*
X128085854Y-101877486D01*
X129824500Y-101877486D01*
X129824500Y-102172513D01*
X129856571Y-102416113D01*
X129863007Y-102464993D01*
X129937212Y-102741930D01*
X129939361Y-102749951D01*
X129939364Y-102749961D01*
X130052254Y-103022500D01*
X130052258Y-103022510D01*
X130199761Y-103277993D01*
X130379352Y-103512040D01*
X130379358Y-103512047D01*
X130587952Y-103720641D01*
X130587959Y-103720647D01*
X130822006Y-103900238D01*
X131077489Y-104047741D01*
X131077490Y-104047741D01*
X131077493Y-104047743D01*
X131288296Y-104135060D01*
X131340813Y-104156814D01*
X131350048Y-104160639D01*
X131635007Y-104236993D01*
X131927494Y-104275500D01*
X131927501Y-104275500D01*
X132222499Y-104275500D01*
X132222506Y-104275500D01*
X132514993Y-104236993D01*
X132799952Y-104160639D01*
X133072507Y-104047743D01*
X133327994Y-103900238D01*
X133562042Y-103720646D01*
X133770646Y-103512042D01*
X133950238Y-103277994D01*
X134097743Y-103022507D01*
X134210639Y-102749952D01*
X134286993Y-102464993D01*
X134325500Y-102172506D01*
X134325500Y-101938389D01*
X136054500Y-101938389D01*
X136054500Y-102111611D01*
X136081598Y-102282701D01*
X136135127Y-102447445D01*
X136213768Y-102601788D01*
X136315586Y-102741928D01*
X136438072Y-102864414D01*
X136578212Y-102966232D01*
X136732555Y-103044873D01*
X136897299Y-103098402D01*
X137068389Y-103125500D01*
X137068390Y-103125500D01*
X137241610Y-103125500D01*
X137241611Y-103125500D01*
X137412701Y-103098402D01*
X137577445Y-103044873D01*
X137731788Y-102966232D01*
X137871928Y-102864414D01*
X137994414Y-102741928D01*
X138096232Y-102601788D01*
X138174873Y-102447445D01*
X138228402Y-102282701D01*
X138255500Y-102111611D01*
X138255500Y-101938389D01*
X138228402Y-101767299D01*
X138174873Y-101602555D01*
X138096232Y-101448212D01*
X137994414Y-101308072D01*
X137871928Y-101185586D01*
X137731788Y-101083768D01*
X137577445Y-101005127D01*
X137412701Y-100951598D01*
X137412699Y-100951597D01*
X137412698Y-100951597D01*
X137281271Y-100930781D01*
X137241611Y-100924500D01*
X137068389Y-100924500D01*
X137028728Y-100930781D01*
X136897302Y-100951597D01*
X136732552Y-101005128D01*
X136578211Y-101083768D01*
X136498256Y-101141859D01*
X136438072Y-101185586D01*
X136438070Y-101185588D01*
X136438069Y-101185588D01*
X136315588Y-101308069D01*
X136315588Y-101308070D01*
X136315586Y-101308072D01*
X136271859Y-101368256D01*
X136213768Y-101448211D01*
X136135128Y-101602552D01*
X136081597Y-101767302D01*
X136054500Y-101938389D01*
X134325500Y-101938389D01*
X134325500Y-101877494D01*
X134286993Y-101585007D01*
X134210639Y-101300048D01*
X134097743Y-101027493D01*
X134024010Y-100899784D01*
X133950238Y-100772006D01*
X133770647Y-100537959D01*
X133770641Y-100537952D01*
X133562047Y-100329358D01*
X133562040Y-100329352D01*
X133327993Y-100149761D01*
X133072510Y-100002258D01*
X133072500Y-100002254D01*
X132799961Y-99889364D01*
X132799954Y-99889362D01*
X132799952Y-99889361D01*
X132514993Y-99813007D01*
X132466113Y-99806571D01*
X132222513Y-99774500D01*
X132222506Y-99774500D01*
X131927494Y-99774500D01*
X131927486Y-99774500D01*
X131649085Y-99811153D01*
X131635007Y-99813007D01*
X131497872Y-99849752D01*
X131350048Y-99889361D01*
X131350038Y-99889364D01*
X131077499Y-100002254D01*
X131077489Y-100002258D01*
X130822006Y-100149761D01*
X130587959Y-100329352D01*
X130587952Y-100329358D01*
X130379358Y-100537952D01*
X130379352Y-100537959D01*
X130199761Y-100772006D01*
X130052258Y-101027489D01*
X130052254Y-101027499D01*
X129939364Y-101300038D01*
X129939361Y-101300048D01*
X129863008Y-101585004D01*
X129863006Y-101585015D01*
X129824500Y-101877486D01*
X128085854Y-101877486D01*
X128068402Y-101767299D01*
X128014873Y-101602555D01*
X127936232Y-101448212D01*
X127834414Y-101308072D01*
X127711928Y-101185586D01*
X127571788Y-101083768D01*
X127417445Y-101005127D01*
X127252701Y-100951598D01*
X127252699Y-100951597D01*
X127252698Y-100951597D01*
X127121271Y-100930781D01*
X127081611Y-100924500D01*
X126908389Y-100924500D01*
X126868728Y-100930781D01*
X126737302Y-100951597D01*
X126572552Y-101005128D01*
X126418211Y-101083768D01*
X126338256Y-101141859D01*
X126278072Y-101185586D01*
X126278070Y-101185588D01*
X126278069Y-101185588D01*
X126155588Y-101308069D01*
X126155588Y-101308070D01*
X126155586Y-101308072D01*
X126111859Y-101368256D01*
X126053768Y-101448211D01*
X125975128Y-101602552D01*
X125921597Y-101767302D01*
X125894500Y-101938389D01*
X119205500Y-101938389D01*
X119178402Y-101767299D01*
X119124873Y-101602555D01*
X119046232Y-101448212D01*
X118944414Y-101308072D01*
X118821928Y-101185586D01*
X118681788Y-101083768D01*
X118527445Y-101005127D01*
X118362701Y-100951598D01*
X118362699Y-100951597D01*
X118362698Y-100951597D01*
X118231271Y-100930781D01*
X118191611Y-100924500D01*
X118018389Y-100924500D01*
X117978728Y-100930781D01*
X117847302Y-100951597D01*
X117682552Y-101005128D01*
X117528211Y-101083768D01*
X117448256Y-101141859D01*
X117388072Y-101185586D01*
X117388070Y-101185588D01*
X117388069Y-101185588D01*
X117265588Y-101308069D01*
X117265588Y-101308070D01*
X117265586Y-101308072D01*
X117221859Y-101368256D01*
X117163768Y-101448211D01*
X117085128Y-101602552D01*
X117031597Y-101767302D01*
X117004500Y-101938389D01*
X115275500Y-101938389D01*
X115275500Y-101877494D01*
X115236993Y-101585007D01*
X115160639Y-101300048D01*
X115047743Y-101027493D01*
X114974010Y-100899784D01*
X114900238Y-100772006D01*
X114720647Y-100537959D01*
X114720641Y-100537952D01*
X114512047Y-100329358D01*
X114512040Y-100329352D01*
X114277993Y-100149761D01*
X114022510Y-100002258D01*
X114022500Y-100002254D01*
X113749961Y-99889364D01*
X113749954Y-99889362D01*
X113749952Y-99889361D01*
X113464993Y-99813007D01*
X113416113Y-99806571D01*
X113172513Y-99774500D01*
X113172506Y-99774500D01*
X112877494Y-99774500D01*
X112877486Y-99774500D01*
X112599085Y-99811153D01*
X112585007Y-99813007D01*
X112447872Y-99849752D01*
X112300048Y-99889361D01*
X112300038Y-99889364D01*
X112027499Y-100002254D01*
X112027489Y-100002258D01*
X111772006Y-100149761D01*
X111537959Y-100329352D01*
X111537952Y-100329358D01*
X111329358Y-100537952D01*
X111329352Y-100537959D01*
X111149761Y-100772006D01*
X111002258Y-101027489D01*
X111002254Y-101027499D01*
X110889364Y-101300038D01*
X110889361Y-101300048D01*
X110813008Y-101585004D01*
X110813006Y-101585015D01*
X110774500Y-101877486D01*
X109035854Y-101877486D01*
X109018402Y-101767299D01*
X108964873Y-101602555D01*
X108886232Y-101448212D01*
X108784414Y-101308072D01*
X108661928Y-101185586D01*
X108521788Y-101083768D01*
X108367445Y-101005127D01*
X108202701Y-100951598D01*
X108202699Y-100951597D01*
X108202698Y-100951597D01*
X108071271Y-100930781D01*
X108031611Y-100924500D01*
X107858389Y-100924500D01*
X107818728Y-100930781D01*
X107687302Y-100951597D01*
X107522552Y-101005128D01*
X107368211Y-101083768D01*
X107288256Y-101141859D01*
X107228072Y-101185586D01*
X107228070Y-101185588D01*
X107228069Y-101185588D01*
X107105588Y-101308069D01*
X107105588Y-101308070D01*
X107105586Y-101308072D01*
X107061859Y-101368256D01*
X107003768Y-101448211D01*
X106925128Y-101602552D01*
X106871597Y-101767302D01*
X106844500Y-101938389D01*
X100155500Y-101938389D01*
X100128402Y-101767299D01*
X100074873Y-101602555D01*
X99996232Y-101448212D01*
X99894414Y-101308072D01*
X99771928Y-101185586D01*
X99631788Y-101083768D01*
X99477445Y-101005127D01*
X99312701Y-100951598D01*
X99312699Y-100951597D01*
X99312698Y-100951597D01*
X99181271Y-100930781D01*
X99141611Y-100924500D01*
X98968389Y-100924500D01*
X98928728Y-100930781D01*
X98797302Y-100951597D01*
X98632552Y-101005128D01*
X98478211Y-101083768D01*
X98398256Y-101141859D01*
X98338072Y-101185586D01*
X98338070Y-101185588D01*
X98338069Y-101185588D01*
X98215588Y-101308069D01*
X98215588Y-101308070D01*
X98215586Y-101308072D01*
X98171859Y-101368256D01*
X98113768Y-101448211D01*
X98035128Y-101602552D01*
X97981597Y-101767302D01*
X97954500Y-101938389D01*
X96225500Y-101938389D01*
X96225500Y-101877494D01*
X96186993Y-101585007D01*
X96110639Y-101300048D01*
X95997743Y-101027493D01*
X95924010Y-100899784D01*
X95850238Y-100772006D01*
X95670647Y-100537959D01*
X95670641Y-100537952D01*
X95462047Y-100329358D01*
X95462040Y-100329352D01*
X95227993Y-100149761D01*
X94972510Y-100002258D01*
X94972500Y-100002254D01*
X94699961Y-99889364D01*
X94699954Y-99889362D01*
X94699952Y-99889361D01*
X94414993Y-99813007D01*
X94366113Y-99806571D01*
X94122513Y-99774500D01*
X94122506Y-99774500D01*
X93827494Y-99774500D01*
X93827486Y-99774500D01*
X93549085Y-99811153D01*
X93535007Y-99813007D01*
X93397872Y-99849752D01*
X93250048Y-99889361D01*
X93250038Y-99889364D01*
X92977499Y-100002254D01*
X92977489Y-100002258D01*
X92722006Y-100149761D01*
X92487959Y-100329352D01*
X92487952Y-100329358D01*
X92279358Y-100537952D01*
X92279352Y-100537959D01*
X92099761Y-100772006D01*
X91952258Y-101027489D01*
X91952254Y-101027499D01*
X91839364Y-101300038D01*
X91839361Y-101300048D01*
X91763008Y-101585004D01*
X91763006Y-101585015D01*
X91724500Y-101877486D01*
X89985854Y-101877486D01*
X89968402Y-101767299D01*
X89914873Y-101602555D01*
X89836232Y-101448212D01*
X89734414Y-101308072D01*
X89611928Y-101185586D01*
X89471788Y-101083768D01*
X89317445Y-101005127D01*
X89152701Y-100951598D01*
X89152699Y-100951597D01*
X89152698Y-100951597D01*
X89021271Y-100930781D01*
X88981611Y-100924500D01*
X88808389Y-100924500D01*
X88768728Y-100930781D01*
X88637302Y-100951597D01*
X88472552Y-101005128D01*
X88318211Y-101083768D01*
X88238256Y-101141859D01*
X88178072Y-101185586D01*
X88178070Y-101185588D01*
X88178069Y-101185588D01*
X88055588Y-101308069D01*
X88055588Y-101308070D01*
X88055586Y-101308072D01*
X88011859Y-101368256D01*
X87953768Y-101448211D01*
X87875128Y-101602552D01*
X87821597Y-101767302D01*
X87794500Y-101938389D01*
X81105500Y-101938389D01*
X81078402Y-101767299D01*
X81024873Y-101602555D01*
X80946232Y-101448212D01*
X80844414Y-101308072D01*
X80721928Y-101185586D01*
X80581788Y-101083768D01*
X80427445Y-101005127D01*
X80262701Y-100951598D01*
X80262699Y-100951597D01*
X80262698Y-100951597D01*
X80131271Y-100930781D01*
X80091611Y-100924500D01*
X79918389Y-100924500D01*
X79878728Y-100930781D01*
X79747302Y-100951597D01*
X79582552Y-101005128D01*
X79428211Y-101083768D01*
X79348256Y-101141859D01*
X79288072Y-101185586D01*
X79288070Y-101185588D01*
X79288069Y-101185588D01*
X79165588Y-101308069D01*
X79165588Y-101308070D01*
X79165586Y-101308072D01*
X79121859Y-101368256D01*
X79063768Y-101448211D01*
X78985128Y-101602552D01*
X78931597Y-101767302D01*
X78904500Y-101938389D01*
X77175500Y-101938389D01*
X77175500Y-101877494D01*
X77136993Y-101585007D01*
X77060639Y-101300048D01*
X76947743Y-101027493D01*
X76874010Y-100899784D01*
X76800238Y-100772006D01*
X76620647Y-100537959D01*
X76620641Y-100537952D01*
X76412047Y-100329358D01*
X76412040Y-100329352D01*
X76177993Y-100149761D01*
X75922510Y-100002258D01*
X75922500Y-100002254D01*
X75649961Y-99889364D01*
X75649954Y-99889362D01*
X75649952Y-99889361D01*
X75364993Y-99813007D01*
X75316113Y-99806571D01*
X75072513Y-99774500D01*
X75072506Y-99774500D01*
X74777494Y-99774500D01*
X74777486Y-99774500D01*
X74499085Y-99811153D01*
X74485007Y-99813007D01*
X74347872Y-99849752D01*
X74200048Y-99889361D01*
X74200038Y-99889364D01*
X73927499Y-100002254D01*
X73927489Y-100002258D01*
X73672006Y-100149761D01*
X73437959Y-100329352D01*
X73437952Y-100329358D01*
X73229358Y-100537952D01*
X73229352Y-100537959D01*
X73049761Y-100772006D01*
X72902258Y-101027489D01*
X72902254Y-101027499D01*
X72789364Y-101300038D01*
X72789361Y-101300048D01*
X72713008Y-101585004D01*
X72713006Y-101585015D01*
X72674500Y-101877486D01*
X70935854Y-101877486D01*
X70918402Y-101767299D01*
X70864873Y-101602555D01*
X70786232Y-101448212D01*
X70684414Y-101308072D01*
X70561928Y-101185586D01*
X70421788Y-101083768D01*
X70267445Y-101005127D01*
X70102701Y-100951598D01*
X70102699Y-100951597D01*
X70102698Y-100951597D01*
X69971271Y-100930781D01*
X69931611Y-100924500D01*
X69758389Y-100924500D01*
X69718728Y-100930781D01*
X69587302Y-100951597D01*
X69422552Y-101005128D01*
X69268211Y-101083768D01*
X69188256Y-101141859D01*
X69128072Y-101185586D01*
X69128070Y-101185588D01*
X69128069Y-101185588D01*
X69005588Y-101308069D01*
X69005588Y-101308070D01*
X69005586Y-101308072D01*
X68961859Y-101368256D01*
X68903768Y-101448211D01*
X68825128Y-101602552D01*
X68771597Y-101767302D01*
X68744500Y-101938389D01*
X55000500Y-101938389D01*
X55000500Y-98310247D01*
X59049500Y-98310247D01*
X59049500Y-99849752D01*
X59061131Y-99908229D01*
X59061132Y-99908230D01*
X59105447Y-99974552D01*
X59171769Y-100018867D01*
X59171770Y-100018868D01*
X59230247Y-100030499D01*
X59230250Y-100030500D01*
X59230252Y-100030500D01*
X60769750Y-100030500D01*
X60769751Y-100030499D01*
X60784568Y-100027552D01*
X60828229Y-100018868D01*
X60828229Y-100018867D01*
X60828231Y-100018867D01*
X60894552Y-99974552D01*
X60938867Y-99908231D01*
X60938867Y-99908229D01*
X60938868Y-99908229D01*
X60950499Y-99849752D01*
X60950500Y-99849750D01*
X60950500Y-99370837D01*
X69664500Y-99370837D01*
X69664500Y-99599162D01*
X69700215Y-99824660D01*
X69770770Y-100041803D01*
X69874421Y-100245228D01*
X70008621Y-100429937D01*
X70170063Y-100591379D01*
X70354772Y-100725579D01*
X70445890Y-100772006D01*
X70558196Y-100829229D01*
X70558198Y-100829229D01*
X70558201Y-100829231D01*
X70674592Y-100867049D01*
X70775339Y-100899784D01*
X71000838Y-100935500D01*
X71000843Y-100935500D01*
X71229162Y-100935500D01*
X71454660Y-100899784D01*
X71671799Y-100829231D01*
X71875228Y-100725579D01*
X72059937Y-100591379D01*
X72221379Y-100429937D01*
X72355579Y-100245228D01*
X72459231Y-100041799D01*
X72529784Y-99824660D01*
X72565500Y-99599162D01*
X72565500Y-99370837D01*
X88714500Y-99370837D01*
X88714500Y-99599162D01*
X88750215Y-99824660D01*
X88820770Y-100041803D01*
X88924421Y-100245228D01*
X89058621Y-100429937D01*
X89220063Y-100591379D01*
X89404772Y-100725579D01*
X89495890Y-100772006D01*
X89608196Y-100829229D01*
X89608198Y-100829229D01*
X89608201Y-100829231D01*
X89724592Y-100867049D01*
X89825339Y-100899784D01*
X90050838Y-100935500D01*
X90050843Y-100935500D01*
X90279162Y-100935500D01*
X90504660Y-100899784D01*
X90721799Y-100829231D01*
X90925228Y-100725579D01*
X91109937Y-100591379D01*
X91271379Y-100429937D01*
X91405579Y-100245228D01*
X91509231Y-100041799D01*
X91579784Y-99824660D01*
X91615500Y-99599162D01*
X91615500Y-99370837D01*
X107764500Y-99370837D01*
X107764500Y-99599162D01*
X107800215Y-99824660D01*
X107870770Y-100041803D01*
X107974421Y-100245228D01*
X108108621Y-100429937D01*
X108270063Y-100591379D01*
X108454772Y-100725579D01*
X108545890Y-100772006D01*
X108658196Y-100829229D01*
X108658198Y-100829229D01*
X108658201Y-100829231D01*
X108774592Y-100867049D01*
X108875339Y-100899784D01*
X109100838Y-100935500D01*
X109100843Y-100935500D01*
X109329162Y-100935500D01*
X109554660Y-100899784D01*
X109771799Y-100829231D01*
X109975228Y-100725579D01*
X110159937Y-100591379D01*
X110321379Y-100429937D01*
X110455579Y-100245228D01*
X110559231Y-100041799D01*
X110629784Y-99824660D01*
X110665500Y-99599162D01*
X110665500Y-99370837D01*
X126814500Y-99370837D01*
X126814500Y-99599162D01*
X126850215Y-99824660D01*
X126920770Y-100041803D01*
X127024421Y-100245228D01*
X127158621Y-100429937D01*
X127320063Y-100591379D01*
X127504772Y-100725579D01*
X127595890Y-100772006D01*
X127708196Y-100829229D01*
X127708198Y-100829229D01*
X127708201Y-100829231D01*
X127824592Y-100867049D01*
X127925339Y-100899784D01*
X128150838Y-100935500D01*
X128150843Y-100935500D01*
X128379162Y-100935500D01*
X128604660Y-100899784D01*
X128821799Y-100829231D01*
X129025228Y-100725579D01*
X129209937Y-100591379D01*
X129371379Y-100429937D01*
X129505579Y-100245228D01*
X129609231Y-100041799D01*
X129679784Y-99824660D01*
X129715500Y-99599162D01*
X129715500Y-99370837D01*
X129679784Y-99145339D01*
X129609229Y-98928196D01*
X129505578Y-98724771D01*
X129371379Y-98540063D01*
X129209937Y-98378621D01*
X129025228Y-98244421D01*
X128821803Y-98140770D01*
X128604660Y-98070215D01*
X128379162Y-98034500D01*
X128379157Y-98034500D01*
X128150843Y-98034500D01*
X128150838Y-98034500D01*
X127925339Y-98070215D01*
X127708196Y-98140770D01*
X127504771Y-98244421D01*
X127320061Y-98378622D01*
X127158622Y-98540061D01*
X127024421Y-98724771D01*
X126920770Y-98928196D01*
X126850215Y-99145339D01*
X126814500Y-99370837D01*
X110665500Y-99370837D01*
X110629784Y-99145339D01*
X110559229Y-98928196D01*
X110455578Y-98724771D01*
X110321379Y-98540063D01*
X110159937Y-98378621D01*
X109975228Y-98244421D01*
X109771803Y-98140770D01*
X109554660Y-98070215D01*
X109329162Y-98034500D01*
X109329157Y-98034500D01*
X109100843Y-98034500D01*
X109100838Y-98034500D01*
X108875339Y-98070215D01*
X108658196Y-98140770D01*
X108454771Y-98244421D01*
X108270061Y-98378622D01*
X108108622Y-98540061D01*
X107974421Y-98724771D01*
X107870770Y-98928196D01*
X107800215Y-99145339D01*
X107764500Y-99370837D01*
X91615500Y-99370837D01*
X91579784Y-99145339D01*
X91509229Y-98928196D01*
X91405578Y-98724771D01*
X91271379Y-98540063D01*
X91109937Y-98378621D01*
X90925228Y-98244421D01*
X90721803Y-98140770D01*
X90504660Y-98070215D01*
X90279162Y-98034500D01*
X90279157Y-98034500D01*
X90050843Y-98034500D01*
X90050838Y-98034500D01*
X89825339Y-98070215D01*
X89608196Y-98140770D01*
X89404771Y-98244421D01*
X89220061Y-98378622D01*
X89058622Y-98540061D01*
X88924421Y-98724771D01*
X88820770Y-98928196D01*
X88750215Y-99145339D01*
X88714500Y-99370837D01*
X72565500Y-99370837D01*
X72529784Y-99145339D01*
X72459229Y-98928196D01*
X72355578Y-98724771D01*
X72221379Y-98540063D01*
X72059937Y-98378621D01*
X71875228Y-98244421D01*
X71671803Y-98140770D01*
X71454660Y-98070215D01*
X71229162Y-98034500D01*
X71229157Y-98034500D01*
X71000843Y-98034500D01*
X71000838Y-98034500D01*
X70775339Y-98070215D01*
X70558196Y-98140770D01*
X70354771Y-98244421D01*
X70170061Y-98378622D01*
X70008622Y-98540061D01*
X69874421Y-98724771D01*
X69770770Y-98928196D01*
X69700215Y-99145339D01*
X69664500Y-99370837D01*
X60950500Y-99370837D01*
X60950500Y-98310249D01*
X60950499Y-98310247D01*
X60938868Y-98251770D01*
X60938867Y-98251769D01*
X60894552Y-98185447D01*
X60828230Y-98141132D01*
X60828229Y-98141131D01*
X60769752Y-98129500D01*
X60769748Y-98129500D01*
X59230252Y-98129500D01*
X59230247Y-98129500D01*
X59171770Y-98141131D01*
X59171769Y-98141132D01*
X59105447Y-98185447D01*
X59061132Y-98251769D01*
X59061131Y-98251770D01*
X59049500Y-98310247D01*
X55000500Y-98310247D01*
X55000500Y-96446379D01*
X59049500Y-96446379D01*
X59049500Y-96633620D01*
X59086025Y-96817243D01*
X59086027Y-96817251D01*
X59157676Y-96990228D01*
X59157681Y-96990237D01*
X59261697Y-97145907D01*
X59261700Y-97145911D01*
X59394088Y-97278299D01*
X59394092Y-97278302D01*
X59549762Y-97382318D01*
X59549768Y-97382321D01*
X59549769Y-97382322D01*
X59722749Y-97453973D01*
X59906379Y-97490499D01*
X59906383Y-97490500D01*
X59906384Y-97490500D01*
X60093617Y-97490500D01*
X60093618Y-97490499D01*
X60277251Y-97453973D01*
X60450231Y-97382322D01*
X60605908Y-97278302D01*
X60738302Y-97145908D01*
X60842322Y-96990231D01*
X60901809Y-96846617D01*
X76215000Y-96846617D01*
X76215000Y-97043382D01*
X76245778Y-97237705D01*
X76306581Y-97424835D01*
X76395904Y-97600143D01*
X76511555Y-97759321D01*
X76650678Y-97898444D01*
X76809856Y-98014095D01*
X76985164Y-98103418D01*
X77172294Y-98164221D01*
X77366618Y-98195000D01*
X77563382Y-98195000D01*
X77757705Y-98164221D01*
X77944835Y-98103418D01*
X78120143Y-98014095D01*
X78279321Y-97898444D01*
X78418444Y-97759321D01*
X78534095Y-97600143D01*
X78623418Y-97424835D01*
X78684221Y-97237705D01*
X78715000Y-97043382D01*
X78715000Y-96846617D01*
X95265000Y-96846617D01*
X95265000Y-97043382D01*
X95295778Y-97237705D01*
X95356581Y-97424835D01*
X95445904Y-97600143D01*
X95561555Y-97759321D01*
X95700678Y-97898444D01*
X95859856Y-98014095D01*
X96035164Y-98103418D01*
X96222294Y-98164221D01*
X96416618Y-98195000D01*
X96613382Y-98195000D01*
X96807705Y-98164221D01*
X96994835Y-98103418D01*
X97170143Y-98014095D01*
X97329321Y-97898444D01*
X97468444Y-97759321D01*
X97584095Y-97600143D01*
X97673418Y-97424835D01*
X97734221Y-97237705D01*
X97765000Y-97043382D01*
X97765000Y-96846617D01*
X114315000Y-96846617D01*
X114315000Y-97043382D01*
X114345778Y-97237705D01*
X114406581Y-97424835D01*
X114495904Y-97600143D01*
X114611555Y-97759321D01*
X114750678Y-97898444D01*
X114909856Y-98014095D01*
X115085164Y-98103418D01*
X115272294Y-98164221D01*
X115466618Y-98195000D01*
X115663382Y-98195000D01*
X115857705Y-98164221D01*
X116044835Y-98103418D01*
X116220143Y-98014095D01*
X116379321Y-97898444D01*
X116518444Y-97759321D01*
X116634095Y-97600143D01*
X116723418Y-97424835D01*
X116784221Y-97237705D01*
X116815000Y-97043382D01*
X116815000Y-96846617D01*
X133365000Y-96846617D01*
X133365000Y-97043382D01*
X133395778Y-97237705D01*
X133456581Y-97424835D01*
X133545904Y-97600143D01*
X133661555Y-97759321D01*
X133800678Y-97898444D01*
X133959856Y-98014095D01*
X134135164Y-98103418D01*
X134322294Y-98164221D01*
X134516618Y-98195000D01*
X134713382Y-98195000D01*
X134907705Y-98164221D01*
X135094835Y-98103418D01*
X135270143Y-98014095D01*
X135429321Y-97898444D01*
X135568444Y-97759321D01*
X135684095Y-97600143D01*
X135773418Y-97424835D01*
X135834221Y-97237705D01*
X135865000Y-97043382D01*
X135865000Y-96846617D01*
X135834221Y-96652294D01*
X135773418Y-96465164D01*
X135684095Y-96289856D01*
X135568444Y-96130678D01*
X135429321Y-95991555D01*
X135270143Y-95875904D01*
X135094835Y-95786581D01*
X134907705Y-95725778D01*
X134713382Y-95695000D01*
X134516618Y-95695000D01*
X134322294Y-95725778D01*
X134135164Y-95786581D01*
X133959856Y-95875904D01*
X133800678Y-95991555D01*
X133661555Y-96130678D01*
X133545904Y-96289856D01*
X133456581Y-96465164D01*
X133395778Y-96652294D01*
X133365000Y-96846617D01*
X116815000Y-96846617D01*
X116784221Y-96652294D01*
X116723418Y-96465164D01*
X116634095Y-96289856D01*
X116518444Y-96130678D01*
X116379321Y-95991555D01*
X116220143Y-95875904D01*
X116044835Y-95786581D01*
X115857705Y-95725778D01*
X115663382Y-95695000D01*
X115466618Y-95695000D01*
X115272294Y-95725778D01*
X115085164Y-95786581D01*
X114909856Y-95875904D01*
X114750678Y-95991555D01*
X114611555Y-96130678D01*
X114495904Y-96289856D01*
X114406581Y-96465164D01*
X114345778Y-96652294D01*
X114315000Y-96846617D01*
X97765000Y-96846617D01*
X97734221Y-96652294D01*
X97673418Y-96465164D01*
X97584095Y-96289856D01*
X97468444Y-96130678D01*
X97329321Y-95991555D01*
X97170143Y-95875904D01*
X96994835Y-95786581D01*
X96807705Y-95725778D01*
X96613382Y-95695000D01*
X96416618Y-95695000D01*
X96222294Y-95725778D01*
X96035164Y-95786581D01*
X95859856Y-95875904D01*
X95700678Y-95991555D01*
X95561555Y-96130678D01*
X95445904Y-96289856D01*
X95356581Y-96465164D01*
X95295778Y-96652294D01*
X95265000Y-96846617D01*
X78715000Y-96846617D01*
X78684221Y-96652294D01*
X78623418Y-96465164D01*
X78534095Y-96289856D01*
X78418444Y-96130678D01*
X78279321Y-95991555D01*
X78120143Y-95875904D01*
X77944835Y-95786581D01*
X77757705Y-95725778D01*
X77563382Y-95695000D01*
X77366618Y-95695000D01*
X77172294Y-95725778D01*
X76985164Y-95786581D01*
X76809856Y-95875904D01*
X76650678Y-95991555D01*
X76511555Y-96130678D01*
X76395904Y-96289856D01*
X76306581Y-96465164D01*
X76245778Y-96652294D01*
X76215000Y-96846617D01*
X60901809Y-96846617D01*
X60913973Y-96817251D01*
X60950500Y-96633616D01*
X60950500Y-96446384D01*
X60913973Y-96262749D01*
X60842322Y-96089769D01*
X60842321Y-96089768D01*
X60842318Y-96089762D01*
X60738302Y-95934092D01*
X60738299Y-95934088D01*
X60605911Y-95801700D01*
X60605907Y-95801697D01*
X60450237Y-95697681D01*
X60450228Y-95697676D01*
X60277251Y-95626027D01*
X60277243Y-95626025D01*
X60093620Y-95589500D01*
X60093616Y-95589500D01*
X59906384Y-95589500D01*
X59906379Y-95589500D01*
X59722756Y-95626025D01*
X59722748Y-95626027D01*
X59549771Y-95697676D01*
X59549762Y-95697681D01*
X59394092Y-95801697D01*
X59394088Y-95801700D01*
X59261700Y-95934088D01*
X59261697Y-95934092D01*
X59157681Y-96089762D01*
X59157676Y-96089771D01*
X59086027Y-96262748D01*
X59086025Y-96262756D01*
X59049500Y-96446379D01*
X55000500Y-96446379D01*
X55000500Y-93906379D01*
X59049500Y-93906379D01*
X59049500Y-94093620D01*
X59086025Y-94277243D01*
X59086027Y-94277251D01*
X59157676Y-94450228D01*
X59157681Y-94450237D01*
X59261697Y-94605907D01*
X59261700Y-94605911D01*
X59394088Y-94738299D01*
X59394092Y-94738302D01*
X59549762Y-94842318D01*
X59549768Y-94842321D01*
X59549769Y-94842322D01*
X59722749Y-94913973D01*
X59906379Y-94950499D01*
X59906383Y-94950500D01*
X59906384Y-94950500D01*
X60093617Y-94950500D01*
X60093618Y-94950499D01*
X60277251Y-94913973D01*
X60450231Y-94842322D01*
X60605908Y-94738302D01*
X60738302Y-94605908D01*
X60842322Y-94450231D01*
X60913973Y-94277251D01*
X60950500Y-94093616D01*
X60950500Y-93906384D01*
X60913973Y-93722749D01*
X60842322Y-93549769D01*
X60842321Y-93549768D01*
X60842318Y-93549762D01*
X60738302Y-93394092D01*
X60738299Y-93394088D01*
X60605911Y-93261700D01*
X60605907Y-93261697D01*
X60450237Y-93157681D01*
X60450228Y-93157676D01*
X60277251Y-93086027D01*
X60277243Y-93086025D01*
X60093620Y-93049500D01*
X60093616Y-93049500D01*
X59906384Y-93049500D01*
X59906379Y-93049500D01*
X59722756Y-93086025D01*
X59722748Y-93086027D01*
X59549771Y-93157676D01*
X59549762Y-93157681D01*
X59394092Y-93261697D01*
X59394088Y-93261700D01*
X59261700Y-93394088D01*
X59261697Y-93394092D01*
X59157681Y-93549762D01*
X59157676Y-93549771D01*
X59086027Y-93722748D01*
X59086025Y-93722756D01*
X59049500Y-93906379D01*
X55000500Y-93906379D01*
X55000500Y-91366379D01*
X59049500Y-91366379D01*
X59049500Y-91553620D01*
X59086025Y-91737243D01*
X59086027Y-91737251D01*
X59157676Y-91910228D01*
X59157681Y-91910237D01*
X59261697Y-92065907D01*
X59261700Y-92065911D01*
X59394088Y-92198299D01*
X59394092Y-92198302D01*
X59549762Y-92302318D01*
X59549768Y-92302321D01*
X59549769Y-92302322D01*
X59722749Y-92373973D01*
X59906379Y-92410499D01*
X59906383Y-92410500D01*
X59906384Y-92410500D01*
X60093617Y-92410500D01*
X60093618Y-92410499D01*
X60277251Y-92373973D01*
X60450231Y-92302322D01*
X60605908Y-92198302D01*
X60738302Y-92065908D01*
X60842322Y-91910231D01*
X60913973Y-91737251D01*
X60950500Y-91553616D01*
X60950500Y-91366384D01*
X60913973Y-91182749D01*
X60842322Y-91009769D01*
X60842321Y-91009768D01*
X60842318Y-91009762D01*
X60738302Y-90854092D01*
X60738299Y-90854088D01*
X60605911Y-90721700D01*
X60605907Y-90721697D01*
X60450237Y-90617681D01*
X60450228Y-90617676D01*
X60277251Y-90546027D01*
X60277243Y-90546025D01*
X60093620Y-90509500D01*
X60093616Y-90509500D01*
X59906384Y-90509500D01*
X59906379Y-90509500D01*
X59722756Y-90546025D01*
X59722748Y-90546027D01*
X59549771Y-90617676D01*
X59549762Y-90617681D01*
X59394092Y-90721697D01*
X59394088Y-90721700D01*
X59261700Y-90854088D01*
X59261697Y-90854092D01*
X59157681Y-91009762D01*
X59157676Y-91009771D01*
X59086027Y-91182748D01*
X59086025Y-91182756D01*
X59049500Y-91366379D01*
X55000500Y-91366379D01*
X55000500Y-88846126D01*
X59250000Y-88846126D01*
X59250000Y-88993873D01*
X59278820Y-89138759D01*
X59278822Y-89138767D01*
X59335357Y-89275254D01*
X59335362Y-89275264D01*
X59417436Y-89398096D01*
X59417439Y-89398100D01*
X59521899Y-89502560D01*
X59521903Y-89502563D01*
X59644735Y-89584637D01*
X59644745Y-89584642D01*
X59781232Y-89641177D01*
X59781240Y-89641179D01*
X59926126Y-89669999D01*
X59926129Y-89670000D01*
X60073871Y-89670000D01*
X60073873Y-89669999D01*
X60218759Y-89641179D01*
X60218767Y-89641177D01*
X60355254Y-89584642D01*
X60355264Y-89584637D01*
X60478096Y-89502563D01*
X60478100Y-89502560D01*
X60582560Y-89398100D01*
X60582563Y-89398096D01*
X60664637Y-89275264D01*
X60664642Y-89275254D01*
X60721177Y-89138767D01*
X60721179Y-89138759D01*
X60749999Y-88993873D01*
X60750000Y-88993871D01*
X60750000Y-88846128D01*
X60749999Y-88846126D01*
X60721179Y-88701240D01*
X60721177Y-88701232D01*
X60664642Y-88564745D01*
X60664637Y-88564735D01*
X60582563Y-88441903D01*
X60582560Y-88441899D01*
X60478100Y-88337439D01*
X60478096Y-88337436D01*
X60355264Y-88255362D01*
X60355254Y-88255357D01*
X60218767Y-88198822D01*
X60218759Y-88198820D01*
X60073872Y-88170000D01*
X59926128Y-88170000D01*
X59781240Y-88198820D01*
X59781232Y-88198822D01*
X59644745Y-88255357D01*
X59644735Y-88255362D01*
X59521903Y-88337436D01*
X59521899Y-88337439D01*
X59417439Y-88441899D01*
X59417436Y-88441903D01*
X59335362Y-88564735D01*
X59335357Y-88564745D01*
X59278822Y-88701232D01*
X59278820Y-88701240D01*
X59250000Y-88846126D01*
X55000500Y-88846126D01*
X55000500Y-82888389D01*
X68744500Y-82888389D01*
X68744500Y-83061611D01*
X68771598Y-83232701D01*
X68825127Y-83397445D01*
X68903768Y-83551788D01*
X69005586Y-83691928D01*
X69128072Y-83814414D01*
X69268212Y-83916232D01*
X69422555Y-83994873D01*
X69587299Y-84048402D01*
X69758389Y-84075500D01*
X69758390Y-84075500D01*
X69931610Y-84075500D01*
X69931611Y-84075500D01*
X70102701Y-84048402D01*
X70267445Y-83994873D01*
X70421788Y-83916232D01*
X70561928Y-83814414D01*
X70684414Y-83691928D01*
X70786232Y-83551788D01*
X70864873Y-83397445D01*
X70918402Y-83232701D01*
X70945500Y-83061611D01*
X70945500Y-82888389D01*
X70935854Y-82827486D01*
X72674500Y-82827486D01*
X72674500Y-83122513D01*
X72706571Y-83366113D01*
X72713007Y-83414993D01*
X72787212Y-83691930D01*
X72789361Y-83699951D01*
X72789364Y-83699961D01*
X72902254Y-83972500D01*
X72902258Y-83972510D01*
X73049761Y-84227993D01*
X73229352Y-84462040D01*
X73229358Y-84462047D01*
X73437952Y-84670641D01*
X73437959Y-84670647D01*
X73672006Y-84850238D01*
X73927489Y-84997741D01*
X73927490Y-84997741D01*
X73927493Y-84997743D01*
X74200048Y-85110639D01*
X74485007Y-85186993D01*
X74777494Y-85225500D01*
X74777501Y-85225500D01*
X75072499Y-85225500D01*
X75072506Y-85225500D01*
X75364993Y-85186993D01*
X75649952Y-85110639D01*
X75922507Y-84997743D01*
X76177994Y-84850238D01*
X76412042Y-84670646D01*
X76620646Y-84462042D01*
X76800238Y-84227994D01*
X76947743Y-83972507D01*
X77060639Y-83699952D01*
X77136993Y-83414993D01*
X77175500Y-83122506D01*
X77175500Y-82888389D01*
X78904500Y-82888389D01*
X78904500Y-83061611D01*
X78931598Y-83232701D01*
X78985127Y-83397445D01*
X79063768Y-83551788D01*
X79165586Y-83691928D01*
X79288072Y-83814414D01*
X79428212Y-83916232D01*
X79582555Y-83994873D01*
X79747299Y-84048402D01*
X79918389Y-84075500D01*
X79918390Y-84075500D01*
X80091610Y-84075500D01*
X80091611Y-84075500D01*
X80262701Y-84048402D01*
X80427445Y-83994873D01*
X80581788Y-83916232D01*
X80721928Y-83814414D01*
X80844414Y-83691928D01*
X80946232Y-83551788D01*
X81024873Y-83397445D01*
X81078402Y-83232701D01*
X81105500Y-83061611D01*
X81105500Y-82888389D01*
X87794500Y-82888389D01*
X87794500Y-83061611D01*
X87821598Y-83232701D01*
X87875127Y-83397445D01*
X87953768Y-83551788D01*
X88055586Y-83691928D01*
X88178072Y-83814414D01*
X88318212Y-83916232D01*
X88472555Y-83994873D01*
X88637299Y-84048402D01*
X88808389Y-84075500D01*
X88808390Y-84075500D01*
X88981610Y-84075500D01*
X88981611Y-84075500D01*
X89152701Y-84048402D01*
X89317445Y-83994873D01*
X89471788Y-83916232D01*
X89611928Y-83814414D01*
X89734414Y-83691928D01*
X89836232Y-83551788D01*
X89914873Y-83397445D01*
X89968402Y-83232701D01*
X89995500Y-83061611D01*
X89995500Y-82888389D01*
X89985854Y-82827486D01*
X91724500Y-82827486D01*
X91724500Y-83122513D01*
X91756571Y-83366113D01*
X91763007Y-83414993D01*
X91837212Y-83691930D01*
X91839361Y-83699951D01*
X91839364Y-83699961D01*
X91952254Y-83972500D01*
X91952258Y-83972510D01*
X92099761Y-84227993D01*
X92279352Y-84462040D01*
X92279358Y-84462047D01*
X92487952Y-84670641D01*
X92487959Y-84670647D01*
X92722006Y-84850238D01*
X92977489Y-84997741D01*
X92977490Y-84997741D01*
X92977493Y-84997743D01*
X93250048Y-85110639D01*
X93535007Y-85186993D01*
X93827494Y-85225500D01*
X93827501Y-85225500D01*
X94122499Y-85225500D01*
X94122506Y-85225500D01*
X94414993Y-85186993D01*
X94699952Y-85110639D01*
X94972507Y-84997743D01*
X95227994Y-84850238D01*
X95462042Y-84670646D01*
X95670646Y-84462042D01*
X95850238Y-84227994D01*
X95997743Y-83972507D01*
X96110639Y-83699952D01*
X96186993Y-83414993D01*
X96225500Y-83122506D01*
X96225500Y-82888389D01*
X97954500Y-82888389D01*
X97954500Y-83061611D01*
X97981598Y-83232701D01*
X98035127Y-83397445D01*
X98113768Y-83551788D01*
X98215586Y-83691928D01*
X98338072Y-83814414D01*
X98478212Y-83916232D01*
X98632555Y-83994873D01*
X98797299Y-84048402D01*
X98968389Y-84075500D01*
X98968390Y-84075500D01*
X99141610Y-84075500D01*
X99141611Y-84075500D01*
X99312701Y-84048402D01*
X99477445Y-83994873D01*
X99631788Y-83916232D01*
X99771928Y-83814414D01*
X99894414Y-83691928D01*
X99996232Y-83551788D01*
X100074873Y-83397445D01*
X100128402Y-83232701D01*
X100155500Y-83061611D01*
X100155500Y-82888389D01*
X106844500Y-82888389D01*
X106844500Y-83061611D01*
X106871598Y-83232701D01*
X106925127Y-83397445D01*
X107003768Y-83551788D01*
X107105586Y-83691928D01*
X107228072Y-83814414D01*
X107368212Y-83916232D01*
X107522555Y-83994873D01*
X107687299Y-84048402D01*
X107858389Y-84075500D01*
X107858390Y-84075500D01*
X108031610Y-84075500D01*
X108031611Y-84075500D01*
X108202701Y-84048402D01*
X108367445Y-83994873D01*
X108521788Y-83916232D01*
X108661928Y-83814414D01*
X108784414Y-83691928D01*
X108886232Y-83551788D01*
X108964873Y-83397445D01*
X109018402Y-83232701D01*
X109045500Y-83061611D01*
X109045500Y-82888389D01*
X109035854Y-82827486D01*
X110774500Y-82827486D01*
X110774500Y-83122513D01*
X110806571Y-83366113D01*
X110813007Y-83414993D01*
X110887212Y-83691930D01*
X110889361Y-83699951D01*
X110889364Y-83699961D01*
X111002254Y-83972500D01*
X111002258Y-83972510D01*
X111149761Y-84227993D01*
X111329352Y-84462040D01*
X111329358Y-84462047D01*
X111537952Y-84670641D01*
X111537959Y-84670647D01*
X111772006Y-84850238D01*
X112027489Y-84997741D01*
X112027490Y-84997741D01*
X112027493Y-84997743D01*
X112300048Y-85110639D01*
X112585007Y-85186993D01*
X112877494Y-85225500D01*
X112877501Y-85225500D01*
X113172499Y-85225500D01*
X113172506Y-85225500D01*
X113464993Y-85186993D01*
X113749952Y-85110639D01*
X114022507Y-84997743D01*
X114277994Y-84850238D01*
X114512042Y-84670646D01*
X114720646Y-84462042D01*
X114900238Y-84227994D01*
X115047743Y-83972507D01*
X115160639Y-83699952D01*
X115236993Y-83414993D01*
X115275500Y-83122506D01*
X115275500Y-82888389D01*
X117004500Y-82888389D01*
X117004500Y-83061611D01*
X117031598Y-83232701D01*
X117085127Y-83397445D01*
X117163768Y-83551788D01*
X117265586Y-83691928D01*
X117388072Y-83814414D01*
X117528212Y-83916232D01*
X117682555Y-83994873D01*
X117847299Y-84048402D01*
X118018389Y-84075500D01*
X118018390Y-84075500D01*
X118191610Y-84075500D01*
X118191611Y-84075500D01*
X118362701Y-84048402D01*
X118527445Y-83994873D01*
X118681788Y-83916232D01*
X118821928Y-83814414D01*
X118944414Y-83691928D01*
X119046232Y-83551788D01*
X119124873Y-83397445D01*
X119178402Y-83232701D01*
X119205500Y-83061611D01*
X119205500Y-82888389D01*
X125894500Y-82888389D01*
X125894500Y-83061611D01*
X125921598Y-83232701D01*
X125975127Y-83397445D01*
X126053768Y-83551788D01*
X126155586Y-83691928D01*
X126278072Y-83814414D01*
X126418212Y-83916232D01*
X126572555Y-83994873D01*
X126737299Y-84048402D01*
X126908389Y-84075500D01*
X126908390Y-84075500D01*
X127081610Y-84075500D01*
X127081611Y-84075500D01*
X127252701Y-84048402D01*
X127417445Y-83994873D01*
X127571788Y-83916232D01*
X127711928Y-83814414D01*
X127834414Y-83691928D01*
X127936232Y-83551788D01*
X128014873Y-83397445D01*
X128068402Y-83232701D01*
X128095500Y-83061611D01*
X128095500Y-82888389D01*
X128085854Y-82827486D01*
X129824500Y-82827486D01*
X129824500Y-83122513D01*
X129856571Y-83366113D01*
X129863007Y-83414993D01*
X129937212Y-83691930D01*
X129939361Y-83699951D01*
X129939364Y-83699961D01*
X130052254Y-83972500D01*
X130052258Y-83972510D01*
X130199761Y-84227993D01*
X130379352Y-84462040D01*
X130379358Y-84462047D01*
X130587952Y-84670641D01*
X130587959Y-84670647D01*
X130822006Y-84850238D01*
X131077489Y-84997741D01*
X131077490Y-84997741D01*
X131077493Y-84997743D01*
X131350048Y-85110639D01*
X131635007Y-85186993D01*
X131927494Y-85225500D01*
X131927501Y-85225500D01*
X132222499Y-85225500D01*
X132222506Y-85225500D01*
X132514993Y-85186993D01*
X132799952Y-85110639D01*
X133072507Y-84997743D01*
X133327994Y-84850238D01*
X133562042Y-84670646D01*
X133770646Y-84462042D01*
X133950238Y-84227994D01*
X134097743Y-83972507D01*
X134210639Y-83699952D01*
X134286993Y-83414993D01*
X134325500Y-83122506D01*
X134325500Y-82888389D01*
X136054500Y-82888389D01*
X136054500Y-83061611D01*
X136081598Y-83232701D01*
X136135127Y-83397445D01*
X136213768Y-83551788D01*
X136315586Y-83691928D01*
X136438072Y-83814414D01*
X136578212Y-83916232D01*
X136732555Y-83994873D01*
X136897299Y-84048402D01*
X137068389Y-84075500D01*
X137068390Y-84075500D01*
X137241610Y-84075500D01*
X137241611Y-84075500D01*
X137412701Y-84048402D01*
X137577445Y-83994873D01*
X137731788Y-83916232D01*
X137871928Y-83814414D01*
X137994414Y-83691928D01*
X138096232Y-83551788D01*
X138174873Y-83397445D01*
X138228402Y-83232701D01*
X138255500Y-83061611D01*
X138255500Y-82888389D01*
X138228402Y-82717299D01*
X138174873Y-82552555D01*
X138096232Y-82398212D01*
X137994414Y-82258072D01*
X137871928Y-82135586D01*
X137731788Y-82033768D01*
X137577445Y-81955127D01*
X137412701Y-81901598D01*
X137412699Y-81901597D01*
X137412698Y-81901597D01*
X137281271Y-81880781D01*
X137241611Y-81874500D01*
X137068389Y-81874500D01*
X137028728Y-81880781D01*
X136897302Y-81901597D01*
X136732552Y-81955128D01*
X136578211Y-82033768D01*
X136498256Y-82091859D01*
X136438072Y-82135586D01*
X136438070Y-82135588D01*
X136438069Y-82135588D01*
X136315588Y-82258069D01*
X136315588Y-82258070D01*
X136315586Y-82258072D01*
X136271859Y-82318256D01*
X136213768Y-82398211D01*
X136135128Y-82552552D01*
X136081597Y-82717302D01*
X136054500Y-82888389D01*
X134325500Y-82888389D01*
X134325500Y-82827494D01*
X134286993Y-82535007D01*
X134210639Y-82250048D01*
X134097743Y-81977493D01*
X134024010Y-81849784D01*
X133950238Y-81722006D01*
X133770647Y-81487959D01*
X133770641Y-81487952D01*
X133562047Y-81279358D01*
X133562040Y-81279352D01*
X133327993Y-81099761D01*
X133072510Y-80952258D01*
X133072500Y-80952254D01*
X132799961Y-80839364D01*
X132799954Y-80839362D01*
X132799952Y-80839361D01*
X132514993Y-80763007D01*
X132466113Y-80756571D01*
X132222513Y-80724500D01*
X132222506Y-80724500D01*
X131927494Y-80724500D01*
X131927486Y-80724500D01*
X131649085Y-80761153D01*
X131635007Y-80763007D01*
X131350048Y-80839361D01*
X131350038Y-80839364D01*
X131077499Y-80952254D01*
X131077489Y-80952258D01*
X130822006Y-81099761D01*
X130587959Y-81279352D01*
X130587952Y-81279358D01*
X130379358Y-81487952D01*
X130379352Y-81487959D01*
X130199761Y-81722006D01*
X130052258Y-81977489D01*
X130052254Y-81977499D01*
X129939364Y-82250038D01*
X129939361Y-82250048D01*
X129863008Y-82535004D01*
X129863006Y-82535015D01*
X129824500Y-82827486D01*
X128085854Y-82827486D01*
X128068402Y-82717299D01*
X128014873Y-82552555D01*
X127936232Y-82398212D01*
X127834414Y-82258072D01*
X127711928Y-82135586D01*
X127571788Y-82033768D01*
X127417445Y-81955127D01*
X127252701Y-81901598D01*
X127252699Y-81901597D01*
X127252698Y-81901597D01*
X127121271Y-81880781D01*
X127081611Y-81874500D01*
X126908389Y-81874500D01*
X126868728Y-81880781D01*
X126737302Y-81901597D01*
X126572552Y-81955128D01*
X126418211Y-82033768D01*
X126338256Y-82091859D01*
X126278072Y-82135586D01*
X126278070Y-82135588D01*
X126278069Y-82135588D01*
X126155588Y-82258069D01*
X126155588Y-82258070D01*
X126155586Y-82258072D01*
X126111859Y-82318256D01*
X126053768Y-82398211D01*
X125975128Y-82552552D01*
X125921597Y-82717302D01*
X125894500Y-82888389D01*
X119205500Y-82888389D01*
X119178402Y-82717299D01*
X119124873Y-82552555D01*
X119046232Y-82398212D01*
X118944414Y-82258072D01*
X118821928Y-82135586D01*
X118681788Y-82033768D01*
X118527445Y-81955127D01*
X118362701Y-81901598D01*
X118362699Y-81901597D01*
X118362698Y-81901597D01*
X118231271Y-81880781D01*
X118191611Y-81874500D01*
X118018389Y-81874500D01*
X117978728Y-81880781D01*
X117847302Y-81901597D01*
X117682552Y-81955128D01*
X117528211Y-82033768D01*
X117448256Y-82091859D01*
X117388072Y-82135586D01*
X117388070Y-82135588D01*
X117388069Y-82135588D01*
X117265588Y-82258069D01*
X117265588Y-82258070D01*
X117265586Y-82258072D01*
X117221859Y-82318256D01*
X117163768Y-82398211D01*
X117085128Y-82552552D01*
X117031597Y-82717302D01*
X117004500Y-82888389D01*
X115275500Y-82888389D01*
X115275500Y-82827494D01*
X115236993Y-82535007D01*
X115160639Y-82250048D01*
X115047743Y-81977493D01*
X114974010Y-81849784D01*
X114900238Y-81722006D01*
X114720647Y-81487959D01*
X114720641Y-81487952D01*
X114512047Y-81279358D01*
X114512040Y-81279352D01*
X114277993Y-81099761D01*
X114022510Y-80952258D01*
X114022500Y-80952254D01*
X113749961Y-80839364D01*
X113749954Y-80839362D01*
X113749952Y-80839361D01*
X113464993Y-80763007D01*
X113416113Y-80756571D01*
X113172513Y-80724500D01*
X113172506Y-80724500D01*
X112877494Y-80724500D01*
X112877486Y-80724500D01*
X112599085Y-80761153D01*
X112585007Y-80763007D01*
X112300048Y-80839361D01*
X112300038Y-80839364D01*
X112027499Y-80952254D01*
X112027489Y-80952258D01*
X111772006Y-81099761D01*
X111537959Y-81279352D01*
X111537952Y-81279358D01*
X111329358Y-81487952D01*
X111329352Y-81487959D01*
X111149761Y-81722006D01*
X111002258Y-81977489D01*
X111002254Y-81977499D01*
X110889364Y-82250038D01*
X110889361Y-82250048D01*
X110813008Y-82535004D01*
X110813006Y-82535015D01*
X110774500Y-82827486D01*
X109035854Y-82827486D01*
X109018402Y-82717299D01*
X108964873Y-82552555D01*
X108886232Y-82398212D01*
X108784414Y-82258072D01*
X108661928Y-82135586D01*
X108521788Y-82033768D01*
X108367445Y-81955127D01*
X108202701Y-81901598D01*
X108202699Y-81901597D01*
X108202698Y-81901597D01*
X108071271Y-81880781D01*
X108031611Y-81874500D01*
X107858389Y-81874500D01*
X107818728Y-81880781D01*
X107687302Y-81901597D01*
X107522552Y-81955128D01*
X107368211Y-82033768D01*
X107288256Y-82091859D01*
X107228072Y-82135586D01*
X107228070Y-82135588D01*
X107228069Y-82135588D01*
X107105588Y-82258069D01*
X107105588Y-82258070D01*
X107105586Y-82258072D01*
X107061859Y-82318256D01*
X107003768Y-82398211D01*
X106925128Y-82552552D01*
X106871597Y-82717302D01*
X106844500Y-82888389D01*
X100155500Y-82888389D01*
X100128402Y-82717299D01*
X100074873Y-82552555D01*
X99996232Y-82398212D01*
X99894414Y-82258072D01*
X99771928Y-82135586D01*
X99631788Y-82033768D01*
X99477445Y-81955127D01*
X99312701Y-81901598D01*
X99312699Y-81901597D01*
X99312698Y-81901597D01*
X99181271Y-81880781D01*
X99141611Y-81874500D01*
X98968389Y-81874500D01*
X98928728Y-81880781D01*
X98797302Y-81901597D01*
X98632552Y-81955128D01*
X98478211Y-82033768D01*
X98398256Y-82091859D01*
X98338072Y-82135586D01*
X98338070Y-82135588D01*
X98338069Y-82135588D01*
X98215588Y-82258069D01*
X98215588Y-82258070D01*
X98215586Y-82258072D01*
X98171859Y-82318256D01*
X98113768Y-82398211D01*
X98035128Y-82552552D01*
X97981597Y-82717302D01*
X97954500Y-82888389D01*
X96225500Y-82888389D01*
X96225500Y-82827494D01*
X96186993Y-82535007D01*
X96110639Y-82250048D01*
X95997743Y-81977493D01*
X95924010Y-81849784D01*
X95850238Y-81722006D01*
X95670647Y-81487959D01*
X95670641Y-81487952D01*
X95462047Y-81279358D01*
X95462040Y-81279352D01*
X95227993Y-81099761D01*
X94972510Y-80952258D01*
X94972500Y-80952254D01*
X94699961Y-80839364D01*
X94699954Y-80839362D01*
X94699952Y-80839361D01*
X94414993Y-80763007D01*
X94366113Y-80756571D01*
X94122513Y-80724500D01*
X94122506Y-80724500D01*
X93827494Y-80724500D01*
X93827486Y-80724500D01*
X93549085Y-80761153D01*
X93535007Y-80763007D01*
X93250048Y-80839361D01*
X93250038Y-80839364D01*
X92977499Y-80952254D01*
X92977489Y-80952258D01*
X92722006Y-81099761D01*
X92487959Y-81279352D01*
X92487952Y-81279358D01*
X92279358Y-81487952D01*
X92279352Y-81487959D01*
X92099761Y-81722006D01*
X91952258Y-81977489D01*
X91952254Y-81977499D01*
X91839364Y-82250038D01*
X91839361Y-82250048D01*
X91763008Y-82535004D01*
X91763006Y-82535015D01*
X91724500Y-82827486D01*
X89985854Y-82827486D01*
X89968402Y-82717299D01*
X89914873Y-82552555D01*
X89836232Y-82398212D01*
X89734414Y-82258072D01*
X89611928Y-82135586D01*
X89471788Y-82033768D01*
X89317445Y-81955127D01*
X89152701Y-81901598D01*
X89152699Y-81901597D01*
X89152698Y-81901597D01*
X89021271Y-81880781D01*
X88981611Y-81874500D01*
X88808389Y-81874500D01*
X88768728Y-81880781D01*
X88637302Y-81901597D01*
X88472552Y-81955128D01*
X88318211Y-82033768D01*
X88238256Y-82091859D01*
X88178072Y-82135586D01*
X88178070Y-82135588D01*
X88178069Y-82135588D01*
X88055588Y-82258069D01*
X88055588Y-82258070D01*
X88055586Y-82258072D01*
X88011859Y-82318256D01*
X87953768Y-82398211D01*
X87875128Y-82552552D01*
X87821597Y-82717302D01*
X87794500Y-82888389D01*
X81105500Y-82888389D01*
X81078402Y-82717299D01*
X81024873Y-82552555D01*
X80946232Y-82398212D01*
X80844414Y-82258072D01*
X80721928Y-82135586D01*
X80581788Y-82033768D01*
X80427445Y-81955127D01*
X80262701Y-81901598D01*
X80262699Y-81901597D01*
X80262698Y-81901597D01*
X80131271Y-81880781D01*
X80091611Y-81874500D01*
X79918389Y-81874500D01*
X79878728Y-81880781D01*
X79747302Y-81901597D01*
X79582552Y-81955128D01*
X79428211Y-82033768D01*
X79348256Y-82091859D01*
X79288072Y-82135586D01*
X79288070Y-82135588D01*
X79288069Y-82135588D01*
X79165588Y-82258069D01*
X79165588Y-82258070D01*
X79165586Y-82258072D01*
X79121859Y-82318256D01*
X79063768Y-82398211D01*
X78985128Y-82552552D01*
X78931597Y-82717302D01*
X78904500Y-82888389D01*
X77175500Y-82888389D01*
X77175500Y-82827494D01*
X77136993Y-82535007D01*
X77060639Y-82250048D01*
X76947743Y-81977493D01*
X76874010Y-81849784D01*
X76800238Y-81722006D01*
X76620647Y-81487959D01*
X76620641Y-81487952D01*
X76412047Y-81279358D01*
X76412040Y-81279352D01*
X76177993Y-81099761D01*
X75922510Y-80952258D01*
X75922500Y-80952254D01*
X75649961Y-80839364D01*
X75649954Y-80839362D01*
X75649952Y-80839361D01*
X75364993Y-80763007D01*
X75316113Y-80756571D01*
X75072513Y-80724500D01*
X75072506Y-80724500D01*
X74777494Y-80724500D01*
X74777486Y-80724500D01*
X74499085Y-80761153D01*
X74485007Y-80763007D01*
X74200048Y-80839361D01*
X74200038Y-80839364D01*
X73927499Y-80952254D01*
X73927489Y-80952258D01*
X73672006Y-81099761D01*
X73437959Y-81279352D01*
X73437952Y-81279358D01*
X73229358Y-81487952D01*
X73229352Y-81487959D01*
X73049761Y-81722006D01*
X72902258Y-81977489D01*
X72902254Y-81977499D01*
X72789364Y-82250038D01*
X72789361Y-82250048D01*
X72713008Y-82535004D01*
X72713006Y-82535015D01*
X72674500Y-82827486D01*
X70935854Y-82827486D01*
X70918402Y-82717299D01*
X70864873Y-82552555D01*
X70786232Y-82398212D01*
X70684414Y-82258072D01*
X70561928Y-82135586D01*
X70421788Y-82033768D01*
X70267445Y-81955127D01*
X70102701Y-81901598D01*
X70102699Y-81901597D01*
X70102698Y-81901597D01*
X69971271Y-81880781D01*
X69931611Y-81874500D01*
X69758389Y-81874500D01*
X69718728Y-81880781D01*
X69587302Y-81901597D01*
X69422552Y-81955128D01*
X69268211Y-82033768D01*
X69188256Y-82091859D01*
X69128072Y-82135586D01*
X69128070Y-82135588D01*
X69128069Y-82135588D01*
X69005588Y-82258069D01*
X69005588Y-82258070D01*
X69005586Y-82258072D01*
X68961859Y-82318256D01*
X68903768Y-82398211D01*
X68825128Y-82552552D01*
X68771597Y-82717302D01*
X68744500Y-82888389D01*
X55000500Y-82888389D01*
X55000500Y-80320837D01*
X69664500Y-80320837D01*
X69664500Y-80549162D01*
X69700215Y-80774660D01*
X69770770Y-80991803D01*
X69874421Y-81195228D01*
X70008621Y-81379937D01*
X70170063Y-81541379D01*
X70354772Y-81675579D01*
X70445890Y-81722006D01*
X70558196Y-81779229D01*
X70558198Y-81779229D01*
X70558201Y-81779231D01*
X70674592Y-81817049D01*
X70775339Y-81849784D01*
X71000838Y-81885500D01*
X71000843Y-81885500D01*
X71229162Y-81885500D01*
X71454660Y-81849784D01*
X71671799Y-81779231D01*
X71875228Y-81675579D01*
X72059937Y-81541379D01*
X72221379Y-81379937D01*
X72355579Y-81195228D01*
X72459231Y-80991799D01*
X72529784Y-80774660D01*
X72565500Y-80549162D01*
X72565500Y-80320837D01*
X88714500Y-80320837D01*
X88714500Y-80549162D01*
X88750215Y-80774660D01*
X88820770Y-80991803D01*
X88924421Y-81195228D01*
X89058621Y-81379937D01*
X89220063Y-81541379D01*
X89404772Y-81675579D01*
X89495890Y-81722006D01*
X89608196Y-81779229D01*
X89608198Y-81779229D01*
X89608201Y-81779231D01*
X89724592Y-81817049D01*
X89825339Y-81849784D01*
X90050838Y-81885500D01*
X90050843Y-81885500D01*
X90279162Y-81885500D01*
X90504660Y-81849784D01*
X90721799Y-81779231D01*
X90925228Y-81675579D01*
X91109937Y-81541379D01*
X91271379Y-81379937D01*
X91405579Y-81195228D01*
X91509231Y-80991799D01*
X91579784Y-80774660D01*
X91615500Y-80549162D01*
X91615500Y-80320837D01*
X107764500Y-80320837D01*
X107764500Y-80549162D01*
X107800215Y-80774660D01*
X107870770Y-80991803D01*
X107974421Y-81195228D01*
X108108621Y-81379937D01*
X108270063Y-81541379D01*
X108454772Y-81675579D01*
X108545890Y-81722006D01*
X108658196Y-81779229D01*
X108658198Y-81779229D01*
X108658201Y-81779231D01*
X108774592Y-81817049D01*
X108875339Y-81849784D01*
X109100838Y-81885500D01*
X109100843Y-81885500D01*
X109329162Y-81885500D01*
X109554660Y-81849784D01*
X109771799Y-81779231D01*
X109975228Y-81675579D01*
X110159937Y-81541379D01*
X110321379Y-81379937D01*
X110455579Y-81195228D01*
X110559231Y-80991799D01*
X110629784Y-80774660D01*
X110665500Y-80549162D01*
X110665500Y-80320837D01*
X126814500Y-80320837D01*
X126814500Y-80549162D01*
X126850215Y-80774660D01*
X126920770Y-80991803D01*
X127024421Y-81195228D01*
X127158621Y-81379937D01*
X127320063Y-81541379D01*
X127504772Y-81675579D01*
X127595890Y-81722006D01*
X127708196Y-81779229D01*
X127708198Y-81779229D01*
X127708201Y-81779231D01*
X127824592Y-81817049D01*
X127925339Y-81849784D01*
X128150838Y-81885500D01*
X128150843Y-81885500D01*
X128379162Y-81885500D01*
X128604660Y-81849784D01*
X128821799Y-81779231D01*
X129025228Y-81675579D01*
X129209937Y-81541379D01*
X129371379Y-81379937D01*
X129505579Y-81195228D01*
X129609231Y-80991799D01*
X129679784Y-80774660D01*
X129715500Y-80549162D01*
X129715500Y-80320837D01*
X129679784Y-80095339D01*
X129609229Y-79878196D01*
X129505578Y-79674771D01*
X129371379Y-79490063D01*
X129209937Y-79328621D01*
X129025228Y-79194421D01*
X128821803Y-79090770D01*
X128604660Y-79020215D01*
X128379162Y-78984500D01*
X128379157Y-78984500D01*
X128150843Y-78984500D01*
X128150838Y-78984500D01*
X127925339Y-79020215D01*
X127708196Y-79090770D01*
X127504771Y-79194421D01*
X127320061Y-79328622D01*
X127158622Y-79490061D01*
X127024421Y-79674771D01*
X126920770Y-79878196D01*
X126850215Y-80095339D01*
X126814500Y-80320837D01*
X110665500Y-80320837D01*
X110629784Y-80095339D01*
X110559229Y-79878196D01*
X110455578Y-79674771D01*
X110321379Y-79490063D01*
X110159937Y-79328621D01*
X109975228Y-79194421D01*
X109771803Y-79090770D01*
X109554660Y-79020215D01*
X109329162Y-78984500D01*
X109329157Y-78984500D01*
X109100843Y-78984500D01*
X109100838Y-78984500D01*
X108875339Y-79020215D01*
X108658196Y-79090770D01*
X108454771Y-79194421D01*
X108270061Y-79328622D01*
X108108622Y-79490061D01*
X107974421Y-79674771D01*
X107870770Y-79878196D01*
X107800215Y-80095339D01*
X107764500Y-80320837D01*
X91615500Y-80320837D01*
X91579784Y-80095339D01*
X91509229Y-79878196D01*
X91405578Y-79674771D01*
X91271379Y-79490063D01*
X91109937Y-79328621D01*
X90925228Y-79194421D01*
X90721803Y-79090770D01*
X90504660Y-79020215D01*
X90279162Y-78984500D01*
X90279157Y-78984500D01*
X90050843Y-78984500D01*
X90050838Y-78984500D01*
X89825339Y-79020215D01*
X89608196Y-79090770D01*
X89404771Y-79194421D01*
X89220061Y-79328622D01*
X89058622Y-79490061D01*
X88924421Y-79674771D01*
X88820770Y-79878196D01*
X88750215Y-80095339D01*
X88714500Y-80320837D01*
X72565500Y-80320837D01*
X72529784Y-80095339D01*
X72459229Y-79878196D01*
X72355578Y-79674771D01*
X72221379Y-79490063D01*
X72059937Y-79328621D01*
X71875228Y-79194421D01*
X71671803Y-79090770D01*
X71454660Y-79020215D01*
X71229162Y-78984500D01*
X71229157Y-78984500D01*
X71000843Y-78984500D01*
X71000838Y-78984500D01*
X70775339Y-79020215D01*
X70558196Y-79090770D01*
X70354771Y-79194421D01*
X70170061Y-79328622D01*
X70008622Y-79490061D01*
X69874421Y-79674771D01*
X69770770Y-79878196D01*
X69700215Y-80095339D01*
X69664500Y-80320837D01*
X55000500Y-80320837D01*
X55000500Y-77796617D01*
X76215000Y-77796617D01*
X76215000Y-77993382D01*
X76245778Y-78187705D01*
X76306581Y-78374835D01*
X76395904Y-78550143D01*
X76511555Y-78709321D01*
X76650678Y-78848444D01*
X76809856Y-78964095D01*
X76985164Y-79053418D01*
X77172294Y-79114221D01*
X77366618Y-79145000D01*
X77563382Y-79145000D01*
X77757705Y-79114221D01*
X77944835Y-79053418D01*
X78120143Y-78964095D01*
X78279321Y-78848444D01*
X78418444Y-78709321D01*
X78534095Y-78550143D01*
X78623418Y-78374835D01*
X78684221Y-78187705D01*
X78715000Y-77993382D01*
X78715000Y-77796617D01*
X95265000Y-77796617D01*
X95265000Y-77993382D01*
X95295778Y-78187705D01*
X95356581Y-78374835D01*
X95445904Y-78550143D01*
X95561555Y-78709321D01*
X95700678Y-78848444D01*
X95859856Y-78964095D01*
X96035164Y-79053418D01*
X96222294Y-79114221D01*
X96416618Y-79145000D01*
X96613382Y-79145000D01*
X96807705Y-79114221D01*
X96994835Y-79053418D01*
X97170143Y-78964095D01*
X97329321Y-78848444D01*
X97468444Y-78709321D01*
X97584095Y-78550143D01*
X97673418Y-78374835D01*
X97734221Y-78187705D01*
X97765000Y-77993382D01*
X97765000Y-77796617D01*
X114315000Y-77796617D01*
X114315000Y-77993382D01*
X114345778Y-78187705D01*
X114406581Y-78374835D01*
X114495904Y-78550143D01*
X114611555Y-78709321D01*
X114750678Y-78848444D01*
X114909856Y-78964095D01*
X115085164Y-79053418D01*
X115272294Y-79114221D01*
X115466618Y-79145000D01*
X115663382Y-79145000D01*
X115857705Y-79114221D01*
X116044835Y-79053418D01*
X116220143Y-78964095D01*
X116379321Y-78848444D01*
X116518444Y-78709321D01*
X116634095Y-78550143D01*
X116723418Y-78374835D01*
X116784221Y-78187705D01*
X116815000Y-77993382D01*
X116815000Y-77796617D01*
X133365000Y-77796617D01*
X133365000Y-77993382D01*
X133395778Y-78187705D01*
X133456581Y-78374835D01*
X133545904Y-78550143D01*
X133661555Y-78709321D01*
X133800678Y-78848444D01*
X133959856Y-78964095D01*
X134135164Y-79053418D01*
X134322294Y-79114221D01*
X134516618Y-79145000D01*
X134713382Y-79145000D01*
X134907705Y-79114221D01*
X135094835Y-79053418D01*
X135270143Y-78964095D01*
X135429321Y-78848444D01*
X135568444Y-78709321D01*
X135684095Y-78550143D01*
X135773418Y-78374835D01*
X135834221Y-78187705D01*
X135865000Y-77993382D01*
X135865000Y-77796617D01*
X135834221Y-77602294D01*
X135773418Y-77415164D01*
X135684095Y-77239856D01*
X135568444Y-77080678D01*
X135429321Y-76941555D01*
X135270143Y-76825904D01*
X135094835Y-76736581D01*
X134907705Y-76675778D01*
X134713382Y-76645000D01*
X134516618Y-76645000D01*
X134322294Y-76675778D01*
X134135164Y-76736581D01*
X133959856Y-76825904D01*
X133800678Y-76941555D01*
X133661555Y-77080678D01*
X133545904Y-77239856D01*
X133456581Y-77415164D01*
X133395778Y-77602294D01*
X133365000Y-77796617D01*
X116815000Y-77796617D01*
X116784221Y-77602294D01*
X116723418Y-77415164D01*
X116634095Y-77239856D01*
X116518444Y-77080678D01*
X116379321Y-76941555D01*
X116220143Y-76825904D01*
X116044835Y-76736581D01*
X115857705Y-76675778D01*
X115663382Y-76645000D01*
X115466618Y-76645000D01*
X115272294Y-76675778D01*
X115085164Y-76736581D01*
X114909856Y-76825904D01*
X114750678Y-76941555D01*
X114611555Y-77080678D01*
X114495904Y-77239856D01*
X114406581Y-77415164D01*
X114345778Y-77602294D01*
X114315000Y-77796617D01*
X97765000Y-77796617D01*
X97734221Y-77602294D01*
X97673418Y-77415164D01*
X97584095Y-77239856D01*
X97468444Y-77080678D01*
X97329321Y-76941555D01*
X97170142Y-76825903D01*
X97165027Y-76823297D01*
X97114233Y-76775320D01*
X97097440Y-76707499D01*
X97106764Y-76665364D01*
X97163973Y-76527251D01*
X97200500Y-76343616D01*
X97200500Y-76176126D01*
X103000000Y-76176126D01*
X103000000Y-76323873D01*
X103028820Y-76468759D01*
X103028822Y-76468767D01*
X103085357Y-76605254D01*
X103085362Y-76605264D01*
X103167436Y-76728096D01*
X103167439Y-76728100D01*
X103271899Y-76832560D01*
X103271903Y-76832563D01*
X103394735Y-76914637D01*
X103394745Y-76914642D01*
X103531232Y-76971177D01*
X103531240Y-76971179D01*
X103676126Y-76999999D01*
X103676129Y-77000000D01*
X103823871Y-77000000D01*
X103823873Y-76999999D01*
X103968759Y-76971179D01*
X103968767Y-76971177D01*
X104105254Y-76914642D01*
X104105264Y-76914637D01*
X104228096Y-76832563D01*
X104228100Y-76832560D01*
X104332560Y-76728100D01*
X104332563Y-76728096D01*
X104414637Y-76605264D01*
X104414642Y-76605254D01*
X104471177Y-76468767D01*
X104471179Y-76468759D01*
X104499999Y-76323873D01*
X104500000Y-76323871D01*
X104500000Y-76176131D01*
X104499672Y-76174482D01*
X104499672Y-76174479D01*
X104496072Y-76156379D01*
X107299500Y-76156379D01*
X107299500Y-76343620D01*
X107336025Y-76527243D01*
X107336027Y-76527251D01*
X107407676Y-76700228D01*
X107407681Y-76700237D01*
X107511697Y-76855907D01*
X107511700Y-76855911D01*
X107644088Y-76988299D01*
X107644092Y-76988302D01*
X107799762Y-77092318D01*
X107799768Y-77092321D01*
X107799769Y-77092322D01*
X107972749Y-77163973D01*
X108156379Y-77200499D01*
X108156383Y-77200500D01*
X108156384Y-77200500D01*
X108343617Y-77200500D01*
X108343618Y-77200499D01*
X108527251Y-77163973D01*
X108700231Y-77092322D01*
X108855908Y-76988302D01*
X108988302Y-76855908D01*
X109092322Y-76700231D01*
X109163973Y-76527251D01*
X109200500Y-76343616D01*
X109200500Y-76156384D01*
X109163973Y-75972749D01*
X109092322Y-75799769D01*
X109092321Y-75799768D01*
X109092318Y-75799762D01*
X108988302Y-75644092D01*
X108988299Y-75644088D01*
X108855911Y-75511700D01*
X108855907Y-75511697D01*
X108700237Y-75407681D01*
X108700228Y-75407676D01*
X108527251Y-75336027D01*
X108527243Y-75336025D01*
X108343620Y-75299500D01*
X108343616Y-75299500D01*
X108156384Y-75299500D01*
X108156379Y-75299500D01*
X107972756Y-75336025D01*
X107972748Y-75336027D01*
X107799771Y-75407676D01*
X107799762Y-75407681D01*
X107644092Y-75511697D01*
X107644088Y-75511700D01*
X107511700Y-75644088D01*
X107511697Y-75644092D01*
X107407681Y-75799762D01*
X107407676Y-75799771D01*
X107336027Y-75972748D01*
X107336025Y-75972756D01*
X107299500Y-76156379D01*
X104496072Y-76156379D01*
X104471179Y-76031240D01*
X104471177Y-76031232D01*
X104414642Y-75894745D01*
X104414637Y-75894735D01*
X104332563Y-75771903D01*
X104332560Y-75771899D01*
X104228100Y-75667439D01*
X104228096Y-75667436D01*
X104105264Y-75585362D01*
X104105254Y-75585357D01*
X103968767Y-75528822D01*
X103968759Y-75528820D01*
X103823872Y-75500000D01*
X103676128Y-75500000D01*
X103531240Y-75528820D01*
X103531232Y-75528822D01*
X103394745Y-75585357D01*
X103394735Y-75585362D01*
X103271903Y-75667436D01*
X103271899Y-75667439D01*
X103167439Y-75771899D01*
X103167436Y-75771903D01*
X103085362Y-75894735D01*
X103085357Y-75894745D01*
X103028822Y-76031232D01*
X103028820Y-76031240D01*
X103000000Y-76176126D01*
X97200500Y-76176126D01*
X97200500Y-76156384D01*
X97163973Y-75972749D01*
X97092322Y-75799769D01*
X97092321Y-75799768D01*
X97092318Y-75799762D01*
X96988302Y-75644092D01*
X96988299Y-75644088D01*
X96855911Y-75511700D01*
X96855907Y-75511697D01*
X96700237Y-75407681D01*
X96700228Y-75407676D01*
X96527251Y-75336027D01*
X96527243Y-75336025D01*
X96343620Y-75299500D01*
X96343616Y-75299500D01*
X96156384Y-75299500D01*
X96156379Y-75299500D01*
X95972756Y-75336025D01*
X95972748Y-75336027D01*
X95799771Y-75407676D01*
X95799762Y-75407681D01*
X95644092Y-75511697D01*
X95644088Y-75511700D01*
X95511700Y-75644088D01*
X95511697Y-75644092D01*
X95407681Y-75799762D01*
X95407676Y-75799771D01*
X95336027Y-75972748D01*
X95336025Y-75972756D01*
X95299500Y-76156379D01*
X95299500Y-76343620D01*
X95336025Y-76527243D01*
X95336027Y-76527251D01*
X95407676Y-76700228D01*
X95407681Y-76700237D01*
X95511697Y-76855907D01*
X95511700Y-76855911D01*
X95561330Y-76905541D01*
X95594815Y-76966864D01*
X95589831Y-77036556D01*
X95564163Y-77076502D01*
X95564718Y-77076976D01*
X95561555Y-77080678D01*
X95445904Y-77239856D01*
X95356581Y-77415164D01*
X95295778Y-77602294D01*
X95265000Y-77796617D01*
X78715000Y-77796617D01*
X78684221Y-77602294D01*
X78623418Y-77415164D01*
X78534095Y-77239856D01*
X78418444Y-77080678D01*
X78279321Y-76941555D01*
X78120143Y-76825904D01*
X77944835Y-76736581D01*
X77757705Y-76675778D01*
X77563382Y-76645000D01*
X77366618Y-76645000D01*
X77172294Y-76675778D01*
X76985164Y-76736581D01*
X76809856Y-76825904D01*
X76650678Y-76941555D01*
X76511555Y-77080678D01*
X76395904Y-77239856D01*
X76306581Y-77415164D01*
X76245778Y-77602294D01*
X76215000Y-77796617D01*
X55000500Y-77796617D01*
X55000500Y-76176126D01*
X91000000Y-76176126D01*
X91000000Y-76323873D01*
X91028820Y-76468759D01*
X91028822Y-76468767D01*
X91085357Y-76605254D01*
X91085362Y-76605264D01*
X91167436Y-76728096D01*
X91167439Y-76728100D01*
X91271899Y-76832560D01*
X91271903Y-76832563D01*
X91394735Y-76914637D01*
X91394745Y-76914642D01*
X91531232Y-76971177D01*
X91531240Y-76971179D01*
X91676126Y-76999999D01*
X91676129Y-77000000D01*
X91823871Y-77000000D01*
X91823873Y-76999999D01*
X91968759Y-76971179D01*
X91968767Y-76971177D01*
X92105254Y-76914642D01*
X92105264Y-76914637D01*
X92228096Y-76832563D01*
X92228100Y-76832560D01*
X92332560Y-76728100D01*
X92332563Y-76728096D01*
X92414637Y-76605264D01*
X92414642Y-76605254D01*
X92471177Y-76468767D01*
X92471179Y-76468759D01*
X92499999Y-76323873D01*
X92500000Y-76323871D01*
X92500000Y-76176128D01*
X92499999Y-76176126D01*
X92471179Y-76031240D01*
X92471177Y-76031232D01*
X92414642Y-75894745D01*
X92414637Y-75894735D01*
X92332563Y-75771903D01*
X92332560Y-75771899D01*
X92228100Y-75667439D01*
X92228096Y-75667436D01*
X92105264Y-75585362D01*
X92105254Y-75585357D01*
X91968767Y-75528822D01*
X91968759Y-75528820D01*
X91823872Y-75500000D01*
X91676128Y-75500000D01*
X91531240Y-75528820D01*
X91531232Y-75528822D01*
X91394745Y-75585357D01*
X91394735Y-75585362D01*
X91271903Y-75667436D01*
X91271899Y-75667439D01*
X91167439Y-75771899D01*
X91167436Y-75771903D01*
X91085362Y-75894735D01*
X91085357Y-75894745D01*
X91028822Y-76031232D01*
X91028820Y-76031240D01*
X91000000Y-76176126D01*
X55000500Y-76176126D01*
X55000500Y-73245408D01*
X68490100Y-73245408D01*
X68490100Y-73377191D01*
X68524208Y-73504487D01*
X68557154Y-73561550D01*
X68590100Y-73618614D01*
X68683286Y-73711800D01*
X68797414Y-73777692D01*
X68924708Y-73811800D01*
X68924710Y-73811800D01*
X69056490Y-73811800D01*
X69056492Y-73811800D01*
X69183786Y-73777692D01*
X69297914Y-73711800D01*
X69391100Y-73618614D01*
X69456992Y-73504486D01*
X69491100Y-73377192D01*
X69491100Y-73245408D01*
X69456992Y-73118114D01*
X69391100Y-73003986D01*
X69297914Y-72910800D01*
X69240850Y-72877854D01*
X69183787Y-72844908D01*
X69120139Y-72827854D01*
X69056492Y-72810800D01*
X68924708Y-72810800D01*
X68797412Y-72844908D01*
X68683286Y-72910800D01*
X68683283Y-72910802D01*
X68590102Y-73003983D01*
X68590100Y-73003986D01*
X68524208Y-73118112D01*
X68490100Y-73245408D01*
X55000500Y-73245408D01*
X55000500Y-68885837D01*
X56049500Y-68885837D01*
X56049500Y-69114162D01*
X56085215Y-69339660D01*
X56155770Y-69556803D01*
X56259421Y-69760228D01*
X56393621Y-69944937D01*
X56555063Y-70106379D01*
X56739772Y-70240579D01*
X56835884Y-70289550D01*
X56943196Y-70344229D01*
X56943198Y-70344229D01*
X56943201Y-70344231D01*
X57059592Y-70382049D01*
X57160339Y-70414784D01*
X57385838Y-70450500D01*
X57385843Y-70450500D01*
X57614162Y-70450500D01*
X57839660Y-70414784D01*
X58056799Y-70344231D01*
X58260228Y-70240579D01*
X58444937Y-70106379D01*
X58606379Y-69944937D01*
X58740579Y-69760228D01*
X58793493Y-69656379D01*
X90799500Y-69656379D01*
X90799500Y-69843620D01*
X90836025Y-70027243D01*
X90836027Y-70027251D01*
X90907676Y-70200228D01*
X90907681Y-70200237D01*
X91011697Y-70355907D01*
X91011700Y-70355911D01*
X91144088Y-70488299D01*
X91144092Y-70488302D01*
X91299762Y-70592318D01*
X91299768Y-70592321D01*
X91299769Y-70592322D01*
X91472749Y-70663973D01*
X91656379Y-70700499D01*
X91656383Y-70700500D01*
X91656384Y-70700500D01*
X91843617Y-70700500D01*
X91843618Y-70700499D01*
X92027251Y-70663973D01*
X92200231Y-70592322D01*
X92355908Y-70488302D01*
X92488302Y-70355908D01*
X92592322Y-70200231D01*
X92663973Y-70027251D01*
X92700500Y-69843616D01*
X92700500Y-69656384D01*
X92700499Y-69656379D01*
X95299500Y-69656379D01*
X95299500Y-69843620D01*
X95336025Y-70027243D01*
X95336027Y-70027251D01*
X95407676Y-70200228D01*
X95407681Y-70200237D01*
X95511697Y-70355907D01*
X95511700Y-70355911D01*
X95644088Y-70488299D01*
X95644092Y-70488302D01*
X95799762Y-70592318D01*
X95799768Y-70592321D01*
X95799769Y-70592322D01*
X95972749Y-70663973D01*
X96156379Y-70700499D01*
X96156383Y-70700500D01*
X96156384Y-70700500D01*
X96343617Y-70700500D01*
X96343618Y-70700499D01*
X96527251Y-70663973D01*
X96700231Y-70592322D01*
X96855908Y-70488302D01*
X96988302Y-70355908D01*
X97092322Y-70200231D01*
X97163973Y-70027251D01*
X97200500Y-69843616D01*
X97200500Y-69656384D01*
X97200499Y-69656379D01*
X102799500Y-69656379D01*
X102799500Y-69843620D01*
X102836025Y-70027243D01*
X102836027Y-70027251D01*
X102907676Y-70200228D01*
X102907681Y-70200237D01*
X103011697Y-70355907D01*
X103011700Y-70355911D01*
X103144088Y-70488299D01*
X103144092Y-70488302D01*
X103299762Y-70592318D01*
X103299768Y-70592321D01*
X103299769Y-70592322D01*
X103472749Y-70663973D01*
X103656379Y-70700499D01*
X103656383Y-70700500D01*
X103656384Y-70700500D01*
X103843617Y-70700500D01*
X103843618Y-70700499D01*
X104027251Y-70663973D01*
X104200231Y-70592322D01*
X104355908Y-70488302D01*
X104488302Y-70355908D01*
X104592322Y-70200231D01*
X104663973Y-70027251D01*
X104700500Y-69843616D01*
X104700500Y-69656384D01*
X104700499Y-69656379D01*
X107299500Y-69656379D01*
X107299500Y-69843620D01*
X107336025Y-70027243D01*
X107336027Y-70027251D01*
X107407676Y-70200228D01*
X107407681Y-70200237D01*
X107511697Y-70355907D01*
X107511700Y-70355911D01*
X107644088Y-70488299D01*
X107644092Y-70488302D01*
X107799762Y-70592318D01*
X107799768Y-70592321D01*
X107799769Y-70592322D01*
X107972749Y-70663973D01*
X108156379Y-70700499D01*
X108156383Y-70700500D01*
X108156384Y-70700500D01*
X108343617Y-70700500D01*
X108343618Y-70700499D01*
X108527251Y-70663973D01*
X108700231Y-70592322D01*
X108855908Y-70488302D01*
X108988302Y-70355908D01*
X109092322Y-70200231D01*
X109163973Y-70027251D01*
X109200500Y-69843616D01*
X109200500Y-69656384D01*
X109163973Y-69472749D01*
X109092322Y-69299769D01*
X109092321Y-69299768D01*
X109092318Y-69299762D01*
X108988302Y-69144092D01*
X108988299Y-69144088D01*
X108855911Y-69011700D01*
X108855907Y-69011697D01*
X108814565Y-68984073D01*
X108700237Y-68907681D01*
X108700228Y-68907676D01*
X108647504Y-68885837D01*
X141049500Y-68885837D01*
X141049500Y-69114162D01*
X141085215Y-69339660D01*
X141155770Y-69556803D01*
X141259421Y-69760228D01*
X141393621Y-69944937D01*
X141555063Y-70106379D01*
X141739772Y-70240579D01*
X141835884Y-70289550D01*
X141943196Y-70344229D01*
X141943198Y-70344229D01*
X141943201Y-70344231D01*
X142059592Y-70382049D01*
X142160339Y-70414784D01*
X142385838Y-70450500D01*
X142385843Y-70450500D01*
X142614162Y-70450500D01*
X142839660Y-70414784D01*
X143056799Y-70344231D01*
X143260228Y-70240579D01*
X143444937Y-70106379D01*
X143606379Y-69944937D01*
X143740579Y-69760228D01*
X143844231Y-69556799D01*
X143914784Y-69339660D01*
X143945759Y-69144092D01*
X143950500Y-69114162D01*
X143950500Y-68885837D01*
X143914784Y-68660339D01*
X143844229Y-68443196D01*
X143740578Y-68239771D01*
X143606379Y-68055063D01*
X143444937Y-67893621D01*
X143260228Y-67759421D01*
X143056803Y-67655770D01*
X142839660Y-67585215D01*
X142614162Y-67549500D01*
X142614157Y-67549500D01*
X142385843Y-67549500D01*
X142385838Y-67549500D01*
X142160339Y-67585215D01*
X141943196Y-67655770D01*
X141739771Y-67759421D01*
X141555061Y-67893622D01*
X141393622Y-68055061D01*
X141259421Y-68239771D01*
X141155770Y-68443196D01*
X141085215Y-68660339D01*
X141049500Y-68885837D01*
X108647504Y-68885837D01*
X108527251Y-68836027D01*
X108527243Y-68836025D01*
X108343620Y-68799500D01*
X108343616Y-68799500D01*
X108156384Y-68799500D01*
X108156379Y-68799500D01*
X107972756Y-68836025D01*
X107972748Y-68836027D01*
X107799771Y-68907676D01*
X107799762Y-68907681D01*
X107644092Y-69011697D01*
X107644088Y-69011700D01*
X107511700Y-69144088D01*
X107511697Y-69144092D01*
X107407681Y-69299762D01*
X107407676Y-69299771D01*
X107336027Y-69472748D01*
X107336025Y-69472756D01*
X107299500Y-69656379D01*
X104700499Y-69656379D01*
X104663973Y-69472749D01*
X104592322Y-69299769D01*
X104592321Y-69299768D01*
X104592318Y-69299762D01*
X104488302Y-69144092D01*
X104488299Y-69144088D01*
X104355911Y-69011700D01*
X104355907Y-69011697D01*
X104200237Y-68907681D01*
X104200228Y-68907676D01*
X104027251Y-68836027D01*
X104027243Y-68836025D01*
X103843620Y-68799500D01*
X103843616Y-68799500D01*
X103656384Y-68799500D01*
X103656379Y-68799500D01*
X103472756Y-68836025D01*
X103472748Y-68836027D01*
X103299771Y-68907676D01*
X103299762Y-68907681D01*
X103144092Y-69011697D01*
X103144088Y-69011700D01*
X103011700Y-69144088D01*
X103011697Y-69144092D01*
X102907681Y-69299762D01*
X102907676Y-69299771D01*
X102836027Y-69472748D01*
X102836025Y-69472756D01*
X102799500Y-69656379D01*
X97200499Y-69656379D01*
X97163973Y-69472749D01*
X97092322Y-69299769D01*
X97092321Y-69299768D01*
X97092318Y-69299762D01*
X96988302Y-69144092D01*
X96988299Y-69144088D01*
X96855911Y-69011700D01*
X96855907Y-69011697D01*
X96700237Y-68907681D01*
X96700228Y-68907676D01*
X96527251Y-68836027D01*
X96527243Y-68836025D01*
X96343620Y-68799500D01*
X96343616Y-68799500D01*
X96156384Y-68799500D01*
X96156379Y-68799500D01*
X95972756Y-68836025D01*
X95972748Y-68836027D01*
X95799771Y-68907676D01*
X95799762Y-68907681D01*
X95644092Y-69011697D01*
X95644088Y-69011700D01*
X95511700Y-69144088D01*
X95511697Y-69144092D01*
X95407681Y-69299762D01*
X95407676Y-69299771D01*
X95336027Y-69472748D01*
X95336025Y-69472756D01*
X95299500Y-69656379D01*
X92700499Y-69656379D01*
X92663973Y-69472749D01*
X92592322Y-69299769D01*
X92592321Y-69299768D01*
X92592318Y-69299762D01*
X92488302Y-69144092D01*
X92488299Y-69144088D01*
X92355911Y-69011700D01*
X92355907Y-69011697D01*
X92200237Y-68907681D01*
X92200228Y-68907676D01*
X92027251Y-68836027D01*
X92027243Y-68836025D01*
X91843620Y-68799500D01*
X91843616Y-68799500D01*
X91656384Y-68799500D01*
X91656379Y-68799500D01*
X91472756Y-68836025D01*
X91472748Y-68836027D01*
X91299771Y-68907676D01*
X91299762Y-68907681D01*
X91144092Y-69011697D01*
X91144088Y-69011700D01*
X91011700Y-69144088D01*
X91011697Y-69144092D01*
X90907681Y-69299762D01*
X90907676Y-69299771D01*
X90836027Y-69472748D01*
X90836025Y-69472756D01*
X90799500Y-69656379D01*
X58793493Y-69656379D01*
X58825279Y-69593995D01*
X58844228Y-69556806D01*
X58844228Y-69556802D01*
X58844231Y-69556799D01*
X58914784Y-69339660D01*
X58945759Y-69144092D01*
X58950500Y-69114162D01*
X58950500Y-68885837D01*
X58914784Y-68660339D01*
X58844229Y-68443196D01*
X58740578Y-68239771D01*
X58606379Y-68055063D01*
X58444937Y-67893621D01*
X58260228Y-67759421D01*
X58056803Y-67655770D01*
X57839660Y-67585215D01*
X57614162Y-67549500D01*
X57614157Y-67549500D01*
X57385843Y-67549500D01*
X57385838Y-67549500D01*
X57160339Y-67585215D01*
X56943196Y-67655770D01*
X56739771Y-67759421D01*
X56555061Y-67893622D01*
X56393622Y-68055061D01*
X56259421Y-68239771D01*
X56155770Y-68443196D01*
X56085215Y-68660339D01*
X56049500Y-68885837D01*
X55000500Y-68885837D01*
X55000500Y-66624500D01*
X55020185Y-66557461D01*
X55072989Y-66511706D01*
X55124500Y-66500500D01*
X144875500Y-66500500D01*
X144942539Y-66520185D01*
G37*
%TD.AperFunction*%
%TD*%
M02*
