%TF.GenerationSoftware,KiCad,Pcbnew,9.0.3+dfsg-1*%
%TF.CreationDate,2026-06-30T18:49:31-07:00*%
%TF.ProjectId,index.circuit,696e6465-782e-4636-9972-637569742e6b,rev?*%
%TF.SameCoordinates,Original*%
%TF.FileFunction,Other,User*%
%FSLAX46Y46*%
G04 Gerber Fmt 4.6, Leading zero omitted, Abs format (unit mm)*
G04 Created by KiCad (PCBNEW 9.0.3+dfsg-1) date 2026-06-30 18:49:31*
%MOMM*%
%LPD*%
G01*
G04 APERTURE LIST*
%ADD10C,0.050000*%
G04 APERTURE END LIST*
%TO.C,C_LED*%
D10*
X57320000Y-110050000D02*
X60680000Y-110050000D01*
X60680000Y-111950000D01*
X57320000Y-111950000D01*
X57320000Y-110050000D01*
%TO.C,U3*%
X129697546Y-131104200D02*
X125844746Y-131104200D01*
X125844746Y-126895800D01*
X129697546Y-126895800D01*
X129697546Y-131104200D01*
%TO.C,D1*%
X62450781Y-108766886D02*
X55549981Y-108766886D01*
X55549981Y-103161486D01*
X62450781Y-103161486D01*
X62450781Y-108766886D01*
%TO.C,J1*%
X105180394Y-134650999D02*
X94825194Y-134650999D01*
X94825194Y-125921399D01*
X105180394Y-125921399D01*
X105180394Y-134650999D01*
%TO.C,C_IN*%
X122320000Y-127050000D02*
X125680000Y-127050000D01*
X125680000Y-128950000D01*
X122320000Y-128950000D01*
X122320000Y-127050000D01*
%TO.C,C_OUT*%
X131320000Y-128050000D02*
X134680000Y-128050000D01*
X134680000Y-129950000D01*
X131320000Y-129950000D01*
X131320000Y-128050000D01*
%TO.C,SW_RST*%
X102500000Y-68500000D02*
X109500000Y-68500000D01*
X109500000Y-77500000D01*
X102500000Y-77500000D01*
X102500000Y-68500000D01*
%TO.C,J_THUMB*%
X58230000Y-100850000D02*
X61770000Y-100850000D01*
X61770000Y-87150000D01*
X58230000Y-87150000D01*
X58230000Y-100850000D01*
%TO.C,Y1*%
X66282000Y-124154873D02*
X61489400Y-124154873D01*
X61489400Y-120073473D01*
X66282000Y-120073473D01*
X66282000Y-124154873D01*
%TO.C,SW_BOOT*%
X90500000Y-68500000D02*
X97500000Y-68500000D01*
X97500000Y-77500000D01*
X90500000Y-77500000D01*
X90500000Y-68500000D01*
%TO.C,U1*%
X80109022Y-126097592D02*
X71912822Y-126097592D01*
X71912822Y-117621992D01*
X80109022Y-117621992D01*
X80109022Y-126097592D01*
%TO.C,U2*%
X90891600Y-126745800D02*
X84930600Y-126745800D01*
X84930600Y-117406600D01*
X90891600Y-117406600D01*
X90891600Y-126745800D01*
%TD*%
M02*
