M48
; DRILL file {KiCad 9.0.3+dfsg-1} date 2026-06-30T18:49:32-0700
; FORMAT={-:-/ absolute / metric / decimal}
; #@! TF.CreationDate,2026-06-30T18:49:32-07:00
; #@! TF.GenerationSoftware,Kicad,Pcbnew,9.0.3+dfsg-1
; #@! TF.FileFunction,MixedPlating,1,4
FMAT,2
METRIC
; #@! TA.AperFunction,Plated,PTH,ViaDrill
T1C0.250
; #@! TA.AperFunction,Plated,PTH,ViaDrill
T2C0.300
; #@! TA.AperFunction,Plated,PTH,ComponentDrill
T3C0.800
; #@! TA.AperFunction,Plated,PTH,ComponentDrill
T4C1.000
; #@! TA.AperFunction,Plated,PTH,ComponentDrill
T5C1.500
; #@! TA.AperFunction,NonPlated,NPTH,ComponentDrill
T6C0.750
; #@! TA.AperFunction,NonPlated,NPTH,ComponentDrill
T7C1.700
; #@! TA.AperFunction,NonPlated,NPTH,ComponentDrill
T8C2.400
; #@! TA.AperFunction,NonPlated,NPTH,ComponentDrill
T9C4.000
%
G90
G05
T1
X58.787Y-111.0
X60.612Y-111.0
X124.212Y-128.0
X134.612Y-129.0
T2
X58.087Y-108.856
X59.912Y-104.35
X60.935Y-114.0
X61.755Y-114.825
X62.911Y-115.72
X64.248Y-124.065
X66.046Y-116.264
X66.258Y-120.919
X66.405Y-122.85
X67.578Y-122.2
X68.117Y-104.35
X68.117Y-124.2
X68.991Y-73.311
X69.235Y-123.673
X70.025Y-120.723
X70.569Y-122.209
X76.488Y-119.997
X76.562Y-117.534
X77.495Y-124.275
X78.246Y-122.0
X78.341Y-117.693
X78.441Y-127.557
X80.364Y-124.345
X80.553Y-122.582
X81.307Y-119.8
X81.307Y-124.178
X83.549Y-119.4
X85.324Y-117.156
X85.508Y-127.023
X88.233Y-115.661
X98.519Y-125.718
X102.26Y-125.715
X104.803Y-115.37
X107.33Y-116.723
X120.579Y-114.833
X123.307Y-116.188
X125.898Y-128.435
X134.152Y-127.84
T4
X60.0Y-88.92
X60.0Y-91.46
X60.0Y-94.0
X60.0Y-96.54
X60.0Y-99.08
X91.75Y-69.75
X91.75Y-76.25
X96.25Y-69.75
X96.25Y-76.25
X103.75Y-69.75
X103.75Y-76.25
X108.25Y-69.75
X108.25Y-76.25
T5
X71.115Y-80.435
X71.115Y-99.485
X77.465Y-77.895
X77.465Y-96.945
X90.165Y-80.435
X90.165Y-99.485
X96.515Y-77.895
X96.515Y-96.945
X109.215Y-80.435
X109.215Y-99.485
X115.565Y-77.895
X115.565Y-96.945
X128.265Y-80.435
X128.265Y-99.485
X134.615Y-77.895
X134.615Y-96.945
T6
X97.1Y-128.094
X102.9Y-128.094
T7
X69.845Y-82.975
X69.845Y-102.025
X80.005Y-82.975
X80.005Y-102.025
X88.895Y-82.975
X88.895Y-102.025
X99.055Y-82.975
X99.055Y-102.025
X107.945Y-82.975
X107.945Y-102.025
X118.105Y-82.975
X118.105Y-102.025
X126.995Y-82.975
X126.995Y-102.025
X137.155Y-82.975
X137.155Y-102.025
T8
X57.5Y-69.0
X57.5Y-131.0
X142.5Y-69.0
X142.5Y-131.0
T9
X74.925Y-82.975
X74.925Y-102.025
X93.975Y-82.975
X93.975Y-102.025
X113.025Y-82.975
X113.025Y-102.025
X132.075Y-82.975
X132.075Y-102.025
T3
X95.675Y-127.194G85X95.675Y-127.994
G05
X95.675Y-131.474G85X95.675Y-132.074
G05
X104.325Y-127.194G85X104.325Y-127.994
G05
X104.325Y-131.474G85X104.325Y-132.074
G05
M30
