%TF.GenerationSoftware,KiCad,Pcbnew,9.0.3+dfsg-1*%
%TF.CreationDate,2026-06-30T23:58:07-07:00*%
%TF.ProjectId,index.circuit,696e6465-782e-4636-9972-637569742e6b,rev?*%
%TF.SameCoordinates,Original*%
%TF.FileFunction,Copper,L1,Top*%
%TF.FilePolarity,Positive*%
%FSLAX46Y46*%
G04 Gerber Fmt 4.6, Leading zero omitted, Abs format (unit mm)*
G04 Created by KiCad (PCBNEW 9.0.3+dfsg-1) date 2026-06-30 23:58:07*
%MOMM*%
%LPD*%
G01*
G04 APERTURE LIST*
G04 Aperture macros list*
%AMRoundRect*
0 Rectangle with rounded corners*
0 $1 Rounding radius*
0 $2 $3 $4 $5 $6 $7 $8 $9 X,Y pos of 4 corners*
0 Add a 4 corners polygon primitive as box body*
4,1,4,$2,$3,$4,$5,$6,$7,$8,$9,$2,$3,0*
0 Add four circle primitives for the rounded corners*
1,1,$1+$1,$2,$3*
1,1,$1+$1,$4,$5*
1,1,$1+$1,$6,$7*
1,1,$1+$1,$8,$9*
0 Add four rect primitives between the rounded corners*
20,1,$1+$1,$2,$3,$4,$5,0*
20,1,$1+$1,$4,$5,$6,$7,0*
20,1,$1+$1,$6,$7,$8,$9,0*
20,1,$1+$1,$8,$9,$2,$3,0*%
%AMFreePoly0*
4,1,9,0.299987,-0.649935,0.000013,-0.649935,0.000013,-0.650088,-0.299987,-0.650088,-0.299987,0.649935,-0.000013,0.649935,-0.000013,0.650088,0.299987,0.650088,0.299987,-0.649935,0.299987,-0.649935,$1*%
%AMFreePoly1*
4,1,5,0.300012,-0.649986,-0.300012,-0.649986,-0.300012,0.649986,0.300012,0.649986,0.300012,-0.649986,0.300012,-0.649986,$1*%
%AMFreePoly2*
4,1,9,0.299987,-0.649973,0.000038,-0.649973,0.000038,-0.649999,-0.299987,-0.649999,-0.299987,0.649973,-0.000038,0.649973,-0.000038,0.649999,0.299987,0.649999,0.299987,-0.649973,0.299987,-0.649973,$1*%
G04 Aperture macros list end*
%TA.AperFunction,SMDPad,CuDef*%
%ADD10R,0.622300X1.104900*%
%TD*%
%TA.AperFunction,ComponentPad*%
%ADD11C,1.500000*%
%TD*%
%TA.AperFunction,ComponentPad*%
%ADD12C,2.500000*%
%TD*%
%TA.AperFunction,SMDPad,CuDef*%
%ADD13R,1.025000X1.400000*%
%TD*%
%TA.AperFunction,SMDPad,CuDef*%
%ADD14R,1.499997X0.999998*%
%TD*%
%TA.AperFunction,ComponentPad*%
%ADD15O,1.199998X1.999996*%
%TD*%
%TA.AperFunction,ComponentPad*%
%ADD16O,1.199998X1.799996*%
%TD*%
%TA.AperFunction,SMDPad,CuDef*%
%ADD17R,0.299999X1.299997*%
%TD*%
%TA.AperFunction,SMDPad,CuDef*%
%ADD18FreePoly0,0.000000*%
%TD*%
%TA.AperFunction,SMDPad,CuDef*%
%ADD19FreePoly1,0.000000*%
%TD*%
%TA.AperFunction,SMDPad,CuDef*%
%ADD20FreePoly2,0.000000*%
%TD*%
%TA.AperFunction,ComponentPad*%
%ADD21R,1.500000X1.500000*%
%TD*%
%TA.AperFunction,SMDPad,CuDef*%
%ADD22R,1.399997X1.199998*%
%TD*%
%TA.AperFunction,SMDPad,CuDef*%
%ADD23R,0.200000X0.850011*%
%TD*%
%TA.AperFunction,SMDPad,CuDef*%
%ADD24R,0.850011X0.200000*%
%TD*%
%TA.AperFunction,SMDPad,CuDef*%
%ADD25R,3.099994X3.099994*%
%TD*%
%TA.AperFunction,SMDPad,CuDef*%
%ADD26RoundRect,0.314998X-0.000010X-0.810006X0.000010X-0.810006X0.000010X0.810006X-0.000010X0.810006X0*%
%TD*%
%TA.AperFunction,ViaPad*%
%ADD27C,0.600000*%
%TD*%
%TA.AperFunction,Conductor*%
%ADD28C,0.150000*%
%TD*%
%TA.AperFunction,Conductor*%
%ADD29C,0.200000*%
%TD*%
%TA.AperFunction,Conductor*%
%ADD30C,0.250000*%
%TD*%
G04 APERTURE END LIST*
D10*
%TO.P,U3,1*%
%TO.N,VBUS*%
X115050294Y-130299972D03*
%TO.P,U3,2*%
%TO.N,GND*%
X115999492Y-130299972D03*
%TO.P,U3,3*%
%TO.N,VBUS*%
X116949706Y-130299972D03*
%TO.P,U3,4*%
%TO.N,N/C*%
X116949706Y-127700028D03*
%TO.P,U3,5*%
%TO.N,V3V3*%
X115050294Y-127700028D03*
%TD*%
D11*
%TO.P,SW_BOOT,1*%
%TO.N,BOOT_BTN*%
X133750000Y-113750000D03*
%TO.P,SW_BOOT,2*%
%TO.N,GND*%
X133750000Y-120250000D03*
%TO.P,SW_BOOT,3*%
%TO.N,N/C*%
X138250000Y-120250000D03*
%TO.P,SW_BOOT,4*%
X138250000Y-113750000D03*
%TD*%
D12*
%TO.P,SW2,1*%
%TO.N,KEY1*%
X90165000Y-99485000D03*
%TO.P,SW2,2*%
%TO.N,GND*%
X96515000Y-96945000D03*
%TD*%
D13*
%TO.P,C_LED,1*%
%TO.N,V3V3*%
X58087500Y-111000000D03*
%TO.P,C_LED,2*%
%TO.N,GND*%
X59912500Y-111000000D03*
%TD*%
D11*
%TO.P,SW_RST,1*%
%TO.N,RUN*%
X133750000Y-123750000D03*
%TO.P,SW_RST,2*%
%TO.N,GND*%
X133750000Y-130250000D03*
%TO.P,SW_RST,3*%
%TO.N,N/C*%
X138250000Y-130250000D03*
%TO.P,SW_RST,4*%
X138250000Y-123750000D03*
%TD*%
D12*
%TO.P,SW7,1*%
%TO.N,KEY6*%
X109215000Y-80435000D03*
%TO.P,SW7,2*%
%TO.N,GND*%
X115565000Y-77895000D03*
%TD*%
D14*
%TO.P,D1,1*%
%TO.N,V3V3*%
X56550043Y-104350016D03*
%TO.P,D1,2*%
%TO.N,N/C*%
X56550043Y-107649984D03*
%TO.P,D1,3*%
%TO.N,GND*%
X61449957Y-107649984D03*
%TO.P,D1,4*%
%TO.N,LED_DIN*%
X61449957Y-104350016D03*
%TD*%
D15*
%TO.P,J1,1*%
%TO.N,GND*%
X104325112Y-127594307D03*
D16*
%TO.P,J1,2*%
X104325112Y-131774131D03*
%TO.P,J1,3*%
X95674888Y-131774131D03*
D15*
%TO.P,J1,4*%
X95674888Y-127594307D03*
D17*
%TO.P,J1,5*%
%TO.N,N/C*%
X98249940Y-126825957D03*
%TO.P,J1,6*%
%TO.N,J1.A5 to R_CC1.pin1*%
X98750066Y-126825957D03*
%TO.P,J1,7*%
%TO.N,USB_DM*%
X99249938Y-126825957D03*
%TO.P,J1,8*%
%TO.N,USB_DP*%
X99750064Y-126825957D03*
%TO.P,J1,9*%
%TO.N,USB_DM*%
X100249936Y-126825957D03*
%TO.P,J1,10*%
%TO.N,USB_DP*%
X100750062Y-126825957D03*
%TO.P,J1,11*%
%TO.N,N/C*%
X101249680Y-126825957D03*
%TO.P,J1,12*%
%TO.N,J1.B5 to R_CC2.pin1*%
X101750060Y-126825957D03*
D18*
%TO.P,J1,13*%
%TO.N,GND*%
X96800044Y-126825957D03*
D19*
%TO.P,J1,14*%
X103200006Y-126825856D03*
%TO.P,J1,15*%
%TO.N,VBUS*%
X102400160Y-126825856D03*
D20*
%TO.P,J1,16*%
X97600043Y-126826021D03*
%TD*%
D12*
%TO.P,SW8,1*%
%TO.N,KEY7*%
X128265000Y-80435000D03*
%TO.P,SW8,2*%
%TO.N,GND*%
X134615000Y-77895000D03*
%TD*%
%TO.P,SW1,1*%
%TO.N,KEY0*%
X71115000Y-99485000D03*
%TO.P,SW1,2*%
%TO.N,GND*%
X77465000Y-96945000D03*
%TD*%
D21*
%TO.P,J_THUMB,1*%
%TO.N,ENC_A*%
X60000000Y-99080000D03*
D11*
%TO.P,J_THUMB,2*%
%TO.N,ENC_B*%
X60000000Y-96540000D03*
%TO.P,J_THUMB,3*%
%TO.N,ENC_SW*%
X60000000Y-94000000D03*
%TO.P,J_THUMB,4*%
%TO.N,SHIFT*%
X60000000Y-91460000D03*
%TO.P,J_THUMB,5*%
%TO.N,GND*%
X60000000Y-88920000D03*
%TD*%
D22*
%TO.P,Y1,1*%
%TO.N,XIN*%
X62899926Y-122850011D03*
%TO.P,Y1,2*%
%TO.N,GND*%
X65100074Y-122850011D03*
%TO.P,Y1,3*%
%TO.N,XOUT*%
X65100074Y-121149989D03*
%TO.P,Y1,4*%
%TO.N,GND*%
X62899926Y-121149989D03*
%TD*%
D12*
%TO.P,SW3,1*%
%TO.N,KEY2*%
X109215000Y-99485000D03*
%TO.P,SW3,2*%
%TO.N,GND*%
X115565000Y-96945000D03*
%TD*%
D13*
%TO.P,C_OUT,1*%
%TO.N,V3V3*%
X123087500Y-129000000D03*
%TO.P,C_OUT,2*%
%TO.N,GND*%
X124912500Y-129000000D03*
%TD*%
D23*
%TO.P,U1,1*%
%TO.N,V3V3*%
X78600071Y-118575064D03*
%TO.P,U1,2*%
%TO.N,KEY0*%
X78200021Y-118575064D03*
%TO.P,U1,3*%
%TO.N,KEY1*%
X77799971Y-118575064D03*
%TO.P,U1,4*%
%TO.N,KEY2*%
X77399921Y-118575064D03*
%TO.P,U1,5*%
%TO.N,KEY3*%
X77000125Y-118575064D03*
%TO.P,U1,6*%
%TO.N,KEY4*%
X76600075Y-118575064D03*
%TO.P,U1,7*%
%TO.N,KEY5*%
X76200025Y-118575064D03*
%TO.P,U1,8*%
%TO.N,KEY6*%
X75799975Y-118575064D03*
%TO.P,U1,9*%
%TO.N,KEY7*%
X75399925Y-118575064D03*
%TO.P,U1,10*%
%TO.N,V3V3*%
X75000129Y-118575064D03*
%TO.P,U1,11*%
%TO.N,ENC_A*%
X74600079Y-118575064D03*
%TO.P,U1,12*%
%TO.N,ENC_B*%
X74200029Y-118575064D03*
%TO.P,U1,13*%
%TO.N,ENC_SW*%
X73799979Y-118575064D03*
%TO.P,U1,14*%
%TO.N,SHIFT*%
X73399929Y-118575064D03*
D24*
%TO.P,U1,15*%
%TO.N,N/C*%
X72574937Y-119400056D03*
%TO.P,U1,16*%
X72574937Y-119799852D03*
%TO.P,U1,17*%
X72574937Y-120199902D03*
%TO.P,U1,18*%
X72574937Y-120599952D03*
%TO.P,U1,19*%
%TO.N,GND*%
X72574937Y-121000002D03*
%TO.P,U1,20*%
%TO.N,XIN*%
X72574937Y-121400052D03*
%TO.P,U1,21*%
%TO.N,XOUT*%
X72574937Y-121799848D03*
%TO.P,U1,22*%
%TO.N,V3V3*%
X72574937Y-122199898D03*
%TO.P,U1,23*%
%TO.N,DVDD*%
X72574937Y-122599948D03*
%TO.P,U1,24*%
%TO.N,N/C*%
X72574937Y-122999998D03*
%TO.P,U1,25*%
X72574937Y-123400048D03*
%TO.P,U1,26*%
%TO.N,RUN*%
X72574937Y-123799844D03*
%TO.P,U1,27*%
%TO.N,LED_DIN*%
X72574937Y-124199894D03*
%TO.P,U1,28*%
%TO.N,N/C*%
X72574937Y-124599944D03*
D23*
%TO.P,U1,29*%
X73399929Y-125424936D03*
%TO.P,U1,30*%
X73799979Y-125424936D03*
%TO.P,U1,31*%
X74200029Y-125424936D03*
%TO.P,U1,32*%
X74600079Y-125424936D03*
%TO.P,U1,33*%
%TO.N,V3V3*%
X75000129Y-125424936D03*
%TO.P,U1,34*%
%TO.N,N/C*%
X75399925Y-125424936D03*
%TO.P,U1,35*%
X75799975Y-125424936D03*
%TO.P,U1,36*%
X76200025Y-125424936D03*
%TO.P,U1,37*%
X76600075Y-125424936D03*
%TO.P,U1,38*%
X77000125Y-125424936D03*
%TO.P,U1,39*%
X77399921Y-125424936D03*
%TO.P,U1,40*%
X77799971Y-125424936D03*
%TO.P,U1,41*%
X78200021Y-125424936D03*
%TO.P,U1,42*%
%TO.N,V3V3*%
X78600071Y-125424936D03*
D24*
%TO.P,U1,43*%
X79425063Y-124599944D03*
%TO.P,U1,44*%
X79425063Y-124199894D03*
%TO.P,U1,45*%
%TO.N,DVDD*%
X79425063Y-123799844D03*
%TO.P,U1,46*%
%TO.N,USB_DM*%
X79425063Y-123400048D03*
%TO.P,U1,47*%
%TO.N,USB_DP*%
X79425063Y-122999998D03*
%TO.P,U1,48*%
%TO.N,V3V3*%
X79425063Y-122599948D03*
%TO.P,U1,49*%
X79425063Y-122199898D03*
%TO.P,U1,50*%
%TO.N,DVDD*%
X79425063Y-121799848D03*
%TO.P,U1,51*%
%TO.N,QSPI_SD3*%
X79425063Y-121400052D03*
%TO.P,U1,52*%
%TO.N,QSPI_SCLK*%
X79425063Y-121000002D03*
%TO.P,U1,53*%
%TO.N,QSPI_SD0*%
X79425063Y-120599952D03*
%TO.P,U1,54*%
%TO.N,QSPI_SD2*%
X79425063Y-120199902D03*
%TO.P,U1,55*%
%TO.N,QSPI_SD1*%
X79425063Y-119799852D03*
%TO.P,U1,56*%
%TO.N,QSPI_SS*%
X79425063Y-119400056D03*
D25*
%TO.P,U1,57*%
%TO.N,GND*%
X76000127Y-122000000D03*
%TD*%
D13*
%TO.P,C_IN,1*%
%TO.N,VBUS*%
X107087500Y-129000000D03*
%TO.P,C_IN,2*%
%TO.N,GND*%
X108912500Y-129000000D03*
%TD*%
D12*
%TO.P,SW6,1*%
%TO.N,KEY5*%
X90165000Y-80435000D03*
%TO.P,SW6,2*%
%TO.N,GND*%
X96515000Y-77895000D03*
%TD*%
D26*
%TO.P,U2,1*%
%TO.N,QSPI_SS*%
X86095000Y-125530092D03*
%TO.P,U2,2*%
%TO.N,QSPI_SD1*%
X87365000Y-125530092D03*
%TO.P,U2,3*%
%TO.N,QSPI_SD2*%
X88635000Y-125530092D03*
%TO.P,U2,4*%
%TO.N,GND*%
X89905000Y-125530092D03*
%TO.P,U2,5*%
%TO.N,QSPI_SD0*%
X89905000Y-118469908D03*
%TO.P,U2,6*%
%TO.N,QSPI_SCLK*%
X88635000Y-118469908D03*
%TO.P,U2,7*%
%TO.N,QSPI_SD3*%
X87365000Y-118469908D03*
%TO.P,U2,8*%
%TO.N,V3V3*%
X86095000Y-118469908D03*
%TD*%
D12*
%TO.P,SW5,1*%
%TO.N,KEY4*%
X71115000Y-80435000D03*
%TO.P,SW5,2*%
%TO.N,GND*%
X77465000Y-77895000D03*
%TD*%
%TO.P,SW4,1*%
%TO.N,KEY3*%
X128265000Y-99485000D03*
%TO.P,SW4,2*%
%TO.N,GND*%
X134615000Y-96945000D03*
%TD*%
D27*
%TO.N,V3V3*%
X59912500Y-104350000D03*
X125877800Y-128479100D03*
X115050294Y-127700028D03*
X87988000Y-127021200D03*
X76518100Y-124524000D03*
X57287500Y-111000000D03*
X123087500Y-129000000D03*
X80610900Y-118575100D03*
%TO.N,DVDD*%
X79315200Y-125606600D03*
X76510000Y-127164200D03*
%TO.N,XOUT*%
X65006700Y-120097100D03*
%TO.N,USB_DM*%
X81738200Y-127840300D03*
X81738200Y-123400000D03*
%TO.N,USB_DP*%
X81097900Y-122861500D03*
X80843000Y-127851500D03*
%TO.N,KEY0*%
X79017400Y-117408900D03*
%TO.N,KEY1*%
X90342000Y-114827100D03*
%TO.N,KEY2*%
X109382600Y-114370300D03*
%TO.N,KEY4*%
X77451700Y-114256300D03*
%TO.N,KEY5*%
X84180200Y-110737700D03*
%TO.N,KEY6*%
X105885000Y-108894900D03*
%TO.N,GND*%
X62879900Y-119634500D03*
X115999492Y-130299972D03*
X108912500Y-129000000D03*
X103700006Y-126825856D03*
X58087500Y-108633600D03*
X124912500Y-129000000D03*
X120595000Y-129844400D03*
X60712500Y-111000000D03*
%TO.N,KEY7*%
X123537000Y-105929600D03*
%TO.N,ENC_A*%
X62278500Y-114046700D03*
%TO.N,ENC_B*%
X64772700Y-115139300D03*
%TO.N,ENC_SW*%
X67077000Y-116918200D03*
%TO.N,SHIFT*%
X63222000Y-117923400D03*
%TO.N,LED_DIN*%
X74313000Y-114842500D03*
X73460300Y-124199900D03*
%TO.N,RUN*%
X67645200Y-123799800D03*
%TO.N,BOOT_BTN*%
X84490000Y-122981800D03*
%TO.N,VBUS*%
X108912500Y-131079100D03*
%TO.N,J1.A5 to R_CC1.pin1*%
X99321300Y-129796900D03*
%TO.N,QSPI_SS*%
X85013300Y-126880200D03*
X84634300Y-119273300D03*
%TO.N,J1.B5 to R_CC2.pin1*%
X102353900Y-129788000D03*
%TO.N,QSPI_SD1*%
X80479100Y-126873600D03*
X80479100Y-119800000D03*
%TO.N,QSPI_SD2*%
X89006700Y-127113600D03*
X89019500Y-120185500D03*
%TO.N,XIN*%
X66607300Y-120599600D03*
X64345900Y-123919400D03*
%TD*%
D28*
%TO.N,V3V3*%
X80032500Y-117996700D02*
X80610900Y-118575100D01*
X79425100Y-124199900D02*
X80076800Y-124199900D01*
X76518100Y-124773200D02*
X78600100Y-124773200D01*
X80075300Y-122199900D02*
X80076800Y-122199900D01*
X86095000Y-119821600D02*
X85597100Y-119821600D01*
X78600100Y-122026600D02*
X78773400Y-122199900D01*
D29*
X58087500Y-111000000D02*
X57287500Y-111000000D01*
D28*
X78773400Y-124199900D02*
X78773400Y-122201400D01*
X85597100Y-119821600D02*
X85553300Y-119777800D01*
X75000100Y-124773200D02*
X73226600Y-122999700D01*
X78600100Y-124773200D02*
X78773400Y-124599900D01*
X79425100Y-124199900D02*
X78773400Y-124199900D01*
X80076800Y-122599900D02*
X80076800Y-122199900D01*
X78773400Y-122201400D02*
X78774900Y-122199900D01*
X78860400Y-117996700D02*
X80032500Y-117996700D01*
X75000100Y-124773200D02*
X76518100Y-124773200D01*
X76518100Y-124524000D02*
X76518100Y-124773200D01*
X79425100Y-124599900D02*
X78773400Y-124599900D01*
X75000100Y-119226800D02*
X78600100Y-119226800D01*
X78600100Y-125424900D02*
X78600100Y-124773200D01*
X75000100Y-124849000D02*
X75000100Y-124774700D01*
X79425100Y-122599900D02*
X80076800Y-122599900D01*
X84759400Y-118575100D02*
X80610900Y-118575100D01*
X78774900Y-122199900D02*
X78773400Y-122199900D01*
X78600100Y-118575100D02*
X78600100Y-119226800D01*
X56550000Y-104350000D02*
X57526700Y-104350000D01*
X78600100Y-117923400D02*
X78787100Y-117923400D01*
X72574900Y-122199900D02*
X73226600Y-122199900D01*
X79425100Y-124599900D02*
X80076800Y-124599900D01*
X78600100Y-119226800D02*
X78600100Y-122026600D01*
X88226100Y-124178400D02*
X87988000Y-124416500D01*
X80001000Y-122199900D02*
X80075300Y-122199900D01*
X86095000Y-118469900D02*
X86095000Y-119821600D01*
X57526700Y-104350000D02*
X59912500Y-104350000D01*
X78600100Y-118575100D02*
X78600100Y-117923400D01*
X75000100Y-118575100D02*
X75000100Y-119226800D01*
X85553300Y-119369000D02*
X84759400Y-118575100D01*
X78787100Y-117923400D02*
X78860400Y-117996700D01*
X80076800Y-124199900D02*
X80076800Y-124599900D01*
X87988000Y-124416500D02*
X87988000Y-127021200D01*
X73226600Y-122999700D02*
X73226600Y-122199900D01*
X75000100Y-124774700D02*
X75000100Y-124773200D01*
X79425100Y-122199900D02*
X78774900Y-122199900D01*
X79425100Y-122199900D02*
X80001000Y-122199900D01*
X75000100Y-125424900D02*
X75000100Y-124849000D01*
X85553300Y-119777800D02*
X85553300Y-119369000D01*
%TO.N,DVDD*%
X80947300Y-121799800D02*
X79425100Y-121799800D01*
X80379000Y-124038200D02*
X81845400Y-124038200D01*
X82281000Y-123602600D02*
X82281000Y-123133500D01*
X72574900Y-122599900D02*
X68065900Y-122599900D01*
X82281000Y-123133500D02*
X80947300Y-121799800D01*
X67115700Y-124052300D02*
X70227600Y-127164200D01*
X79588500Y-125606600D02*
X80379000Y-124816100D01*
X70227600Y-127164200D02*
X76510000Y-127164200D01*
X80379000Y-124038200D02*
X80140600Y-123799800D01*
X67115700Y-123550100D02*
X67115700Y-124052300D01*
X81845400Y-124038200D02*
X82281000Y-123602600D01*
X79315200Y-125606600D02*
X79588500Y-125606600D01*
X80379000Y-124816100D02*
X80379000Y-124038200D01*
X80140600Y-123799800D02*
X79425100Y-123799800D01*
X68065900Y-122599900D02*
X67115700Y-123550100D01*
%TO.N,XOUT*%
X65100100Y-121150000D02*
X66026800Y-121150000D01*
X65100100Y-120190500D02*
X65006700Y-120097100D01*
X66676600Y-121799800D02*
X66026800Y-121150000D01*
X65100100Y-121150000D02*
X65100100Y-120190500D01*
X72574900Y-121799800D02*
X66676600Y-121799800D01*
%TO.N,USB_DM*%
X99849100Y-127702600D02*
X99249900Y-127702600D01*
X99529600Y-130333900D02*
X99094800Y-130333900D01*
X99249900Y-126825900D02*
X99249900Y-127702600D01*
X100249900Y-127702600D02*
X99849100Y-127702600D01*
X98068900Y-129308000D02*
X83205900Y-129308000D01*
X99849100Y-130014400D02*
X99529600Y-130333900D01*
X83205900Y-129308000D02*
X81738200Y-127840300D01*
X79425100Y-123400000D02*
X81738200Y-123400000D01*
X99094800Y-130333900D02*
X98068900Y-129308000D01*
X99849100Y-127702600D02*
X99849100Y-130014400D01*
X100249900Y-126825900D02*
X100249900Y-127702600D01*
%TO.N,USB_DP*%
X81097900Y-122861500D02*
X80959400Y-123000000D01*
X100750100Y-126825900D02*
X100750100Y-129544500D01*
X100750100Y-126825900D02*
X100750100Y-125949200D01*
X99659000Y-130635600D02*
X98605000Y-130635600D01*
X99750100Y-126825900D02*
X99750100Y-126025000D01*
X99750100Y-125950600D02*
X99750100Y-125949200D01*
X80959400Y-123000000D02*
X79425100Y-123000000D01*
X98605000Y-130635600D02*
X98315000Y-130345600D01*
X99750100Y-125949200D02*
X100750100Y-125949200D01*
X99750100Y-126025000D02*
X99750100Y-125950600D01*
X83337100Y-130345600D02*
X80843000Y-127851500D01*
X100750100Y-129544500D02*
X99659000Y-130635600D01*
X98315000Y-130345600D02*
X83337100Y-130345600D01*
%TO.N,KEY0*%
X78664800Y-117409000D02*
X79017400Y-117409000D01*
X78200000Y-118575100D02*
X78200000Y-117873800D01*
X78200000Y-117873800D02*
X78664800Y-117409000D01*
X79017400Y-117409000D02*
X79017400Y-117408900D01*
%TO.N,KEY1*%
X90342000Y-114827100D02*
X80806000Y-114827100D01*
X77800000Y-118575100D02*
X77800000Y-117923400D01*
X80806000Y-114827100D02*
X77800000Y-117833100D01*
X77800000Y-117833100D02*
X77800000Y-117923400D01*
%TO.N,KEY2*%
X77399900Y-117795500D02*
X77399900Y-118575100D01*
X109382600Y-114370300D02*
X109276900Y-114264600D01*
X109276900Y-114264600D02*
X80930800Y-114264600D01*
X80930800Y-114264600D02*
X77399900Y-117795500D01*
%TO.N,KEY3*%
X117802200Y-113837900D02*
X80878300Y-113837900D01*
X128432600Y-103207500D02*
X117802200Y-113837900D01*
X128265000Y-99485000D02*
X128432600Y-99652600D01*
X128432600Y-99652600D02*
X128432600Y-103207500D01*
X77000100Y-117716100D02*
X77000100Y-117923400D01*
X77000100Y-118575100D02*
X77000100Y-117923400D01*
X80878300Y-113837900D02*
X77000100Y-117716100D01*
%TO.N,KEY4*%
X76600100Y-118575100D02*
X76600100Y-115107900D01*
X76600100Y-115107900D02*
X77451700Y-114256300D01*
%TO.N,KEY5*%
X79528600Y-110737700D02*
X84180200Y-110737700D01*
X76200000Y-118575100D02*
X76200000Y-117923400D01*
X76200000Y-117923400D02*
X76200000Y-114066300D01*
X76200000Y-114066300D02*
X79528600Y-110737700D01*
%TO.N,KEY6*%
X105885000Y-108894900D02*
X80944700Y-108894900D01*
X80944700Y-108894900D02*
X75800000Y-114039600D01*
X75800000Y-114039600D02*
X75800000Y-118575100D01*
%TO.N,GND*%
X134615000Y-77895000D02*
X115565000Y-77895000D01*
X70870400Y-121000000D02*
X72574900Y-121000000D01*
X74348400Y-122000000D02*
X74226600Y-122000000D01*
X69404800Y-119534400D02*
X70870400Y-121000000D01*
X63161700Y-121150000D02*
X63161700Y-119634500D01*
X61450000Y-107650000D02*
X59071100Y-107650000D01*
X115565000Y-77895000D02*
X96515000Y-77895000D01*
X63161700Y-119634500D02*
X63261800Y-119534400D01*
X72574900Y-121000000D02*
X73226600Y-121000000D01*
X63826600Y-121576500D02*
X64273400Y-122023300D01*
X89905000Y-125530100D02*
X89905000Y-126881800D01*
X59071100Y-107650000D02*
X58087500Y-108633600D01*
X96515000Y-77895000D02*
X77465000Y-77895000D01*
X63261800Y-119534400D02*
X69404800Y-119534400D01*
X63826600Y-121150000D02*
X63826600Y-121576500D01*
X96341400Y-126367300D02*
X96800000Y-126825900D01*
X63161700Y-119634500D02*
X62879900Y-119634500D01*
D29*
X59912500Y-111000000D02*
X60712500Y-111000000D01*
D28*
X133344400Y-129844400D02*
X133750000Y-130250000D01*
X95675000Y-126980600D02*
X95675000Y-126367300D01*
X65100100Y-122850000D02*
X65100100Y-122023300D01*
X95675000Y-127594000D02*
X95675000Y-126980600D01*
X76000100Y-122000000D02*
X74348400Y-122000000D01*
X62899900Y-121150000D02*
X63161700Y-121150000D01*
X64273400Y-122023300D02*
X65100100Y-122023300D01*
X95675000Y-126367300D02*
X96341400Y-126367300D01*
X74226600Y-122000000D02*
X73226600Y-121000000D01*
X95675000Y-130647300D02*
X97977900Y-130647300D01*
X115565000Y-96945000D02*
X96515000Y-96945000D01*
X63161700Y-121150000D02*
X63826600Y-121150000D01*
X96515000Y-96945000D02*
X77465000Y-96945000D01*
X95675000Y-126980600D02*
X90003800Y-126980600D01*
X95675000Y-131774000D02*
X95675000Y-130647300D01*
X134615000Y-96945000D02*
X115565000Y-96945000D01*
X90003800Y-126980600D02*
X89905000Y-126881800D01*
%TO.N,KEY7*%
X75399900Y-113943200D02*
X83413500Y-105929600D01*
X75399900Y-118575100D02*
X75399900Y-113943200D01*
X83413500Y-105929600D02*
X123537000Y-105929600D01*
%TO.N,ENC_A*%
X74600100Y-117923400D02*
X74600100Y-117670300D01*
X74600100Y-117670300D02*
X70976500Y-114046700D01*
X74600100Y-118575100D02*
X74600100Y-117923400D01*
X70976500Y-114046700D02*
X62278500Y-114046700D01*
%TO.N,ENC_B*%
X74200000Y-118575100D02*
X74200000Y-117696900D01*
X74200000Y-117696900D02*
X71642400Y-115139300D01*
X71642400Y-115139300D02*
X64772700Y-115139300D01*
%TO.N,ENC_SW*%
X72888500Y-116918200D02*
X73800000Y-117829700D01*
X67077000Y-116918200D02*
X72888500Y-116918200D01*
X73800000Y-117829700D02*
X73800000Y-118575100D01*
%TO.N,SHIFT*%
X73399900Y-118575100D02*
X73399900Y-117923400D01*
X63222000Y-117923400D02*
X73399900Y-117923400D01*
%TO.N,LED_DIN*%
X63820500Y-104350000D02*
X74313000Y-114842500D01*
X61450000Y-104350000D02*
X63820500Y-104350000D01*
X72574900Y-124199900D02*
X73226600Y-124199900D01*
X73226600Y-124199900D02*
X73460300Y-124199900D01*
%TO.N,RUN*%
X71876100Y-123799800D02*
X72574900Y-123799800D01*
X86114500Y-123750000D02*
X133750000Y-123750000D01*
X71876100Y-124852100D02*
X73157300Y-126133300D01*
X73157300Y-126133300D02*
X83731200Y-126133300D01*
X71876100Y-123799800D02*
X71876100Y-124852100D01*
X83731200Y-126133300D02*
X86114500Y-123750000D01*
X71876100Y-123799800D02*
X67645200Y-123799800D01*
%TO.N,BOOT_BTN*%
X133750000Y-113750000D02*
X124518200Y-122981800D01*
X124518200Y-122981800D02*
X84490000Y-122981800D01*
%TO.N,VBUS*%
X115050300Y-131079100D02*
X108912500Y-131079100D01*
X102059300Y-125608200D02*
X102400200Y-125949100D01*
X97941100Y-125608200D02*
X102059300Y-125608200D01*
X115050300Y-130300000D02*
X115050300Y-129520800D01*
X102400200Y-126825800D02*
X102400200Y-125949100D01*
D30*
X107090000Y-129000000D02*
X108910000Y-131080000D01*
D28*
X102626500Y-125722800D02*
X102400200Y-125949100D01*
X116949700Y-131079100D02*
X115050300Y-131079100D01*
X115050300Y-129520800D02*
X111252300Y-125722800D01*
D30*
X107090000Y-129000000D02*
X108910000Y-131080000D01*
D28*
X97600000Y-125949300D02*
X97941100Y-125608200D01*
X115050300Y-130300000D02*
X115050300Y-131079100D01*
X97600000Y-126826000D02*
X97600000Y-125949300D01*
X111252300Y-125722800D02*
X102626500Y-125722800D01*
X116949700Y-130300000D02*
X116949700Y-131079100D01*
%TO.N,J1.A5 to R_CC1.pin1*%
X98750100Y-129225700D02*
X99321300Y-129796900D01*
X98750100Y-126825900D02*
X98750100Y-129225700D01*
%TO.N,QSPI_SS*%
X79425100Y-119400100D02*
X80076800Y-119400100D01*
X84634300Y-119273300D02*
X80203600Y-119273300D01*
X86095000Y-126881800D02*
X85014900Y-126881800D01*
X86095000Y-125530100D02*
X86095000Y-126881800D01*
X85014900Y-126881800D02*
X85013300Y-126880200D01*
X80203600Y-119273300D02*
X80076800Y-119400100D01*
%TO.N,J1.B5 to R_CC2.pin1*%
X101750100Y-129184200D02*
X102353900Y-129788000D01*
X101750100Y-126825900D02*
X101750100Y-129184200D01*
%TO.N,QSPI_SCLK*%
X90317500Y-117118200D02*
X90490300Y-117291000D01*
X90490300Y-117291000D02*
X90490300Y-119904300D01*
X80148700Y-121071900D02*
X80076800Y-121000000D01*
X90490300Y-119904300D02*
X89322700Y-121071900D01*
X79425100Y-121000000D02*
X80076800Y-121000000D01*
X89322700Y-121071900D02*
X80148700Y-121071900D01*
X88635000Y-118469900D02*
X88635000Y-117118200D01*
X88635000Y-117118200D02*
X90317500Y-117118200D01*
%TO.N,QSPI_SD0*%
X89192200Y-120760900D02*
X89905000Y-120048100D01*
X89905000Y-120048100D02*
X89905000Y-118469900D01*
X88692500Y-120628400D02*
X88825000Y-120760900D01*
X80105200Y-120628400D02*
X88692500Y-120628400D01*
X80076800Y-120600000D02*
X80105200Y-120628400D01*
X79425100Y-120600000D02*
X80076800Y-120600000D01*
X88825000Y-120760900D02*
X89192200Y-120760900D01*
%TO.N,QSPI_SD1*%
X80076800Y-119800000D02*
X80076800Y-119799900D01*
X87365000Y-126881800D02*
X86839800Y-127407000D01*
X87365000Y-125530100D02*
X87365000Y-126881800D01*
X86839800Y-127407000D02*
X82056500Y-127407000D01*
X82056500Y-127407000D02*
X81523100Y-126873600D01*
X80479100Y-119800000D02*
X80076800Y-119800000D01*
X79425100Y-119799900D02*
X80076800Y-119799900D01*
X81523100Y-126873600D02*
X80479100Y-126873600D01*
%TO.N,QSPI_SD2*%
X88635000Y-125530100D02*
X88635000Y-126881800D01*
X88635000Y-126881800D02*
X88774900Y-126881800D01*
X88774900Y-126881800D02*
X89006700Y-127113600D01*
X88878300Y-120326700D02*
X89019500Y-120185500D01*
X80261000Y-120326700D02*
X88878300Y-120326700D01*
X80134200Y-120199900D02*
X80261000Y-120326700D01*
X79425100Y-120199900D02*
X80134200Y-120199900D01*
%TO.N,QSPI_SD3*%
X90816500Y-120032600D02*
X89449000Y-121400100D01*
X87682900Y-116800300D02*
X90435900Y-116800300D01*
X90435900Y-116800300D02*
X90816500Y-117180900D01*
X90816500Y-117180900D02*
X90816500Y-120032600D01*
X87365000Y-118469900D02*
X87365000Y-117118200D01*
X89449000Y-121400100D02*
X79425100Y-121400100D01*
X87365000Y-117118200D02*
X87682900Y-116800300D01*
%TO.N,XIN*%
X62899900Y-122850000D02*
X62899900Y-123676700D01*
X64103200Y-123676700D02*
X62899900Y-123676700D01*
X67407800Y-121400100D02*
X72574900Y-121400100D01*
X66607300Y-120599600D02*
X67407800Y-121400100D01*
X64345900Y-123919400D02*
X64103200Y-123676700D01*
%TD*%
%TA.AperFunction,Conductor*%
%TO.N,GND*%
G36*
X73115468Y-118145585D02*
G01*
X73161223Y-118198389D01*
X73172429Y-118249900D01*
X73172429Y-119012631D01*
X73175934Y-119030252D01*
X73169707Y-119099844D01*
X73126844Y-119155021D01*
X73060954Y-119178266D01*
X73030125Y-119176061D01*
X73012504Y-119172556D01*
X73012501Y-119172556D01*
X72137373Y-119172556D01*
X72137372Y-119172556D01*
X72100181Y-119179954D01*
X72058008Y-119208133D01*
X72029829Y-119250306D01*
X72022431Y-119287497D01*
X72022431Y-119512614D01*
X72029829Y-119549805D01*
X72030947Y-119552503D01*
X72031629Y-119558853D01*
X72032212Y-119561781D01*
X72031949Y-119561833D01*
X72038414Y-119621973D01*
X72030947Y-119647405D01*
X72029829Y-119650102D01*
X72022431Y-119687293D01*
X72022431Y-119912410D01*
X72029829Y-119949601D01*
X72031001Y-119952430D01*
X72031715Y-119959083D01*
X72032212Y-119961577D01*
X72031988Y-119961621D01*
X72038466Y-120021900D01*
X72031001Y-120047324D01*
X72029829Y-120050152D01*
X72022431Y-120087343D01*
X72022431Y-120312460D01*
X72029829Y-120349651D01*
X72031001Y-120352480D01*
X72031715Y-120359133D01*
X72032212Y-120361627D01*
X72031988Y-120361671D01*
X72038466Y-120421950D01*
X72031001Y-120447374D01*
X72029829Y-120450202D01*
X72022431Y-120487393D01*
X72022431Y-120712510D01*
X72029829Y-120749701D01*
X72058008Y-120791874D01*
X72100181Y-120820053D01*
X72100183Y-120820054D01*
X72128136Y-120825614D01*
X72137372Y-120827452D01*
X72137373Y-120827452D01*
X73012502Y-120827452D01*
X73019900Y-120825980D01*
X73049691Y-120820054D01*
X73091865Y-120791874D01*
X73120045Y-120749700D01*
X73127443Y-120712510D01*
X73127443Y-120487394D01*
X73120045Y-120450204D01*
X73120043Y-120450201D01*
X73118875Y-120447380D01*
X73118160Y-120440730D01*
X73117662Y-120438227D01*
X73117886Y-120438182D01*
X73111406Y-120377911D01*
X73118875Y-120352474D01*
X73120044Y-120349651D01*
X73120045Y-120349650D01*
X73127443Y-120312460D01*
X73127443Y-120087344D01*
X73120045Y-120050154D01*
X73120043Y-120050151D01*
X73118875Y-120047330D01*
X73118160Y-120040680D01*
X73117662Y-120038177D01*
X73117886Y-120038132D01*
X73111406Y-119977861D01*
X73118875Y-119952424D01*
X73120044Y-119949601D01*
X73120045Y-119949600D01*
X73127443Y-119912410D01*
X73127443Y-119687294D01*
X73120045Y-119650104D01*
X73120042Y-119650100D01*
X73118929Y-119647412D01*
X73118246Y-119641063D01*
X73117662Y-119638127D01*
X73117924Y-119638074D01*
X73111457Y-119577943D01*
X73118929Y-119552496D01*
X73120041Y-119549808D01*
X73120045Y-119549804D01*
X73127443Y-119512614D01*
X73127443Y-119287498D01*
X73123937Y-119269874D01*
X73130163Y-119200285D01*
X73173024Y-119145106D01*
X73238913Y-119121859D01*
X73269744Y-119124063D01*
X73287371Y-119127570D01*
X73287372Y-119127570D01*
X73512488Y-119127570D01*
X73518658Y-119126342D01*
X73549677Y-119120172D01*
X73549680Y-119120169D01*
X73552501Y-119119002D01*
X73559150Y-119118287D01*
X73561654Y-119117789D01*
X73561698Y-119118013D01*
X73621970Y-119111533D01*
X73647407Y-119119002D01*
X73650228Y-119120170D01*
X73650231Y-119120172D01*
X73680022Y-119126098D01*
X73687420Y-119127570D01*
X73687421Y-119127570D01*
X73912538Y-119127570D01*
X73918708Y-119126342D01*
X73949727Y-119120172D01*
X73949730Y-119120169D01*
X73952551Y-119119002D01*
X73959200Y-119118287D01*
X73961704Y-119117789D01*
X73961748Y-119118013D01*
X74022020Y-119111533D01*
X74047457Y-119119002D01*
X74050278Y-119120170D01*
X74050281Y-119120172D01*
X74080072Y-119126098D01*
X74087470Y-119127570D01*
X74087471Y-119127570D01*
X74312588Y-119127570D01*
X74318758Y-119126342D01*
X74349777Y-119120172D01*
X74349780Y-119120169D01*
X74352601Y-119119002D01*
X74359250Y-119118287D01*
X74361754Y-119117789D01*
X74361798Y-119118013D01*
X74422070Y-119111533D01*
X74447507Y-119119002D01*
X74450328Y-119120170D01*
X74450331Y-119120172D01*
X74480122Y-119126098D01*
X74487520Y-119127570D01*
X74673600Y-119127570D01*
X74740639Y-119147255D01*
X74786394Y-119200059D01*
X74797600Y-119251570D01*
X74797600Y-119267080D01*
X74828429Y-119341507D01*
X74885393Y-119398471D01*
X74959820Y-119429300D01*
X75040380Y-119429300D01*
X78273600Y-119429300D01*
X78340639Y-119448985D01*
X78386394Y-119501789D01*
X78397600Y-119553300D01*
X78397600Y-121986320D01*
X78397600Y-122066880D01*
X78428429Y-122141307D01*
X78428430Y-122141308D01*
X78534581Y-122247459D01*
X78568066Y-122308782D01*
X78570900Y-122335140D01*
X78570900Y-124159620D01*
X78570900Y-124240180D01*
X78601729Y-124314607D01*
X78601730Y-124314608D01*
X78607204Y-124322800D01*
X78610925Y-124325586D01*
X78620162Y-124350351D01*
X78632825Y-124373541D01*
X78632179Y-124382568D01*
X78635343Y-124391050D01*
X78629726Y-124416871D01*
X78627841Y-124443233D01*
X78622022Y-124452286D01*
X78620492Y-124459324D01*
X78599342Y-124487578D01*
X78552543Y-124534379D01*
X78491221Y-124567866D01*
X78464860Y-124570700D01*
X77067903Y-124570700D01*
X77000864Y-124551015D01*
X76955109Y-124498211D01*
X76948540Y-124475344D01*
X76947703Y-124475569D01*
X76945600Y-124467719D01*
X76916467Y-124358991D01*
X76860185Y-124261509D01*
X76780591Y-124181915D01*
X76730348Y-124152907D01*
X76683110Y-124125633D01*
X76628745Y-124111066D01*
X76574381Y-124096500D01*
X76461819Y-124096500D01*
X76353089Y-124125633D01*
X76255609Y-124181915D01*
X76255606Y-124181917D01*
X76176017Y-124261506D01*
X76176015Y-124261509D01*
X76119733Y-124358989D01*
X76108102Y-124402400D01*
X76090605Y-124467703D01*
X76088497Y-124475569D01*
X76085932Y-124474881D01*
X76062956Y-124526798D01*
X76004625Y-124565259D01*
X75968297Y-124570700D01*
X75135341Y-124570700D01*
X75068302Y-124551015D01*
X75047660Y-124534381D01*
X73465419Y-122952140D01*
X73431934Y-122890817D01*
X73429100Y-122864459D01*
X73429100Y-122159621D01*
X73429100Y-122159620D01*
X73398271Y-122085193D01*
X73341307Y-122028229D01*
X73266880Y-121997400D01*
X73251443Y-121997400D01*
X73184404Y-121977715D01*
X73138649Y-121924911D01*
X73127443Y-121873400D01*
X73127443Y-121687289D01*
X73120045Y-121650102D01*
X73120045Y-121650100D01*
X73120042Y-121650096D01*
X73118929Y-121647408D01*
X73118246Y-121641059D01*
X73117662Y-121638123D01*
X73117924Y-121638070D01*
X73111457Y-121577939D01*
X73118929Y-121552492D01*
X73120041Y-121549804D01*
X73120045Y-121549800D01*
X73127443Y-121512610D01*
X73127443Y-121287494D01*
X73120045Y-121250304D01*
X73120044Y-121250302D01*
X73091865Y-121208129D01*
X73049692Y-121179950D01*
X73012502Y-121172552D01*
X73012501Y-121172552D01*
X72137373Y-121172552D01*
X72137372Y-121172552D01*
X72100184Y-121179949D01*
X72088901Y-121184624D01*
X72087849Y-121182086D01*
X72038361Y-121197580D01*
X72036153Y-121197600D01*
X71498937Y-121197600D01*
X71431898Y-121177915D01*
X71386143Y-121125111D01*
X71374937Y-121073600D01*
X71374937Y-118249900D01*
X71394622Y-118182861D01*
X71447426Y-118137106D01*
X71498937Y-118125900D01*
X73048429Y-118125900D01*
X73115468Y-118145585D01*
G37*
%TD.AperFunction*%
%TD*%
M02*
