%TF.GenerationSoftware,KiCad,Pcbnew,9.0.3+dfsg-1*%
%TF.CreationDate,2026-07-01T08:19:48-07:00*%
%TF.ProjectId,index.circuit,696e6465-782e-4636-9972-637569742e6b,rev?*%
%TF.SameCoordinates,Original*%
%TF.FileFunction,Legend,Top*%
%TF.FilePolarity,Positive*%
%FSLAX46Y46*%
G04 Gerber Fmt 4.6, Leading zero omitted, Abs format (unit mm)*
G04 Created by KiCad (PCBNEW 9.0.3+dfsg-1) date 2026-07-01 08:19:48*
%MOMM*%
%LPD*%
G01*
G04 APERTURE LIST*
%ADD10C,0.150000*%
%ADD11C,0.116667*%
%ADD12C,0.066667*%
%ADD13C,0.083333*%
%ADD14C,0.100000*%
G04 APERTURE END LIST*
D10*
X115263209Y-125779746D02*
X115263209Y-126319428D01*
X115263209Y-126319428D02*
X115294955Y-126382920D01*
X115294955Y-126382920D02*
X115326701Y-126414667D01*
X115326701Y-126414667D02*
X115390193Y-126446413D01*
X115390193Y-126446413D02*
X115517177Y-126446413D01*
X115517177Y-126446413D02*
X115580669Y-126414667D01*
X115580669Y-126414667D02*
X115612415Y-126382920D01*
X115612415Y-126382920D02*
X115644161Y-126319428D01*
X115644161Y-126319428D02*
X115644161Y-125779746D01*
X115898130Y-125779746D02*
X116310828Y-125779746D01*
X116310828Y-125779746D02*
X116088606Y-126033714D01*
X116088606Y-126033714D02*
X116183844Y-126033714D01*
X116183844Y-126033714D02*
X116247336Y-126065460D01*
X116247336Y-126065460D02*
X116279082Y-126097206D01*
X116279082Y-126097206D02*
X116310828Y-126160698D01*
X116310828Y-126160698D02*
X116310828Y-126319428D01*
X116310828Y-126319428D02*
X116279082Y-126382920D01*
X116279082Y-126382920D02*
X116247336Y-126414667D01*
X116247336Y-126414667D02*
X116183844Y-126446413D01*
X116183844Y-126446413D02*
X115993368Y-126446413D01*
X115993368Y-126446413D02*
X115929876Y-126414667D01*
X115929876Y-126414667D02*
X115898130Y-126382920D01*
D11*
X134522220Y-113537600D02*
X134588887Y-113559822D01*
X134588887Y-113559822D02*
X134699998Y-113559822D01*
X134699998Y-113559822D02*
X134744443Y-113537600D01*
X134744443Y-113537600D02*
X134766665Y-113515377D01*
X134766665Y-113515377D02*
X134788887Y-113470933D01*
X134788887Y-113470933D02*
X134788887Y-113426488D01*
X134788887Y-113426488D02*
X134766665Y-113382044D01*
X134766665Y-113382044D02*
X134744443Y-113359822D01*
X134744443Y-113359822D02*
X134699998Y-113337599D01*
X134699998Y-113337599D02*
X134611109Y-113315377D01*
X134611109Y-113315377D02*
X134566665Y-113293155D01*
X134566665Y-113293155D02*
X134544443Y-113270933D01*
X134544443Y-113270933D02*
X134522220Y-113226488D01*
X134522220Y-113226488D02*
X134522220Y-113182044D01*
X134522220Y-113182044D02*
X134544443Y-113137599D01*
X134544443Y-113137599D02*
X134566665Y-113115377D01*
X134566665Y-113115377D02*
X134611109Y-113093155D01*
X134611109Y-113093155D02*
X134722221Y-113093155D01*
X134722221Y-113093155D02*
X134788887Y-113115377D01*
X134944443Y-113093155D02*
X135055554Y-113559822D01*
X135055554Y-113559822D02*
X135144443Y-113226488D01*
X135144443Y-113226488D02*
X135233332Y-113559822D01*
X135233332Y-113559822D02*
X135344444Y-113093155D01*
X135411111Y-113604266D02*
X135766666Y-113604266D01*
X136033333Y-113315377D02*
X136100000Y-113337599D01*
X136100000Y-113337599D02*
X136122222Y-113359822D01*
X136122222Y-113359822D02*
X136144445Y-113404266D01*
X136144445Y-113404266D02*
X136144445Y-113470933D01*
X136144445Y-113470933D02*
X136122222Y-113515377D01*
X136122222Y-113515377D02*
X136100000Y-113537600D01*
X136100000Y-113537600D02*
X136055556Y-113559822D01*
X136055556Y-113559822D02*
X135877778Y-113559822D01*
X135877778Y-113559822D02*
X135877778Y-113093155D01*
X135877778Y-113093155D02*
X136033333Y-113093155D01*
X136033333Y-113093155D02*
X136077778Y-113115377D01*
X136077778Y-113115377D02*
X136100000Y-113137599D01*
X136100000Y-113137599D02*
X136122222Y-113182044D01*
X136122222Y-113182044D02*
X136122222Y-113226488D01*
X136122222Y-113226488D02*
X136100000Y-113270933D01*
X136100000Y-113270933D02*
X136077778Y-113293155D01*
X136077778Y-113293155D02*
X136033333Y-113315377D01*
X136033333Y-113315377D02*
X135877778Y-113315377D01*
X136433334Y-113093155D02*
X136522223Y-113093155D01*
X136522223Y-113093155D02*
X136566667Y-113115377D01*
X136566667Y-113115377D02*
X136611112Y-113159821D01*
X136611112Y-113159821D02*
X136633334Y-113248710D01*
X136633334Y-113248710D02*
X136633334Y-113404266D01*
X136633334Y-113404266D02*
X136611112Y-113493155D01*
X136611112Y-113493155D02*
X136566667Y-113537600D01*
X136566667Y-113537600D02*
X136522223Y-113559822D01*
X136522223Y-113559822D02*
X136433334Y-113559822D01*
X136433334Y-113559822D02*
X136388889Y-113537600D01*
X136388889Y-113537600D02*
X136344445Y-113493155D01*
X136344445Y-113493155D02*
X136322222Y-113404266D01*
X136322222Y-113404266D02*
X136322222Y-113248710D01*
X136322222Y-113248710D02*
X136344445Y-113159821D01*
X136344445Y-113159821D02*
X136388889Y-113115377D01*
X136388889Y-113115377D02*
X136433334Y-113093155D01*
X136922223Y-113093155D02*
X137011112Y-113093155D01*
X137011112Y-113093155D02*
X137055556Y-113115377D01*
X137055556Y-113115377D02*
X137100001Y-113159821D01*
X137100001Y-113159821D02*
X137122223Y-113248710D01*
X137122223Y-113248710D02*
X137122223Y-113404266D01*
X137122223Y-113404266D02*
X137100001Y-113493155D01*
X137100001Y-113493155D02*
X137055556Y-113537600D01*
X137055556Y-113537600D02*
X137011112Y-113559822D01*
X137011112Y-113559822D02*
X136922223Y-113559822D01*
X136922223Y-113559822D02*
X136877778Y-113537600D01*
X136877778Y-113537600D02*
X136833334Y-113493155D01*
X136833334Y-113493155D02*
X136811111Y-113404266D01*
X136811111Y-113404266D02*
X136811111Y-113248710D01*
X136811111Y-113248710D02*
X136833334Y-113159821D01*
X136833334Y-113159821D02*
X136877778Y-113115377D01*
X136877778Y-113115377D02*
X136922223Y-113093155D01*
X137255556Y-113093155D02*
X137522223Y-113093155D01*
X137388889Y-113559822D02*
X137388889Y-113093155D01*
D12*
X58619047Y-109494501D02*
X58606348Y-109507200D01*
X58606348Y-109507200D02*
X58568253Y-109519898D01*
X58568253Y-109519898D02*
X58542856Y-109519898D01*
X58542856Y-109519898D02*
X58504761Y-109507200D01*
X58504761Y-109507200D02*
X58479364Y-109481803D01*
X58479364Y-109481803D02*
X58466666Y-109456406D01*
X58466666Y-109456406D02*
X58453967Y-109405612D01*
X58453967Y-109405612D02*
X58453967Y-109367517D01*
X58453967Y-109367517D02*
X58466666Y-109316723D01*
X58466666Y-109316723D02*
X58479364Y-109291326D01*
X58479364Y-109291326D02*
X58504761Y-109265929D01*
X58504761Y-109265929D02*
X58542856Y-109253231D01*
X58542856Y-109253231D02*
X58568253Y-109253231D01*
X58568253Y-109253231D02*
X58606348Y-109265929D01*
X58606348Y-109265929D02*
X58619047Y-109278628D01*
X58669841Y-109545295D02*
X58873015Y-109545295D01*
X59063492Y-109519898D02*
X58936508Y-109519898D01*
X58936508Y-109519898D02*
X58936508Y-109253231D01*
X59152381Y-109380215D02*
X59241270Y-109380215D01*
X59279365Y-109519898D02*
X59152381Y-109519898D01*
X59152381Y-109519898D02*
X59152381Y-109253231D01*
X59152381Y-109253231D02*
X59279365Y-109253231D01*
X59393651Y-109519898D02*
X59393651Y-109253231D01*
X59393651Y-109253231D02*
X59457143Y-109253231D01*
X59457143Y-109253231D02*
X59495238Y-109265929D01*
X59495238Y-109265929D02*
X59520635Y-109291326D01*
X59520635Y-109291326D02*
X59533333Y-109316723D01*
X59533333Y-109316723D02*
X59546032Y-109367517D01*
X59546032Y-109367517D02*
X59546032Y-109405612D01*
X59546032Y-109405612D02*
X59533333Y-109456406D01*
X59533333Y-109456406D02*
X59520635Y-109481803D01*
X59520635Y-109481803D02*
X59495238Y-109507200D01*
X59495238Y-109507200D02*
X59457143Y-109519898D01*
X59457143Y-109519898D02*
X59393651Y-109519898D01*
D11*
X134788887Y-123537600D02*
X134855554Y-123559822D01*
X134855554Y-123559822D02*
X134966665Y-123559822D01*
X134966665Y-123559822D02*
X135011110Y-123537600D01*
X135011110Y-123537600D02*
X135033332Y-123515377D01*
X135033332Y-123515377D02*
X135055554Y-123470933D01*
X135055554Y-123470933D02*
X135055554Y-123426488D01*
X135055554Y-123426488D02*
X135033332Y-123382044D01*
X135033332Y-123382044D02*
X135011110Y-123359822D01*
X135011110Y-123359822D02*
X134966665Y-123337599D01*
X134966665Y-123337599D02*
X134877776Y-123315377D01*
X134877776Y-123315377D02*
X134833332Y-123293155D01*
X134833332Y-123293155D02*
X134811110Y-123270933D01*
X134811110Y-123270933D02*
X134788887Y-123226488D01*
X134788887Y-123226488D02*
X134788887Y-123182044D01*
X134788887Y-123182044D02*
X134811110Y-123137599D01*
X134811110Y-123137599D02*
X134833332Y-123115377D01*
X134833332Y-123115377D02*
X134877776Y-123093155D01*
X134877776Y-123093155D02*
X134988888Y-123093155D01*
X134988888Y-123093155D02*
X135055554Y-123115377D01*
X135211110Y-123093155D02*
X135322221Y-123559822D01*
X135322221Y-123559822D02*
X135411110Y-123226488D01*
X135411110Y-123226488D02*
X135499999Y-123559822D01*
X135499999Y-123559822D02*
X135611111Y-123093155D01*
X135677778Y-123604266D02*
X136033333Y-123604266D01*
X136411112Y-123559822D02*
X136255556Y-123337599D01*
X136144445Y-123559822D02*
X136144445Y-123093155D01*
X136144445Y-123093155D02*
X136322223Y-123093155D01*
X136322223Y-123093155D02*
X136366667Y-123115377D01*
X136366667Y-123115377D02*
X136388889Y-123137599D01*
X136388889Y-123137599D02*
X136411112Y-123182044D01*
X136411112Y-123182044D02*
X136411112Y-123248710D01*
X136411112Y-123248710D02*
X136388889Y-123293155D01*
X136388889Y-123293155D02*
X136366667Y-123315377D01*
X136366667Y-123315377D02*
X136322223Y-123337599D01*
X136322223Y-123337599D02*
X136144445Y-123337599D01*
X136588889Y-123537600D02*
X136655556Y-123559822D01*
X136655556Y-123559822D02*
X136766667Y-123559822D01*
X136766667Y-123559822D02*
X136811112Y-123537600D01*
X136811112Y-123537600D02*
X136833334Y-123515377D01*
X136833334Y-123515377D02*
X136855556Y-123470933D01*
X136855556Y-123470933D02*
X136855556Y-123426488D01*
X136855556Y-123426488D02*
X136833334Y-123382044D01*
X136833334Y-123382044D02*
X136811112Y-123359822D01*
X136811112Y-123359822D02*
X136766667Y-123337599D01*
X136766667Y-123337599D02*
X136677778Y-123315377D01*
X136677778Y-123315377D02*
X136633334Y-123293155D01*
X136633334Y-123293155D02*
X136611112Y-123270933D01*
X136611112Y-123270933D02*
X136588889Y-123226488D01*
X136588889Y-123226488D02*
X136588889Y-123182044D01*
X136588889Y-123182044D02*
X136611112Y-123137599D01*
X136611112Y-123137599D02*
X136633334Y-123115377D01*
X136633334Y-123115377D02*
X136677778Y-123093155D01*
X136677778Y-123093155D02*
X136788890Y-123093155D01*
X136788890Y-123093155D02*
X136855556Y-123115377D01*
X136988890Y-123093155D02*
X137255557Y-123093155D01*
X137122223Y-123559822D02*
X137122223Y-123093155D01*
D10*
X58508317Y-102712099D02*
X58508317Y-102045432D01*
X58508317Y-102045432D02*
X58667047Y-102045432D01*
X58667047Y-102045432D02*
X58762285Y-102077178D01*
X58762285Y-102077178D02*
X58825777Y-102140670D01*
X58825777Y-102140670D02*
X58857523Y-102204162D01*
X58857523Y-102204162D02*
X58889269Y-102331146D01*
X58889269Y-102331146D02*
X58889269Y-102426384D01*
X58889269Y-102426384D02*
X58857523Y-102553368D01*
X58857523Y-102553368D02*
X58825777Y-102616860D01*
X58825777Y-102616860D02*
X58762285Y-102680353D01*
X58762285Y-102680353D02*
X58667047Y-102712099D01*
X58667047Y-102712099D02*
X58508317Y-102712099D01*
X59524190Y-102712099D02*
X59143238Y-102712099D01*
X59333714Y-102712099D02*
X59333714Y-102045432D01*
X59333714Y-102045432D02*
X59270222Y-102140670D01*
X59270222Y-102140670D02*
X59206730Y-102204162D01*
X59206730Y-102204162D02*
X59143238Y-102235908D01*
X99780571Y-124805345D02*
X99780571Y-125281535D01*
X99780571Y-125281535D02*
X99748825Y-125376773D01*
X99748825Y-125376773D02*
X99685333Y-125440266D01*
X99685333Y-125440266D02*
X99590095Y-125472012D01*
X99590095Y-125472012D02*
X99526603Y-125472012D01*
X100447238Y-125472012D02*
X100066286Y-125472012D01*
X100256762Y-125472012D02*
X100256762Y-124805345D01*
X100256762Y-124805345D02*
X100193270Y-124900583D01*
X100193270Y-124900583D02*
X100129778Y-124964075D01*
X100129778Y-124964075D02*
X100066286Y-124995821D01*
D11*
X57203155Y-95277778D02*
X57536488Y-95277778D01*
X57536488Y-95277778D02*
X57603155Y-95300000D01*
X57603155Y-95300000D02*
X57647600Y-95344445D01*
X57647600Y-95344445D02*
X57669822Y-95411111D01*
X57669822Y-95411111D02*
X57669822Y-95455556D01*
X57714266Y-95166667D02*
X57714266Y-94811111D01*
X57203155Y-94766666D02*
X57203155Y-94499999D01*
X57669822Y-94633333D02*
X57203155Y-94633333D01*
X57669822Y-94344443D02*
X57203155Y-94344443D01*
X57425377Y-94344443D02*
X57425377Y-94077776D01*
X57669822Y-94077776D02*
X57203155Y-94077776D01*
X57203155Y-93855554D02*
X57580933Y-93855554D01*
X57580933Y-93855554D02*
X57625377Y-93833332D01*
X57625377Y-93833332D02*
X57647600Y-93811110D01*
X57647600Y-93811110D02*
X57669822Y-93766665D01*
X57669822Y-93766665D02*
X57669822Y-93677776D01*
X57669822Y-93677776D02*
X57647600Y-93633332D01*
X57647600Y-93633332D02*
X57625377Y-93611110D01*
X57625377Y-93611110D02*
X57580933Y-93588887D01*
X57580933Y-93588887D02*
X57203155Y-93588887D01*
X57669822Y-93366665D02*
X57203155Y-93366665D01*
X57203155Y-93366665D02*
X57536488Y-93211110D01*
X57536488Y-93211110D02*
X57203155Y-93055554D01*
X57203155Y-93055554D02*
X57669822Y-93055554D01*
X57425377Y-92677776D02*
X57447599Y-92611109D01*
X57447599Y-92611109D02*
X57469822Y-92588887D01*
X57469822Y-92588887D02*
X57514266Y-92566664D01*
X57514266Y-92566664D02*
X57580933Y-92566664D01*
X57580933Y-92566664D02*
X57625377Y-92588887D01*
X57625377Y-92588887D02*
X57647600Y-92611109D01*
X57647600Y-92611109D02*
X57669822Y-92655553D01*
X57669822Y-92655553D02*
X57669822Y-92833331D01*
X57669822Y-92833331D02*
X57203155Y-92833331D01*
X57203155Y-92833331D02*
X57203155Y-92677776D01*
X57203155Y-92677776D02*
X57225377Y-92633331D01*
X57225377Y-92633331D02*
X57247599Y-92611109D01*
X57247599Y-92611109D02*
X57292044Y-92588887D01*
X57292044Y-92588887D02*
X57336488Y-92588887D01*
X57336488Y-92588887D02*
X57380933Y-92611109D01*
X57380933Y-92611109D02*
X57403155Y-92633331D01*
X57403155Y-92633331D02*
X57425377Y-92677776D01*
X57425377Y-92677776D02*
X57425377Y-92833331D01*
D13*
X58850270Y-97246348D02*
X58850270Y-97135237D01*
X59024873Y-97087618D02*
X59024873Y-97246348D01*
X59024873Y-97246348D02*
X58691540Y-97246348D01*
X58691540Y-97246348D02*
X58691540Y-97087618D01*
X59024873Y-96944761D02*
X58691540Y-96944761D01*
X58691540Y-96944761D02*
X59024873Y-96754285D01*
X59024873Y-96754285D02*
X58691540Y-96754285D01*
X58993127Y-96405079D02*
X59009000Y-96420952D01*
X59009000Y-96420952D02*
X59024873Y-96468571D01*
X59024873Y-96468571D02*
X59024873Y-96500317D01*
X59024873Y-96500317D02*
X59009000Y-96547936D01*
X59009000Y-96547936D02*
X58977254Y-96579682D01*
X58977254Y-96579682D02*
X58945508Y-96595555D01*
X58945508Y-96595555D02*
X58882016Y-96611428D01*
X58882016Y-96611428D02*
X58834397Y-96611428D01*
X58834397Y-96611428D02*
X58770905Y-96595555D01*
X58770905Y-96595555D02*
X58739159Y-96579682D01*
X58739159Y-96579682D02*
X58707413Y-96547936D01*
X58707413Y-96547936D02*
X58691540Y-96500317D01*
X58691540Y-96500317D02*
X58691540Y-96468571D01*
X58691540Y-96468571D02*
X58707413Y-96420952D01*
X58707413Y-96420952D02*
X58723286Y-96405079D01*
X59056619Y-96341587D02*
X59056619Y-96087619D01*
X58850270Y-95897143D02*
X58866143Y-95849524D01*
X58866143Y-95849524D02*
X58882016Y-95833651D01*
X58882016Y-95833651D02*
X58913762Y-95817778D01*
X58913762Y-95817778D02*
X58961381Y-95817778D01*
X58961381Y-95817778D02*
X58993127Y-95833651D01*
X58993127Y-95833651D02*
X59009000Y-95849524D01*
X59009000Y-95849524D02*
X59024873Y-95881270D01*
X59024873Y-95881270D02*
X59024873Y-96008254D01*
X59024873Y-96008254D02*
X58691540Y-96008254D01*
X58691540Y-96008254D02*
X58691540Y-95897143D01*
X58691540Y-95897143D02*
X58707413Y-95865397D01*
X58707413Y-95865397D02*
X58723286Y-95849524D01*
X58723286Y-95849524D02*
X58755032Y-95833651D01*
X58755032Y-95833651D02*
X58786778Y-95833651D01*
X58786778Y-95833651D02*
X58818524Y-95849524D01*
X58818524Y-95849524D02*
X58834397Y-95865397D01*
X58834397Y-95865397D02*
X58850270Y-95897143D01*
X58850270Y-95897143D02*
X58850270Y-96008254D01*
X58707413Y-89173968D02*
X58691540Y-89205714D01*
X58691540Y-89205714D02*
X58691540Y-89253333D01*
X58691540Y-89253333D02*
X58707413Y-89300952D01*
X58707413Y-89300952D02*
X58739159Y-89332698D01*
X58739159Y-89332698D02*
X58770905Y-89348571D01*
X58770905Y-89348571D02*
X58834397Y-89364444D01*
X58834397Y-89364444D02*
X58882016Y-89364444D01*
X58882016Y-89364444D02*
X58945508Y-89348571D01*
X58945508Y-89348571D02*
X58977254Y-89332698D01*
X58977254Y-89332698D02*
X59009000Y-89300952D01*
X59009000Y-89300952D02*
X59024873Y-89253333D01*
X59024873Y-89253333D02*
X59024873Y-89221587D01*
X59024873Y-89221587D02*
X59009000Y-89173968D01*
X59009000Y-89173968D02*
X58993127Y-89158095D01*
X58993127Y-89158095D02*
X58882016Y-89158095D01*
X58882016Y-89158095D02*
X58882016Y-89221587D01*
X59024873Y-89015238D02*
X58691540Y-89015238D01*
X58691540Y-89015238D02*
X59024873Y-88824762D01*
X59024873Y-88824762D02*
X58691540Y-88824762D01*
X59024873Y-88666032D02*
X58691540Y-88666032D01*
X58691540Y-88666032D02*
X58691540Y-88586667D01*
X58691540Y-88586667D02*
X58707413Y-88539048D01*
X58707413Y-88539048D02*
X58739159Y-88507302D01*
X58739159Y-88507302D02*
X58770905Y-88491429D01*
X58770905Y-88491429D02*
X58834397Y-88475556D01*
X58834397Y-88475556D02*
X58882016Y-88475556D01*
X58882016Y-88475556D02*
X58945508Y-88491429D01*
X58945508Y-88491429D02*
X58977254Y-88507302D01*
X58977254Y-88507302D02*
X59009000Y-88539048D01*
X59009000Y-88539048D02*
X59024873Y-88586667D01*
X59024873Y-88586667D02*
X59024873Y-88666032D01*
X59009000Y-92079047D02*
X59024873Y-92031428D01*
X59024873Y-92031428D02*
X59024873Y-91952063D01*
X59024873Y-91952063D02*
X59009000Y-91920317D01*
X59009000Y-91920317D02*
X58993127Y-91904444D01*
X58993127Y-91904444D02*
X58961381Y-91888571D01*
X58961381Y-91888571D02*
X58929635Y-91888571D01*
X58929635Y-91888571D02*
X58897889Y-91904444D01*
X58897889Y-91904444D02*
X58882016Y-91920317D01*
X58882016Y-91920317D02*
X58866143Y-91952063D01*
X58866143Y-91952063D02*
X58850270Y-92015555D01*
X58850270Y-92015555D02*
X58834397Y-92047301D01*
X58834397Y-92047301D02*
X58818524Y-92063174D01*
X58818524Y-92063174D02*
X58786778Y-92079047D01*
X58786778Y-92079047D02*
X58755032Y-92079047D01*
X58755032Y-92079047D02*
X58723286Y-92063174D01*
X58723286Y-92063174D02*
X58707413Y-92047301D01*
X58707413Y-92047301D02*
X58691540Y-92015555D01*
X58691540Y-92015555D02*
X58691540Y-91936190D01*
X58691540Y-91936190D02*
X58707413Y-91888571D01*
X59024873Y-91745714D02*
X58691540Y-91745714D01*
X58850270Y-91745714D02*
X58850270Y-91555238D01*
X59024873Y-91555238D02*
X58691540Y-91555238D01*
X59024873Y-91396508D02*
X58691540Y-91396508D01*
X58850270Y-91126667D02*
X58850270Y-91237778D01*
X59024873Y-91237778D02*
X58691540Y-91237778D01*
X58691540Y-91237778D02*
X58691540Y-91079048D01*
X58691540Y-90999683D02*
X58691540Y-90809207D01*
X59024873Y-90904445D02*
X58691540Y-90904445D01*
X58850270Y-99762539D02*
X58850270Y-99651428D01*
X59024873Y-99603809D02*
X59024873Y-99762539D01*
X59024873Y-99762539D02*
X58691540Y-99762539D01*
X58691540Y-99762539D02*
X58691540Y-99603809D01*
X59024873Y-99460952D02*
X58691540Y-99460952D01*
X58691540Y-99460952D02*
X59024873Y-99270476D01*
X59024873Y-99270476D02*
X58691540Y-99270476D01*
X58993127Y-98921270D02*
X59009000Y-98937143D01*
X59009000Y-98937143D02*
X59024873Y-98984762D01*
X59024873Y-98984762D02*
X59024873Y-99016508D01*
X59024873Y-99016508D02*
X59009000Y-99064127D01*
X59009000Y-99064127D02*
X58977254Y-99095873D01*
X58977254Y-99095873D02*
X58945508Y-99111746D01*
X58945508Y-99111746D02*
X58882016Y-99127619D01*
X58882016Y-99127619D02*
X58834397Y-99127619D01*
X58834397Y-99127619D02*
X58770905Y-99111746D01*
X58770905Y-99111746D02*
X58739159Y-99095873D01*
X58739159Y-99095873D02*
X58707413Y-99064127D01*
X58707413Y-99064127D02*
X58691540Y-99016508D01*
X58691540Y-99016508D02*
X58691540Y-98984762D01*
X58691540Y-98984762D02*
X58707413Y-98937143D01*
X58707413Y-98937143D02*
X58723286Y-98921270D01*
X59056619Y-98857778D02*
X59056619Y-98603810D01*
X58929635Y-98540318D02*
X58929635Y-98381588D01*
X59024873Y-98572064D02*
X58691540Y-98460953D01*
X58691540Y-98460953D02*
X59024873Y-98349842D01*
X58850270Y-94888888D02*
X58850270Y-94777777D01*
X59024873Y-94730158D02*
X59024873Y-94888888D01*
X59024873Y-94888888D02*
X58691540Y-94888888D01*
X58691540Y-94888888D02*
X58691540Y-94730158D01*
X59024873Y-94587301D02*
X58691540Y-94587301D01*
X58691540Y-94587301D02*
X59024873Y-94396825D01*
X59024873Y-94396825D02*
X58691540Y-94396825D01*
X58993127Y-94047619D02*
X59009000Y-94063492D01*
X59009000Y-94063492D02*
X59024873Y-94111111D01*
X59024873Y-94111111D02*
X59024873Y-94142857D01*
X59024873Y-94142857D02*
X59009000Y-94190476D01*
X59009000Y-94190476D02*
X58977254Y-94222222D01*
X58977254Y-94222222D02*
X58945508Y-94238095D01*
X58945508Y-94238095D02*
X58882016Y-94253968D01*
X58882016Y-94253968D02*
X58834397Y-94253968D01*
X58834397Y-94253968D02*
X58770905Y-94238095D01*
X58770905Y-94238095D02*
X58739159Y-94222222D01*
X58739159Y-94222222D02*
X58707413Y-94190476D01*
X58707413Y-94190476D02*
X58691540Y-94142857D01*
X58691540Y-94142857D02*
X58691540Y-94111111D01*
X58691540Y-94111111D02*
X58707413Y-94063492D01*
X58707413Y-94063492D02*
X58723286Y-94047619D01*
X59056619Y-93984127D02*
X59056619Y-93730159D01*
X59009000Y-93666667D02*
X59024873Y-93619048D01*
X59024873Y-93619048D02*
X59024873Y-93539683D01*
X59024873Y-93539683D02*
X59009000Y-93507937D01*
X59009000Y-93507937D02*
X58993127Y-93492064D01*
X58993127Y-93492064D02*
X58961381Y-93476191D01*
X58961381Y-93476191D02*
X58929635Y-93476191D01*
X58929635Y-93476191D02*
X58897889Y-93492064D01*
X58897889Y-93492064D02*
X58882016Y-93507937D01*
X58882016Y-93507937D02*
X58866143Y-93539683D01*
X58866143Y-93539683D02*
X58850270Y-93603175D01*
X58850270Y-93603175D02*
X58834397Y-93634921D01*
X58834397Y-93634921D02*
X58818524Y-93650794D01*
X58818524Y-93650794D02*
X58786778Y-93666667D01*
X58786778Y-93666667D02*
X58755032Y-93666667D01*
X58755032Y-93666667D02*
X58723286Y-93650794D01*
X58723286Y-93650794D02*
X58707413Y-93634921D01*
X58707413Y-93634921D02*
X58691540Y-93603175D01*
X58691540Y-93603175D02*
X58691540Y-93523810D01*
X58691540Y-93523810D02*
X58707413Y-93476191D01*
X58691540Y-93365080D02*
X59024873Y-93285715D01*
X59024873Y-93285715D02*
X58786778Y-93222223D01*
X58786778Y-93222223D02*
X59024873Y-93158731D01*
X59024873Y-93158731D02*
X58691540Y-93079366D01*
D10*
X63568239Y-119306625D02*
X63568239Y-119624086D01*
X63346017Y-118957419D02*
X63568239Y-119306625D01*
X63568239Y-119306625D02*
X63790461Y-118957419D01*
X64361890Y-119624086D02*
X63980938Y-119624086D01*
X64171414Y-119624086D02*
X64171414Y-118957419D01*
X64171414Y-118957419D02*
X64107922Y-119052657D01*
X64107922Y-119052657D02*
X64044430Y-119116149D01*
X64044430Y-119116149D02*
X63980938Y-119147895D01*
D12*
X123600000Y-127494501D02*
X123587301Y-127507200D01*
X123587301Y-127507200D02*
X123549206Y-127519898D01*
X123549206Y-127519898D02*
X123523809Y-127519898D01*
X123523809Y-127519898D02*
X123485714Y-127507200D01*
X123485714Y-127507200D02*
X123460317Y-127481803D01*
X123460317Y-127481803D02*
X123447619Y-127456406D01*
X123447619Y-127456406D02*
X123434920Y-127405612D01*
X123434920Y-127405612D02*
X123434920Y-127367517D01*
X123434920Y-127367517D02*
X123447619Y-127316723D01*
X123447619Y-127316723D02*
X123460317Y-127291326D01*
X123460317Y-127291326D02*
X123485714Y-127265929D01*
X123485714Y-127265929D02*
X123523809Y-127253231D01*
X123523809Y-127253231D02*
X123549206Y-127253231D01*
X123549206Y-127253231D02*
X123587301Y-127265929D01*
X123587301Y-127265929D02*
X123600000Y-127278628D01*
X123650794Y-127545295D02*
X123853968Y-127545295D01*
X123968254Y-127253231D02*
X124019048Y-127253231D01*
X124019048Y-127253231D02*
X124044445Y-127265929D01*
X124044445Y-127265929D02*
X124069842Y-127291326D01*
X124069842Y-127291326D02*
X124082540Y-127342120D01*
X124082540Y-127342120D02*
X124082540Y-127431009D01*
X124082540Y-127431009D02*
X124069842Y-127481803D01*
X124069842Y-127481803D02*
X124044445Y-127507200D01*
X124044445Y-127507200D02*
X124019048Y-127519898D01*
X124019048Y-127519898D02*
X123968254Y-127519898D01*
X123968254Y-127519898D02*
X123942858Y-127507200D01*
X123942858Y-127507200D02*
X123917461Y-127481803D01*
X123917461Y-127481803D02*
X123904762Y-127431009D01*
X123904762Y-127431009D02*
X123904762Y-127342120D01*
X123904762Y-127342120D02*
X123917461Y-127291326D01*
X123917461Y-127291326D02*
X123942858Y-127265929D01*
X123942858Y-127265929D02*
X123968254Y-127253231D01*
X124196826Y-127253231D02*
X124196826Y-127469104D01*
X124196826Y-127469104D02*
X124209524Y-127494501D01*
X124209524Y-127494501D02*
X124222223Y-127507200D01*
X124222223Y-127507200D02*
X124247619Y-127519898D01*
X124247619Y-127519898D02*
X124298413Y-127519898D01*
X124298413Y-127519898D02*
X124323810Y-127507200D01*
X124323810Y-127507200D02*
X124336508Y-127494501D01*
X124336508Y-127494501D02*
X124349207Y-127469104D01*
X124349207Y-127469104D02*
X124349207Y-127253231D01*
X124438095Y-127253231D02*
X124590477Y-127253231D01*
X124514286Y-127519898D02*
X124514286Y-127253231D01*
D10*
X80492968Y-122367728D02*
X81032650Y-122367728D01*
X81032650Y-122367728D02*
X81096142Y-122335982D01*
X81096142Y-122335982D02*
X81127889Y-122304236D01*
X81127889Y-122304236D02*
X81159635Y-122240744D01*
X81159635Y-122240744D02*
X81159635Y-122113760D01*
X81159635Y-122113760D02*
X81127889Y-122050268D01*
X81127889Y-122050268D02*
X81096142Y-122018522D01*
X81096142Y-122018522D02*
X81032650Y-121986776D01*
X81032650Y-121986776D02*
X80492968Y-121986776D01*
X81159635Y-121320109D02*
X81159635Y-121701061D01*
X81159635Y-121510585D02*
X80492968Y-121510585D01*
X80492968Y-121510585D02*
X80588206Y-121574077D01*
X80588206Y-121574077D02*
X80651698Y-121637569D01*
X80651698Y-121637569D02*
X80683444Y-121701061D01*
D12*
X107777778Y-127494501D02*
X107765079Y-127507200D01*
X107765079Y-127507200D02*
X107726984Y-127519898D01*
X107726984Y-127519898D02*
X107701587Y-127519898D01*
X107701587Y-127519898D02*
X107663492Y-127507200D01*
X107663492Y-127507200D02*
X107638095Y-127481803D01*
X107638095Y-127481803D02*
X107625397Y-127456406D01*
X107625397Y-127456406D02*
X107612698Y-127405612D01*
X107612698Y-127405612D02*
X107612698Y-127367517D01*
X107612698Y-127367517D02*
X107625397Y-127316723D01*
X107625397Y-127316723D02*
X107638095Y-127291326D01*
X107638095Y-127291326D02*
X107663492Y-127265929D01*
X107663492Y-127265929D02*
X107701587Y-127253231D01*
X107701587Y-127253231D02*
X107726984Y-127253231D01*
X107726984Y-127253231D02*
X107765079Y-127265929D01*
X107765079Y-127265929D02*
X107777778Y-127278628D01*
X107828572Y-127545295D02*
X108031746Y-127545295D01*
X108095239Y-127519898D02*
X108095239Y-127253231D01*
X108222223Y-127519898D02*
X108222223Y-127253231D01*
X108222223Y-127253231D02*
X108374604Y-127519898D01*
X108374604Y-127519898D02*
X108374604Y-127253231D01*
D10*
X87403163Y-116290546D02*
X87403163Y-116830228D01*
X87403163Y-116830228D02*
X87434909Y-116893720D01*
X87434909Y-116893720D02*
X87466655Y-116925467D01*
X87466655Y-116925467D02*
X87530147Y-116957213D01*
X87530147Y-116957213D02*
X87657131Y-116957213D01*
X87657131Y-116957213D02*
X87720623Y-116925467D01*
X87720623Y-116925467D02*
X87752369Y-116893720D01*
X87752369Y-116893720D02*
X87784115Y-116830228D01*
X87784115Y-116830228D02*
X87784115Y-116290546D01*
X88069830Y-116354038D02*
X88101576Y-116322292D01*
X88101576Y-116322292D02*
X88165068Y-116290546D01*
X88165068Y-116290546D02*
X88323798Y-116290546D01*
X88323798Y-116290546D02*
X88387290Y-116322292D01*
X88387290Y-116322292D02*
X88419036Y-116354038D01*
X88419036Y-116354038D02*
X88450782Y-116417530D01*
X88450782Y-116417530D02*
X88450782Y-116481022D01*
X88450782Y-116481022D02*
X88419036Y-116576260D01*
X88419036Y-116576260D02*
X88038084Y-116957213D01*
X88038084Y-116957213D02*
X88450782Y-116957213D01*
D14*
%TO.C,U3*%
X114097262Y-130646549D02*
X114221721Y-130770374D01*
X114220451Y-130521460D02*
X114097262Y-130646549D01*
X114221721Y-130770374D02*
X114346179Y-130646549D01*
X114346179Y-130646549D02*
X114222991Y-130521460D01*
X114612855Y-128499620D02*
X117411935Y-128499620D01*
X114612855Y-129500380D02*
X114612855Y-128499620D01*
X117411935Y-128499620D02*
X117411935Y-129500380D01*
X117411935Y-129500380D02*
X114612855Y-129500380D01*
%TO.C,SW_BOOT*%
X133750000Y-117000000D02*
X135100000Y-117000000D01*
X133750000Y-120250000D02*
X133750000Y-113750000D01*
X135100000Y-117000000D02*
X136636396Y-116187500D01*
X138250000Y-117000000D02*
X136900000Y-117000000D01*
X138250000Y-120250000D02*
X138250000Y-113750000D01*
%TO.C,SW2*%
X86975000Y-95025000D02*
X86975000Y-109025000D01*
X86975000Y-109025000D02*
X100975000Y-109025000D01*
X100975000Y-95025000D02*
X86975000Y-95025000D01*
X100975000Y-109025000D02*
X100975000Y-95025000D01*
%TO.C,C_LED*%
X57375000Y-109900000D02*
X57375000Y-112100000D01*
X57375000Y-112100000D02*
X59912500Y-112100000D01*
X59912500Y-109900000D02*
X57375000Y-109900000D01*
%TO.C,SW_RST*%
X133750000Y-127000000D02*
X135100000Y-127000000D01*
X133750000Y-130250000D02*
X133750000Y-123750000D01*
X135100000Y-127000000D02*
X136636396Y-126187500D01*
X138250000Y-127000000D02*
X136900000Y-127000000D01*
X138250000Y-130250000D02*
X138250000Y-123750000D01*
%TO.C,SW7*%
X106025000Y-75975000D02*
X106025000Y-89975000D01*
X106025000Y-89975000D02*
X120025000Y-89975000D01*
X120025000Y-75975000D02*
X106025000Y-75975000D01*
X120025000Y-89975000D02*
X120025000Y-75975000D01*
%TO.C,D1*%
X55900057Y-103500132D02*
X55903467Y-103474230D01*
X55903467Y-103474230D02*
X55913465Y-103450094D01*
X55903467Y-103526034D02*
X55900057Y-103500132D01*
X55913465Y-103450094D02*
X55929369Y-103429368D01*
X55913465Y-103550170D02*
X55903467Y-103526034D01*
X55929369Y-103429368D02*
X55950095Y-103413464D01*
X55929369Y-103570896D02*
X55913465Y-103550170D01*
X55950095Y-103413464D02*
X55974231Y-103403466D01*
X55950095Y-103586800D02*
X55929369Y-103570896D01*
X55974231Y-103403466D02*
X56000133Y-103400056D01*
X55974231Y-103596798D02*
X55950095Y-103586800D01*
X56000133Y-103400056D02*
X56026035Y-103403466D01*
X56000133Y-103600208D02*
X55974231Y-103596798D01*
X56026035Y-103403466D02*
X56050171Y-103413464D01*
X56026035Y-103596798D02*
X56000133Y-103600208D01*
X56050171Y-103413464D02*
X56070897Y-103429368D01*
X56050171Y-103586800D02*
X56026035Y-103596798D01*
X56070897Y-103429368D02*
X56086801Y-103450094D01*
X56070897Y-103570896D02*
X56050171Y-103586800D01*
X56086801Y-103450094D02*
X56096799Y-103474230D01*
X56086801Y-103550170D02*
X56070897Y-103570896D01*
X56096799Y-103474230D02*
X56100209Y-103500132D01*
X56096799Y-103526034D02*
X56086801Y-103550170D01*
X56100209Y-103500132D02*
X56096799Y-103526034D01*
X56499954Y-103499954D02*
X61499944Y-103499954D01*
X56499954Y-103619690D02*
X56499954Y-103499954D01*
X56499954Y-106769569D02*
X56499954Y-105230329D01*
X56499954Y-108499944D02*
X56499954Y-108380209D01*
X57500511Y-106000000D02*
X57551626Y-105611739D01*
X57551626Y-105611739D02*
X57701490Y-105249938D01*
X57551626Y-106388261D02*
X57500511Y-106000000D01*
X57701490Y-105249938D02*
X57939887Y-104939252D01*
X57701490Y-106750062D02*
X57551626Y-106388261D01*
X57939887Y-104939252D02*
X58250573Y-104700855D01*
X57939887Y-107060748D02*
X57701490Y-106750062D01*
X58250573Y-104700855D02*
X58612374Y-104550991D01*
X58250573Y-107299145D02*
X57939887Y-107060748D01*
X58612374Y-104550991D02*
X59000635Y-104499876D01*
X58612374Y-107449009D02*
X58250573Y-107299145D01*
X59000635Y-104499876D02*
X59388896Y-104550991D01*
X59000635Y-107500124D02*
X58612374Y-107449009D01*
X59388896Y-104550991D02*
X59750697Y-104700855D01*
X59388896Y-107449009D02*
X59000635Y-107500124D01*
X59699973Y-108500020D02*
X60399997Y-107799742D01*
X59750697Y-104700855D02*
X60061383Y-104939252D01*
X59750697Y-107299145D02*
X59388896Y-107449009D01*
X60061383Y-104939252D02*
X60299780Y-105249938D01*
X60061383Y-107060748D02*
X59750697Y-107299145D01*
X60299780Y-105249938D02*
X60449644Y-105611739D01*
X60299780Y-106750062D02*
X60061383Y-107060748D01*
X60399997Y-107799996D02*
X60399997Y-108500020D01*
X60399997Y-108500020D02*
X59699973Y-108500020D01*
X60399997Y-108500020D02*
X60399997Y-108500020D01*
X60449644Y-105611739D02*
X60500759Y-106000000D01*
X60449644Y-106388261D02*
X60299780Y-106750062D01*
X60500759Y-106000000D02*
X60449644Y-106388261D01*
X61499944Y-103499954D02*
X61499944Y-103619690D01*
X61499944Y-105230329D02*
X61499944Y-106769569D01*
X61499944Y-108380209D02*
X61499944Y-108499944D01*
X61499944Y-108499944D02*
X56499954Y-108499944D01*
%TO.C,J1*%
X95531022Y-130675759D02*
X95531022Y-128812847D01*
X95531022Y-134394141D02*
X95531022Y-132912839D01*
X104471010Y-130676115D02*
X104471010Y-128812491D01*
X104471010Y-134394141D02*
X95531022Y-134394141D01*
X104471010Y-134394141D02*
X104471010Y-132912483D01*
%TO.C,SW8*%
X125075000Y-75975000D02*
X125075000Y-89975000D01*
X125075000Y-89975000D02*
X139075000Y-89975000D01*
X139075000Y-75975000D02*
X125075000Y-75975000D01*
X139075000Y-89975000D02*
X139075000Y-75975000D01*
%TO.C,SW1*%
X67925000Y-95025000D02*
X67925000Y-109025000D01*
X67925000Y-109025000D02*
X81925000Y-109025000D01*
X81925000Y-95025000D02*
X67925000Y-95025000D01*
X81925000Y-109025000D02*
X81925000Y-95025000D01*
%TO.C,Y1*%
X61742804Y-122249885D02*
X61742804Y-123907083D01*
X61742804Y-123907083D02*
X63600001Y-123907083D01*
X61971404Y-120321263D02*
X66028596Y-120321263D01*
X61971404Y-123678483D02*
X61971404Y-120321263D01*
X66028596Y-120321263D02*
X66028596Y-123678483D01*
X66028596Y-123678483D02*
X61971404Y-123678483D01*
%TO.C,SW3*%
X106025000Y-95025000D02*
X106025000Y-109025000D01*
X106025000Y-109025000D02*
X120025000Y-109025000D01*
X120025000Y-95025000D02*
X106025000Y-95025000D01*
X120025000Y-109025000D02*
X120025000Y-95025000D01*
%TO.C,C_OUT*%
X122375000Y-127900000D02*
X122375000Y-130100000D01*
X122375000Y-130100000D02*
X124912500Y-130100000D01*
X124912500Y-127900000D02*
X122375000Y-127900000D01*
%TO.C,U1*%
X72500083Y-118499931D02*
X73068916Y-118499931D01*
X72500083Y-118599956D02*
X72500083Y-118499931D01*
X72500083Y-119068815D02*
X72500083Y-118599956D01*
X72500083Y-125499942D02*
X72500083Y-124931084D01*
X72500210Y-118499931D02*
X73069043Y-118499931D01*
X72500210Y-118599956D02*
X72500210Y-118499931D01*
X72500210Y-119068815D02*
X72500210Y-118599956D01*
X72500210Y-125499917D02*
X72500210Y-124931084D01*
X73068916Y-125499942D02*
X72500083Y-125499942D01*
X73069043Y-125499917D02*
X72500210Y-125499917D01*
X78931185Y-118499931D02*
X79500018Y-118499931D01*
X78931185Y-118499931D02*
X79500018Y-119068815D01*
X78931312Y-118499931D02*
X79500145Y-118499931D01*
X78931312Y-118499931D02*
X79500145Y-119068815D01*
X79403168Y-118759011D02*
X79144063Y-118499931D01*
X79403295Y-118759011D02*
X79144215Y-118499931D01*
X79500018Y-118499931D02*
X79500018Y-119068815D01*
X79500018Y-118759011D02*
X79403168Y-118759011D01*
X79500018Y-124931084D02*
X79500018Y-125499942D01*
X79500018Y-125499942D02*
X78931185Y-125499942D01*
X79500145Y-118499931D02*
X79500145Y-119068815D01*
X79500145Y-118759011D02*
X79403295Y-118759011D01*
X79500145Y-124931084D02*
X79500145Y-125499917D01*
X79500145Y-125499917D02*
X78931312Y-125499917D01*
X79573145Y-118000008D02*
X79577472Y-117967138D01*
X79573272Y-118000008D02*
X79577599Y-117967138D01*
X79577472Y-117967138D02*
X79590160Y-117936508D01*
X79577472Y-118032878D02*
X79573145Y-118000008D01*
X79577599Y-117967138D02*
X79590287Y-117936508D01*
X79577599Y-118032878D02*
X79573272Y-118000008D01*
X79590160Y-117936508D02*
X79610342Y-117910205D01*
X79590160Y-118063508D02*
X79577472Y-118032878D01*
X79590287Y-117936508D02*
X79610469Y-117910205D01*
X79590287Y-118063508D02*
X79577599Y-118032878D01*
X79610342Y-117910205D02*
X79636645Y-117890023D01*
X79610342Y-118089811D02*
X79590160Y-118063508D01*
X79610469Y-117910205D02*
X79636772Y-117890023D01*
X79610469Y-118089811D02*
X79590287Y-118063508D01*
X79636645Y-117890023D02*
X79667275Y-117877335D01*
X79636645Y-118109993D02*
X79610342Y-118089811D01*
X79636772Y-117890023D02*
X79667402Y-117877335D01*
X79636772Y-118109993D02*
X79610469Y-118089811D01*
X79667275Y-117877335D02*
X79700145Y-117873008D01*
X79667275Y-118122681D02*
X79636645Y-118109993D01*
X79667402Y-117877335D02*
X79700272Y-117873008D01*
X79667402Y-118122681D02*
X79636772Y-118109993D01*
X79700145Y-117873008D02*
X79733015Y-117877335D01*
X79700145Y-118127008D02*
X79667275Y-118122681D01*
X79700272Y-117873008D02*
X79733142Y-117877335D01*
X79700272Y-118127008D02*
X79667402Y-118122681D01*
X79733015Y-117877335D02*
X79763645Y-117890023D01*
X79733015Y-118122681D02*
X79700145Y-118127008D01*
X79733142Y-117877335D02*
X79763772Y-117890023D01*
X79733142Y-118122681D02*
X79700272Y-118127008D01*
X79763645Y-117890023D02*
X79789948Y-117910205D01*
X79763645Y-118109993D02*
X79733015Y-118122681D01*
X79763772Y-117890023D02*
X79790075Y-117910205D01*
X79763772Y-118109993D02*
X79733142Y-118122681D01*
X79789948Y-117910205D02*
X79810130Y-117936508D01*
X79789948Y-118089811D02*
X79763645Y-118109993D01*
X79790075Y-117910205D02*
X79810257Y-117936508D01*
X79790075Y-118089811D02*
X79763772Y-118109993D01*
X79810130Y-117936508D02*
X79822818Y-117967138D01*
X79810130Y-118063508D02*
X79789948Y-118089811D01*
X79810257Y-117936508D02*
X79822945Y-117967138D01*
X79810257Y-118063508D02*
X79790075Y-118089811D01*
X79822818Y-117967138D02*
X79827145Y-118000008D01*
X79822818Y-118032878D02*
X79810130Y-118063508D01*
X79822945Y-117967138D02*
X79827272Y-118000008D01*
X79822945Y-118032878D02*
X79810257Y-118063508D01*
X79827145Y-118000008D02*
X79822818Y-118032878D01*
X79827272Y-118000008D02*
X79822945Y-118032878D01*
%TO.C,C_IN*%
X106375000Y-127900000D02*
X106375000Y-130100000D01*
X106375000Y-130100000D02*
X108912500Y-130100000D01*
X108912500Y-127900000D02*
X106375000Y-127900000D01*
%TO.C,SW6*%
X86975000Y-75975000D02*
X86975000Y-89975000D01*
X86975000Y-89975000D02*
X100975000Y-89975000D01*
X100975000Y-75975000D02*
X86975000Y-75975000D01*
X100975000Y-89975000D02*
X100975000Y-75975000D01*
%TO.C,U2*%
X85177552Y-125530092D02*
X85182667Y-125491240D01*
X85182667Y-125491240D02*
X85197663Y-125455035D01*
X85182667Y-125568944D02*
X85177552Y-125530092D01*
X85197663Y-125455035D02*
X85221519Y-125423945D01*
X85197663Y-125605149D02*
X85182667Y-125568944D01*
X85221519Y-125423945D02*
X85252609Y-125400089D01*
X85221519Y-125636239D02*
X85197663Y-125605149D01*
X85252609Y-125400089D02*
X85288814Y-125385093D01*
X85252609Y-125660095D02*
X85221519Y-125636239D01*
X85288814Y-125385093D02*
X85327666Y-125379978D01*
X85288814Y-125675091D02*
X85252609Y-125660095D01*
X85327666Y-125379978D02*
X85366518Y-125385093D01*
X85327666Y-125680206D02*
X85288814Y-125675091D01*
X85361296Y-119823601D02*
X90638704Y-119823601D01*
X85361296Y-124176399D02*
X85361296Y-119823601D01*
X85366518Y-125385093D02*
X85402723Y-125400089D01*
X85366518Y-125675091D02*
X85327666Y-125680206D01*
X85402723Y-125400089D02*
X85433813Y-125423945D01*
X85402723Y-125660095D02*
X85366518Y-125675091D01*
X85433813Y-125423945D02*
X85457669Y-125455035D01*
X85433813Y-125636239D02*
X85402723Y-125660095D01*
X85457669Y-125455035D02*
X85472665Y-125491240D01*
X85457669Y-125605149D02*
X85433813Y-125636239D01*
X85472665Y-125491240D02*
X85477780Y-125530092D01*
X85472665Y-125568944D02*
X85457669Y-125605149D01*
X85477780Y-125530092D02*
X85472665Y-125568944D01*
X85944886Y-123423924D02*
X85950001Y-123385072D01*
X85950001Y-123385072D02*
X85964997Y-123348867D01*
X85950001Y-123462776D02*
X85944886Y-123423924D01*
X85964997Y-123348867D02*
X85988853Y-123317777D01*
X85964997Y-123498981D02*
X85950001Y-123462776D01*
X85988853Y-123317777D02*
X86019943Y-123293921D01*
X85988853Y-123530071D02*
X85964997Y-123498981D01*
X86019943Y-123293921D02*
X86056148Y-123278925D01*
X86019943Y-123553927D02*
X85988853Y-123530071D01*
X86056148Y-123278925D02*
X86095000Y-123273810D01*
X86056148Y-123568923D02*
X86019943Y-123553927D01*
X86095000Y-123273810D02*
X86133852Y-123278925D01*
X86095000Y-123574038D02*
X86056148Y-123568923D01*
X86133852Y-123278925D02*
X86170057Y-123293921D01*
X86133852Y-123568923D02*
X86095000Y-123574038D01*
X86170057Y-123293921D02*
X86201147Y-123317777D01*
X86170057Y-123553927D02*
X86133852Y-123568923D01*
X86201147Y-123317777D02*
X86225003Y-123348867D01*
X86201147Y-123530071D02*
X86170057Y-123553927D01*
X86225003Y-123348867D02*
X86239999Y-123385072D01*
X86225003Y-123498981D02*
X86201147Y-123530071D01*
X86239999Y-123385072D02*
X86245114Y-123423924D01*
X86239999Y-123462776D02*
X86225003Y-123498981D01*
X86245114Y-123423924D02*
X86239999Y-123462776D01*
X90638704Y-119823601D02*
X90638704Y-124176399D01*
X90638704Y-124176399D02*
X85361296Y-124176399D01*
%TO.C,SW5*%
X67925000Y-75975000D02*
X67925000Y-89975000D01*
X67925000Y-89975000D02*
X81925000Y-89975000D01*
X81925000Y-75975000D02*
X67925000Y-75975000D01*
X81925000Y-89975000D02*
X81925000Y-75975000D01*
%TO.C,SW4*%
X125075000Y-95025000D02*
X125075000Y-109025000D01*
X125075000Y-109025000D02*
X139075000Y-109025000D01*
X139075000Y-95025000D02*
X125075000Y-95025000D01*
X139075000Y-109025000D02*
X139075000Y-95025000D01*
%TD*%
M02*
