%TF.GenerationSoftware,KiCad,Pcbnew,9.0.3+dfsg-1*%
%TF.CreationDate,2026-07-01T08:39:52-07:00*%
%TF.ProjectId,index.circuit,696e6465-782e-4636-9972-637569742e6b,rev?*%
%TF.SameCoordinates,Original*%
%TF.FileFunction,Copper,L4,Bot*%
%TF.FilePolarity,Positive*%
%FSLAX46Y46*%
G04 Gerber Fmt 4.6, Leading zero omitted, Abs format (unit mm)*
G04 Created by KiCad (PCBNEW 9.0.3+dfsg-1) date 2026-07-01 08:39:52*
%MOMM*%
%LPD*%
G01*
G04 APERTURE LIST*
%TA.AperFunction,ComponentPad*%
%ADD10C,1.500000*%
%TD*%
%TA.AperFunction,SMDPad,CuDef*%
%ADD11R,0.540000X0.640000*%
%TD*%
%TA.AperFunction,ComponentPad*%
%ADD12C,2.500000*%
%TD*%
%TA.AperFunction,ComponentPad*%
%ADD13O,1.199998X1.999996*%
%TD*%
%TA.AperFunction,ComponentPad*%
%ADD14O,1.199998X1.799996*%
%TD*%
%TA.AperFunction,SMDPad,CuDef*%
%ADD15R,1.025000X1.400000*%
%TD*%
%TA.AperFunction,ComponentPad*%
%ADD16R,1.500000X1.500000*%
%TD*%
%TA.AperFunction,ViaPad*%
%ADD17C,0.600000*%
%TD*%
%TA.AperFunction,Conductor*%
%ADD18C,0.150000*%
%TD*%
G04 APERTURE END LIST*
D10*
%TO.P,SW_BOOT,1*%
%TO.N,BOOT_BTN*%
X133750000Y-113750000D03*
%TO.P,SW_BOOT,2*%
%TO.N,GND*%
X133750000Y-120250000D03*
%TO.P,SW_BOOT,3*%
%TO.N,N/C*%
X138250000Y-120250000D03*
%TO.P,SW_BOOT,4*%
X138250000Y-113750000D03*
%TD*%
D11*
%TO.P,C13,1*%
%TO.N,XOUT*%
X64510000Y-125000000D03*
%TO.P,C13,2*%
%TO.N,GND*%
X63490000Y-125000000D03*
%TD*%
%TO.P,C12,1*%
%TO.N,XIN*%
X64510000Y-119000000D03*
%TO.P,C12,2*%
%TO.N,GND*%
X63490000Y-119000000D03*
%TD*%
D12*
%TO.P,SW2,1*%
%TO.N,KEY1*%
X90165000Y-99485000D03*
%TO.P,SW2,2*%
%TO.N,GND*%
X96515000Y-96945000D03*
%TD*%
D10*
%TO.P,SW_RST,1*%
%TO.N,RUN*%
X133750000Y-123750000D03*
%TO.P,SW_RST,2*%
%TO.N,GND*%
X133750000Y-130250000D03*
%TO.P,SW_RST,3*%
%TO.N,N/C*%
X138250000Y-130250000D03*
%TO.P,SW_RST,4*%
X138250000Y-123750000D03*
%TD*%
D11*
%TO.P,C15,1*%
%TO.N,V3V3*%
X88510000Y-126000000D03*
%TO.P,C15,2*%
%TO.N,GND*%
X87490000Y-126000000D03*
%TD*%
D12*
%TO.P,SW7,1*%
%TO.N,KEY6*%
X109215000Y-80435000D03*
%TO.P,SW7,2*%
%TO.N,GND*%
X115565000Y-77895000D03*
%TD*%
D13*
%TO.P,J1,1*%
%TO.N,GND*%
X104325112Y-127594307D03*
D14*
%TO.P,J1,2*%
X104325112Y-131774131D03*
%TO.P,J1,3*%
X95674888Y-131774131D03*
D13*
%TO.P,J1,4*%
X95674888Y-127594307D03*
%TD*%
D12*
%TO.P,SW8,1*%
%TO.N,KEY7*%
X128265000Y-80435000D03*
%TO.P,SW8,2*%
%TO.N,GND*%
X134615000Y-77895000D03*
%TD*%
D11*
%TO.P,R_CC1,1*%
%TO.N,J1.A5 to R_CC1.pin1*%
X99260000Y-129000000D03*
%TO.P,R_CC1,2*%
%TO.N,GND*%
X98240000Y-129000000D03*
%TD*%
%TO.P,C1,1*%
%TO.N,V3V3*%
X70510000Y-115000000D03*
%TO.P,C1,2*%
%TO.N,GND*%
X69490000Y-115000000D03*
%TD*%
D15*
%TO.P,C11,1*%
%TO.N,V3V3*%
X83412500Y-129000000D03*
%TO.P,C11,2*%
%TO.N,GND*%
X81587500Y-129000000D03*
%TD*%
D11*
%TO.P,R_CC2,1*%
%TO.N,J1.B5 to R_CC2.pin1*%
X102260000Y-129000000D03*
%TO.P,R_CC2,2*%
%TO.N,GND*%
X101240000Y-129000000D03*
%TD*%
%TO.P,R_RUN,1*%
%TO.N,V3V3*%
X67510000Y-118000000D03*
%TO.P,R_RUN,2*%
%TO.N,RUN*%
X66490000Y-118000000D03*
%TD*%
%TO.P,C14,1*%
%TO.N,RUN*%
X67510000Y-126000000D03*
%TO.P,C14,2*%
%TO.N,GND*%
X66490000Y-126000000D03*
%TD*%
D12*
%TO.P,SW1,1*%
%TO.N,KEY0*%
X71115000Y-99485000D03*
%TO.P,SW1,2*%
%TO.N,GND*%
X77465000Y-96945000D03*
%TD*%
D16*
%TO.P,J_THUMB,1*%
%TO.N,ENC_A*%
X60000000Y-99080000D03*
D10*
%TO.P,J_THUMB,2*%
%TO.N,ENC_B*%
X60000000Y-96540000D03*
%TO.P,J_THUMB,3*%
%TO.N,ENC_SW*%
X60000000Y-94000000D03*
%TO.P,J_THUMB,4*%
%TO.N,SHIFT*%
X60000000Y-91460000D03*
%TO.P,J_THUMB,5*%
%TO.N,GND*%
X60000000Y-88920000D03*
%TD*%
D12*
%TO.P,SW3,1*%
%TO.N,KEY2*%
X109215000Y-99485000D03*
%TO.P,SW3,2*%
%TO.N,GND*%
X115565000Y-96945000D03*
%TD*%
D11*
%TO.P,C2,1*%
%TO.N,V3V3*%
X73510000Y-115000000D03*
%TO.P,C2,2*%
%TO.N,GND*%
X72490000Y-115000000D03*
%TD*%
%TO.P,C6,1*%
%TO.N,V3V3*%
X70510000Y-129000000D03*
%TO.P,C6,2*%
%TO.N,GND*%
X69490000Y-129000000D03*
%TD*%
%TO.P,C10,1*%
%TO.N,DVDD*%
X79510000Y-129000000D03*
%TO.P,C10,2*%
%TO.N,GND*%
X78490000Y-129000000D03*
%TD*%
D12*
%TO.P,SW6,1*%
%TO.N,KEY5*%
X90165000Y-80435000D03*
%TO.P,SW6,2*%
%TO.N,GND*%
X96515000Y-77895000D03*
%TD*%
D11*
%TO.P,C5,1*%
%TO.N,V3V3*%
X82510000Y-115000000D03*
%TO.P,C5,2*%
%TO.N,GND*%
X81490000Y-115000000D03*
%TD*%
%TO.P,C3,1*%
%TO.N,V3V3*%
X76510000Y-115000000D03*
%TO.P,C3,2*%
%TO.N,GND*%
X75490000Y-115000000D03*
%TD*%
%TO.P,R_BOOT,1*%
%TO.N,QSPI_SS*%
X85510000Y-126000000D03*
%TO.P,R_BOOT,2*%
%TO.N,BOOT_BTN*%
X84490000Y-126000000D03*
%TD*%
D12*
%TO.P,SW5,1*%
%TO.N,KEY4*%
X71115000Y-80435000D03*
%TO.P,SW5,2*%
%TO.N,GND*%
X77465000Y-77895000D03*
%TD*%
%TO.P,SW4,1*%
%TO.N,KEY3*%
X128265000Y-99485000D03*
%TO.P,SW4,2*%
%TO.N,GND*%
X134615000Y-96945000D03*
%TD*%
D11*
%TO.P,C7,1*%
%TO.N,V3V3*%
X73510000Y-129000000D03*
%TO.P,C7,2*%
%TO.N,GND*%
X72490000Y-129000000D03*
%TD*%
%TO.P,C9,1*%
%TO.N,DVDD*%
X76510000Y-129000000D03*
%TO.P,C9,2*%
%TO.N,GND*%
X75490000Y-129000000D03*
%TD*%
%TO.P,C4,1*%
%TO.N,V3V3*%
X79510000Y-115000000D03*
%TO.P,C4,2*%
%TO.N,GND*%
X78490000Y-115000000D03*
%TD*%
D17*
%TO.N,V3V3*%
X59912500Y-104350000D03*
X125877800Y-128479100D03*
X115050294Y-127700028D03*
X87988000Y-127021200D03*
X76518100Y-124524000D03*
X57287500Y-111000000D03*
X123087500Y-129000000D03*
X80610900Y-118575100D03*
%TO.N,DVDD*%
X79315200Y-125606600D03*
X76510000Y-127164200D03*
%TO.N,XOUT*%
X65006700Y-120097100D03*
%TO.N,USB_DM*%
X81738200Y-127840300D03*
X81738200Y-123400000D03*
%TO.N,USB_DP*%
X81097900Y-122861500D03*
X80843000Y-127851500D03*
%TO.N,KEY0*%
X79017400Y-117408900D03*
%TO.N,KEY1*%
X90342000Y-114827100D03*
%TO.N,KEY2*%
X109382600Y-114370300D03*
%TO.N,KEY4*%
X77451700Y-114256300D03*
%TO.N,KEY5*%
X84180200Y-110737700D03*
%TO.N,KEY6*%
X105885000Y-108894900D03*
%TO.N,GND*%
X62879900Y-119634500D03*
X115999492Y-130299972D03*
X108912500Y-129000000D03*
X103405218Y-126262040D03*
X58087500Y-108633600D03*
X124912500Y-129000000D03*
X120595000Y-129844400D03*
X60712500Y-111000000D03*
%TO.N,KEY7*%
X123537000Y-105929600D03*
%TO.N,ENC_A*%
X62278500Y-114046700D03*
%TO.N,ENC_B*%
X64772700Y-115139300D03*
%TO.N,ENC_SW*%
X67077000Y-116918200D03*
%TO.N,SHIFT*%
X63222000Y-117923400D03*
%TO.N,LED_DIN*%
X74313000Y-114842500D03*
X73460300Y-124199900D03*
%TO.N,RUN*%
X67645200Y-123799800D03*
%TO.N,BOOT_BTN*%
X84490000Y-122981800D03*
%TO.N,VBUS*%
X108912500Y-131079100D03*
%TO.N,J1.A5 to R_CC1.pin1*%
X99321300Y-129796900D03*
%TO.N,QSPI_SS*%
X85013300Y-126880200D03*
X84634300Y-119273300D03*
%TO.N,J1.B5 to R_CC2.pin1*%
X102353900Y-129788000D03*
%TO.N,QSPI_SD1*%
X80479100Y-126873600D03*
X80479100Y-119800000D03*
%TO.N,QSPI_SD2*%
X89006700Y-127113600D03*
X89019500Y-120185500D03*
%TO.N,XIN*%
X66607300Y-120599600D03*
X64345900Y-123919400D03*
%TD*%
D18*
%TO.N,V3V3*%
X82013300Y-115000000D02*
X82013300Y-115496700D01*
X79510000Y-115000000D02*
X80006700Y-115000000D01*
X88510000Y-126000000D02*
X88013300Y-126000000D01*
X69495900Y-114014100D02*
X68993300Y-114516700D01*
X80610900Y-118575100D02*
X81295200Y-118575100D01*
X67510000Y-118000000D02*
X68006700Y-118000000D01*
X76237300Y-115000000D02*
X76013300Y-115000000D01*
X72962800Y-115547200D02*
X71553900Y-115547200D01*
X76013300Y-115000000D02*
X76013300Y-114503300D01*
X82673300Y-119953200D02*
X81295200Y-118575100D01*
X73510000Y-115000000D02*
X72962800Y-115547200D01*
X87738400Y-126771600D02*
X87988000Y-127021200D01*
X80574900Y-115568200D02*
X80006700Y-115000000D01*
X70510000Y-129000000D02*
X70758400Y-129000000D01*
X70758400Y-120751700D02*
X68006700Y-118000000D01*
X73510000Y-129000000D02*
X72963300Y-128453300D01*
X70013300Y-115448300D02*
X70013300Y-115000000D01*
X71553400Y-128453300D02*
X71006700Y-129000000D01*
X70758400Y-129000000D02*
X71006700Y-129000000D01*
X70758400Y-129000000D02*
X70758400Y-120751700D01*
X68993300Y-115597700D02*
X69863900Y-115597700D01*
X70510000Y-115000000D02*
X70013300Y-115000000D01*
X75524100Y-114014100D02*
X69495900Y-114014100D01*
X76013300Y-114503300D02*
X75524100Y-114014100D01*
X59912500Y-111000000D02*
X59912500Y-104350000D01*
X81295200Y-118575100D02*
X81295200Y-115568200D01*
X68006700Y-118000000D02*
X68993300Y-117013400D01*
X70510000Y-115000000D02*
X71006700Y-115000000D01*
X76510000Y-115000000D02*
X76237300Y-115000000D01*
X81295200Y-115568200D02*
X80574900Y-115568200D01*
X83412500Y-129000000D02*
X82673300Y-129000000D01*
X85510000Y-129000000D02*
X87738400Y-126771600D01*
X76237300Y-115000000D02*
X76518100Y-115280800D01*
X82673300Y-129000000D02*
X82673300Y-119953200D01*
X64863800Y-117446700D02*
X66956700Y-117446700D01*
X82510000Y-115000000D02*
X82013300Y-115000000D01*
X68993300Y-117013400D02*
X68993300Y-115597700D01*
X88013300Y-126496700D02*
X88013300Y-126000000D01*
X59912500Y-112495400D02*
X64863800Y-117446700D01*
X87738400Y-126771600D02*
X88013300Y-126496700D01*
X81941800Y-115568200D02*
X81295200Y-115568200D01*
X72963300Y-128453300D02*
X71553400Y-128453300D01*
X69863900Y-115597700D02*
X70013300Y-115448300D01*
X76518100Y-115280800D02*
X76518100Y-124524000D01*
X59912500Y-111000000D02*
X59912500Y-112495400D01*
X83412500Y-129000000D02*
X85510000Y-129000000D01*
X82013300Y-115496700D02*
X81941800Y-115568200D01*
X66956700Y-117446700D02*
X67510000Y-118000000D01*
X68993300Y-114516700D02*
X68993300Y-115597700D01*
X71553900Y-115547200D02*
X71006700Y-115000000D01*
%TO.N,DVDD*%
X77006700Y-129000000D02*
X77553400Y-128453300D01*
X76510000Y-129000000D02*
X76510000Y-127164200D01*
X79434200Y-128453300D02*
X79510000Y-128529100D01*
X76510000Y-129000000D02*
X77006700Y-129000000D01*
X77553400Y-128453300D02*
X79315200Y-128453300D01*
X79510000Y-129000000D02*
X79510000Y-128529100D01*
X79315200Y-128453300D02*
X79315200Y-125606600D01*
X79315200Y-128453300D02*
X79434200Y-128453300D01*
%TO.N,XOUT*%
X64510000Y-125000000D02*
X65006700Y-125000000D01*
X65006700Y-125000000D02*
X65006700Y-120097100D01*
%TO.N,USB_DM*%
X81738200Y-127840300D02*
X81738200Y-123400000D01*
%TO.N,USB_DP*%
X81097900Y-122861500D02*
X81097900Y-127596600D01*
X81097900Y-127596600D02*
X80843000Y-127851500D01*
%TO.N,KEY0*%
X77904900Y-115484300D02*
X77904900Y-116296400D01*
X71115000Y-99485000D02*
X71786600Y-100156600D01*
X77904900Y-116296400D02*
X79017400Y-117408900D01*
X71786600Y-109366000D02*
X77904900Y-115484300D01*
X71786600Y-100156600D02*
X71786600Y-109366000D01*
%TO.N,KEY1*%
X90342000Y-99662000D02*
X90342000Y-114827100D01*
X90165000Y-99485000D02*
X90342000Y-99662000D01*
%TO.N,KEY2*%
X109382600Y-99652600D02*
X109382600Y-114370300D01*
X109215000Y-99485000D02*
X109382600Y-99652600D01*
%TO.N,KEY4*%
X71115000Y-80435000D02*
X71222700Y-80542700D01*
X71222700Y-93403100D02*
X77451700Y-99632100D01*
X77451700Y-99632100D02*
X77451700Y-114256300D01*
X71222700Y-80542700D02*
X71222700Y-93403100D01*
%TO.N,KEY5*%
X84180200Y-110737700D02*
X84180200Y-93138000D01*
X84180200Y-93138000D02*
X90342100Y-86976100D01*
X90342100Y-86976100D02*
X90342100Y-80612100D01*
X90342100Y-80612100D02*
X90165000Y-80435000D01*
%TO.N,KEY6*%
X109382800Y-95405800D02*
X105885000Y-98903600D01*
X109382800Y-80602800D02*
X109382800Y-95405800D01*
X109215000Y-80435000D02*
X109382800Y-80602800D01*
X105885000Y-98903600D02*
X105885000Y-108894900D01*
%TO.N,GND*%
X98736700Y-128503300D02*
X98736700Y-129000000D01*
X81587500Y-129000000D02*
X81105800Y-129000000D01*
X63986700Y-125496700D02*
X63986700Y-125000000D01*
X78986700Y-129496700D02*
X78986700Y-129000000D01*
X68993300Y-129000000D02*
X68993300Y-128503300D01*
X75738400Y-129000000D02*
X74993300Y-128254900D01*
X64490000Y-126000000D02*
X63986700Y-125496700D01*
X73174200Y-114315800D02*
X72986700Y-114503300D01*
X75490000Y-115000000D02*
X74993300Y-115000000D01*
X82865300Y-114431800D02*
X87490000Y-119056500D01*
X134734400Y-120250000D02*
X133750000Y-120250000D01*
X63490000Y-125000000D02*
X63630000Y-125000000D01*
X73036700Y-129546700D02*
X72986700Y-129496700D01*
X74446600Y-129546700D02*
X73036700Y-129546700D01*
X81241700Y-115000000D02*
X81809900Y-114431800D01*
X79013300Y-116660000D02*
X79013400Y-116660000D01*
X134734400Y-120250000D02*
X134734400Y-97064400D01*
X71993300Y-115000000D02*
X71410000Y-114416700D01*
X98786700Y-128453300D02*
X98736700Y-128503300D01*
X58087500Y-90832500D02*
X58087500Y-108633600D01*
X80301600Y-129546700D02*
X79036700Y-129546700D01*
X78490000Y-114440600D02*
X78490000Y-115000000D01*
X79952400Y-117599000D02*
X79952400Y-127846600D01*
X69490000Y-129000000D02*
X68993300Y-129000000D01*
X72986700Y-129496700D02*
X72986700Y-129000000D01*
X70073300Y-114416700D02*
X69490000Y-115000000D01*
X66490000Y-126000000D02*
X64490000Y-126000000D01*
X63630000Y-125000000D02*
X63986700Y-125000000D01*
X77446600Y-129546700D02*
X76036700Y-129546700D01*
X81490000Y-115000000D02*
X81241700Y-115000000D01*
X100743300Y-129000000D02*
X100196600Y-128453300D01*
X77465000Y-96945000D02*
X78490000Y-97970000D01*
X80993300Y-115000000D02*
X80433900Y-114440600D01*
X97743300Y-129000000D02*
X95675000Y-129000000D01*
X78490000Y-97970000D02*
X78490000Y-114440600D01*
X74993300Y-115000000D02*
X74993300Y-114777900D01*
X81241700Y-115000000D02*
X80993300Y-115000000D01*
X63490000Y-124860000D02*
X63490000Y-119000000D01*
X63490000Y-119000000D02*
X62993300Y-119000000D01*
X58087500Y-114094200D02*
X62993300Y-119000000D01*
X60000000Y-88920000D02*
X58087500Y-90832500D01*
X134734400Y-129265600D02*
X134734400Y-120250000D01*
X75986700Y-129496700D02*
X75986700Y-129000000D01*
X62993300Y-119000000D02*
X62993300Y-119521100D01*
X78986700Y-115000000D02*
X79013300Y-115026600D01*
X62993300Y-119521100D02*
X62879900Y-119634500D01*
X75738400Y-129000000D02*
X75986700Y-129000000D01*
X58087500Y-111000000D02*
X58087500Y-108633600D01*
X63630000Y-125000000D02*
X63490000Y-124860000D01*
X58087500Y-111000000D02*
X58087500Y-114094200D01*
X74531200Y-114315800D02*
X73174200Y-114315800D01*
X77465000Y-77895000D02*
X77465000Y-96945000D01*
X72490000Y-129000000D02*
X72986700Y-129000000D01*
X71993300Y-129000000D02*
X71446600Y-129546700D01*
X81809900Y-114431800D02*
X82865300Y-114431800D01*
X133750000Y-130250000D02*
X134734400Y-129265600D01*
X70036700Y-129546700D02*
X69986700Y-129496700D01*
X95675000Y-131774000D02*
X95675000Y-129000000D01*
X101240000Y-129000000D02*
X100743300Y-129000000D01*
X95675000Y-129000000D02*
X95675000Y-127594000D01*
X78490000Y-129000000D02*
X78986700Y-129000000D01*
X71410000Y-114416700D02*
X70073300Y-114416700D01*
X78490000Y-129000000D02*
X77993300Y-129000000D01*
X72986700Y-114503300D02*
X72986700Y-115000000D01*
X87490000Y-119056500D02*
X87490000Y-126000000D01*
X80848300Y-129000000D02*
X80301600Y-129546700D01*
X79013400Y-116660000D02*
X79952400Y-117599000D01*
X69986700Y-129496700D02*
X69986700Y-129000000D01*
X74993300Y-128254900D02*
X74993300Y-115000000D01*
X74993300Y-129000000D02*
X74446600Y-129546700D01*
X72490000Y-129000000D02*
X71993300Y-129000000D01*
X80433900Y-114440600D02*
X78490000Y-114440600D01*
X71446600Y-129546700D02*
X70036700Y-129546700D01*
X79036700Y-129546700D02*
X78986700Y-129496700D01*
X72490000Y-115000000D02*
X71993300Y-115000000D01*
X77993300Y-129000000D02*
X77446600Y-129546700D01*
X75490000Y-129000000D02*
X74993300Y-129000000D01*
X78490000Y-115000000D02*
X78986700Y-115000000D01*
X69490000Y-129000000D02*
X69986700Y-129000000D01*
X79952400Y-127846600D02*
X81105800Y-129000000D01*
X134734400Y-97064400D02*
X134615000Y-96945000D01*
X74993300Y-114777900D02*
X74531200Y-114315800D01*
X72490000Y-115000000D02*
X72986700Y-115000000D01*
X98240000Y-129000000D02*
X97743300Y-129000000D01*
X81105800Y-129000000D02*
X80848300Y-129000000D01*
X98240000Y-129000000D02*
X98736700Y-129000000D01*
X79013300Y-115026600D02*
X79013300Y-116660000D01*
X76036700Y-129546700D02*
X75986700Y-129496700D01*
X100196600Y-128453300D02*
X98786700Y-128453300D01*
X68993300Y-128503300D02*
X66490000Y-126000000D01*
X75490000Y-129000000D02*
X75738400Y-129000000D01*
%TO.N,KEY7*%
X128440200Y-86976000D02*
X128440200Y-80610200D01*
X123537000Y-105929600D02*
X123537000Y-91879200D01*
X123537000Y-91879200D02*
X128440200Y-86976000D01*
X128440200Y-80610200D02*
X128265000Y-80435000D01*
%TO.N,ENC_A*%
X60000000Y-99080000D02*
X60000000Y-100056700D01*
X60000000Y-100056700D02*
X62278500Y-102335200D01*
X62278500Y-102335200D02*
X62278500Y-114046700D01*
%TO.N,ENC_B*%
X64772700Y-101312700D02*
X64772700Y-115139300D01*
X60000000Y-96540000D02*
X64772700Y-101312700D01*
%TO.N,ENC_SW*%
X60000000Y-94000000D02*
X67077000Y-101077000D01*
X67077000Y-101077000D02*
X67077000Y-116918200D01*
%TO.N,SHIFT*%
X59023300Y-92436700D02*
X59023300Y-113724700D01*
X59023300Y-113724700D02*
X63222000Y-117923400D01*
X60000000Y-91460000D02*
X59023300Y-92436700D01*
%TO.N,LED_DIN*%
X74313000Y-114842500D02*
X74313000Y-123347200D01*
X74313000Y-123347200D02*
X73460300Y-124199900D01*
%TO.N,RUN*%
X67134000Y-120817800D02*
X67134000Y-120381400D01*
X67134000Y-120381400D02*
X66986700Y-120234100D01*
X67510000Y-126000000D02*
X67013300Y-126000000D01*
X67510000Y-126000000D02*
X67510000Y-123935000D01*
X67510000Y-123935000D02*
X67645200Y-123799800D01*
X66986700Y-120234100D02*
X66986700Y-118000000D01*
X67013300Y-120938500D02*
X67134000Y-120817800D01*
X67013300Y-126000000D02*
X67013300Y-120938500D01*
X66490000Y-118000000D02*
X66986700Y-118000000D01*
%TO.N,BOOT_BTN*%
X84490000Y-126000000D02*
X84490000Y-122981800D01*
%TO.N,J1.A5 to R_CC1.pin1*%
X99260000Y-129000000D02*
X99260000Y-129735600D01*
X99260000Y-129735600D02*
X99321300Y-129796900D01*
%TO.N,QSPI_SS*%
X85510000Y-126000000D02*
X85013300Y-126000000D01*
X85013300Y-126000000D02*
X85013300Y-126880200D01*
X85510000Y-120149000D02*
X84634300Y-119273300D01*
X85510000Y-126000000D02*
X85510000Y-120149000D01*
%TO.N,J1.B5 to R_CC2.pin1*%
X102353900Y-129788000D02*
X102260000Y-129694100D01*
X102260000Y-129694100D02*
X102260000Y-129000000D01*
%TO.N,QSPI_SD1*%
X80479100Y-119800000D02*
X80479100Y-126873600D01*
%TO.N,QSPI_SD2*%
X89006700Y-120198300D02*
X89006700Y-127113600D01*
X89019500Y-120185500D02*
X89006700Y-120198300D01*
%TO.N,XIN*%
X65042700Y-119035000D02*
X66607300Y-120599600D01*
X64510000Y-119000000D02*
X64510000Y-119035000D01*
X64510000Y-119546700D02*
X64345900Y-119710800D01*
X64510000Y-119035000D02*
X64510000Y-119546700D01*
X64345900Y-119710800D02*
X64345900Y-123919400D01*
X64510000Y-119035000D02*
X65042700Y-119035000D01*
%TD*%
M02*
