M48
; DRILL file {KiCad 9.0.3+dfsg-1} date 2026-06-30T23:58:07-0700
; FORMAT={-:-/ absolute / metric / decimal}
; #@! TF.CreationDate,2026-06-30T23:58:07-07:00
; #@! TF.GenerationSoftware,Kicad,Pcbnew,9.0.3+dfsg-1
; #@! TF.FileFunction,MixedPlating,1,4
FMAT,2
METRIC
; #@! TA.AperFunction,Plated,PTH,ViaDrill
T1C0.300
; #@! TA.AperFunction,Plated,PTH,ComponentDrill
T2C0.800
; #@! TA.AperFunction,Plated,PTH,ComponentDrill
T3C1.000
; #@! TA.AperFunction,Plated,PTH,ComponentDrill
T4C1.500
; #@! TA.AperFunction,NonPlated,NPTH,ComponentDrill
T5C0.750
; #@! TA.AperFunction,NonPlated,NPTH,ComponentDrill
T6C1.700
; #@! TA.AperFunction,NonPlated,NPTH,ComponentDrill
T7C2.400
; #@! TA.AperFunction,NonPlated,NPTH,ComponentDrill
T8C4.000
%
G90
G05
T1
X57.287Y-111.0
X58.087Y-108.634
X59.912Y-104.35
X60.712Y-111.0
X62.278Y-114.047
X62.88Y-119.634
X63.222Y-117.923
X64.346Y-123.919
X64.773Y-115.139
X65.007Y-120.097
X66.607Y-120.6
X67.077Y-116.918
X67.645Y-123.8
X73.46Y-124.2
X74.313Y-114.843
X76.51Y-127.164
X76.518Y-124.524
X77.452Y-114.256
X79.017Y-117.409
X79.315Y-125.607
X80.479Y-119.8
X80.479Y-126.874
X80.611Y-118.575
X80.843Y-127.851
X81.098Y-122.861
X81.738Y-123.4
X81.738Y-127.84
X84.18Y-110.738
X84.49Y-122.982
X84.634Y-119.273
X85.013Y-126.88
X87.988Y-127.021
X89.007Y-127.114
X89.019Y-120.185
X90.342Y-114.827
X99.321Y-129.797
X102.354Y-129.788
X103.7Y-126.826
X105.885Y-108.895
X108.912Y-129.0
X108.912Y-131.079
X109.383Y-114.37
X115.05Y-127.7
X115.999Y-130.3
X120.595Y-129.844
X123.087Y-129.0
X123.537Y-105.93
X124.912Y-129.0
X125.878Y-128.479
T3
X60.0Y-88.92
X60.0Y-91.46
X60.0Y-94.0
X60.0Y-96.54
X60.0Y-99.08
X133.75Y-113.75
X133.75Y-120.25
X133.75Y-123.75
X133.75Y-130.25
X138.25Y-113.75
X138.25Y-120.25
X138.25Y-123.75
X138.25Y-130.25
T4
X71.115Y-80.435
X71.115Y-99.485
X77.465Y-77.895
X77.465Y-96.945
X90.165Y-80.435
X90.165Y-99.485
X96.515Y-77.895
X96.515Y-96.945
X109.215Y-80.435
X109.215Y-99.485
X115.565Y-77.895
X115.565Y-96.945
X128.265Y-80.435
X128.265Y-99.485
X134.615Y-77.895
X134.615Y-96.945
T5
X97.1Y-128.094
X102.9Y-128.094
T6
X69.845Y-82.975
X69.845Y-102.025
X80.005Y-82.975
X80.005Y-102.025
X88.895Y-82.975
X88.895Y-102.025
X99.055Y-82.975
X99.055Y-102.025
X107.945Y-82.975
X107.945Y-102.025
X118.105Y-82.975
X118.105Y-102.025
X126.995Y-82.975
X126.995Y-102.025
X137.155Y-82.975
X137.155Y-102.025
T7
X57.5Y-69.0
X57.5Y-131.0
X142.5Y-69.0
X142.5Y-131.0
T8
X74.925Y-82.975
X74.925Y-102.025
X93.975Y-82.975
X93.975Y-102.025
X113.025Y-82.975
X113.025Y-102.025
X132.075Y-82.975
X132.075Y-102.025
T2
X95.675Y-127.194G85X95.675Y-127.994
G05
X95.675Y-131.474G85X95.675Y-132.074
G05
X104.325Y-127.194G85X104.325Y-127.994
G05
X104.325Y-131.474G85X104.325Y-132.074
G05
M30
